<?xml version="1.0" encoding="UTF-8"?>
<svg id="Layer_2" data-name="Layer 2" xmlns="http://www.w3.org/2000/svg" viewBox="0 0 380.18 425.34">
  <g id="Layer_2-2" data-name="Layer 2">
    <g>
      <g>
        <path d="M165.73,363.59c-.49,0-.96.09-1.41.24-.53.17-1.06.35-1.6.5-6.64,2.36-11.47,3.15-15.06,3.64-2.59.45-5.62-.04-8.03.91-3,1.14-4.03,3.99-3.51,6.55-4.08,6.81-6.22,14.73-11.18,21.04-.9,1.14-1.96,2.13-3.07,3.06-.27.21-.53.42-.8.63-.14.1-.35.25-.62.44-3.68,2.44-6.38,3.39-7.79,3.76-2.37.6-6.77.57-9.81-.07-3.41-.71-6.67-1.94-9.98-2.98-4.62-1.66-2.81-.77-6.99-3.23-4.21-2.97-3.45-2.08-6.01-4.7-.21-.31-.52-.8-.74-1.22-1.52-4.57-1.32-7.21-1.02-9.32.23-.65-.01-.58,1.56-2.98.04-.04.07-.09.11-.13,0,0,0,0,.01,0,.15-.09.29-.19.44-.27.18-.09.31-.15.42-.2.43-.16.87-.3,1.32-.41,1.38-.41,3.47-.51,7.07-1.52.05-.01.07-.02.08-.03.43-.07.85-.14,1.28-.22,1.53-.25,3.05-.6,4.42-1.35,2.35-1.52,3.74-4.12,5.47-6.26,1.32-2.1,3.49-4.31,4.16-6.72,2.04-1.4,2.47-4.66.74-6.53-.41-.58-1.09-1.51-1.41-1.92-.09-.11-.14-.17-.18-.22-2.55-4.06-4.76-8.13-6.79-12.28-2.83-5.64-3.35-13.26-3.49-23.15-.18-2.28.58-5.08-.18-7.2-1.53-4.09-7.83-2.81-7.76,1.55-.53,5.3-.85,10.66-.68,15.99-.05.04-.09.07-.14.11-1.89,1.82-3.82,3.61-5.57,5.56-4.35,4.48-4.42,4.72-9.76,7.34-.24.07-.55.16-.85.22-.34.02-.67.01-1.01,0-.16-.03-.35-.07-.62-.12-1.42-.31-2.81-.75-4.17-1.27-1.19-.57-2.34-1.19-3.42-1.95-.18-.17-.36-.34-.5-.5-4.3-7.3-3-16.52.33-23.37,5-9.18,8.69-13.38,15.85-21.18.64-.66.95-1.37,1.03-2.07,4.59,1.11,9.29,1.78,13.98,2.2,6.75.3,13.55.04,20.27-.6,6.16-.78,12.21-2.36,18.15-4.13,4.93-1.72,9.62-4.06,14.18-6.59,4.33-2.43,8.18-5.59,11.95-8.79,5.09-4.16,9.6-8.98,13.34-14.39,8.67-12.82,12.97-23.66,13.11-39.96.06-6.08-.67-12.13-1.71-18.11-.68-3.38-1.78-8.89-4.81-14.79-2.53-4.75-2.5-4.37-4.32-6.79-.72-.87-1.46-1.8-2.3-2.62.44-1.02.93-2.19,1.11-2.67,3.71-9.49,6.01-20.5,1.33-30.07-5.11-12.25-19.79-18.44-32.42-15.62-10.3,2.72-15.26,9.05-18.43,17.61-.72,2.03-1.08,4.16-1.52,6.27-.45,0-.89.02-1.34.03-.89-.21-1.84-.3-2.7-.44-3.59-.75-7.29-.16-10.91.13-12.88,1.65-25.2,6.62-36,13.76-6.35,4.02-8.39,6.15-14.32,10.34-.69.51-1.38,1.02-2.08,1.52-1.48-2.31-3.44-4.27-5.64-5.91-4.45-3.81-10.49-5.29-16.25-4.57-14.22,1.06-25.97,11.34-28.14,25.56-1.04,6.21.07,12.66,2.89,18.26,1.78,3.79,4.13,7.46,7.7,9.79.45.25.92.43,1.4.55,0,0,.02,0,.03.01.53.24,3.23,1.16,4.04,1.38.22.1.44.19.67.27,2.16.99,4.34,2.04,6.63,2.68.06,1.53.45,3.07.63,4.59.17,1.44.42,3.68,1.2,7.51,1.14,4.52,2.61,8.96,4.31,13.31,3.06,7.56,7.14,14.84,12.44,21.05,6.56,7.3,14.89,12.89,24.12,16.23.73.29,2,.79,2.49.96.03.01.06.02.1.03-8.37,8.72-16.8,17.98-21.39,29.29-2.65,7.64-2.28,16.57,1.39,23.82,2.93,5.12,8.77,7.79,14.32,9.07,2.86.66,5.89.84,8.7-.16,3.64-1.42,7.14-3.46,9.98-6.16,1.28-1.34,2.67-3.05,3.97-4.82.04.19.07.39.11.58,1.22,4.71,3.48,9.05,6,13.19,1.38,2.02,2.92,4.29,4.58,6.05-2.01,3.49-4.75,7.4-5.89,8.69-.01,0-.02.01-.03.02-1.13.35-2.3.57-3.45.83-.01,0-.02,0-.04,0-.54.07-1.3.16-1.66.19-1.61.19-3.24.2-4.86.31-3.94.19-7.71,1.99-9.84,5.39-4.58,6.06-3.48,14.74-.55,21.3,2.28,4.32,6.53,7.03,10.47,9.69,3.02,1.88,6.38,3.09,9.77,4.1,6.43,2.07,13.1,3.8,19.92,3.39,7.27-.39,14.01-4.08,19.42-8.78,4.68-4.62,7.63-10.71,10.04-16.76,1.45-3.64,2.79-6.41,3.87-8.88,6.8-.55,13.73-1.45,19.86-4.59,1.9-1.02,3.67-2.29,5.18-3.84.08-.07.06-.06-.01,0,.65-.6,1.14-1.38,1.37-2.24.81-2.85-1.56-5.84-4.5-5.79ZM53.04,271.57c-7.54-5.65-12.24-15.18-14.81-21.24-2.48-6.5-4.26-13.25-5.49-20.1-.15-.7-.8-4.01-.96-4.67,0-.04-.01-.09-.02-.13-.02-.1-.02-.2-.03-.3,0-.32-.03-.65-.1-.98.8-2.24-.43-5.22-3.61-5.29-1.78-.12-2.67-.68-7.41-3.26,0,0,0,0,0,0-.56-.37-1.15-.7-1.67-1.09-.3-.21-.75-.54-1.1-.79-.12-.11-.25-.21-.37-.32-.08-.11-.17-.22-.27-.33-.17-.14-.34-.26-.51-.39.1.09.08.08-.09-.07-.24-.19-.48-.38-.73-.55.29.21.51.37.65.49-.12-.11-.28-.25-.49-.46-.25-.24-.55-.57-.77-.83-.47-.68-.89-1.38-1.28-2.11-8.27-14.63,2.26-28.34,14.03-29.79,6.65-.67,7.67.05,12.1,4.42,1.41,1.11,2.48,2.73,3.85,3.9,2.49,2.76,6.81,2.43,9.13-.43.62-.79,1.45-1.5,2.11-2.31,1.57-1.07,3.15-2.12,4.72-3.19,5.19-3.69,10.45-7.3,16.01-10.42,8.62-4.91,15.61-7.33,26.92-9.21-.45.05-.65.03.19-.03.16-.03.32-.05.48-.08-.12.03-.25.05-.38.07,4.24-.4,8.54-.07,12.67-1.35.36-.06.71-.14,1.05-.25,1.78-.03,3.61.17,5.28-.46,2.74-1.06,2.96-4.44,3.85-6.85,1.4-4.05,1.13-3.98,4-8.07,2.39-2.77,2.05-2.35,3.97-3.64,4.52-2.71,7.48-2.29,10.97-1.88,5.84,1.36,3.93.66,8.81,3.42,2.92,1.78,2.82,2,3.59,2.7,1.62,1.97,1.28,1.21,3.27,5.2.32.9.85,2.43.95,3.08.13.53.22,1.06.31,1.6.23,2.33.26,5.02-.39,8.52-.42,2.63-1.77,6.46-2.88,8.95-.6,1.57-1.69,2.9-2.19,4.52-.53,1.91.01,4.1,1.39,5.53.4.43.88.79,1.28,1.23.56.68,1.19,1.32,1.77,2,1.8,2.52,3.6,5.05,5.09,7.77,3.61,6.7,5.34,17.39,5.58,25.28.5,15.27-3.02,24.78-13.13,38.36-3.71,4.5-14.22,13.9-22.13,17.58-6.74,3.44-9.55,4.42-18.04,6.53-7.92,2.07-10.08,2.09-18.59,2.43-17.94,1.62-35.5-3.26-46.58-12.74Z"/>
        <path d="M103.09,162.12s-.03,0-.05,0c-.06.01-.12.02-.19.03.09-.01.19-.02.29-.04-.02,0-.03,0-.05,0Z"/>
        <path d="M16.6,212.63s.06.05.09.07c-.04-.03-.09-.08-.16-.13.02.02.05.05.07.06Z"/>
      </g>
      <path d="M271.94,264.48c-.83-.16-1.68-.13-2.42.32-.15.09-.12.09-.02.06-1.17.52-2.27,1.2-3.41,1.77-17.52,10.08-34.18,21.92-52.98,29.59-10.81,4.59-20.96,6.99-32.68-1.04-1.94-1.4-1.96-1.18-4.68-4.46-.33-.49-.83-1.25-1.12-1.83-.11-.32-.21-.67-.28-.97.09-.43.21-.85.35-1.27.15-.3.31-.59.48-.87,3.06-3.49,8.72-6.21,15.02-10.1,8.5-5.37,16.84-11.14,23.88-18.38,3.28-3.18,6.38-6.53,9.19-10.13,1.05-1.68,2.92-3.1,3.16-5.15.7-4.34-5.46-6.41-7.62-2.57-1.09,1.72-4.51,5.47-8.36,9.27-.61-1.5-2.01-2.67-3.26-3.64-5.48-3.73-12.32-4.4-18.74-5.21-3.55-.38-7.11-.72-10.68-.7-1.83.11-3.83-.15-5.56.52-4.34,1.62-2.97,8.29,1.64,8.22,8.02-.04,9.97.56,17.67,1.85,5.35,1.04,7.33,1.43,10.01,2.85.43.24,1.12.51,1.49.65.25.11.5.21.74.33.33.17.67.32,1.02.45-1.2,1.07-2.36,2.05-3.4,2.88-3.2,2.48-7.35,5.29-13.05,8.84-7.06,4.46-15.24,7.58-21.06,13.73-3.91,4.76-4.11,9.5-2.27,13.74-1.53-2.96-3.26-5.82-5.26-8.48-3.21-4.42-7.46-8.06-12.56-10.09-.44-.19-.88-.38-1.33-.54,1.79.73.44.16-.5-.22-.92-.5-2.02-.64-3.02-.37-3.47.85-4.12,5.79-1.01,7.53.07.05.14.11.21.16.07.06.14.11.22.17.39.33.79.64,1.18.97,1.5,1.33,3.03,2.65,4.42,4.1.33.35.64.72.84.96.04.06.08.11.12.17,3.18,4.86,6.09,9.9,8.36,15.25.86,2.16,1.63,4.35,2.22,6.6.74,2.61,1.52,5.22,1.98,7.9.33,2.95.07,4.05.04,5.23,0,.02,0,.03,0,.05-.59,3.46-.57,3.07-1.35,4.87-.53,1.56-5.35,5.86-5.94,6.19-5.87,3.76-8.54,4.2-13.69,2.96-6.44-1.84-3.38-.77-7.91-2.78-3.79-2.26-2.94-1.71-6.81-5.27-7.19-6.64-11.7-16.43-12.46-21.23-.66-6.57-.2-7.61.71-12.65.21-1.52,1.09-3,.77-4.54-.53-5.04-7.9-5.47-9.16-.56-2.48,7.93-3.6,16.68-.96,24.7,4.13,11.61,12.48,21.98,23.6,27.5,3.25,1.47,6.69,2.43,10.23,2.86,3.55.56,7.21.76,10.73-.11,6.07-1.5,11.27-5.32,15.33-9.97,3.04-2.76,4.91-6.53,5.92-10.47,1.42-5.33.77-10.85-.13-16.21-.25-1.36,0,.05.07.67-.58-4.57-2.06-9.01-3.81-13.26-.06-.13-.13-.26-.2-.39,2.61,4.54,7.46,8.39,12.31,10.9,7.58,3.99,14.52,5.33,21.37,4.83.95,3.66,1.43,4.52,1.45,8.35.13,2.39-.85,5.01.37,7.22,1.35,2.67,5.25,3.28,7.33,1.11,1.4-1.24,1.53-3.28,1.68-5.04,0-3.52-.97-6.99-2.13-10.29-.26-.9-.52-1.8-.77-2.7,3.83-.99,7.71-2.45,11.73-4.24,16.07-6.93,30.88-16.51,44.8-27.05-.08.08,0,.04.39-.29.01-.01.02-.02.04-.03.11-.08.21-.16.32-.24-.05.03-.11.07-.16.11,4.06-3.41,5.5-4.14,8.36-7.3.27-.18.51-.4.69-.68,1.49-1.67.43-4.6-1.72-5.09Z"/>
      <g>
        <path d="M147.48,15.43c.05-.13.1-.25.15-.38-.06.12-.23.48-.34.83.04-.1.08-.2.12-.3.03-.06.04-.1.07-.15Z"/>
        <g>
          <path d="M131.79,124.74s-.03,0-.04,0h0s.03,0,.04,0Z"/>
          <g>
            <path d="M355.23,172.16c-.29-.17-.6-.31-.95-.39.22.11.65.26.95.39Z"/>
            <path d="M355.23,172.16s0,0,0,0c.02,0,.04.01.06.02-.02,0-.04-.02-.06-.03Z"/>
            <path d="M374.82,294.31c-2.95-8.54-4.93-12.68-9.64-21.81-11.13-20.65-22.6-33.77-34.48-48.84-7.74-9.25-11.68-12.99-16.9-22.27-2.08-4.31-1.42-3.45-3.51-9.27.19.48.7,1.83.39.71-.34-1.31-1.24-2.49-2.4-3.2,6.69-4.73,12.73-10.33,17.87-16.69,7.3,2.87,15.05,5.57,23.39,6.55.94.11,1.89.22,2.84.33.26.05.51.09.77.09.03,0,.06,0,.09.01-.03,0-.06,0-.09-.01.74.01,1.49-.16,2.14-.53,1.95-1.06,2.68-3.75,1.55-5.66-.42-.64-.96-1.19-1.6-1.57-1.54-.64-3.11-1.22-4.66-1.84-6.08-2.04-12.21-3.94-18.3-5.99,3.21-5.16,5.78-10.69,7.66-16.46,5.97.59,13.37,1.38,17.85.23,2.24-.74,2.83-3.96,1.15-5.57-.26-.23-.55-.43-.85-.59.03,0,.07.02.1.03-.06-.02-.11-.04-.17-.06-.27-.14-.55-.26-.84-.32-2.21-.84-4.52-1.32-6.85-1.73-2.7-.4-5.4-.63-8.11-.76.03-.14.06-.28.09-.42,2.91-13.37,3.38-27.38.58-40.81-1.46-5.92-3.77-11.65-6.8-16.95-.08-.11-.17-.22-.25-.33.08.07,0-.08-.42-.68-2.8-4.35-6.07-8.39-8.74-12.82-3.11-4.57-3.5-15.07-5.32-23.95-1.63-7.17-2.31-14.53-3.96-21.69-1.49-4.58-3.23-9.27-6.03-13.2.28.37.55.73.83,1.1-.21-.35-.43-.7-.64-1.05-12.15-18.67-28.06-1.81-38.98,11.21-2.54,3.04-4.93,6.2-7.11,9.49-7.56-.55-11.67-1.06-21.09-1.31-17.36-.92-40.21,5.09-52.78,6.24-.05,0-.1,0-.15,0-.25-.59-.49-1.19-.78-1.75-.19-.47-.44-.91-.73-1.32,0-.04-.14-.28-.46-.81-2.05-3.41-3.6-7.09-5.69-10.48-2.25-3.72-4.97-7.13-7.85-10.38-2.9-3.21-6.06-6.62-10.34-7.86-4.82-1.24-9.87,1.36-12.95,5.01-2.15,2.6-3.74,5.59-5.02,8.71.05-.1.03-.02-.15.38-.08.2-.16.39-.24.59.01-.04.03-.09.04-.14-1.87,4.42-3.04,9.09-4.22,13.73-2.07,8.5-3.62,17.13-4.62,25.82-.27,2.67-.5,5.35-.81,8.02-.02.13-.03.26-.05.38-.17.94-.33,1.88-.62,2.78-.02.04-.03.06-.05.1-.11.21-.23.41-.34.58-1.08,1.16-2.23,2.26-3.26,3.47-.69.61-1.25,1.39-1.87,2.04-3.19,3.71-1.52,1.78-4.54,5.63-4.14,5.34-7.54,11.26-9.86,17.61-1.25,3.7-2.18,7.51-2.82,11.38-.79-.11-1.58-.21-2.37-.31-5.95-.57-11.92-1.07-17.9-.77-2,.26-4.18-.07-6.06.68-4.96,1.89-3.42,9.43,1.87,9.39,9.91-.07,12.65.78,22.35,2.28.4.05.8.09,1.2.14.11,2.99.5,5.97,1.04,8.92-.44.07-.87.15-1.31.22-2.58.39-7.31,1.1-12.53,2.01-4.25.81-8.76,1.57-12.57,3.67-3.57,2.52-.72,8.28,3.47,7.11,6.81-2.62,14.15-3.1,21.29-4.28,1.01-.16,2.21-.4,3.51-.69.38,1.38.78,2.76,1.23,4.13.45,1.51.99,3.13,2.47,3.91,3.32,1.99,7.53-1.28,6.48-4.97-.49-1.89-.91-3.68-1.26-5.39,3.44-1,6.39-1.96,7.47-2.42,2.71-.64,3.23-4.52.79-5.86-.53-.26-1.1-.42-1.67-.42-.06,0-.12.02-.18.02.06,0,.12-.02.18-.02-.23,0-.45.03-.68.09-1.42.17-2.84.39-4.25.65-.94.15-1.88.32-2.81.49-.22-2.23-.31-4.33-.27-6.35.12,0,.23,0,.35,0,.56.02.54,0,.32-.02,1.35.07,2.71-.19,4.06-.25.78-.07,1.56-.2,2.34-.33.16-.02.33-.04.49-.08.03,0,.05,0,.08-.01-.02,0-.05,0-.07.01.69-.17,1.33-.51,1.83-1.01,1.85-1.74,1.41-4.99-.8-6.23-.32-.18-.65-.32-.99-.4-.04-.02-.08-.03-.12-.05-2.05-.74-4.15-1.34-6.26-1.87.06-.27.12-.55.18-.82,1.97-8.97,2.75-10.56,7.54-18.6,1.86-3.28,4.03-6.36,6.18-9.45.65-1.13,1.59-2.16,2.24-3.31.27-.36.55-.71.82-1.07.6-.73,1.87-2.31,2.25-2.88,1.26-1.71,2.15-3.7,2.54-5.79,1.37-7.07,2.19-14.23,3.38-21.33,1.38-7.71,2.98-15.39,4.86-22.99,1.77-5.45,1.49-5.23,3.68-9.2.33-.56.68-1.11,1.06-1.64.3-.34.72-.8,1.07-1.11,1.35-.88,1.83-1.06,2.17-1.12.12,0,.23,0,.35,0,.11.03.22.05.34.08.07.03.12.04.18.06.32.16.63.33.93.52.09.06.14.09.2.14.22.19.44.39.66.59,4.35,4.41,5.97,6.83,8.09,9.87,4.71,8.07,4.25,8.36,6.38,13.25.31.87.25.91,1.74,3.94.55,1.25,1.16,2.45,2.05,3.49,2.18,2.57,5.87,2.88,9,2.35,1.86-.16,11.47-1.57,17.48-2.65,9.25-1.4,16.03-2.78,22.39-3.31,8.47-.75,17.01-.38,25.49.13.13.02.23.03.31.04.78.12,1.56.24,2.34.37,3.83.41,8.45,2.12,11.55-1.04,2.1-2.31,3.3-5.28,5.21-7.73,3.73-5.03,7.28-9.7,13.78-16.15,2.94-2.49,1.55-1.68,5.57-3.89.52-.16,1.11-.29,1.49-.38.16,0,.31-.03.47-.03.03,0,.04,0,.07,0,.07.02.14.02.21.04.04.01.08.03.13.05.2.11.49.27.77.45.12.11.28.26.49.45.3.32.49.54.61.68.74,1.15,1.73,3.12,1.66,2.86.7,1.64,1.56,3.22,2.24,4.87,2.01,4.87,2.78,10.08,3.51,15.26,1.03,6.09,2.37,12.13,3.36,18.23.87,4.23,1.31,8.55,2.47,12.71,1.44,4.34,3.78,8.29,6.09,12.21,4.76,8.09,7.57,12.64,9.54,18.18,2.46,7.87,2.51,9.57,2.97,16.09.28,5.14.26,10.32-.31,15.44-.32,2.68-.9,7.02-1.84,11.81-5.75.18-11.5.54-17.22.58-1.96.05-3.91.07-5.87.06-1.28-.01-2.73-.16-3.69.87-1.92,1.78-.49,5.28,2.14,5.19,7.58.66,15.19.85,22.78,1.27-.6,2.19-1.28,4.34-2.05,6.35-.82,2.2-2.17,4.88-3.93,7.73-6.76-2.36-13.55-4.8-20.68-5.67-1.78-.1-3.73-.78-5.41,0-4.54,1.7-3.12,8.68,1.72,8.61,5.88.53,11.99,2.7,18.45,5.26-2.45,2.93-5.22,5.77-8.22,8.24-1.26,1.13-4.91,3.71-8.92,6.32-3,1.76-6.08,3.38-9.19,4.95-.39.23-1.25.61-1.91.88-.37.13-.73.26-1.1.39-2.31.81-5.24,1.17-7.67,1.86-3.51.03-5.44,4.46-2.88,7.02.8.74,1.81,1.22,2.9,1.24.16.02.33.04.49.06,2.78.4,5.64.73,8.35-.23,3.9-1.3,7.64-3.13,11.23-5.21.04.44.14.89.3,1.32-.06-.45-.12-.9-.18-1.35.69,5.09,2.76,9.95,5.01,14.53,2.67,4.89,6.34,9.12,9.79,13.47,5.68,6.47,11.09,13.15,16.58,19.77,3.49,4.08,12.23,15.12,12.34,15.34,3.24,4.5,6.14,9.25,9.24,13.85,7.79,12.92,11.62,20.97,15.51,35.17,1.51,6.35,2.24,13.74,1.38,22.82-.26,1.88-.6,3.75-1.05,5.6-.97,3.91-2.05,7.79-3.33,11.61-2.9,9.41-10.82,22.14-18.08,29.72-3.09,3.19-6.67,5.84-10.15,8.58-5.15,4.13-9.16,7.12-16.87,11.6-5.69,3.13-11.29,6.46-17.24,9.09-4.8,1.91-9.83,3.13-14.85,4.34-11.14,2.6-15.61,3.75-26.06,4.19-13.75.72-20.6-.04-33.68-3.46-7.32-2.38-7.72-2.75-14.08-5.44-5.62-2.36-11-5.21-16.17-8.45-6.64-4.07-6.91-3.94-12.1-8.77-5.44-5.63-5.72-6.04-9.71-11.75-2.53-4.1-1.99-3.19-2.85-5.95-.08-.31-.12-.62-.18-.93,0-.29,0-.56,0-.79.15-.73.33-1.46.37-2.19,0,0,0-.01,0-.02.09-.18.19-.35.3-.52.12-.13.23-.25.36-.38,0,0,.02-.01.03-.02.18-.08,1.01-.58,1.73-.94.05-.02.1-.04.18-.07,5.34-1.56,5.08-1.66,10.33-1.5.15.02.27.03.38.04,1.63.25,3.23.64,4.82,1.11,4.59,1.44,4.41,1.42,6.81,2.5,4.62,2.23,9.25,4.44,13.7,7,6.28,3.77,11.91,6.61,15.03,7.7,5.02,1.92,10.16,3.65,15.45,4.66,4.64.77,9.34.92,14.04.75,11.12-.12,22.25-1.42,32.91-4.68,9.98-2.88,19.6-6.99,28.5-12.36,2.02-1.19,4.03-2.4,6-3.69.85-.64,1.94-1.06,2.52-1.99,2.96-3.58-1.53-8.7-5.53-6.37-12.7,7.07-20.14,10.32-34.05,13.51-10.09,2.13-13.02,2.99-22.07,3.27-13.2.37-19.78.07-31.17-3.58-.04-.09-.07-.18-.11-.27,0-.04-.47-1.45-.68-2.39-.09-.59-.09-1.17-.08-1.42,0-.05.01-.1.02-.15.05-.36.13-.72.24-1.07.02-.04.05-.08.07-.12.07-.07.12-.16.19-.23.26-.26.49-.47.67-.63,3-1.98,1.52-1.16,5.19-2.34.69-.16,1.44-.29,1.5-.31.05,0,.11-.02.16-.02.12.01,2.19-.17,3.12-.1,2.32.04,4.65.42,6.95-.03,4.49-1.29,4.7-5.16,3.78-9.08-.2-1.38-.19-1.37-.72-4.81-.09-.76-.24-1.97-.29-2.53-.89-7.2-.59-12.11.34-16.07,1.88-9.58,2.82-11.85,7.68-19.69,2.8-4.19,5.08-7,10.95-11.97.24-.19.48-.38.72-.56-.15.13.54-.35,1.18-.78.77-.58,3.5-1.91,3.31-1.86,2.26-.94,2.58-1.06,6.81-2.25,1.92-.66,4.39-.31,6.02-1.55,3.09-2.13,1.35-7.29-2.43-7.19-13.22.58-24.34,5.73-32.4,16.36-5.32,6.37-9.12,13.59-11.32,21.24-.15-.11-.3-.22-.46-.33-4.45-3.34-10.6-2.65-15.71-1.44-4.85,1.6-8.85,4.85-12.74,8.07-2.04-1.32-3.93-2.88-6.04-4.1-.45-.28-.9-.59-1.36-.88.67-3.7-.28-7.46-1.24-11.03-.35-1.18-.77-2.34-1.26-3.47-.35-.87-.67-1.85-1.53-2.35-2.75-2.36-7.12.6-6.1,4.05,1.93,4.76,2.08,9.09,1.84,9.78-.67,4.6-.18,2.1-.74,5.02-.2.65-.34,1.35-.18,2.02.42,2.67,2.38,3.75,4.22,3.73-.01,0-.03,0-.04.01.03,0,.06,0,.09,0,.31,0,.62-.04.92-.1.01,0,.02,0,.03-.01,1.91,1.11,3.82,2.21,5.63,3.48,2,1.3,4.07,2.78,6.52,2.94,2.7-.03,4.54-2.32,6.61-3.77-1.02.77-.91.69.06-.03,3.07-2.39,6.99-4.44,7.65-4.47.5-.26,1.93-.54,2.61-.67,1.5-.16,3.01-.3,4.51-.21.14.03.29.06.43.11.47.19,1.2.68,1.54.92.35.3.72.62,1.03.8.61.35,1.27.53,1.93.58-.75,6.04-.56,12.26.67,18.46.17,1.35.41,2.69.71,4.01-.97-.06-1.94-.09-2.91-.03-4.14.23-8.32,1.22-11.9,3.37-4.78,3-7.1,6.99-6.77,11.18-6.56-2.92-15.24-7.12-24.47-10.47-9.26-2.95-15.09-2.77-22.87-1.02-4.29,1.2-8.73,3.25-11.37,6.98-.21.29-.39.59-.55.91-.66.94-1.04,2.07-1.19,3.26-.55,2.94-.15,5.98.83,8.79,1.21,3.65,3.3,6.91,5.61,9.95,2.8,3.9,5.82,7.65,9.3,10.97,9.64,9.09,21.76,15.06,33.99,19.85,12.27,5.12,25.3,8.53,38.61,9.1,11.26.18,22.63-.42,33.61-3.05,6.78-1.52,13.64-2.89,20.13-5.45,8.55-3.4,16.37-8.37,24.24-13.09,7.13-4.73,9.09-6.43,14.72-10.88,3.63-2.94,7.4-5.74,10.62-9.14,9.44-10.63,17.22-22.97,21.36-36.63,2.57-8.1,4.5-16.5,4.27-25.05-.11-9.49-1.93-18.85-5.34-27.71Z"/>
          </g>
        </g>
      </g>
      <path d="M216.82,152.21c-.06.03-.25.12-.55.28-.22.1-.44.2-.65.3-2.69.96-1.97.76-3.8.74-.1,0-.17-.01-.24-.02-.22-.04-.42-.1-.59-.14-.65-.33-1.29-.7-1.9-1.1-.08-.07-.16-.13-.23-.2-.17-.17-.33-.35-.48-.54-.11-.18-.23-.36-.32-.54-.11-.34-.19-.69-.25-1.04-.06-.6-.04-1.22-.01-1.83.52-.27,1.06-.59,1.63-.98,3.22-2.12,6.39-4.43,8.56-7.68,4.89-7.39-2.17-11.67-7.75-13.57-3.17-.99-6.54-2.07-9.89-1.46-5.51.97-12.07,5.74-10.99,11.97.43,2.2,1.9,3.97,3.22,5.71,1.42,1.9,3.05,3.66,5.06,4.94,0,.11,0,.21,0,.32-.34,1.34-.61,2.37-.8,2.81-.12.13-.23.23-.33.32-1.8,1.27-.19.36-3.04,1.89-.15.07-.28.12-.4.18-.22.08-.44.16-.66.23-.19.05-.32.08-.44.11-.1,0-.19,0-.29,0-.14-.03-.31-.08-.49-.14-.23-.12-.73-.38-1.13-.63-.19-.16-.5-.44-.74-.71-.62-.62-1.08-1.48-1.98-1.71-2.08-1.01-4.65.8-4.59,3.08.03,1.7,1.41,2.97,2.42,4.2,2.4,2.38,5.83,3.84,9.23,3.39,2.35-.3,4.74-1.12,6.72-2.47.71.81,1.55,1.54,2.54,2.16,7.22,5.03,15.38.35,17.63-4.23,1.26-2.72-2.17-5.21-4.43-3.62ZM196.71,135.27s0-.02-.01-.03c.05-.09.09-.18.14-.26,3.25-3.28,5.71-3.4,13.49-1.08.02,0,.04.02.06.03.24.11.83.4,1.27.67.11.09.22.18.32.29,0,0,0,0,.01.02-.07.11-.13.21-.18.28-.36.45-.74.9-1.15,1.31-2.94,2.82-4.16,3.17-7.59,4.55.33-.14.67-.27,1-.41-.23.09-.47.17-.72.23-.67.11-1.24.33-1.73.6-.04,0-.08.02-.11.02-1.86-1.38-1.92-1.66-4.34-5.31-.17-.29-.33-.59-.48-.9Z"/>
      <path d="M259.47,127.32c-.67-2.69-3.42-5.09-6.28-4.56-1.85.17-3.18,1.3-3.86,2.73-2.41,1.89-3.86,5.1-3.08,8.09.97,3.54,5.01,6.08,8.52,4.51,3.98-1.66,5.28-6.84,4.71-10.78Z"/>
      <path d="M168.14,110.11c-3.44.15-5.87,2.97-6.62,5.93-1.12,1.97-1.4,4.47-.32,6.5,1.27,2.29,3.92,3.68,6.49,3.04,3.31-.97,5.27-4.39,6.36-7.46.92-3.77-1.96-7.91-5.91-8.01Z"/>
      <path d="M295.79,27.59c-5.48-5.85-11.35-.08-14.56,5-1.43,2.15-2.7,4.4-3.85,6.71-.49,1.21-1.41,2.33-1.49,3.66-.3,1.86.59,3.31,1.89,4.14.08,1.5.82,2.96,2.32,3.78,2.44,1.11,5.03,1.8,7.67,2.21,3.11.32,2.08.6,6.07.15,4.9-.65,6.64-4.65,6.58-9.17-.09-5.7-1.06-11.85-4.61-16.48ZM286.88,43.65c-.47-.24-.95-.5-1.44-.75,1.78-3.36,3.21-5.66,4.99-7.73.93,2.6,1.86,5.22,2.26,7.96.16,1.13.25,1.77.21,2.83-3.32-.82-2.78-.82-6.01-2.31Z"/>
      <path d="M176.07,41.12c-2.58-5.14-4.96-11.73-10.89-13.71-8.49-1.61-10.83,9.24-11.72,15.58-.32,2.12-.59,4.24-.87,6.36-.25,1.69-.67,3.41.26,4.98.86,1.53,2.3,2.25,3.76,2.3.21.18.43.34.67.48,2.25,1.29,4.74.19,7.05-.35,5.07-1.81,4.37-1.32,8.66-3.37,5.55-3.28,5.76-6.79,3.08-12.28ZM162.03,47.13c.5-3.99,1.17-8.38,1.83-10.72,1.98,2.72,3.6,5.68,5.27,8.59.08.12.19.31.31.52-2.9.69-4.02.59-7.41,1.6Z"/>
      <path d="M73.48,229.49c-2.43-.04-3.97,1.61-4.55,3.57-.9,1.98-.63,4.5.3,6.43.78,1.45,2.17,2.48,3.71,2.84,2.47,1.01,5.44-.57,6.03-3.21,0-.05,0-.1.02-.16,1.36-3.84-1.14-9.32-5.51-9.48Z"/>
      <path d="M145.09,211.06c-.06-.45-.17-.9-.32-1.33-.22-5.19-7.85-6.08-9.17-.95-1.49,4.2,1.7,10.2,7.1,7.73,2.08-1.2,2.77-3.35,2.39-5.46Z"/>
      <path d="M123.11,251.29c-1-3.23-2.42-6.32-3.89-9.36-.5-.89-.86-1.92-1.37-2.84.26-.25.52-.5.77-.77,4.18-4.46,4.82-9.94-.71-13.58-2.36-1.4-5.89-2.17-7.93-.37-.71-.21-1.5-.17-2.21.27-4.88,2.68-10.44,5.79-12.38,11.34-1.38,4.61,1.79,9.46,6.55,10.1,2.25.45,4.47-.15,6.53-1.05,2.45,4.41,4.48,9.26,8.07,12.83,1.98,1.75,5.42,1,6.66-1.29,1-1.69.51-3.54-.09-5.28ZM103.35,238.99c-.1,0-.22,0-.36,0-.23-.05-.46-.11-.69-.18-.05-.03-.11-.07-.17-.1-.04-.04-.08-.09-.13-.14-.02-.04-.04-.08-.07-.12-.02-.08-.05-.18-.07-.29,0-.1,0-.22,0-.36.03-.18.08-.35.13-.52,1.05-1.9,1.44-2.22,3.96-4.38,1.05-.78,2.15-1.5,3.26-2.19.15-.1.32-.2.48-.29.29.32.63.58,1,.8,0,0,0,0-.01,0,0,0,.01,0,.02,0,.12.07.24.13.36.18.74.37,1.47.75,2.18,1.17.04.04.08.08.12.12.02.03.04.06.05.1-.64,1.95-1.42,2.27-6.47,4.95-2.38,1.03-1.08.69-3.6,1.27Z"/>
      <path d="M153.1,157.84c-.29-2.99-2.8-5.04-5.12-6.63-2.36-1.46-5.21-.99-7.76-.36-4.23,1.07-7.56,4.59-8.3,8.91-.62,2.67,1.33,4.38,3.36,4.51-.06.13-.11.27-.15.41-.33,1.23.1,2.59,1,3.46-.02-.01-.05-.03-.06-.04,1.08,1.09,2.32,2.14,3.73,2.78,1.48.61,2.95,1.33,4.58,1.38,2.11-.04,4.21-.87,5.83-2.22,3.36-2.99,3.58-8.03,2.89-12.19ZM145.74,164.66c-.04.07-.08.14-.11.19-.01.01-.02.02-.03.04-.19.06-.43.12-.66.17h0c-.46-.22-1.28-.62-1.63-.86-1.41-.72-2.72-1.91-4.31-2.12-.07-.01-.14,0-.21-.02.07-.16.14-.3.19-.47.06-.39.3-1.1.44-1.52.1-.2.21-.38.3-.52.26-.3.54-.57.84-.83.07-.04.15-.09.24-.15.75-.39,1.81-.76,3.39-.82.35.21.6.41,1.52,1.42.52,2.08.29,1.54.47,2.89-.04.73.16.55-.44,2.6Z"/>
      <g>
        <path d="M39.86,192.24c-3.6-6.8-15.14-7.96-19.33-1.18-1.36,2.55-2.59,5.45-1.89,8.38,1.18,4.14,3.9,8.09,8,9.73,1.16.44,2.34,1.28,3.64.97.79-.07,1.45-.38,1.97-.84.73.09,1.49-.03,2.14-.4.9-.47,1.34-1.39,1.86-2.22.59-.97,1.26-1.88,1.69-2.94.86-1.96,1.92-3.9,2.27-6.03.03-.24.06-.53.09-.79.37-1.57.36-3.24-.43-4.68ZM27.15,199.28c-.09-.32-.17-.7-.23-1.01.22-.42.59-1.11.93-1.64.07-.07.18-.18.3-.31.11-.06.22-.13.33-.19.11-.03.24-.07.38-.1.28,0,.56,0,.84.01.4.08,1.17.23,1.79.41.3.16.59.32.87.51-.26.71-.85,1.95-2.25,5.38-1.06-.54-1.34-.78-1.58-1.03-.61-.73-.71-.65-1.38-2.02Z"/>
        <path d="M28.14,196.25s0,0,0,0c-.01,0-.02,0-.03.01,0,0,0,0,0,0,0,0,.02,0,.03-.01Z"/>
      </g>
    </g>
  </g>
</svg>