<?xml version="1.0" encoding="UTF-8"?>
<svg id="Layer_2" data-name="Layer 2" xmlns="http://www.w3.org/2000/svg" viewBox="0 0 565.91 425.89">
  <g id="Layer_2-2" data-name="Layer 2">
    <g>
      <path d="M295.43,54.6c-9.55-4.95-15.01,2.8-16.28,11.61-.45,2.77-.3,5.52.14,8.98-.53,1.62-.22,3.52,1.06,4.79,3.05,3.08,14.9,1.4,18.86.07,3.44-1.13,6.78-3.5,6.94-7.43,0-.06,0-.12,0-.18.21-1.37.18-2.79-.28-4.1-2.14-5.36-5.54-10.56-10.45-13.73ZM296.29,72.29c-.2.04-.4.06-.6.09-.03,0-.04,0-.07,0-2.68.34-5.39.2-8.07-.04-.12-.01-.29-.03-.48-.05.19-1.08.44-2.36.6-2.77.07-.7.77-2.72.99-3.39.36-.81.76-1.61,1.23-2.36.19.13.37.25.55.39-.18-.14-.36-.27-.53-.41,0,0,0,0,0-.01.23.18.46.35.69.52.59.47,1.16.96,1.69,1.49,2.1,2.02,4.28,3.96,6.29,6.07-.46.12-1.16.27-2.28.46Z"/>
      <path d="M271.36,243.83c.16-.01.11-.01,0,0h0Z"/>
      <path d="M534.94,192.72c1-1.93.17-.65,2.28-2.95,9.08-9.38,18.01-19.34,23.87-31.11,5.49-10.95,6.09-23.78,2.79-35.48-1.71-6.7-5.13-12.79-8.08-19-4.57-10-10.41-19.31-16.75-28.27-3.5-5.29-7.18-10.49-10.15-16.1-1.18-2.78-2.02-4.83-2.08-7.52.1-2.49.69-3.99,4.19-9.87,5.41-7.82,15.66-19.42,11.1-29.38-2.38-4.69-6.71-8.19-11.38-10.49-5.17-2.72-11.21-3.25-16.83-1.7-2.78.68-5.45,1.71-8.07,2.86-3.56,1.37-6.75,3.58-9.58,6.12-7.57,7.73-14.45,16.77-17.02,27.46-1.85,7.16-1.67,14.68.28,21.79,1.57,7.36,4.54,14.27,8.12,20.86,4.67,8.9,10.9,16.85,16.72,25.01,2.01,2.88,5.67,6.92,8.64,13,2.95,6.47,6.08,17.45,4.03,23.84-1.8,6.09-3.53,9.11-7.95,11.5-.13.04-.27.09-.42.14-3.33.89-5.9.23-10.07-1.61-3.65-1.81-7-4.16-10.63-5.99-6.43-3.26-13.14-6.04-20.03-8.19-10.25-2.93-21.04-3.77-31.67-3.61-9.35.37-18.59,2.09-27.7,4.14-11.83,2.49-23.42,7.01-32.62,15.04h0c-.24-5.68-1.05-11.33-1.88-16.95-.93-6.78-3.15-13.3-5.97-19.51-2.39-5.57-5.13-11.02-8.55-16.04-6.55-9.41-14.84-17.42-22.46-25.94-3.24-3.69-6.39-8.9-10.92-15.72-4.4-6.1-9.07-12.17-14.92-16.94-5.91-5.09-13.16-10.16-21.37-8.75-4.02.66-8.1,1.94-11.46,4.3-6.94,4.92-9.84,13.45-12.35,21.23-.48,1.66-.88,3.33-1.2,5.03-5.3-1.14-10.78-.72-16.14-.09-5.02.59-10.09,1.07-14.98,2.4-8.92,2.56-17.6,6.45-24.86,12.28-1.23-.88-2.64-1.58-3.84-2.45-8.84-5.41-20.56-9.25-30.6-5.05-4.63,1.91-9.22,5.05-11.37,9.72-4.82,12.21-.22,25.6,5.32,36.77.88,1.8,1.77,3.59,2.82,5.29.05.08.1.17.15.25-.05.14-.11.27-.15.43-2.57,8.31-5.59,16.6-6.67,25.27-1.88,15.64-1.5,32.16,4.92,46.77-6.86.81-13.62,2.5-20.1,4.91-4.84,1.74-5.3,1.9-9.17,3.7-1.67.87-3.97,1.37-4.45,3.46-.5,1.77.68,3.76,2.46,4.19.73.14,1.46.12,2.14-.15.46-.15,2.13-.76,2.63-.91,4.4-1.48,8.76-3.07,13.23-4.3,6.96-1.92,11.58-2.99,17.03-3.36,1.15,2.02,2.41,3.98,3.73,5.9-6.62,1.93-13.04,4.79-19.19,7.69-3.28,1.62-6.52,3.32-9.66,5.2-1.37.82-3.1,1.52-3.48,3.25-.62,2.18,1.19,4.47,3.44,4.43,2.39-.26,4.55-2.37,6.75-3.37,9.45-5.44,16.62-9.28,25.89-12.05.79,1,1.58,2,2.4,2.98-6.23,3.03-12.1,6.8-17.23,11.48-4.63,3.92-8.66,8.77-10.03,14.81-.54,2.61-.47,5.41.19,8.06-7.81,7.21-15.6,14.54-22.57,22.56-5.4,6.22-9.46,13.39-13.49,24.29-2.75,8.93-3.91,18.6-4.03,27.93.27,7.2,1.61,14.36,3.15,21.39.88,3.62,2.06,7.16,3.5,10.6-.12-.28-.15-.32.13.39,3.09,7.56,6.58,15.09,11.49,21.66,4.55,6.09,9.86,11.57,15.67,16.47-1.84,1.24-2.1,1.19-5.19,2.1-3.59.82-6.06.2-13.13-1.29-6.52-1.77-13.12-5.01-18.38-6.99-4.29-2-8.53-4.15-13.11-5.44-3.66-1.04-7.4-1.88-11.22-2.03-4.06-.06-8.13.37-12.14,1.02-8.7,1.76-15.97,7.2-23.13,12.13-4.28,2.79-8.61,3.82-9.91,3.86-3.01.31-6.06.13-9.06-.22-.09-.01-.18-.02-.29-.04-5.61-.77-6.09-1.07-12.33-2.12-4.36-.63-8.81-1.43-13.22-.75-9.59,1.11-11.44,11.36-5.16,17.78,7.67,7.76,22.7,8.51,33.09,8.43,7.58-.08,15.32-.19,22.51-2.88,3.97-1.37,7.71-3.31,10.9-6.07.32-.27.81-.65,1.12-.9,5.62-4.03,7.28-5.73,13.47-6.72,12.07-.89,15.14,6.29,31.22,12.59,11.12,4.92,23.46,7.92,35.64,6.25,6.7-1.49,12.66-5.4,17.75-9.9,1.25-1.26,3.01-2.24,3.67-3.94.06-.13.09-.26.14-.39.56.24,1.12.47,1.68.7,6.11,2.75,12.43,4.98,18.96,6.49,14.16,3.21,28.79-.15,42.49-3.97,16.34-4.68,31.92-12.86,43.96-24.98,6.56-7.01,11.94-15.09,16.66-23.44,4.41-9.01,7.92-18.63,9.38-28.59.82-5.54,1.2-11.15.38-16.71-.41-3.54-.71-7.14-1.86-10.54-.52-1.54-1.09-3.08-1.74-4.58,0-.02-.02-.04-.03-.07,8.73.08,17.46-.43,26.09-1.72,3.06-.42,6.13-.98,9.16-1.73.45.68,1.08,1.3,1.92,1.79,7.16,5.02,15.24,8.48,23.32,11.73,5.7,2.43,11.62,4.28,17.67,5.64,7.42,1.67,15.01,2.46,22.57,3.17,3.16.3,6.3-.15,9.43-.48-2.94,3.03-6.03,6.47-7.83,8.98-5.79,6.96-10.68,15.99-8.37,25.29,1.62,6.15,7.66,9.19,13.35,10.74,4.04,1.23,8.3,1.44,12.34.14,3.77-1.08,7.46-2.61,10.35-5.32,3.9-3.4,7.05-7.53,10.41-11.44,4.83-5.55,9.6-11.21,13.23-17.64,1.96-3.26,3.38-6.79,4.99-10.23,1.33-2.8,2.74-5.58,3.96-8.43,4.19,3.3,8.68,6.24,12.91,9.48,5.35,3.74,7.42,5.87,10.62,9.73.06.06.09.09.13.13.33.46.64.94.9,1.44,0,.03.02.07.03.1,0,.19.03.37.02.56,0,.07-.02.15-.02.22-.01.06-.03.12-.05.19-.04.09-.07.18-.11.27-1.4,2.95-3.51,5.51-5.45,8.12-3.16,4.07-3.76,4.92-5.76,8.08-3.09,4.82-6.62,9.79-6.68,15.74-.09,10.31,10.04,15.51,19.39,14.55,12.79-1.08,30.7-12.71,37.54-23.54,3.61-5.18,4.58-11.48,5.12-17.63.81-6.54.89-17.97,1.18-20.72.82-8.55,1.17-13,2.25-19.2,2.51-13.97,5.89-27.83,6.73-42.04.65-14.45-.31-21.81-2.88-34.75-1.01-5.58-2.42-11.07-3.74-16.59-.9-4.63-1.79-9.27-2.7-13.9-.01-.1-.02-.2-.03-.3-.02-.5-.12-1.11-.19-1.41-.03-.46-.03-.91,0-1.37,0,0,0,0,0-.01.03-.15.07-.31.11-.46ZM165.68,246.14c1.27-5.49,4.06-7.74,11.54-13.93.89-.64,2.81-1.99,3.45-2.34,1.72-1.07,3.49-2.08,5.29-3.02,1.26-.77,2.88-1.18,3.9-2.27,3.61,3.54,7.61,6.67,11.83,9.49-1.75,3.64-2.74,6.65-2.92,6.78-3.57,5.92-3.69,6.37-7.02,10.11-.47.5-.96.96-1.48,1.4-.41.27-.83.53-1.25.79-.71.41-1.42.81-2.17,1.15-.22.08-.5.17-.8.26-.31.1-.63.18-.96.25-5.79.53-8.87.87-12.15-.02-.44-.1-.87-.23-1.3-.37-.7-.34-1.37-.73-2.04-1.12-.59-.36-1.16-.74-1.71-1.15-.27-.24-.63-.57-.92-.9-.04-.05-.06-.07-.1-.12-.14-.22-.28-.44-.41-.67-.9-3.19-.8-2.5-.78-4.32ZM167.91,272.27c.34-1.93.87-3.82,1.46-5.68.15-.65.41-1.3.59-1.96,3.93,1.21,8.16,1.56,12.26,1.19,1.04.03,2.07-.01,3.1-.12-3.83,3.53-7.45,7.28-11.17,10.93-2.29,2.39-4.45,4.9-6.57,7.44-.35-4.09-.12-9.46.32-11.8ZM158.2,262.99c.98-1.07,1.96-2.12,2.96-3.17.34.29.68.58,1.04.85-.66.85-1.14,1.86-1.58,2.83-2.16,5.17-1.49,11-.47,16.36.17.64.36,1.28.57,1.91-2.46-2.66-4-4.68-5.47-6.63-1.14-1.59-2.25-3.19-3.22-4.89-.04-.06-.07-.13-.11-.19,2.08-2.37,4.17-4.73,6.29-7.07ZM144.95,278.16c.33-.4.67-.79.98-1.2.25-.29.51-.58.76-.87,2.83,4.42,6.16,8.53,9.75,12.34,1.31,1.45,2.84,2.65,4.34,3.89-.12.14-.24.29-.36.43-1.28,1.6-2.52,3.23-3.75,4.88-1.16-1.38-2.35-2.75-3.51-4.13-2.98-3.73-3.18-3.96-6.27-8.58-1.17-1.56-1.85-3.58-3.23-4.95.43-.61.85-1.22,1.29-1.81ZM136.66,291.29c.73-1.33,1.49-2.65,2.26-3.96,3.72,6.09,7.99,11.88,13.06,16.91-1.73,2.54-3.43,5.1-5.05,7.71-2.77-3.9-5.89-9.09-8.28-13.92-.52-1.16-1.22-3.58-2.23-6.27.08-.16.16-.31.25-.48ZM129.9,309.22c1.1-3.95,1.81-6.48,2.55-8.65,2.04,4.15,4.73,7.98,7.42,11.74-3.82.25-7.5,1.31-11.07,2.67.28-1.63.63-3.49,1.1-5.76ZM129.51,346.87c-.74-3.57-1.17-6.71-1.22-7.71-.46-4.23-.88-8.49-.75-12.75,1.75-.46,3.49-.93,5.27-1.29,2.41-.48,4.82-.92,7.22-1.4-4.25,7.37-7.87,15.08-10.51,23.15ZM141.18,366.15c-.65,1.8-1,3.67-1.14,5.57-.02.12-.04.25-.06.37-2.06-3.33-4.07-7.32-5.61-10.64.34-.9.44-1.43.56-2.03,1.15-3.95,2.54-7.81,3.88-11.7,2.19-7.52,5.74-14.1,10.63-23.08,9.36-17.17,17.99-28.68,30.3-42.67,9.09-9.59,19.4-19.75,28.55-25.47,4.16-2.69,8.31-5.4,12.53-8.02,2.12-1.45,4.62-2.5,6.59-4.14,5.32,1.3,10.73,2.2,16.22,2.28.02,0,.03,0,.05,0,1.01.36,2.13.8,3.27,1.29-13.12,7.56-29.79,18.31-38.94,25.43-5.83,4.49-11.11,9.62-16.38,14.74-8.69,8.24-16.74,17.09-23.87,26.71-11.54,15.52-20.5,32.99-26.55,51.36ZM206.09,250.26c.73-1.18,1.42-2.38,2.03-3.63,1.01-2.16,1.93-4.92,2.59-7.41,2.92,1.26,5.98,2.21,9.05,3.07-4.6,2.58-9.19,5.19-13.67,7.96ZM144.6,377.94s.07-.03.11-.05c.73-.48,1.31-1.12,1.57-1.96.03-.08.06-.15.09-.23.71-1.59,1.28-3.22,1.81-4.88,2.19-6.63,2.77-7.84,5.21-13.38,7.69-16.48,17.43-31.87,28.59-46.21,2.77-3.89,12.88-14.8,19.18-21.16,11.97-12.76,23.35-19.74,38.37-29.69,2.98-1.98,6.03-3.87,9.11-5.71,1.5-1.04,3.64-1.61,4.13-3.58.03-.11.05-.22.07-.33,1.24.68,2.23,1.3,2.72,1.74.56.43,1.09.88,1.62,1.34.66.6,1.32,1.21,1.99,1.79-1.04.28-2.07.59-3.09.96-7.56,2.92-15.59,7.67-18.53,15.63-1.05,2.94-1.22,5.93-.82,8.73-.13.08-.25.17-.37.26-.41.26-.83.51-1.25.75-3.57,1.94-8.33,4.47-13.47,7.77-9.41,6.35-17.99,13.9-26.11,21.82-4.88,4.86-8.93,10.44-13.11,15.89-6.98,9.12-13.46,18.64-17.96,29.26-3.44,7.74-9.71,23.6-9.2,31.21-3.62-2.92-7.66-6.74-10.66-9.97ZM253.17,318.41c-.39,3.08-2.35,13.89-3.86,20.58-.21.96-.63,1.95-.89,2.94-4.71-1.55-9.25-3.24-13.59-5.1,1.12-1.46,1.29-4.18,1.86-5.79,1.02-4.14,2.16-8.24,2.81-12.46,1.34-7.2,1.39-14.66-.42-21.79-.49-2.17-.95-4.34-1.48-6.5-.19-.69-.32-1.42-.66-2.05.54-.39,1.08-.79,1.59-1.18,1.22,2.6,2.85,4.75,4.5,6.11,3.14,2.71,6.74,4.72,10.56,6.23-.16,6.33.28,12.69-.43,19ZM219.66,308.31c-.33-1.5-.65-3-1.02-4.49-.09-.43-.21-.88-.4-1.28,2.2-2.02,4.44-4,6.74-5.9,1.12-.91,2.48-1.88,3.93-2.88,1.3,8.4,1.81,10,2.41,19.51.14,5.29-.26,10.58-.56,15.85-.1,1.53-.21,3.07-.36,4.6-.07.34-.11.71-.11,1.08-1.44-.67-2.87-1.36-4.26-2.07-2.51-1.29-5.04-2.56-7.56-3.86.18-.33.32-.7.41-1.12,2.17-6.22,2.03-13.05.77-19.45ZM213.76,317.5c-.31,2.74-1.1,5.48-1.28,8.24-3.8-2.05-7.54-4.19-11.14-6.56.96-1.06,1.98-2.16,3.08-3.31,3.1-3.02,6.19-6.07,9.31-9.07.39,3.56.51,7.14.03,10.71ZM176.52,353.53c3.13,3,6.35,5.93,9.66,8.75-5.19,3.76-13.88,7.7-18.24,8.9,1.85-4.66,3.88-8.79,7.06-14.76.49-.97,1-1.93,1.52-2.89ZM164.28,409c-2.98,2.69-2.67,2.4-4.58,3.8-4.54,3.18-8.11,4.2-10.55,4.39-6.49.19-9.7-.1-13.96-.88-8.9-1.91-12.45-3.93-16.87-5.66-6.54-2.53-12.12-6.93-18.43-9.91-5.96-2.77-12.83-3.64-19.26-2.16-5.77,1.26-10.44,4.91-15.02,8.44-2.94,2.19-1.35,1.32-4.75,3.26.34-.14.68-.28,1.01-.42-3.27,1.34-1.69.91-5.64,2.15-7.88,2.27-11.42,2.04-20.5,2.3-12.79.16-24.43-1.39-27.32-7.26-.04-.11-.09-.23-.12-.34-.03-.12-.04-.21-.06-.29,0-.16,0-.32,0-.49.02-.07.04-.14.06-.23.02-.03.03-.04.05-.08.04-.05.05-.07.08-.11.03-.04.07-.07.11-.1.09-.05.19-.1.3-.16.14-.05.28-.09.43-.13.07-.02.15-.04.22-.05.2-.03.34-.05.45-.07.04,0,.07,0,.12-.02,3.84-.18,5.2.19,6.69.35,10.36,1.42,20.62,5.76,31.19,4.04,10.76-1.72,16.93-8.75,23.2-12.74,6.93-4.6,11.17-4.71,16.74-5.4,5.36-.15,5.63-.02,10.43,1.27,4.69,1.55,4.45,1.47,8.95,3.71,3.39,1.87,7,3.32,10.5,4.97,7.76,3.68,10.42,5.03,19.18,6.64,6.29,1.05,12.95-.86,17.97-4.73.53-.39,1.08-.81,1.55-1.29,1.77,1.29,3.57,2.55,5.41,3.74,1.23.78,2.49,1.5,3.78,2.17-.46.42-.9.86-1.33,1.29ZM169.22,394.09c-.33.1-.85.21-.94.24-.21.04-.41.1-.6.2-.38.12-.71.33-.98.62-.03.03-.05.07-.08.1-2.15-1.14-4.47-2.48-6.56-3.87.16-.11.32-.22.46-.36.33-.33.58-.72.73-1.16,1.77-2.73,1.58-3.63,2.99-8.02.26-.82.51-1.6.75-2.35,1.54.73,3.34.31,4.98.19,6.78-.63,13-4.06,18.3-8.19,1.44-1.13,2.84-2.31,4.19-3.55.11-.1.22-.2.34-.3,3.16,2.43,6.4,4.74,9.76,6.88,1.25.79,2.54,1.52,3.84,2.22-3.64,3.13-5.38,4.34-11.12,7.64-2.23,1.41-4.61,2.59-7.04,3.61-2.27.87-3.42,1.35-7.98,2.69-3.7,1.08-7.33,2.37-11.04,3.4ZM213.11,404.41c-3.55,1.94-5.66,2.7-7.78,3.71-.73,0-1.48-.02-2.29-.04-4.68.14-18.07-4.74-25.43-7.76,5.1-.56,10.2-1.57,15.03-3.34,5.43-1.85,10.15-4.83,14.46-8.59,2.01-1.67,3.93-3.45,5.74-5.34.63-.76,1.46-1.4,1.99-2.23,1.83.82,3.66,1.63,5.48,2.46,4.06,1.8,8.06,3.74,12.2,5.35-1.44,2.68-1.66,2.72-4.66,5.98-4.71,4.72-7.51,6.1-14.74,9.81ZM230.46,404.84c1.31-.92,2.59-1.9,3.79-2.96,2.36-2.02,4.33-4.44,6.14-6.95.69-1.13,1.54-2.27,2.11-3.49,2.92.55,5.86.97,8.79,1.41,2.23.35,4.48.57,6.73.72-8.99,5.64-16.66,8.64-27.56,11.28ZM275.43,379.04c-2.53,3-5.37,5.71-8.4,8.19-.12-.03-.24-.06-.36-.08-1.5-.48-1.41-.16-4.28-.73-6.28-1.14-8.4-1.12-15.45-2.49-9.07-1.67-11.83-3.3-16.75-5.3-6.15-2.71-12.39-5.2-18.46-8.09-6.45-3.3-12.45-7.4-18.32-11.64-4.61-3.45-5.77-4.38-10.61-8.42-1.06-.76-1.92-1.85-3-2.58,2.25-3.63,4.67-7.15,7.21-10.59,9.49,8.14,19.99,15.12,30.85,21.3,8.02,4.61,16.22,8.91,24.91,12.12,6.3,2.53,12.95,4.02,19.62,5.18,4.83.72,9.71,1.48,14.59,1.21-.47.61-.98,1.23-1.57,1.91ZM282.82,368.2c-.63.99-1.17,1.86-1.67,2.65-1.01-.14-1.05-.1-3.39-.34-9.13-.72-17.8-2.03-28.37-5.08-9.95-3.33-16.81-6.69-27.23-12.02-10.22-5-24.11-13.96-30.98-19.34-.37-.25-.72-.57-1.06-.89,2.27-3.04,4.41-5.92,6.92-8.98,6.17,4.53,12.9,8.21,19.53,12,7.91,4.45,15.94,8.73,24.4,12.05,8.49,3.43,17.37,5.94,26.33,7.82,6.07.87,12.16,1.79,18.26,2.31.86,0,1.79.05,2.65-.07-1.71,3.58-3.55,6.91-5.39,9.89ZM262.27,302.03c1.22.27,2.45.52,3.68.74,2.77.53,5.53,1.05,8.31,1.5-.03.2-.04.41-.03.63.82,6.55,1.3,13.16,1.11,19.76-.49,5.63-1,12.18-1.76,17.54-.22,1.97-1.18,4.11-1.32,5.85-.74-.14-1.48-.29-2.21-.44-4.94-1-9.72-2.16-14.34-3.46.03-.11.07-.21.09-.32,1.88-4.57,2.93-9.4,4.09-14.19,1.38-5.93,2.75-11.95,2.67-18.07-.04-3.19-.17-6.37-.28-9.55ZM290.7,352.63c-.12-.18-.26-.35-.41-.51-.59-.52-1.27-.91-2.03-1.04-.31-.11-3.02-.63-3.63-.73-2.47-.48-4.96-.92-7.44-1.36.11-.24.26-.53.49-.9,1.18-2.38,2.1-4.88,2.8-7.45,2.57-8.24,4.15-16.84,3.16-25.49-.26-3.05-.63-6.08-1.06-9.11-.04-.24-.08-.48-.11-.73,3.25.27,6.5.39,9.76.41.1.38.23.75.44,1.1.14.45.35,1.18.88,2.82,2.37,8.41,1.28,4.41,2.26,11.81,1.24,10.68-1.26,21.57-5.12,31.17ZM444.44,332.74c-.08.1-.14.18-.2.26-5.56,7.04-12.4,15.75-18.16,22.29-.61.65-1.25,1.28-1.94,1.86-.11.07-.23.15-.38.24-2.72,1.43-1.94,1.36-6.36,2.27-.35.01-.71,0-.98-.02-1.57-.26-3.11-.65-4.62-1.13-1.33-.58-.98-.02-3.83-1.86-.12-.11-.22-.22-.31-.31-.1-.17-.2-.34-.29-.51-.97-3.58.3-7.64,5.19-15.01,3.49-5.31,9.46-13.06,11.91-17.98.17-.03.34-.04.5-.07,9.32-1.31,18.34-4.04,27.43-6.41.66-.21,1.32-.41,1.96-.6-2.91,5.89-6.01,11.7-9.92,16.98ZM532.27,182.64c-1.93,2.27-2.01,2.36-2.5,2.9-1.9,1.87-3.42,4.23-3.78,6.9-.85,5.05.91,10.03,1.51,15.02,1.25,8.91,3.1,14.31,3.8,20.77-.06-.44-.12-.87-.18-1.31,1.5,11.63,2.74,23.35,2.14,35.08-.63,10.65-2.1,16.99-3.73,29.44-1.83,10.57-2.65,21.27-3.03,31.98-.71,11.13-1.22,17.21-2.28,23.62-1.27,9.24-7.69,13.52-11.01,16.2-8.25,5.69-15.54,8.51-20.3,9.28-1.31.13-2.63.12-3.94,0-.34-.05-.68-.12-1.02-.19-.4-.09-.8-.2-1.2-.32-.4-.21-.8-.44-1.18-.68-.08-.07-.16-.15-.23-.23-.02-.04-.05-.08-.07-.11-.08-.28-.13-.57-.18-.86-.04-.55-.05-1.1-.01-1.65.07-.33.15-.66.25-.98.33-1.45,2.01-4.46,4.4-9.25.33-1.11,6.39-10.46,8.48-16.27.2-.56.34-1.14.43-1.73.06-.22.11-.45.19-.66.64-1.83.75-3.8.37-5.7-2.24-9.69-13.12-15.9-20.19-21.61-10.22-7.09-14.92-12.88-18.6-21.26-.67-1.68-1.2-3.43-1.48-5.22-.09-.83-.12-1.67-.19-2.5-.01.04-.02.08-.03.12.09-1.64-.14-3.33-.03-4.97.41-6.66.23-4.79,1.28-11.42.1-.53.24-1.04.26-1.57.54-3.9.19-2.18,1.11-7.65.09-.38.15-.75.19-1.04.36-1.45.23-3.02-.53-4.32-1.7-3.17-6.31-3.74-8.82-1.22-.73.73-1.23,1.59-1.49,2.58-.06.22-.09.36-.11.43-.8,1.91-1.33,3.95-1.99,5.91-1.17,3.55-2.67,11.86-3,20.14.01,1.59-.07,3.28.36,4.83-.01-.03-.03-.07-.04-.1.81,7.54,4.5,14.4,9.17,20.36-1.18.42-2.36.85-3.59,1.11-6.21,1.51-12.43,3.08-18.77,3.99-5.83.75-11.69,1.07-17.56,1.32-4.09.25-8.2.82-12.29.23-8.9-1.01-22.9-2.71-35.5-7.07-7.27-2.83-7.51-2.63-14.26-6.11-.83-.42-1.61-.91-2.39-1.43,2.3-1.23,4.49-2.67,6.53-4.36,1.64-1.26,3.25-2.56,4.8-3.93.83-.76,1.85-1.45,2.16-2.59,2.01-4.49-3.98-8.47-7.44-5-3.09,2.77-9.75,7.32-12.14,8.1-14.79,4.86-24.15,5.59-38.82,6.82-8.21.5-16.48.56-24.67-.22-4.16-.47-15.73-2.4-23.19-5.14-1.09-.45.18.09.63.26-4.59-1.6-10.07-4.77-11.08-6.64-1.68-3.05-.84-.96-1.76-4.49-.02-1.33-.65-2.41.65-5.85,1.39-3.04,8.76-9.19,19.37-10.38,5.13-.88,20.81-.51,30.13-2.3,13.42-2.56,26.8-10.94,36.23-18.57.06-.05.06-.05.04-.04.41-.3.72-.74.85-1.24.39-1.38-.75-2.84-2.19-2.81-1.29.12-2.57,1.19-4.48,2.2-3.31,1.91-6.7,3.69-10.19,5.25-2.89,1.31-5.74,2.73-10.79,4.46-5.02,1.64-8.13,2.05-11.24,2.48-.14.01-.29.03-.43.05-4.63.55-9.29.52-13.94.49-3.92-.09-7.87-.12-11.79.2-.09-.22-.19-.44-.33-.64-2.59-3.58-6.17-5.92-10.12-7.67,4.52-.5,9.02-1.21,13.5-1.98.06-.03.25-.06.37-.07-.03,0-.06,0-.11,0-.61.06.69-.07.94-.17.97-.21,1.95-.41,2.92-.63,1.43-.35,3.58-.39,3.75-2.25.07-2.71-2.37-2.36-3.73-2.22-2.54.16-5.08.31-7.62.5-8.42.33-16.88.93-25.29.35-3.65-.05-11.74-1.99-17.83-4.09-7.18-2.3-10.39-3.18-17.26-8.29-4.23-2.92-10.73-8.72-15.96-15.18,1.21-.08,2.47.23,3.6-.19,2.68-.97,1.83-5.17-1.02-5.09-2.16-.07-4.31.04-6.44.27-.88-1.19-1.74-2.4-2.57-3.67,1.61.12,2.82.23,2.74.25,1.59.25,3.29.88,4.78-.05,3.02-1.59,2.38-6.49-.96-7.25-3.69-.69-7.41-1.05-11.13-1.13-2.08-4.47-3.69-9.41-4.55-14.97-.84-5.24-1.15-6.48-1.26-13.61-.08-5.56.65-15.52.94-16.44.08-.43.18-1.11.25-1.68,0,.01,0,.02,0,.03.04-.28.09-.57.13-.85.85-5.66,2.48-11.15,3.91-16.68.38-2.24,1.71-4.44,1.41-6.72-.01-.14-.05-.26-.08-.4.86-1.46,1.04-3.32.01-5.12-2.57-5.2-5.28-11.6-6.73-20.22-.28-2.89-.39-5.8-.2-8.7.04-.52.07-.82.08-.96.1-.63.21-1.27.36-1.89.1-.37.2-.74.31-1.1.07-.13.12-.27.19-.39.1-.18.23-.34.34-.51.54-.57,1.13-1.09,1.74-1.58.39-.28.79-.56,1.2-.81,3.4-1.71,1.16-.99,5.05-1.86.52-.04,1.05-.07,1.58-.07,3.75-.09,9.61,1.6,13.42,3.77,2.58,1.18,5.18,3.71,8.08,3.87,1.83,1.87,4.91,2.51,7.48.12,6.84-6.02,15.05-9.83,26.58-12.62,10.47-1.98,16.22-2.52,20.41-3.35,1.43-.21,1.34-.2,3.43-.58.06.23.14.46.25.69,2.02,5.23,9.88,3.56,9.85-1.96.03-1.73,1.1-6.68,2.94-11.59.18-.5.37-1,.56-1.49-.03.09.02,0,.12-.25-.03.08-.06.14-.09.17.05-.14.11-.27.16-.41.03-.07.06-.15.09-.22-.05.14-.1.29-.14.41.07-.16.15-.4.25-.67.12-.28.23-.56.35-.83,2.1-4.64,2.87-5.9,4.43-7.58,2.05-1.8.43-.83,3.65-2.5.67-.24,1.34-.46,2.04-.61-.53.06-.91.04.05-.01,0,0,0,0,0,0,.21-.04.43-.09.65-.11-.16.05-.39.09-.61.11,2.84-.02,1.78-.33,5.64,1.01,1.28.61,2.5,1.35,3.66,2.17.92.75,1.82,1.52,2.7,2.32,3.92,3.61,7.93,7.13,11.44,11.16,6.4,7.29,4.24,5.36,11.5,14.5,3.73,4.97,8.43,9.03,12.96,13.23,4.5,4.55,8.89,9.24,13,14.16,5.14,6.46,12.15,19.49,14.38,29.71,1.38,6.8,1.39,7.79,2.11,13.95.59,5.42.73,10.9.02,16.32-.54,3.94-2.01,9.24-4.17,14.88-3.3.47-6.57,1.03-9.81,1.58-4.88.92-9.71,2.05-14.54,3.21-1.18.28-2.36.57-3.55.78-.79.11-1.62.25-2.22.83-3.02,2.07-1.29,7.12,2.36,7.01,8.11-1,13.92-2.33,19.61-2.93,1.22-.15,2.45-.28,3.67-.4-.97,1.91-2.01,3.79-3.09,5.61-5.77-.14-11.53.26-17.25.98-2.09.29-4.18.56-6.24.99-.96.25-2.06.26-2.81.96-3.05,2.16-.62,7.1,2.98,6.1,5.92-.97,11.79-1.17,17.63-.91-2.97,3.72-6.79,8.03-11.63,12.23-1.92,1.82-3.96,3.51-6.01,5.18.28-.21.46-.35.59-.45-.02.01.2-.15.43-.32-1.04.75-1.96,1.53-2.74,2.38-.31.24-.59.51-.8.85-2.44,2.71-.03,7.42,3.57,7.27,2.29-.12,4.59-1.74,8.42-4.26,8.78-6.17,15.37-13.32,20.64-21.76,5.46.68,10.9,1.54,16.35,2.31,3.56.55,7.15.93,10.74,1.28,1.91.07,4.01.66,5.82-.09,4.11-1.55,3.05-7.6-1.02-8.12-7.92-1.46-10.16-1.75-17.05-2.64-3.39-.44-6.78-.88-10.18-1.24,1.11-2.28,2.16-4.64,3.15-7.1,5.52-.18,11.06-.11,16.58.21,2.46.04,4.91.35,7.37.38.03,0,.07,0,.1,0-.03,0-.06,0-.09-.01.86.02,1.71-.17,2.46-.6,3.63-1.96,2.88-7.73-1.15-8.68-7.04-1.92-14.27-2.25-21.5-1.79.06-.18.12-.35.18-.53.98-3.94,1.61-6.73,2.04-9.37.86-.18,1.68-.59,2.37-1.29,9.93-11.1,21.83-14.32,39.08-17.85,23.24-5.22,46.55-3.13,67.18,8.43,8.21,4.84,17.37,10.72,27.32,8.18,11.71-3.29,18.36-16.49,17.55-28.08-1.01-9.08-3.74-18.11-7.83-26.27-2.3-4.16-5.27-7.89-8.02-11.75-2.95-4.23-5.87-8.48-8.8-12.72-7.84-12.21-11.25-19.27-13.69-32.48-2.1-10.03.2-19.62,9.51-31.91,1.98-2.75,4.28-5.48,7.69-7.69,4.08-2.32,3.01-1.75,7.86-3.36,4.1-.93,2.27-.78,5.88-.88.24.01.48.03.72.06.63.11,1.57.29,2.02.45,4.02,1.15,9.26,4.98,10.09,7.87.03.38.03.76,0,1.14-.13.7-.37,1.86-.58,2.33-.54,1.72-2.38,5.77-5.2,9.73-.33.89-3.94,4.61-6.25,8.25-4.82,7.28-6.62,13.81-3.34,22.19,1.45,3.87,3.86,7.25,6.19,10.63,3.02,4.4,6.11,8.76,9.32,13.01-.24-.32-.49-.64-.73-.96,5.67,8.29,10.1,17.34,14.04,26.56,3.02,7.06,3.69,7.44,5.65,14.65,4.35,15.23,2.42,24.55-6.92,38.77-5.63,8.29-8.25,12.08-13.88,18.52Z"/>
      <path d="M288.78,44.8s-.04,0-.06.01c.03,0,.07,0,.1-.01-.01,0-.02,0-.04,0Z"/>
      <path d="M134.45,380.53c-.07-.09-.14-.19-.21-.29-.17-.23-.36-.45-.53-.68.24.32.49.65.73.97Z"/>
      <path d="M303.08,305.58s0,.01,0,.02c0,0,0,0,0,0,0,0,0-.02,0-.02Z"/>
      <path d="M303.23,305.94c-.05-.11-.1-.22-.15-.33.17.4.33.8.5,1.21-.1-.3-.23-.58-.35-.87Z"/>
      <path d="M295.62,179.67c-.1-1.16-.17-2.34-.73-3.39-.8-1.47-2.25-2.48-3.99-2.49-.38.01-.73.07-1.07.15-5.28-.41-6.27,6.91-5.48,11.06.31,3.47,3.8,6.73,7.3,5.13,2.1-.57,3.82-2.55,4.23-4.9.35-1.71.2-3.44-.15-5.14-.04-.19-.08-.32-.1-.43Z"/>
      <path d="M208.46,181.48c-1.35,1.42-2.11,3.79-2.26,6.28-.27,2,.02,4.15.42,6.03.85,3.58,5.03,5.84,8.26,3.69,3.78-2.62,4.27-7.93,3.45-12.12-.77-4.9-6.07-7.68-9.87-3.88Z"/>
      <path d="M266.46,214.83c-.12.1-.24.2-.37.3-.04.03-.06.04-.11.08-2.94,1.73-2.03,1.22-4.01,1.89-.28.07-.49.11-.64.15-.43.03-.86.04-1.29.01-.15-.03-.33-.08-.55-.13-.23-.08-.36-.12-.45-.15-.06-.02-.12-.05-.18-.07-.03-.01-.05-.02-.09-.04-.27-.14-.5-.28-.68-.39-.29-.25-.55-.52-.8-.81-.2-.3-.38-.61-.56-.92,3.11-2.76,6.96-8.09,6-12.9-.89-3.24-4.41-4.45-7.21-5.6-2.66-1.01-5.62-1.11-8.4-.53-2.12.43-4.31,1.01-5.98,2.46-2.9,2.47-4.46,6.33-2.41,9.85,1.1,2.32,4.83,5.41,8.31,7.08.02.34.09.69.2,1.05-.09.02-.18.05-.28.07,0,0-.02,0-.02,0-.21.02-.41.05-.61.08.2-.03.29-.05.04-.01-1.94.11-3.28-.16-7.14-1.39-.67-.35-1.33-.73-2-1.07.02.01.04.03.06.04-.6-.36-1.28-.57-1.98-.57-3.07-.09-4.83,3.81-2.96,6.1.03.05.06.09.1.16,3.42,5.28,11.7,7.38,17.26,4.48.53-.31,1.03-.67,1.49-1.07,3.57,3.61,8.82,4.89,13.98,1.91,2.4-1.39,4.71-3.14,5.94-5.69.53-1.03,1.18-2.15.81-3.34-.69-2.5-3.85-2.93-5.46-1.02ZM255.88,204.82c-.06.12-.15.3-.27.54-1.43,2.33-1,1.99-2.99,3.83-.19-.08-.4-.16-.62-.21-1.71-.5-1.71-.46-4.61-2.32-.18-.12-.38-.26-.55-.39-.47-.39-.95-.79-1.35-1.25-.04-.05-.07-.11-.1-.16.06-.03.1-.07.16-.09.12-.05.25-.09.37-.14.04-.01.13-.05.32-.11,3.42-.95,1.8-.44,4.56-.86,2.17-.3,4.09.25,5.27.68-.05.16-.12.32-.18.49Z"/>
      <path d="M204.89,98.93c-.48-1.55-1.6-2.71-2.78-3.77-3.25-3.26-7.16-6.25-11.68-7.41-5.17-1.18-10.58,3.11-10.75,8.38.02,3.17,1.14,6.21,1.95,9.24.75,2,.93,4.36,2.21,6.1.64.89,1.45,1.44,2.31,1.72.73,1.17,1.99,2.01,3.65,2,2.77-.25,4.98-2.41,7.28-3.82,2.95-2.01,6-4.21,7.47-7.58.48-1.02.85-2.13.78-3.27-.04-.6-.21-1.17-.47-1.71.01.04.02.08.03.11ZM195.41,103.77c-1.25.49-2.51.97-3.75,1.47-1.07-3.11-2.11-6.23-2.89-9.43.04-.07.09-.13.14-.2,0,0,0,0,0,0,0,0,0,0,0,0,.04,0,.08,0,.12,0,2.6.75,1.07.16,4.04,1.81,2.73,1.77,3.03,2.35,6.2,4.02-1.39,1.34-1.33,1.16-3.86,2.34Z"/>
      <path d="M204.85,98.82c-.03-.09-.06-.19-.09-.23.04.07.06.15.09.23Z"/>
    </g>
  </g>
</svg>