<?xml version="1.0" encoding="UTF-8"?>
<svg id="Layer_2" data-name="Layer 2" xmlns="http://www.w3.org/2000/svg" viewBox="0 0 449.34 362.37">
  <g id="Layer_2-2" data-name="Layer 2">
    <g>
      <g>
        <path d="M134.15,30.94s-.08-.04-.12-.06c0,0,.02.01.03.02.03.01.06.02.1.04Z"/>
        <path d="M442.01,48.76c-3.25-3.15-7.44-5.46-11.84-6.51-5.4-.94-11.12-.48-16.28,1.37-11.78,4.56-21.28,13.81-28.23,24.18-4.63,6.59-8.11,13.89-9.96,21.75-1.58,6.17-3.01,12.39-3.67,18.73-.42,5.73-.32,11.49-1.01,17.2,0,.05-.02.12-.03.23-.86,5.22-3.14,22.16-6.21,31.82-2.34,7.27-5.98,14.26-11.29,19.66-2.1,2.05-4.39,3.88-6.71,5.68-.14.1-.35.26-.66.48-4.69,3.14-3.19,2.18-7.72,3.79-.75.23-1.51.41-2.28.55-.61.05-1.22.08-1.84.07-.41-.25-.81-.53-1.2-.81-6.74-6.08-20.16-17.58-32.15-24.9-.02,0-.03-.02-.05-.03-7.57-5.19-18.01-11.06-28.43-13.62-10.47-2.06-21.16-2.86-31.82-2.73-2.83-.04-6.07,0-8.93.12.45-1.79.85-3.39,1.23-4.73,4.66-17.66,1.3-27.41-5.05-47.87-1.29-5.71-.96-2.42-1.12-7.29,0-.08.01-.16.02-.23.09-.56.2-1.12.32-1.67,1.34-5.3,3.3-10.45,4.32-15.84,1.29-6.48,1.48-13.21-.04-19.67-.59-2.01-1.15-4.19-2.36-5.91.07.09.15.19.22.28-1.22-1.9-2.7-3.61-4.45-5.03-5.12-4.58-12.11-4.14-18.27-2.07-9.26,3.16-16.52,9.9-24.59,15.15-1.07-.37-2.12-.81-3.18-1.2-.15-.07-.31-.13-.46-.2-5.37-2.45-10.37-5.66-15.84-7.9-9.6-4.28-16.45-6.15-28.3-10.69.05.02.11.05.16.07-.05,0-.03.02.03.08-.1-.06-.19-.13-.29-.19-.22-.08-.43-.16-.66-.25.04-.02.32.09.63.23-.24-.16-.48-.31-.73-.47-.06-.29-.13-.57-.17-.86-.01-.13-.03-.26-.05-.43-.4-4.54-.22-1.74-.97-7.55-.5-2.65-.82-5.41-1.95-7.88.41.93.77,2.03.31.42-1.98-7.26-6.5-13.55-14.59-14.06-20.06-1.27-36.14,23.6-48.44,36.87-13.02,15.25-29.55,28.2-37.92,46.86-.1.23-.19.46-.29.69-4.89-2.73-9.87-5.48-15.3-6.62-.29-.11-.59-.19-.9-.2-.1-.02-.19-.01-.29-.02-.06-.01-.12-.02-.18-.03.03,0,.07.02.11.03-3.6-.24-5.27,4.65-2.44,6.78,3.33,2.95,9.08,6.6,15.21,10.11-.57,1.74-1.07,3.5-1.53,5.27-5.63-.64-11.28-1.11-16.94-1-1.94.06-4.12-.08-5.56,1.46-1.86,1.76-1.88,4.99-.05,6.78.88.78,1.93,1.36,3.11,1.42.69.11,1.8.28,2.29.37,4.86.63,9.72,1.16,14.61,1.51.21,0,.42.01.64.02-.55,6.67.05,13.46,1.72,19.93,2.7,8.85,7.83,16.61,13.23,24.02,4.95,7.32,10.48,14.29,17.6,19.61,4.56,3.65,9.1,7.42,14.12,10.41-1.92.85-1.24.65-5.81,2.44-8.58,3.12-14.88,5.62-19.48,7.59-8.86,3.71-17.83,8.31-24.33,15.53-3.08,3.7-5.29,8.3-5.65,13.14.03,6.12,2.69,12.38,7.55,16.2,8.15,6.88,19.71,5.75,29.57,4.33,12.67-1.4,24.86-5.13,37.13-8.44,2.68-.74,7.72-2.37,9.32-2.66.18.22.37.42.53.64.33.45.68.87,1.09,1.25-.04-.03-.09-.06-.1-.07.66.66,1.37,1.28,2.08,1.89,1.14.93,2.26,1.89,3.45,2.75-.64.4-1.3.81-2.01,1.24-9.3,5.36-19.5,11.04-24.62,20.9-1.84,4.22-2.92,9.33-1.19,13.75,2.85,6.77,10.5,10.1,17.56,9.36,9.43-.55,28.26-4.48,41.44-9.68,5.88-2.71,11.03-6.78,17.01-9.31.39-.18.94-.42,1.58-.7.26,1.69,1.21,3.29,3.02,4.32,8.42,6.05,17.14,11.76,26.52,16.21,12.94,6.14,26.7,10.45,40.55,14.03,11.14,2.43,22.49,4.38,33.91,4.64,2.39,4.23,5.23,8.23,8.82,11.52,2.3,2.11,4.65,4.16,7.13,6.05l-1.04-.8c.53.42,1.76,1.51,4.74,3.51,2.36,1.47,4.92,2.56,7.51,3.55,3.03,1.12,6.24,1.68,9.25,2.84.02,0,.03.01.06.02,3.21,1.69,2.61,1.48,3.59,2.24,2.05,2,1.22,1.14,3.74,4.93,2.76,4.57,5.72,9.02,9.06,13.18,1.81,2.31,3.62,4.65,5.97,6.44,3.67,3.11,8.29,6.34,13.32,4.83,2.51-.62,4.6-2.19,6.43-3.96,1.74-1.62,3.43-3.44,4.25-5.71,2.92-6.96,1.04-14.69-.94-21.66-.85-2.96-1.7-5.98-2.9-8.83,3.49.48,6.5.74,8.67.83,6.12.64,11.8,2.04,16.38,7.19,4.33,4.97,4.61,5.42,7.32,9.01,2.52,3.38,4.96,6.86,8.1,9.72,6.2,6.2,16.64,9,24.44,4.21,3.11-2.16,5.33-5.58,6.27-9.23.85-5.38.33-10.86-.09-16.26-.56-5.57-1.4-11.21-3.69-16.36-4.33-9.72-11.56-17.76-18.26-25.91-2.35-2.73-4.97-5.22-7.46-7.83-.78-.75-1.43-1.66-2.22-2.4.01.01.03.02.04.03-.42-.4-.84-.81-1.24-1.25,0-.03-.01-.07-.02-.1-.02-.76-.11-2.58-.01-3.18.05-1.03-.03.02-.1.51.34-2.49.46-5.04.59-7.56.24-8.14.58-22.15-1.75-31.18-.84-3.64-1.97-7.2-3.17-10.74.28-.05.56-.11.82-.2.04-.01.07-.03.11-.04.92-.18,1.82-.5,2.7-.77,4.53-1.44,8.64-3.98,12.22-7.07,5.41-4.87,9.75-10.92,13.16-17.34,3.32-6.81,5.39-14.14,7.34-21.44,3.93-13.27,6.22-26.92,9.17-40.43,2.95-12.01,3.82-15.7,10.8-26.25,5.32-7.58,11.36-14.66,16.27-22.53,2.57-4.68,5.39-9.52,5.94-14.93.98-7.66-1.8-15.99-7.13-21.56ZM330.35,349.11c-.57.65-1.2,1.25-1.88,1.8-.1.07-.21.14-.35.24-.12.07-.25.13-.38.2-.1.02-.2.05-.29.07-3.4-1.88-1.57-.91-5.06-3.8-2.4-2.4-4.51-5.08-6.63-7.72-4.59-5.93-7.69-13.48-14.55-17.19-4.73-2.72-10.1-3.94-15.19-5.77-1.31-.21-7.2-3.76-7.94-4.64-3.2-2.64-6.41-5.35-8.97-8.63-.14-.2-.27-.4-.41-.6,6.06-.73,10.05-1.72,17.66-3.83,1.7-.54,3.41-1.05,5.1-1.61.72.96,1.46,1.9,2.25,2.81,2.85,3.48,5.82,6.9,9.57,9.46,6.31,5.01,15.35,8.2,23.73,10.14.54,3.17,1.31,6.3,2.11,9.41,2.57,9.84,3.1,16.46,1.24,19.68ZM437.58,68.53c-.91,5.65-12.29,20.14-16.99,25.91-7.17,8.76-12.89,18.76-15.74,29.78-4.67,16.35-6.9,33.27-11.72,49.59-2.95,10.44-3.45,13.26-8.21,20.82-3.31,4.81-3.97,5.92-10.02,11.28-2.39,1.67-5.01,3.04-7.38,4.72-.18.07-.35.15-.52.24-.93.66-1.96,1.2-2.94,1.79-3.07.04-5.88,3.04-4.92,6.37,2.66,7.47,5.29,15.01,6.27,22.92,1.24,7.73,1.91,23.4,1.31,31.06.32,4.32.75,3.77,1.95,6.51.18.33.28.5.33.56.35.67.91,1.27,1.36,1.86,1.79,2.22,3.74,4.3,5.62,6.44,5.51,6.16,18,20.78,20.28,28.32,1.81,6.19,1.55,6.93,1.94,13.89.02,5.44.23,7.38-.63,10.27-.04.08-.07.15-.13.25-.22.35-.36.57-.43.69-.34.4-.7.78-1.09,1.13-.03.02-.06.03-.08.04-.02,0-.03.01-.05.02-.31.08-.63.15-.95.21-.15.01-.34.03-.55.04-.34,0-.57-.01-.76-.01-.38-.08-.75-.17-1.12-.28-.71-.22-1.17-.38-1.36-.44-.4-.17-.8-.34-1.2-.5-.01,0-.02,0-.03-.01-.13-.06-.25-.11-.38-.17-.57-.26-1.11-.58-1.64-.92-6.8-5.99-11.59-13.92-18.25-20.07-2.54-2.24-5.34-4.26-8.46-5.61-2.05-.96-4.11-1.9-6.26-2.62-4.78-1.36-9.75-1.72-14.68-2.21-.04,0-.08,0-.12-.01-.1-.02-.38-.06-.94-.14-16.62-2.72-26.52-5.76-34.96-15.83-5.28-6.21-7-8.44-12.57-20.33-1.8-4.05-2.23-5.69-2.92-7.22-.37-.8-.61-1.67-.97-2.47-.37-1-1.06-1.86-1.99-2.39-2.51-1.53-6.04-.03-6.74,2.82-.2.76-.19,1.54.01,2.3.02.11.04.21.06.34.15.82.66,3.13.6,2.45.03.2.05.39.08.58,2.22,8.14,2.98,10.69,5.61,16.53.66,1.49,1.38,2.95,2.16,4.37-1.22.15-2.63.3-4.62.48-9.03.75-18.12.88-27.14-.17-4.11-.49-16.43-2.22-25.16-4.21-9.14-2.16-18.15-4.9-27.05-7.9-8.54-3-11.58-4.27-21.35-9.4-4.53-2.6-8.97-5.36-13.31-8.27-.99-.68-1.97-1.36-2.95-2.05.5-.17.99-.33,1.46-.49,1.75-.69,3.85-.7,5.38-1.83,3.58-2.54.74-8.35-3.5-7.17-10.84,2.46-18.77,5.74-26.81,8.91-5,2.36-9.24,4.61-11.26,5.2-3.17,1.36-17.09,4.62-25.05,6.4-3.78.84-7.62,1.38-11.45,1.93-.07.01-.11.02-.15.03-.12.02-.25.03-.37.05-5.12.83-3.76.4-5.34.39-.62-.13-1.22-.33-1.81-.54-.28-.16-.5-.29-.66-.39-.28-.24-.55-.48-.79-.75-.06-.08-.12-.16-.17-.25-.07-.12-.11-.2-.16-.29,0-.03-.02-.06-.02-.08-.06-5.41.86-6.64,6.21-12.12,3.9-3.79,7.14-5.36,13.61-9.3,5.54-3.4,10.89-7.18,15.65-11.62,2.92-2.67,5.27-5.42,6.22-6.64.58-.83,1.29-1.6,1.82-2.47.47-.56.74-1.27.74-2,.07-2.55-3.2-4-5.07-2.37-.5.3-.97.66-1.47.97-.33.2-.83.56-1.14.79.09-.07.2-.15.34-.25-.55.39-1.09.8-1.64,1.19-2.54,1.73-4.34,3.14-6.21,4.59-.63-.52-1.37-.93-2.18-1.13-4.48-1.69-2-.53-9.39-3.7l1.09.45c-.18-.12-.38-.2-.59-.28-.6-.29-2.54-1.15-3.17-1.37-.14-.04-.28-.06-.42-.08-.63-.2-1.29-.31-1.96-.31-4.06.46-8.03,1.57-12.06,2.25-7.91,1.35-15.81,2.79-23.69,4.27-5.57.98-23.69,2.74-28.18,1.4-3.56-.94-1.82-.08-5.12-2.2-2.35-2.11-1.89-1.76-2.74-3.33-.88-2.69-.64-3.04-.68-3.84.09-.4.22-.8.35-1.19.42-.89.91-1.74,1.47-2.55,3.53-3.74,1.81-1.82,5.04-4.31,3.17-2.22,6.5-4.21,9.99-5.89,4.36-2.06,9.07-3.71,16.63-7.07.31-.12.62-.24.93-.36,8.62-3.53,18.09-6.27,21.88-11.82.06-.08.14-.14.19-.23,1.91-2.15,1.47-5.23-.22-7.23.46-2.26-.44-4.81-2.6-5.99-10.04-5.44-13.06-8.76-22.13-16.67-6.73-6.52-8.5-10.37-14.93-19.19-6.02-9.2-7.96-14.45-8.53-21.56-.34-7.21-.41-9.14.6-13.95,1.31-6.15,3.92-13.07,4.8-14.92,1.94-4.43,4.29-8.68,7.22-12.54,4.77-7.14,20.81-22.51,29.86-33.18,10.31-12.09,19.35-25.71,27.77-32,3.78-2.12,2.86-1.9,7.64-2.99.22-.02.45-.05.67-.06,2.94.05,1.08-.35,3.91.56.23.12.44.25.66.38.11.1.23.19.34.3.1.11.17.19.24.27.1.16.22.31.31.47.44,1.02.2-.14,1.2,3.6.09.44.18.88.26,1.32-.02.07.07.97.27,1.82.13,1.12.32,2.85.33,3.52.34,5.48-.21,11.83,3.63,16.26,1.7,1.65,3.86,3.1,6.2,3.72.36.15.72.3,1.07.44,11.84,4.31,20.76,6.49,28.96,10.69,5.49,2.61,10.55,6.07,16.26,8.2,2.81,1.1,5.72,2.61,8.82,1.88,3.19-.79,5.78-3.02,8.44-4.86,3.12-2.23,6.24-4.45,9.46-6.52,6.02-3.51,5.96-3.71,10.88-4.88.28-.05.53-.1.75-.13.32-.03.63-.06.95-.06.02,0,.03,0,.05.01.11.06.21.12.31.18.1.1.19.2.29.3.25.39.48.78.69,1.19,2.31,6.31,2.04,11.5-1.15,23.89-.92,3.31-1.99,6.6-2.44,10.01-.71,4.35-.08,8.77,1.04,13,2.44,8.91,6.33,17.44,7.58,26.66,0-.04-.01-.09-.02-.13.02.12.03.23.05.35-.08-.59-.16-1.18-.24-1.77.08.64.18,1.28.27,1.92,0,.07.02.15.03.24.66,5.17.23,10.4-.38,15.56-.14.99-.33,1.97-.44,2.96-.04.24-.11.6-.18,1.04-1.03,5.55-.68,3.94-2.4,9.95-2.31,7.22-3.2,9.56-8.31,16.7-1.41,1.72-2.9,3.37-4.45,4.95-1.91,1.83-3.89,3.58-5.93,5.25-3.17,2.39-6.44,4.62-9.88,6.61-1.96,1.14-3.96,2.21-5.98,3.23-1.29.75-2.95,1.11-3.77,2.45-3.32,3.97,1.6,9.74,6.12,7.3.5-.2,1-.41,1.49-.6,4.79-1.96,9.52-4.11,13.93-6.81,8.8-5.63,17.17-12.59,22.27-21.87,1.79-3.2,3.23-6.68,4.44-10.14.39.02.78.04,1.17.06,3.42.14,6.84.45,10.26.6,10.18.7,24.06.31,37.26,4.71,5.58,1.37,28.94,14.85,33.97,19.02,4.7,3.42,8.92,7.98,14.01,10.87,2.18,1.92,4.47,3.86,7.36,4.45,8.13,1.15,16.36-2.49,22.54-7.58,5.02-3.85,9.37-8.44,12.82-13.76,4.7-7.79,8.07-16.5,9.41-25.51-.05.43-.11.87-.16,1.3,1.34-6.08,2.6-12.17,3.71-18.29,1.82-9.01,2.86-18.15,3.29-27.33-.02-1.08,1.45-9.43,2.8-14.82,1.77-6.84,2.26-8.95,4.53-13.06,6.65-11.64,12.76-19.17,23.62-25.25,4.06-1.83,1.77-1.07,6.07-2.2,1.99-.33,2.16-.54,6.91-.27,3.3.76,1.38.14,5.43,2.3.14.11.25.19.32.25.8.72,1.51,1.54,2.17,2.39.34.55.7,1.27.95,1.77,1.73,5.32,1.66,4.47,1.43,9.3Z"/>
      </g>
      <path d="M140.78,109.56c-1.2,1.1-2.17,2.58-2.7,4.2-.58,1.97-.01,3.98,1.19,5.47.85,1.66,2.47,2.87,4.53,2.81,1.6-.05,3.1-.92,4.3-2.18,1.31-1.15,2.26-2.75,2.85-4.36,2.09-6.54-5.79-10.84-10.16-5.93Z"/>
      <path d="M72.42,83.03c-1.78.49-3.27,1.8-4.25,3.31-.61.96-.9,2-.92,3.01-.79,3.29,1.74,6.66,5.17,6.6,3.76-.22,6.58-4.05,6.75-7.64.12-3.44-3.48-6.15-6.76-5.28Z"/>
      <path d="M105.79,108.1c-3.43-2.59-7.8-3.57-12.02-3.82-5.71,0-7.45,5.31-5.49,10.01.64,1.77,1.73,3.34,3.02,4.72-.86,1.97-1.71,3.95-2.55,5.93-.54,1.41-1.47,2.88-1.09,4.43.66,5.16,7.75,5.65,9.5.83,1.01-2.15,2.02-4.29,3.04-6.44,1.43-.03,2.93-.43,4.22-.75,2.39-.63,4.89-1.62,6.3-3.76,2.75-4.21-1.65-8.76-4.91-11.16ZM105,116.17s-.07.04-.12.07c-.4.23-.81.43-1.22.61-.15.06-.33.12-.48.17-.91.3-1.82.58-2.74.84-.7-1.13-1.84-1.86-3.08-2.17-2.23-2.04-2.78-3.75-2.94-4.77,2.28.08,1.42,0,3.82.46,3.64.6,5.91,3.14,6.85,4.7-.03.03-.06.05-.1.08Z"/>
      <path d="M193.19,142.14c-6.55-3.54-13.75-5.81-20.94-7.64-6.54-1.53-9.02,8-2.57,9.88,7.76,1.93,15.25,4.82,22.93,7.08,2.25.97,5.06-.38,5.66-2.81.91-3.59-2.51-5.06-5.08-6.5Z"/>
      <path d="M187.12,165.11c-.33-1.37-1.49-2.24-2.38-3.25-1-1.04-1.98-2.12-3.05-3.09-2.58-2.49-5.31-4.8-8.21-6.92-1.36-.9-2.59-2.34-4.32-2.38-5.43-.83-7.93,6.73-3.18,9.44,5.47,3.97,5.94,4.49,12.2,8.81,2.1,1.45,4.36,3.6,7.01,2.03,1.62-.9,2.39-2.87,1.94-4.64Z"/>
    </g>
  </g>
</svg>