<?xml version="1.0" encoding="UTF-8"?>
<svg id="Layer_2" data-name="Layer 2" xmlns="http://www.w3.org/2000/svg" viewBox="0 0 578.37 256.33">
  <g id="Layer_2-2" data-name="Layer 2">
    <g>
      <g>
        <g>
          <path d="M219.25,181.71s.01,0,.02,0c0,0,0,0,0,0,0,0-.01,0-.02,0Z"/>
          <path d="M417.37,182.62c-1.54-2.85-3.17-5.67-5.11-8.27-2.32-3.12-5.24-5.93-8.76-7.63-2.92-1.36-5.93-2.59-9.05-3.43-2.48-.56-5-.89-7.52-1.19,0,0,0,0,0,0-.03,0-.06,0-.09-.01-.06,0-.12-.01-.18-.02.09.01.18.02.28.03,0,0,0,0,0,0-.6-.08-1.35-.17-1.87-.23-1.99-.28-4.02-.56-6.01-.15-2.38.39-4.56,1.47-6.78,2.36-2.65,1.09-4.89,2.99-6.61,5.27-.53.67-1.01,1.3-1.45,1.91-2.33,2.1-4.45,4.44-6.13,7.1-.43.72-.81,1.47-1.15,2.23-4.94-.84-7.96-1-11.89-1.76-6.6-1.35-13.31-2.8-20.08-2.02-3.62.23-7.21.93-10.85.91-3.17-.05-6.3-.69-9.47-.9-9.22-.89-18.48-1.04-27.72-1.68-3.86-.1-7.71-.53-11.57-.6-4.92.12-9.83.58-14.64,1.64-3.53.7-6.98,1.7-10.48,2.53-1.65.41-3.33.74-5.02.97-1.42.16-3.95.08-7.71.07-2.02-.14-3.98.34-5.89.95-.63.21-1.25.48-1.86.76-.17.07-.34.14-.5.23.05-.03.13-.06.22-.1-.07.03-.15.06-.22.1-.67.37-1.25.91-1.64,1.59-1.18,1.94-.43,4.71,1.56,5.81.73.36,1.51.58,2.3.56,0,0-.01,0,0,.01.39,0,.78.01,1.17.03.71-.07,1.1-.12,1.11-.14.15-.02.3-.04.44-.06,1.37-.15,2.71-.49,4.06-.72,5.83.02,11.64-.3,17.37-1.48,6.95-1.13,8.32-1.63,13.58-1.97,11.99-.32,23.99,0,35.98.19,8.28.26,15.09.92,20.67,1.32,4.47.03,8.93-.59,13.41-.41,7.9.09,13.35,2.37,23.32,3.52.74.06,1.47.14,2.21.22-.16,2.11-.09,4.25.45,6.31,2.93,11.78,14.3,15.18,22.18,8.62,1.5,1.81,3.52,3.14,5.83,3.7,6.02,1.11,10.64-1.29,13.14-3.93.58-.64,1.17-1.29,1.74-1.96,2.14,2.59,5.57,4.23,8.89,4.29,5.92-.67,11.78-6.97,12.56-15.07.45-3.32-.68-6.59-2.21-9.5ZM411.82,191.95s0,.05-.01.08c-.76,3.04-.44,2.66-2.36,5.38-1.22,1.25-1.15,1.28-1.61,1.5-.04-.03-.09-.06-.13-.09-.1-.08-.21-.18-.34-.3-1.2-.91-2.03-2.2-3.29-3.01.34.26.68.52,1.02.79-.42-.39-.8-.82-1.18-1.25-.03-.04-.05-.06-.08-.1-.26-.31-.57-.54-.91-.7-.33-.26-.73-.55-1.02-.74-3.41-1.92-6.51-.17-6.97,3.26-.51.46-1.08.97-1.52,1.32-.32.21-1.94,1.3-2.63,1.6-.19.06-.37.11-.56.16-.58.05-1.17.05-1.75,0-.44-.09-.91-.23-1.24-.34-.45-.22-.89-.46-1.29-.77-.06-.05-.11-.08-.18-.14-.16-.13-.3-.23-.41-.32-.26-.24-.5-.51-.68-.72-.42-.62-.82-1.29-1.36-1.8-.03-.04-.05-.06-.1-.12-.07-.09-.14-.17-.21-.26-1.55-2.32-4.68-3.66-7.23-2.13-1.44.85-2.32,2.31-3.52,3.44-.17.16-.34.31-.51.47-.13.08-.32.2-.58.36-.09.05-.14.08-.21.11-.6.18-1.22.32-1.84.42-.21.03-.43.06-.64.09-.18,0-.42.02-.68.01-.09-.02-.19-.04-.31-.07-.11-.03-.22-.08-.33-.11-.2-.11-.46-.25-.71-.41-.23-.2-.44-.41-.65-.64-1.73-2.96-.99-1.34-1.84-4.29-.01-.17-.04-.33-.04-.5-.09-3.48.04-3.61.16-5,.32-.88.57-1.48.66-1.58,2.68-4.89,1.7-3.2,3.84-5.96,3.15-3.59,6.49-5.35,6.16-5.23.46-.29.94-.54,1.43-.76,1.66-.59,3.33-1.21,5.07-1.49.03,0,.03,0,.05,0,2.56-.31,5.9-.38,10.61.15.05,0,.08.01.15.02,5.62,1.33,7.3,1.61,10.6,3.91.09.07.18.15.28.24,3.97,3.68,3.98,4.14,7.03,8.98,1.34,2.38,1.57,3.1,1.73,3.68.16.86.33.45.17,2.85Z"/>
        </g>
        <path d="M386.54,162.06c.1,0,.2.03.3.04.03,0,.06,0,.09.01-.32-.07-.58-.13-.39-.05Z"/>
      </g>
      <path d="M578.32,229.66c-1.24-3.05-3.3-2.06-5.26-2.24-2.84-.06-2.73.05-6.72-.12-7.29-.21-14.55-.85-21.8-1.69-3.35-.42-6.67-.96-9.99-1.6-5.89-1.1-11.64-2.78-17.38-4.49-15.71-5.38-38.48-20.89-53.97-37.72-9.04-9.73-14.5-18.67-21.86-31.22-3.49-6.02-6.74-12.2-10.12-18.3.38-.18.73-.41,1.03-.71,1.85-1.74,1.41-4.99-.8-6.23-1.19-.45-2.81-.73-4.7-.89-2.54-4.28-5.22-8.46-8.18-12.46-3.94-5.24-8.73-9.76-13.61-14.1-1.58-1.4-3.19-2.78-4.84-4.1-.22-.2-.45-.39-.69-.57-2.71-7.33-7.78-16.69-9.17-20.33-.94-2.12-1.98-4.19-2.94-6.31,0-.05-.02-.1-.03-.16,0-.07,0-.14,0-.22.05-.25.09-.5.13-.75.42-1.73.39-3.63.79-5.36.21-1.37.28-2.46.03-.32.04-2.07,1.53-8.1,2.51-13.95,8.09,4.27,14.78,8.97,20.22,13.48,8.5,6.89,18.04,18.66,21.8,23.98,5.83,8.11,10.62,16.91,16.33,25.1,9.47,13.12,19.19,26.37,31.86,36.61,4.96,4.02,10.05,7.88,15.43,11.32,4.32,2.7,8.68,5.44,13.34,7.5-.45-.19-1.04-.4-.54-.18,1.71.74,3.4,1.58,5.13,2.26.58.26,1.18.5,1.79.68,2.1,1.01,4.82-.23,5.39-2.54.42-1.53-.25-3.26-1.55-4.16-.08-.07-.16-.13-.25-.19-.49-.39-.97-.8-1.49-1.15-1.44-1.1-2.96-2.12-4.4-3.23-.05.03.58.44.9.71-13.12-9.75-14.61-10.07-26.85-20.62-7.61-6.73-14.32-14.38-20.55-22.39,19.1,8.97,45.32,16.41,60.48,16.33,4.52.65,7.61-4.2,4.41-7.71-.7-.62-1.5-1.1-2.4-1.28-2.62-.71-5.25-1.41-7.91-2-7.35-1.78-14.74-3.38-22.06-5.31-12.02-3.22-23.25-6.69-31.59-10.31-3.06-1.42-6.13-2.83-9.07-4.49-1.57-.76-2.84-2.31-4.61-2.53-.31-.45-.64-.92-.99-1.42-5.74-8.62-11.61-17.18-18.48-24.94-9.14-10.66-19.98-19.83-32.19-26.78-3.42-1.99-6.91-3.89-10.54-5.49-.22-.08-.43-.17-.65-.27.11-3.19.01-6.4-.09-9.59-.32-6.61-1.59-13.57-6.01-18.75-6.75-7.65-14.14-6.62-21.54-3.56-4.52,1.95-8.18,5.32-11.86,8.49-.64.55-1.29,1.1-1.93,1.65-.49-.46-1.1-.82-1.87-1.01-8.24-2.79-16.36-6-24.83-8.05-6.79-1.45-13.75-1.65-20.66-1.98-9.44-.3-18.92-1.21-28.34-.4-7.69.58-15.28,2.09-22.82,3.66-8.29,2.08-10.34,3.16-18.65,7.16-1.11.56-2.18,1.19-3.28,1.78-4.49-4.64-9.45-8.86-15.12-11.98-5.75-2.99-12.82-6.02-19.14-2.97-9.42,4.13-11.99,22.77-12.51,38.87-.15.07-.31.13-.46.22-8.7,6.07-16.41,13.32-23.48,21.21-1.63,1.74-3.3,3.46-4.94,5.2-.03.02-.07.02-.1.04-5.37,3.8-10.84,7.49-16.66,10.59-8.66,4.44-15.36,7.12-22.08,9.82-8.79,3.3-17.72,6.28-26.84,8.49-7.33,1.69-14.81,2.5-22.23,3.72-8.49,1.34-16.97,2.77-25.32,4.87-1.8.42-3.59.84-5.36,1.36-1.12.24-2.2.82-2.77,1.85-1.61,2.6.97,6.08,3.9,5.38,4.78-.55,7.39-1.02,12.71-1.68,14.08-2.2,22.99-2.95,37.67-5.63,10.37-2.15,20.41-5.63,30.31-9.35,7.22-2.89,14.42-5.89,21.27-9.57-1.08,1.6-2.15,3.2-3.22,4.8-7.96,12.2-14.24,25.4-22.07,37.69-9.26,14.43-21.16,35.09-27.65,42.02-2.68,3.11-5.51,6.11-8.23,9.19-.78.79-2.16,2.64-1.23,1.4-.63.62-.99,1.49-.98,2.37,0,1.17.66,2.23,1.65,2.84,1.24.74,2.92.5,3.95-.5.06-.04.12-.09.17-.13,2.24-1.71,2.1-1.62,2.85-2.22,4.17-3.5,8.42-6.93,12.2-10.84,11.96-12.97,21.05-28.23,30.65-42.96,7.03-10.95,12.65-22.73,19.78-33.61,3.59-5.37,7.11-10.79,10.97-15.98,4.94-6.03,12.29-13.6,14.13-16.11,3.46-4.3,7.23-8.33,11.32-12.02.03,1.63.07,3.16.11,4.54.26,5.25.47,10.5,1.04,15.73.15.71.22,1.47.29,2.23-.45.43-.86.93-1.21,1.54-4.38,6.75-7.79,14.06-10.57,21.6-1.2,3.28-2.27,6.61-3.17,9.99-.16.06-.31.14-.47.24-7.08,3.88-10.65,9.92-12.61,12.19-3.37,4.27-6.23,8.85-8.8,13.6-.85.2-1.69.4-2.54.62-1.72.61-4.12.57-5.21,2.22-.71,1.17-.26,2.83.93,3.49.98.41,2.15.35,3.48.17-2.14,4.4-4.14,8.87-6.17,13.3-2.03,4.38-4.56,8.5-6.94,12.69-3.63,6.77-7.68,13.31-12.22,19.51-1.64,2.15-7.95,10.32-12.67,15.03-4.93,5.11-12.71,11.71-15.4,13.62-4.91,3.59-10.3,6.48-15.51,9.6-6.82,4.04-15.49,8.73-19.65,10.24-12.08,4.63-24.73,7.64-37.28,10.69-3.86.98-7.74,1.84-11.63,2.73-1.76.56-3.83.46-5.34,1.56-3.18,2.22-.71,7.55,3.15,6.45,2.2-.44,13.46-1.93,18.98-3.2,13.06-3.07,26.34-5.76,38.78-10.91,7.68-3.16,14.71-7.64,21.87-11.8,6.33-3.55,12.3-7.71,17.88-12.35,2.8-.7,5.58-1.54,8.41-2.1,3.53-.75,7.14-1.06,10.69-1.74,9.71-1.68,18.64-5.97,27.28-10.52,2.4-1.2,4.81-2.38,7.25-3.49.11-.06.24-.12.35-.18.04.27.1.42.1.29.05.36.08.72.14,1.08.38,2.61,1.52,5.09,3.22,7.11.57.68.53.61.3.32.29.34.61.65.95.94-.14-.11-.28-.21-.41-.32,5.43,4.74,15.47,7.98,22.03-.29,3.03,2.55,6.94,4,10.91,3.16,3.08-.31,5.86-2.03,7.57-4.6.13-.18.18-.27.22-.32.09-.11.17-.23.26-.34.05-.06.09-.13.14-.2.84.45,1.71.82,2.56,1.14,3.36.82,6.86.09,9.93-1.39,4.17-1.96,7.32-5.8,8.87-10.09,2.09-4.6,1.94-9.82.84-14.66-2.16-7.2-7.87-12.82-14.02-16.85-5.65-3.07-12.11-4.79-18.52-5.11-1.89-.06-3.64-.04-5.35.12-.34-.67-.67-1.34-.94-2.02-1.2-2.62-1.62-3.67-2.36-5.99,1.55-.22,3.07-.4,4.61-.54,1.4-.11,2.82-.19,4.22-.06.89.19,1.76.57,2.66.36,3.94-.4,4.27-6.21.44-7.17-2.77-.99-5.78-.95-8.69-.89-1.81.07-3.62.19-5.43.37-.37-1.63-.68-3.14-.92-4.61,4.8.07,9.62.42,14.39-.16,6.73-.1,5.89-9.73-.69-8.51-1.57.47-9.21.32-14.4.35-.03-2.61.08-5.5.3-9.04.72-7.43,4.96-20.33,9.76-29.29,1.27-2.43,2.69-4.79,4.17-7.1.93-1.53,2.32-2.99,2.35-4.87.17-1.15.05-2.2-.29-3.12.04-.27.06-.56.05-.85-.84-6.47-.65-13.01-.76-19.52.06-8.2.07-16.4.38-24.59.15-6.73,2.2-17.03,4.01-20.62.16-.31.33-.61.52-.9.05-.05.11-.1.16-.16.09-.05.21-.11.33-.18.1-.03.2-.07.3-.09.81-.33,4.44.16,10.55,4.42,2.04,1.18,10.52,8.95,15.38,14.33,2.73,2.86,5.08,6.06,7.61,9.1.85.86,1.73,1.69,2.64,2.49-.6,2.8,1.9,6.06,5.29,5.12,4.88-1.42,9.82-2.64,14.77-3.83,4.87-1.3,9.74-2.66,14.74-3.35,4.26-.48,21.97-1.67,30.85-.85,7.64.78,10.69,1.07,19.2,3.02,2.75.53,5.46,1.25,8.23,1.65,1.7.33,3.45.22,5-.58,4.53-2.69,7.53-7.32,11.03-11.16,4.55-5.25,9.51-10.16,14.97-14.45.36-.23,1.54-1.04,2.02-1.31.63-.48,3.11-1.61,3.25-1.7.01,0,.03-.01.04-.02,2.82-1.13,4.93-1.33,5.02-1.34.45-.06,1.07-.04,1.45-.03.5.09,1,.21,1.49.37.33.17.75.4,1.09.63.19.14.38.28.57.42.46.39.89.81,1.28,1.27.18.26.36.51.52.78.32.52.58,1.07.83,1.62.08.23.17.47.28.69,0,.02.01.03.02.05.04.11.09.26.16.49,1.63,5.44,1.29,5.47,1.41,12.55-.12,4.3-.09,8.62-.56,12.9-.09.62-.29,2.02-.42,2.77-1.21,6.65-1.76,11.54-1.62,14.93.02,1.04-.06,2.12.03,3.17.05,1.39.33,2.78.95,4.03.17.42.38.81.62,1.18,1.09,2.52,2.47,4.9,3.63,7.38.15.33.26.56.33.71.2.52.4,1.04.61,1.55,1.21,3.07,2.48,6.12,3.73,9.18,4.28,10.13,8.68,24.77,9.74,37.83-3.42.5-6.84,1.05-10.23,1.73-1.46.28-2.91.59-4.37.86-1.04.21-2.2.28-3,1.06-3.9,2.75-.79,9.05,3.79,7.77,5.76-1.03,9.65-1.7,13.93-2.28-.16,2.43-.48,4.74-1.02,6.87,0,.02,0,.04-.01.06-2.75-.23-3.84-.28-6.88-.66-2.23-.05-4.71-.72-6.81.24-3.51,2.05-1.29,7.46,2.64,6.43,1.77-.4,5.47-.41,9.63-.23-.28,1.12-.52,2.24-.67,3.38,0-.03-.02.02-.06.2-.58,3.44-1.63,6.05-1.36,7.35.2,2.97,4.27,4.32,6.31,2.17.43-.41.7-.9.9-1.43.88-1.46,1.47-3.11,2.24-4.62.08-.17.14-.35.21-.52,0,.01.04-.04.13-.19.94-1.81,1.68-3.71,2.3-5.65,1.58.14,3.07.3,4.35.45,6.17.61,9.34,1.21,16.27,2.48,2.46.91,4.9-1.55,3.58-3.94-.59-1.05-1.72-1.37-2.83-1.57-1.73-.4-3.47-.79-5.21-1.15-4.84-.86-9.73-1.34-14.63-1.78.68-2.97,1.06-6,1.22-9.04.13-.01.25-.02.38-.04,4.22-.4,8.46-.6,12.68-.97,1-.06,1.99-.15,2.98-.24,1.56,2.81,3.1,5.64,4.66,8.45,5.28,9.48,10.64,18.91,16.48,28.06,8.54,13.52,19.64,25.19,31.98,35.29-5.61-1.95-11.25-3.79-16.91-5.59-9.51-3.22-19.14-6.04-29.01-7.91-2.68-.53-5.36-1.04-8.05-1.5-1.24-.13-2.48-.63-3.72-.34-5.78.63-6.33,9.08-.65,10.55,12.44,2.93,24.65,6.76,36.82,10.65,13.56,3.77,26.92,8.23,40.32,12.52,10.61,3.22,21.27,6.3,32.02,9.01,12.17,2.64,24.68,4.01,37.13,3.17,4.92-.69,6.06-.8,9.68-1.81,2.45-.72,4.79-.77,4.37-4.32ZM159.48,130.69c3.04-5.57,4.71-8.51,7.91-12.01-.14,1.09-.25,2.19-.33,3.29-.21,3.19-.22,6.41.01,9.61-2.83.22-5.66.49-8.47.8.29-.56.58-1.12.89-1.68ZM155.71,189.91c-12.15,4.85-22.34,11.77-32.23,14.46-2.98.91-6.05,1.44-9.12,1.96,2.03-2.19,3.99-4.45,5.87-6.76,7.13-8.6,13.35-17.89,18.78-27.65,2.84-4.81,5.86-9.53,8.21-14.61,3.31-6.85,5.5-12.3,7.88-17.62,4.32-.26,8.66-.4,12.99-.42.43,2.13,1,4.22,1.69,6.28-5.81,1.08-11.55,2.52-17.07,4.64-2.6.6-3.1,4.41-.75,5.67,2.28.85,1.58.25,3.94.19,2.86-.2,5.67-.74,8.49-1.2,3.24-.5,6.07-.98,8.62-1.41,1.37,2.93,2.9,5.78,4.72,8.44-1.82.74-3.75,1.71-5.88,2.99-4.35,2.93-8.02,6.84-10.65,11.37-1.35,2.12-2.5,4.37-3.02,6.85-.51,2.12-.99,4.25-1.39,6.4-.36.1-.73.24-1.09.45ZM179.71,171.68c5.22-3.18,11.81-3.88,17.12-3.25,4.39,1.03,5.96,1.61,8.15,2.82,2.39,1.45,1.37.67,4.27,3.13,2.86,2.78,2.17,1.88,3.83,4.57.32.45.88,1.62,1.11,2.1.2.53.39,1.05.55,1.59.63,2.58.45,1.09.62,4.87-.18,2.44.11,1.7-1.01,4.79-.26.54-.91,1.89-1.31,2.47-.1.12-.2.25-.31.38-.31.43-1.18,1.18-1.72,1.62-.17.12-.35.23-.54.33-.08.04-.12.06-.17.08-.27.09-.68.22-1.1.33-.35.09-.63.16-.84.2-.32.01-.63,0-.86,0-.34-.06-.68-.13-1.03-.18.08,0,.05,0-.24-.06-.18-.04-.36-.1-.53-.16-2.69-1.23-5.1-2.14-8.54.91-.45.53-.86,1.1-1.25,1.68-.15.19-.32.41-.49.63-.09.11-.25.31-.5.61-.18.19-.3.31-.37.4-.13.08-.27.14-.4.21-.08.02-.18.05-.29.08-.76.05-1.52.07-2.28,0-.32-.04-.65-.05-.98-.06-.06-.02-.13-.04-.18-.05-.16-.08-.33-.15-.49-.24-.46-.27-.91-.56-1.34-.87-.28-.23-.58-.45-.87-.67-.19-.17-.47-.42-.77-.72-1.74-1.92-4.44-3.72-7.05-2.41-.79.27-1.43.8-1.99,1.42-.1.08-.2.16-.3.23-.42.35-1.03.83-1.36,1.1-.08.05-.15.11-.23.16,0,0,0,0-.02,0-.44.31-.91.59-1.39.83-.07.03-.15.05-.22.08.03-.02-.06,0-.34.11-.24.08-.48.15-.72.21-.48.03-.95.04-1.43.02-3.56-.75-3.48-.92-4.26-1.37-.07-.03-.13-.05-.2-.08-.16-.1-.29-.18-.41-.25-.17-.16-.33-.32-.49-.5-.39-.59-.74-1.21-1.03-1.86-.06-.19-.12-.38-.18-.56,0-.26.02-.51.04-.77.38-2.06,1.01-4.07,1.56-6.09,2.5-7.79.57-3.14,3.92-9.57.39-.66.79-1.32,1.23-1.95.45-.51,1.29-1.48,1.72-1.87,3.37-3.2,1.92-2.1,5.9-4.4ZM341.31,23.2c-3.57,3.58-6.83,7.49-10.69,10.77-.9-.15-1.8-.33-2.7-.53-4.2-.94-8.39-1.9-12.6-2.75-4.47-.77-8.97-1.32-13.47-1.85-11.94-.86-24.07-.63-35.89,1.36-5.47,1.11-10.81,2.74-16.16,4.31-1.7.5-3.4,1.02-5.09,1.55-.06-.09-.1-.19-.17-.28-.2-.33-.74-1.15-1.03-1.64-.41-.68-4.2-6.44-7.63-10.93.33-.16.67-.33,1.01-.49,7.17-2.37,14.55-4.09,21.9-5.78,9.44-1.93,14.65-3.08,21.96-3.62,9.98-.4,19.99.37,29.97.69,8.74.68,6.31.25,14.48,2.07,5.04,1.3,9.98,2.92,14.94,4.49.98.31,1.95.62,2.93.93-.59.57-1.19,1.13-1.76,1.71ZM406.95,125.35c-.17-1.94-.41-3.88-.71-5.8-.69-4.5-1.63-8.96-2.78-13.36,4.78,4.79,8.65,9.39,10.86,12.75,1.27,1.79,2.47,3.62,3.63,5.48-3.73.18-7.61.54-11,.93Z"/>
      <path d="M305.85,146.85c-.93-4.07-7.03-5.83-10.69-6.27-2.65-.26-5.33-.1-7.97.23-2.55.35-5.26.84-7.3,2.5-.7.55-1.2,1.33-1.49,2.17-.14.31-.47,1.14-.49,1.54-.59,2.74-.04,5.51,1.28,7.96,1.12,2,2.9,3.46,4.9,4.54-.14,3.75-.39,7.5-.62,11.25-.02,2.06-.48,4.31.38,6.24,2.13,5.59,10.61,3.84,10.57-2.11-.16-3.92-.37-7.84-.57-11.76-.15-1.09-.09-2.24-.17-3.35,1.01-.56,2.06-1.03,3.06-1.61,3.78-2.36,10.07-6.15,9.12-11.33ZM291.46,152.66c-.23-.1-.47-.2-.74-.28-.49-.15-.98-.31-1.46-.48-.03-.01-.05-.02-.08-.04-.57-.28-1.11-.61-1.62-.98-.2-.18-.48-.44-.75-.72-.4-.34-.81-.79-.95-.95-.22-.31-.43-.63-.61-.96-.09-.12-.18-.23-.26-.35.02.02-.07-.12-.21-.34.46-.12,1-.26,1.18-.27l.26-.04c2.35-.2,4.71-.06,7.05.19.33.06,1.06.18,1.46.31.37.08.86.25,1.17.36.39.18.77.35,1.16.53-1.95,1.94-3.34,2.7-5.59,4.01Z"/>
      <g>
        <path d="M374.4,35.49c-.32-4.04-1.29-8.62-5.04-10.84-.91-.48-1.88-.89-2.92-.95-.02,0-.03,0-.05,0,.1.01.21.03.32.05-.14-.03-.29-.03-.43-.06-.54-.05-.49-.06-.21-.03-1.39-.17-2.79,0-4.05.66-3.77,1.91-6.79,4.94-9.38,8.22-2.63,3.28-5.23,6.6-7.57,10.1-.81,1.18-1.75,2.47-1.8,3.9-.86,1.73-.68,4.02.79,5.42,3.37,3.59,8.41,4.82,12.6,7.19,2.29,1.17,4.56,2.03,4.55,2.06,1.74.79,3.65,1.47,5.57.95,4.36-1.53,5.97-5.6,6.87-9.39.86-5.71,1.14-11.51.75-17.27ZM358.78,51.14c-1.86-1.48-3.97-2.62-5.86-4.07-.21-.18-.43-.34-.64-.52,2.65-3.89,3.83-5.31,7.71-9.97,2.52-2.85,3.06-3.54,4.73-4.61.4,1.51.23,1.44.2,4.93-.47,6.3-1.05,6.98-1.54,14.33.04.8.04,1.61.07,2.41,0-.06.02-.12.02-.19,0,.3,0,.6.03.9-1.99-1.1-3.73-2.64-5.62-3.9.3.23.59.46.89.68Z"/>
        <path d="M366.39,23.68c-.12-.02-.23-.03-.32-.04.07,0,.14.02.21.03.04,0,.07,0,.11.01Z"/>
      </g>
      <path d="M231.01,51.62c-2.8-6.67-8.69-19-18.32-23.51-3.24-1.66-7.4-1.32-10.03,1.29-.79.88-1.33,1.9-1.69,3.02.15-.38.31-.75.46-1.13-.44.91-.76,1.89-.96,2.88-.41,2.19-.78,4.42-.65,6.65.2,4.86,1,9.67,2.02,14.42.83,3.77,1.59,7.64,3.32,11.12.92,2,2.66,2.58,4.2,2.25.46.4,1.02.71,1.68.87.75.15,1.51.15,2.23-.05,0,0-.02.01-.03.01.02,0,.05-.02.07-.02.09-.02.17-.05.26-.08.31-.1.6-.21.92-.34,1.87-.72,3.53-1.83,5.17-2.94,4.4-3.16,13.16-7.99,11.35-14.42ZM217.84,57.45c-2.21,1.08-4.46,2.11-6.53,3.44-.71-3.94-1.1-10.86-1.66-17.09-.13-2.48-.25-4.97-.09-7.45,2.86,1.59,2.41,1.32,5.37,4.22,4.25,4.79,8.59,11.16,9.27,12.84-.02.02-.03.04-.05.05-.53.46-.76.65-.81.71-1.75,1.23-3.59,2.32-5.5,3.28Z"/>
      <path d="M250.38,120.17c-4.08-4.5-10.73-2.28-12.67,3.1-1.83,4.29-.96,9.9,2.22,13.33.6.59,1.31,1.06,2.06,1.41,4.37,2.39,9.61-.37,10.93-5,1.16-4.29.27-9.36-2.54-12.84Z"/>
      <path d="M347.1,124.45c-.47-.85-1.1-1.53-1.82-2.03-.03-.03-.05-.07-.08-.1.03.04.05.06.08.1-.04-.03-.08-.05-.12-.08-.38-.41-.85-.86-1.21-1.04-6.93-3.75-12.56,6.09-11.31,12.09,2.03,8.12,10.81,7.61,13.8,1.41,1.96-2.98,2.34-7.27.67-10.35Z"/>
    </g>
  </g>
</svg>