<?xml version="1.0" encoding="UTF-8"?>
<svg id="Layer_2" data-name="Layer 2" xmlns="http://www.w3.org/2000/svg" viewBox="0 0 393.21 425.81">
  <g id="Layer_2-2" data-name="Layer 2">
    <g>
      <g>
        <g>
          <path d="M392.41,157.13c-1.17-3.46-3.75-6.2-6.63-8.36-2.17-1.75-4.5-3.3-7.12-4.27-12.09-5.4-25.32,2.63-32.44,12.43-8.22,11.08-12.49,24.6-15.65,37.89-1.57,8.89-1.99,17.97-2.09,26.98.2,7.54,1.38,17.33,1.91,20.94,1.41,9.62,4.07,18.99,5.81,28.54.58,4.93.77,9.91.43,14.86-.41,3.7-.82,7.27-2.57,13.38-2.5,8.27-2.9,10.41-7.9,17.5-.17.21-.34.43-.51.64-.03.04-.06.08-.09.11.37-.28.75-.56,1.12-.85-1.33.87-2.34,2.1-3.54,3.12-1.3.89-2.63,1.74-3.99,2.53.07-2.04.1-4.08.11-6.13-.02-5.82.06-12.59-.96-21.93-2.4-15.6-6.05-25.25-11.88-37.02-6.01-11.36-14.57-21.16-22.83-30.93-9.53-10.54-20.11-20.06-29.58-30.67-3.66-3.97-7.19-8.07-10.45-12.38-.73-.98-1.45-1.98-2.16-2.98,5.82-5.11,10.33-11.22,13.79-18.08,4.18.83,8.47,1.65,12.72,2.19,3.62.58,7.24,1.12,10.88,1.58.83.12,4.05.52,2.24.29.81.21,1.69.09,2.42-.32,2.47-1.31,1.95-5.32-.79-5.94-4.39-.81-8.78-1.57-13.19-2.26-3.82-.61-7.62-1.27-11.42-1.99.33-.85.65-1.7.95-2.56,1.11-2.86,2.06-5.74,2.88-8.61,4.35-.1,8.71-.19,13.06-.23,2.17-.08,4.34-.16,6.51-.22,1.15.04,2.34-.23,3.17-1.08,1.73-1.64,1.32-4.69-.75-5.85-1.81-.9-3.99-.44-5.95-.67-4.72-.18-9.44-.15-14.15,0,3.07-16.71.92-33.42-7.5-49.34-3.91-8.25-10.84-16.73-12.04-22.24.04.44,0,.6-.04-.24-.05-.25-.1-.51-.12-.75.05.17.08.37.11.56-.63-11.1,2.69-22.1,1.5-33.22-1.12-9.47-2.67-19.88-9.87-26.79-.07-.06-.15-.11-.22-.17-.02-.02-.05-.05-.07-.07-3.8-3.59-9.09-5.42-14.25-4.12-1.96.49-4.08.96-5.79,2.07.09-.07.18-.14.28-.21-.87.38-1.71.8-2.55,1.24-3.68,1.99-7.16,4.34-10.33,7.06-8.53,7.52-15,17.04-23.5,24.58-.23.19-.34.29-.4.35-.46.33-.95.62-1.45.88-.1.03-.21.06-.31.09-1.55.09-3.11-.04-4.66-.09-12.93-.77-25.89-.72-38.76.83-10.24,1.11-12.72,2.56-21.68,2.31-1.18-.03-2.35-.07-3.52-.11-1.28-.26-2.6-.37-3.88-.69-.77-.16-1.53-.35-2.28-.58-4.99-7.93-7.58-11.68-11.91-17.18-1.63-1.93-3.03-4.32-4.95-5.97.16.13.32.25.49.38-3.72-4.65-8.33-8.67-13.72-11.24-5.68-2.77-12.84-4.21-18.39-.41-1.59,1.17-3.47,2.45-4.62,4.11-.4.48-.8.98-1.18,1.51-.92,1.16-1.69,2.44-2.3,3.79-.02.05-.04.1-.06.15.03-.07.02-.06.01-.04-.02.05-.03.07-.04.11-4.57,10.21-4.75,21.54-5.5,32.39-.28,4.8-.97,7.91-2.34,17.18-.1,1.14-.68,3.89-.42,3.54-.69,1.9-.91,3.95-1.52,5.88-.72,2.97-1.68,5.89-2.68,8.78-2.72,6.66-4.69,13.56-6.32,20.56-3.38,12.29-4.35,25.21-3.19,37.89.35,3.09.66,6.24,1.11,9.37-7.3.63-14.58,1.57-21.68,3.43-3.71.9-4.4,6.2-1.06,8.04,2.32,1.27,4.91-.03,7.36-.22,5.99-.92,7.94-1.29,11.96-1.71,1.8-.17,3.61-.32,5.41-.47.7,2.19,1.6,4.31,2.77,6.33,1.35,2.35,2.79,4.65,4.32,6.88-.1.06-.2.11-.29.17-6.21,3.71-12.3,7.64-18.1,11.96l.92-.7c-3.45,1.85-2.73,7.28,1.07,8.19,1.56.38,3.03-.11,4.3-1.03,1.72-1.03,3.37-2.16,5.06-3.22,4.2-2.73,8.47-5.37,12.79-7.9.47.54.95,1.08,1.44,1.6,4.77,4.76,9.99,9.07,15.21,13.31,2.44,1.97,5.08,3.66,7.85,5.11-3.69,8.88-4.75,18.65-5.23,28.19-.67,11.66.08,23.33,2.05,34.83,2.62,17.65,7.42,34.92,13.01,51.84,4.75,15.14,11.33,29.62,16.32,44.67.99,3.37.99,3.98,1.08,4.67.3,3.08.33,6.2,0,9.28-.93,6.19-3.17,13-3.6,14.39-1.42,5.09-2.69,10.55-1.28,15.78,2.44,9.2,12.52,16.39,24.21,14.26,2.95-.24,5.73-1.38,8.44-2.51,3.87-1.55,7.35-4,10-7.23.13-.16.27-.32.4-.48.17.52.35,1.04.54,1.55,1.4,3.88,3.29,7.58,6.01,10.71,3.36,3.66,8.29,5.35,12.97,6.61,14.11,3.19,24.77-9.15,29.59-21.14,3.11.42,7.54.34,10.58-1.19,2.16,2.37,5.43,3.89,9.9,5.59,9.06,3.29,14.9,4.41,20.27,4.61,11.39.97,22.82-1.16,33.9-3.65,7.59-1.38,14.87-4.03,21.49-8.04,6.93-3.92,13.14-8.24,21.07-16.72,5.69-6.55,10.38-14.04,14.12-21.93.01,0,.02,0,.04.01-.01,0-.02-.01-.03-.02,0,0,0,0,0,0,1.5.49,3.11.68,4.7.84.01,0,.03.01.04.02,4.13.6,8.34.83,12.45.03,4.77-1.21,9.36-3.13,13.74-5.38,15.12-8.69,25.91-23.53,32.08-39.63,0-.01,0-.02.01-.03,1.4-3.26,2.7-6.4,3.79-9.6,1.35-4.02,2.35-8.15,2.91-12.35,1.57-9.62.52-19.36-.17-29.01-1.38-11.19-1.98-15.08-3.54-26.1-1.13-6.08-1.25-9.72-1.95-18.26-1.16-15.83.49-22.7,8.76-35.53,5.19-8.15,12.85-20.89,9.53-30.69ZM295.39,367.32c-3.86,5.34-.71,1.54-5.42,6.7-6.67,6.78-13.37,10.58-18.23,13.13-6.65,3.26-8.74,4.49-12.41,5.47-10.69,2.46-17.58,3.83-24.29,4.44-5.68,1.04-10.22,1.25-19.9.71-2.54.1-5.61-1.15-11.79-2.11.62.06,1.16.08.32-.04-2.07-.28-4.15-.62-6.12-1.31-.11-.06-.22-.11-.33-.17-.11-.2-.21-.41-.31-.62,0-.02-.01-.04-.02-.07,0,0,0-.01,0-.02,0-.14-.03-.28-.03-.42.02-2.69,2.14-6.41,8.23-9.66,3.95-1.97,11.31-2.61,10.31-13.92-1.36-16.53-2.01-27.59,2.85-41.78,1.63-4.69,2.9-8.4,7.2-14.61,2.68-3.2,5.81-6,8.86-8.82,5.82-5.03,5.61-5.2,11.33-8.88,1.71-1.09,3.46-2.11,5.23-3.11.79-.44,1.62-.88,2.09-1.69,2.36-2.61.67-7.22-2.7-7.98-1.25-.27-2.5-.13-3.64.43-.77.31-2.37.97-2.96,1.21-2.89,1.21-5.79,2.45-8.42,4.17-4.34,2.71-8.26,6.04-12.02,9.49-3.49,3.22-7.01,6.52-9.5,10.6-5.57,10.26-8.58,21.86-9.38,33.48-.51,7.39.27,14.78.72,22.14.15,2.49.41,5,.22,7.5-6.74,1.77-18.17,9.76-19.08,20.02,0,0,0,0,0,0-.22-.03-.43-.06-.65-.07-.03,0-.05,0-.07,0-.76-.16-1.51-.3-2.28-.41,4-13.16,6.87-26.66,10.24-39.99,3.55-17.91,5.64-29.67,6.07-42.43,0-.08,0-.16,0-.23-.02.14-.03.28-.05.41.1-1.27-.06-2.56-.22-3.83,0,0,.02.02.02,0,.02-.56-.1-1.08-.35-1.57-.92-2.75-4.86-3.49-6.83-1.41-.53.58-.9,1.24-1.1,1.97-1.1,2.86-1.63,5.9-2.38,8.87-2.64,11.46-4.55,23.08-7.57,34.46-2.37,9.35-5.9,18.37-7.94,27.8-2.08,8.79-2.11,12.08-4.69,22.92-1.8,5.81-1.09,4.83-3.97,9.09-3.12,3.56-5.01,5.03-6.24,5.76-.32.17-.63.35-.96.51-.92.32-1.86.56-2.81.76-.47.08-.95.17-1.42.26-.24.01-.67.03-1.18.03-.58-.06-.02.21-3.89-.69-3.81-1.14-2.44-.54-4.52-1.8-.59-.52-1.15-1.08-1.66-1.67-2.41-2.9-4.67-7.61-5.61-10.49-.38-1.13-.76-2.26-.97-3.44-.07-.43-.14-.88-.26-1.3,1.02-3.06,1.75-6.24,2.56-9.36,2.48-8.69,3.22-17.68,3.36-26.68.1-6.38-.41-12.77-.79-19.13-.16-2.33-.28-4.67-.43-7.01,0-1.49-.61-2.95-1.65-4.01-3.45-3.65-9.97-.97-9.84,4.07.13,12.34-.06,24.68-.31,37.01-.31,4.87-.35,4.59-1.01,10.58-.44,3.17-.89,6.34-1.45,9.5-1.28,4.86-.55,2.87-2.8,7.18-.54.92-1.26,1.8-1.39,2.87,0,0-.01.01-.02.02-.51.44-1.05.85-1.58,1.27-.72.52-1.41,1-2.13,1.4-3.91,1.89-2.72,1.54-8.17,2.92-4.42.95-2.79.86-6.06.77-.11-.02-.22-.05-.35-.08-.31-.17-.75-.42-1.13-.67-.58-.51-1.86-1.64-2.23-2.18-.05-.06-.09-.1-.13-.16-.38-.56-.73-1.14-1.04-1.75-.07-.2-.15-.39-.2-.59-.07-.2-.11-.41-.14-.61-.05-.61-.04-1.21,0-1.82.47-2.38,1.42-4.65,1.98-7.01,1.34-4.6,3.14-12.16,3.21-21.06-.5-13.62-6.47-26.15-10.86-38.84-6.99-19-13.24-38.31-17.52-58.12-3.81-18.63-5.9-31.44-4.63-51.48.14-2.77,1.37-9.02,3.31-15.26,1.18-3.39,1.19-2.89,1.41-3.48.07-.15.15-.29.22-.44.12.03.24.07.37.11,1.61.4,3.24.67,4.89.83,1.19.13,2.46.29,3.54-.31,5.45-2.12,3.69-10.27-2.04-10.24-3.15-.4-10.15-2.52-16.9-7.54-3.98-3.14-7.73-6.57-11.5-9.97-1.27-1.2-2.23-2.21-3.01-3.07,2.8-1.47,5.63-2.9,8.48-4.27,5.13-3.1.79-10.74-4.52-7.92-3.15,1.52-6.29,3.07-9.4,4.66-.78-1.29-1.52-2.6-2.21-3.94-.41-.85-.72-1.24-1.63-4.38,3.47-.27,6.95-.56,10.41-.92,1.9-.16,3.8-.32,5.71-.42.96-.08,1.99.08,2.87-.39,4.2-1.57,2.88-8.03-1.59-7.96-6.5.04-13,.34-19.49.73-.03-.2-.06-.37-.08-.5-1.29-10.53-1.6-21.23-.57-31.79.6-4.23,1.61-8.39,2.41-12.58,1.02-6.43,2.68-12.7,4.72-18.87.74-2.79,1.6-5.57,2.02-8.42-.01.11-.03.22-.04.33.11-.46.17-.94.22-1.41.19-2.15.6-4.34.48-6.51.7-6.54,1.72-10.63,2.47-19.56.43-5.39,1.18-15.9,1.38-16.63,1.17-8.24,3.03-14.19,4.72-15.42.27-.31.57-.59.86-.88.23-.18.45-.37.65-.57.25-.23.39-.36.47-.44.27-.19.55-.37.83-.54.35-.18.58-.31.76-.4.22-.06.45-.12.68-.17.25-.01.57-.02.9,0,.06.01.13.02.19.03.95.18,1.88.47,2.79.81,1.84.84,3.57,1.89,5.22,3.07.06.05.12.1.18.15,1.68,1.4,3.18,2.99,4.56,4.68.38.46.75.93,1.11,1.41,1.51,2.13,6.77,10.09,9.66,15.6.1.23.2.45.31.65,2.59,4.48,5.23,9.66,10.57,11.19,4.2,1.03,8.74,1.1,12.99.43-.53.07-1.05.14-1.58.21,1.12.05,2.24.08,3.36.1,6.79.35,13.47-.97,20.12-2.1,3.32-.44-.19.07,5.46-.71,5.78-.77,7.66-1.12,10.73-1.5-.34.07-.58.14-.29.07,4.45-.17,8.91-.16,13.36-.01,18.81.21,20.46,3.62,33.76-11.8,5.08-5.62,9.69-11.77,15.67-16.49,2.86-2.07,5.99-3.73,9.2-5.17.34-.13.68-.26,1.02-.39,1.11-.27,2.2-.79,3.34-.93.29-.03.59-.04.88-.04.04,0,.07.01.11.02.14.08.28.14.41.22.36.31.71.63,1.04.98-.04-.05-.08-.1-.12-.16.41.49.84.96,1.26,1.45.61.85,1.16,1.75,1.6,2.71,0,0,0,0,0-.01.04.09.08.18.12.28.16.32.31.64.45.97.3.82.58,1.64.83,2.48,1,3.47,1.85,7,2.36,10.58.03.31.1,1.03.19,1.75-.04-.21-.06-.21,0,.31.68,8.58-.73,17.12-.85,25.68.01,6.17.08,5.97.87,9.82,2.56,8.01,7.17,15.12,11.25,22.4,5.33,10.3,4.74,8.62,7.35,17.32,1.58,6.88,1.65,6.44,2.11,12.34.49,5.43-.28,11.69-.52,13.2-.12.75-.24,1.44-.35,2.1-5.59.33-11.18.73-16.77,1.06-4.69.14-4.67,7.03.04,7.15,4.92-.11,9.83-.24,14.75-.37-.52,1.55-1.16,3.32-2.01,5.57-.19.48-.38.96-.57,1.44-.23.56-.48,1.12-.73,1.68-3.92-.85-7.86-1.64-11.87-1.72-4.92.15-4.89,7.37.04,7.49,2.65.03,5.54.35,8.58.83-.51.9-1.06,1.79-1.63,2.65-1.88,2.79-2.45,3.41-6.27,7.81-8.23,8.21-9.37,8.29-20.42,13.95-7,3.23-9.45,3.41-18.4,6.33-1.93.73-3.97,1.21-5.88,1.98.34-.21-1.45.27-2.01.91-3.43,2.22-2.17,7.97,1.75,8.85.73.35,2.64.02,2.85-.07.62-.09,1.23-.22,1.84-.32,3.19-.53,6.32-1.32,9.42-2.26.83-.25,1.68-.47,2.49-.79,8.31-2.69,16.03-6.82,23.37-11.53,7.78,10.8,16.99,20.47,26.32,29.93,9.72,9.53,19.51,19.06,27.7,29.96.53.81,6.25,8.18,8.97,13.46,4.34,8.59,4.99,9.93,7.75,19.27,3.62,14.79,3.66,15.22,4.93,30.63.08,2.19,1.43,15.49.72,22.91-.04.42-.06.84-.1,1.26,0,0,0,0,0,.02-.5,3.75-1.23,7.48-2.2,11.14-.68,2.6-1.54,5.14-2.52,7.64-1.96,4.65-4.55,9-7.39,13.17ZM369.23,187.95c-5.54,9.8-8.28,21.29-7.05,32.53,1.47,15.51,3.64,26.83,5.21,39.6,1.02,6.51,2.49,20.81,1.43,31.79-.04.31-.08.63-.12.94-.91,6.61-2.61,13.1-5.16,19.26-.01.03-.03.07-.04.1.04-.11.03-.09-.06.15-.02.04-.04.09-.05.13-1.66,3.75-3.56,7.39-5.67,10.9-1.94,3.01-1.31,2.08-3.02,4.4-3.49,4.35-7.7,8.06-12.08,11.51-.02.01-.03.02-.05.03-2.72,1.97-1.78,1.68-7.34,5.03-5.15,2.58-2.11,1.05-6.61,3.06-6.24,2.33-8.59,2.75-12.34,3.19-.44,0-.89,0-1.33,0,1.36-4.59,2.27-9.3,2.89-14.04,6.36-2.44,12.29-6.45,16.15-12.11.1-.12.19-.25.29-.37,2.87-3.87,5-8.25,6.63-12.77,3.08-10.15,5.31-20.82,5.64-28.09.33-6.27.11-12.61-1.18-18.76-1.98-8.06-4.74-21-5.18-24.98-.57-6.61-.92-13.25-.82-19.89.14-6.54.46-13.09,1.22-19.58,1.01-6.55,3.12-12.86,5.5-19.03,5.56-13.04,10.42-20.84,20.36-25.51,3.11-1.03,2.38-.64,3.82-.74.9.09,1.25-.18,4.46.85,4.17,2.02,3.7,2.11,5.78,3.75.35.34.65.66.86.89.16.25.31.51.45.78.04.11.08.22.11.34.06.26.11.46.14.61.03.45.03.9,0,1.35,0,.02,0,.04-.01.07-1.62,8.35-6.89,14.92-12.82,24.63Z"/>
          <path d="M244.18,64.97c.02.08.02.16.04.24-.01-.13-.03-.28-.05-.43,0,0,0,.01,0,.02,0,.06,0,.12,0,.17Z"/>
        </g>
        <g>
          <path d="M151.01,139.02c-2.33-1.34-5.06-1.42-7.66-1.78-6.19-.7-14.88,0-17.4,6.74-.49,3.2.36,6.71,2.44,9.22,1.28,1.68,3.07,2.88,4.57,4.35.56.54,1.13,1.14,1.76,1.62-.47,2.39-.63,4.84-.54,7.27.12,1.24-.14,2.59.4,3.74.82,2.49,4.39,3.14,6.17,1.28.47-.53.84-1.14,1.02-1.82,0-.04.01-.08.02-.12,0,.05-.01.09-.02.12.06-.21.08-.43.09-.66.22-1.45.41-2.91.56-4.37.03-1.59-.07-3.17-.22-4.74.29-.12.6-.34,1.82-1.03,1.4-.97,2.52-2.28,3.79-3.41,2.03-1.75,4.01-3.68,5.31-6.05,1.96-3.39,1.29-8.16-2.1-10.36ZM143.58,148.58c-.04.05-.07.09-.1.13-.73.91-2.23,2.81-1,1.25-.96,1.04-1.95,2.06-2.84,3.15-2.01-1.91-4.34-3.48-6.2-5.54-.2-.31-.37-.64-.53-.97-.07-.19-.13-.39-.19-.58,1.89-.75,6.67-1.49,10.9-.32.5.09,1,.19,1.49.3-.01.05-.03.09-.04.14-.41.86-.94,1.66-1.49,2.43Z"/>
          <path d="M141.76,169.65s0-.01,0-.02h0s0,.01,0,.02Z"/>
        </g>
        <path d="M196.3,126.28c-.16-3.26-1.33-7.16-4.63-8.04-2.25-1.14-5.14-.68-6.9,2.1-1.44,2.65-1.73,7-.62,10.47,0,.01,0,.02,0,.03.09.37.23.71.39,1.03.61,1.42,1.49,2.63,2.67,3.39,6,3.09,9.81-3.67,9.08-8.99Z"/>
        <path d="M91.48,118.21c-.61-.1-1.28-.08-2.01.07-1.74.53-2.9,1.77-3.63,3.37-.52.83-.94,1.72-1.23,2.67-.93,4.5.88,8.98,1.68,9.76.82,1.27,2.2,1.91,3.62,1.98,1.6.3,3.32-.11,4.57-1.38,1.75-1.73,2.32-4.23,2.52-6.61.34-4.16-1.05-9.62-5.53-9.86Z"/>
      </g>
      <path d="M80.66,50.66c-.09-1.91-.55-3.77-1.29-5.53-.92-2.41-2.37-4.59-3.59-6.85-1.77-3.08-3.89-6.08-6.84-8.13-3.94-3.19-10.14-2.63-11.77,2.7-1.2,3.26-1.68,6.73-2,10.18-.34,3.65-.6,7.31-.29,10.97.17,2,.19,4.45,2.21,5.52.41.25.86.4,1.3.47.79.99,1.99,1.67,3.53,1.66-.04,0-.07-.01-.11-.02.13.01.27.02.43.04,3.79.06,7.4-1.39,11.08-2.12,1.98-.66,4.04-1.33,5.66-2.69,1.09-1.15,1.78-2.8,1.75-4.38.07-.6.03-1.2-.07-1.8ZM62.95,52.04c.06-1.13.13-2.26.13-3.39-.02-4.96-.02-10.39.66-12.69,0-.01.01-.03.01-.04.15.09.3.18.46.28.17.14.49.42.8.73,1.86,1.71,3.33,4.84,5.4,9.2,1.24,2.57,1.8,3.37,2.24,3.88-.74.19-1.57.38-1.96.38-2.6.48-5.13,1.26-7.74,1.66Z"/>
      <path d="M226.65,32.42c-.64-4.04-3.18-8.87-7.84-8.76-2.16.18-4.1,1.31-5.97,2.32-2.27,1.41-2.9,1.8-6.23,5.05-2.55,2.62-4.59,5.69-6.6,8.73-1.17,2.11-3.12,4.19-3.6,6.56-.07.47-.06.9.02,1.3-.54,1.1-.53,2.49.08,3.57.61,1.15,1.85,1.65,2.93,2.26,2.4,1.25,5.01,2.05,7.56,2.95.89.26.22.05-.24-.15,3.11,1.26,6.37,2.15,9.57,3.14.75.15,1.53.28,2.3.28,2.74.62,5.2-1.48,6.19-3.91,1.41-2.94,1.54-6.25,1.86-9.43.45-4.62.84-9.3-.03-13.9ZM217.32,52.47c-.11-.02-.22-.03-.33-.06-2.57-.67-5.2-1.07-7.75-1.82-1.15-.54-2.25-1.17-3.38-1.75-.36-.13-1.14-.6-1.75-.99,3.36-4.68,10.43-12.2,14.28-15.15.58,1.87.42,1.64.61,5.07-.17,5.9-.78,11.9-1.68,14.68Z"/>
    </g>
  </g>
</svg>