<?xml version="1.0" encoding="UTF-8"?>
<svg id="Layer_2" data-name="Layer 2" xmlns="http://www.w3.org/2000/svg" viewBox="0 0 483.65 268.07">
  <g id="Layer_2-2" data-name="Layer 2">
    <g>
      <g>
        <path d="M140.47,47.63s.07-.06.11-.08c-.12.09-.3.22-.56.41.15-.11.3-.22.45-.33Z"/>
        <path d="M140.64,47.5s-.04.03-.06.05c.25-.18.24-.17.06-.05Z"/>
        <g>
          <path d="M140.31,239.85s0-.03,0-.05c0,.03,0,.06-.01.09,0-.01,0-.02,0-.04Z"/>
          <path d="M138.92,244.68s.03-.07.04-.11c-.03.06-.06.13-.08.2.02-.03.03-.06.04-.09Z"/>
          <path d="M274.84,114.66c-2.24-1.26-4.67.14-6.97.54-3.2.81-6.43,1.58-9.65,2.37.04-2.88-.03-5.77-.2-8.65-.07-1.14-.16-2.28-.27-3.42,2.38-1.09,4.77-2.18,7.15-3.27,1.66-.73,3.23-1.62,4.83-2.47.04-.02.07-.04.1-.05.01,0,.02-.01.03-.02,0,0,0,0-.01,0,1.22-.66,1.93-2.17,1.53-3.53-.55-2.08-2.87-2.73-4.72-1.96-1.74.41-3.45.93-5.14,1.53-1.66.54-3.3,1.16-4.91,1.83-.47-2.28-1.09-4.53-1.9-6.72-3.48-8.82-4.48-9.53-9.08-15.57-3.96-4.87-8.21-9.52-13.02-13.58-4.8-4.14-9.65-8.26-15.04-11.61-4.58-2.91-15.2-9.19-14.57-9.39-2.76-3.07-1.43-1.57-4.62-6.42-3.04-4.55-6.37-8.9-9.24-13.56-4.01-6.72-9.03-13-15.96-16.88-4.02-2.25-8.54-4.19-13.24-3.79-1.43.17-2.91.3-4.15,1.08-.78.32-1.54.68-2.22,1.17-1.64,1.08-3.01,2.47-4.21,4-.04.04-.08.08-.15.15-.43.43-.78.93-1.07,1.45-3.37,4.54-5.61,9.83-7.32,15.19-1.25,4.09-1.98,8.33-3.48,12.34-.02.06-.05.13-.07.19-.27.55-.9,1.86-1.42,2.69-.2.22-.5.55-.83.85-.59.35-2.35,1.49-2.99,1.76-3.51,1.8-7.05,3.58-10.63,5.25-3.94,1.75-7.67,3.91-11.47,5.92-3.61,1.87-7.34,3.52-10.84,5.6-9.1,5.82-18.39,11.34-27.59,17.01-4.03,2.37-8.04,4.83-12.21,6.96-1.01-.53-2-1.08-3.03-1.56-.14-.09-.28-.19-.44-.25-13.58-6.86-38.28-12.24-49.95.18-7.25,8.26-6.63,20.13-4.29,30.2.65,2.79,1.42,5.55,2.36,8.26.51,1.4.89,2.89,1.67,4.15-.15-.06.49,1.15.87,2.06,2.88,6,6.31,11.76,10.58,16.88.26.25.52.46.8.65-.04.29-.07.58-.09.87-.55,2.19-.59,4.54-.88,6.78-.14.47-.13.97-.17,1.46-.69,6.06-.58,12.19.2,18.24,1.83,12.9,7.25,24.95,15.09,35.23-3.96,2.46-7.82,5.06-11.54,7.88-.46.34-1.77,1.34-2.47,1.87-.87.52-1.52,1.37-1.77,2.35-.56,2,.76,4.24,2.78,4.73,1.38.35,2.66-.13,3.8-.9,1.6-.91,3.2-1.81,4.81-2.71,3.44-2.1,6.86-4.21,10.31-6.3,2.06,2.16,4.23,4.21,6.5,6.15-1.01.96-2.02,1.92-3.02,2.9-2.37,2.29-4.68,4.63-6.84,7.13-1.1,1.33-2.73,2.55-2.66,4.44-.09,3.22,4.2,5.01,6.43,2.67,4.49-3.8,8.9-7.68,13.29-11.6.64.44,1.27.87,1.92,1.28-2.05,4.35-2.38,9.46-1.56,14.17,2.48,14.47,20.46,23.63,36.48,27.52,7.31,1.46,10.88,1.78,19.88,1.64,6.98-.56,8.76-1.36,16.86-1.41,14.11-.15,24.1-14.62,24.12-27.84-.21-1.45.17-.93-.85-4.14-.4-1.12-.95-2.17-1.59-3.17,1.59-.44,3.17-.9,4.74-1.38-.7,7.59,3.81,14.26,11.83,18.06,3.51,1.72,7.36,2.26,11.18,2.9,6.6,1.08,13.32,1.55,20.01,1.52,8.37-.3,16.64-1.8,24.64-4.24,4.88-1.24,9.72-2.67,14.33-4.72,1.53-.64-.58.22-.85.34,5.72-2.35,10.79-6.11,15.39-10.19,3.33-3.06,6.29-6.49,9.15-9.98,2.98-3.57,5.74-7.38,7.47-11.73,3.16-5.97,2.87-16.16,2.57-18.06-.42-4.03-.04-1.77-.68-5-.08-.37-.15-.74-.25-1.11-.38-2.52-3.05-4.37-5.6-3.65-1.67.43-2.98,1.92-3.27,3.6-.74,2.19-.98,4.55-1.54,6.79-.02.1-.03.21-.05.32-.06.23-.08.47-.14.7-.53,2.72-1.22,5.42-2.24,8,.23-.56.46-1.11.69-1.67-.28.64-.55,1.29-.79,1.94-.06.17-.12.34-.19.51-.97,2.17-2.13,4.26-3.51,6.2-.07.09-.13.18-.2.27-1.68,2.09-3.35,4.19-5.07,6.25-7.06,7.92-8.29,9.24-16.32,13.81-9.65,5.26-6.67,3.37-15.49,7.04-4.73,1.99-9.68,3.38-14.7,4.4-6.2,1.08-1.72.59-8.45.96-7.39.4-10.87-.57-19.28-2.64-2.9-1-4.62-2.15-7-4.38-.26-.27-.51-.56-.68-.76-.27-.4-.52-.8-.73-1.23-.25-.62-.29-.69-.24-.51-.06-.16-.14-.31-.21-.46-.05-.14-.11-.28-.15-.42-.21-.46-.42-1.5-.53-2.09-.05-.54-.06-1.08-.02-1.63.05-.38.07-.53.06-.56.15-.65.39-1.28.64-1.9,4.57-1.67,9.09-3.49,13.55-5.39,13.92-6.21,27.41-13.66,39.13-23.48,8.16-6.94,16.24-14.17,22.75-22.72,10.17-13.16,17.88-28.65,20.39-45.18.23-1.52.42-3.05.56-4.58,5.31-1.01,10.61-2.02,15.87-3.25,3.58-.68,4.35-5.77,1.17-7.52ZM140.31,239.85c-.02.18-.02.37-.05.55,0-.17.02-.35.04-.51-.01.05-.02.09-.03.16-.3,1.55-.75,3.06-1.31,4.53.16-.35.24-.48-.04.11-.08.2-.15.4-.23.6.05-.17.12-.34.19-.5-.02.04-.03.07-.06.12-2.66,4.91-2.89,5.07-5.23,7.79-2.89,2.63-.53.93-3.83,2.94-.13.07-.27.13-.41.19-.04.01-.06.02-.1.04-.56.27-2.12.58-2.79.71-3.05.29-6.13.14-9.18.51-5.6.6-5.2.87-9.45,1.12-3.84.17-7.69,0-11.51-.35-.07-.01-.15-.02-.22-.03-14.94-2.59-27.06-9.73-32.42-17.97-1.7-2.92-2.19-6.24-1.35-10.16,2.52,1.23,5.1,2.34,7.73,3.3,9.47,3.12,19.47,5.07,29.45,5.38,9.01-.21,17.94-1.74,26.89-2.76,4.26-.5,8.47-1.23,12.64-2.15.11.19.23.38.33.58.19.37.36.74.53,1.12.15.4.37,1.04.42,1.44.03.14.05.26.07.36.02.28.03.56.03.85-.02.67-.04,1.34-.1,2.01.06-.42.12-.61,0,.05ZM244.39,121.17c-5.23,1.51-10.39,3.22-15.38,5.36-2.46,1.7-.47,5.74,2.39,4.9,4.12-1.26,8.3-2.3,12.5-3.22-.12.86-.25,1.68-.41,2.4-2.78,12.95-4.63,16.95-10.62,27.77-7.23,12.58-16.41,21.35-29.69,32.7-4.75,3.85-8.54,6.51-16.37,11.05-7.27,4.17-14.77,7.94-22.51,11.15-8.98,3.59-18.16,6.77-27.57,9.04-10.84,2.33-14.5,2.4-25.15,3.82-12.29,1.64-18.11.98-28.59-1.46-8.64-1.9-16.06-4.75-22.83-8.92.66-.6,1.32-1.19,1.98-1.79,1.74-1.56,3.48-3.13,5.26-4.64.84-.72,1.82-1.39,2.12-2.51,2.02-4.54-3.98-8.52-7.49-5.03-3.18,2.8-6.34,5.63-9.47,8.5-1.63-1.35-3.23-2.79-4.81-4.34,2.65-1.51,5.31-2.99,8.01-4.41,3.2-1.55,3.63-1.85,5.24-2.34,1.4-.33,2.9-.81,3.62-2.17,1.78-2.85-1.17-6.71-4.4-5.74-6.44,1.55-12.77,4.81-18.63,7.94-.19-.23-.39-.45-.58-.69-6.71-8.06-12.83-23.42-13.71-34.25-.36-4.42-.67-8.84-1.04-13.27,0-.25-.03-.5-.07-.74,0-.15,0-.3,0-.45-.2-2.16.05-4.39-.19-6.54.12.32.17-1.38-.26-1.97-.16-.51-.46-.95-.83-1.32.51-1.22.52-2.67-.28-4.13-4.8-7.69-6.81-14.7-7.81-18.28-1.54-4.55-2.7-9.24-3.4-13.99-.57-4.42-.45-1.68-.67-7.11-.01-.77.03-1.53.09-2.29.16-1.02.39-2.02.73-2.99,0,0,0,0,0,0,.36-.79.77-1.55,1.24-2.26.41-.47.85-.91,1.33-1.31.21-.14.42-.28.65-.4.93-.61,1.87-1,5.8-1.77,1.39-.14,2.79-.21,4.2-.18,7,.28,7.95.63,16.2,2.87,2.01.68,4.05,1.23,6.08,1.83,1,.29,1.98.67,2.99.86-.25.09,2.66.82,3.56,1.06,1.97.44,4.13.62,6.01-.25,3.21-1.23,12.82-8.01,16.08-9.98,4.31-2.76,8.77-5.27,13.11-7.99,4.17-2.58,8.2-5.42,12.52-7.75,13.32-6.21,21.03-9.09,34.13-16.36.75-.35,2.63-1.67,3.15-2.04,1.69-1.17,3.07-2.69,4.18-4.42,4.07-6.65,4.67-14.68,7.77-21.74-.18.44-.36.87-.54,1.31,1.54-3.77,3.22-5.83,3.71-6.37.38-.44.77-.87,1.17-1.29.35-.32.69-.66,1.04-.99.41-.27.83-.52,1.26-.73.06-.02.12-.03.18-.05.26,0,.53-.04.79-.09.44-.04.87-.04,1.31-.02.6.13,1.19.31,1.77.52.14.06.32.14.55.24,4.48,2.41,3.64,2.08,5.36,3.31,1.22,1.03,2.4,2.11,3.45,3.31,1.82,1.67,5.68,8.82,10.05,14.5,1.63,2.1,3.32,4.15,4.92,6.27-.11-.16-.33-.44-.52-.69,4,4.77,4.61,8.4,12.2,13.2,5.76,3.66,11.73,7.02,17.19,11.14,3.96,3.22,7.75,6.66,11.34,10.3,5.09,5.79,7.13,7.99,9.51,11.66,3.76,6.42,3.07,4.93,5.03,11.54.64,3,.97,4.4,1.18,5.58-.51.27-1.02.54-1.53.81-5.52,3.01-11.26,5.76-16.27,9.6-3.68,2.22-.57,7.7,3.24,5.68,4.39-3.12,9.32-5.34,14.13-7.71.38-.19.76-.36,1.14-.55.15,3.44.2,6.55.14,9.35Z"/>
        </g>
      </g>
      <path d="M483.42,143.96c-.85-12.14-2.82-24.33-6.64-35.91-4.19-12.06-10.85-23.18-18.67-33.22-5.02-6.41-11.14-11.83-17.64-16.7-6.14-4.69-12.55-9.03-19.3-12.78-14.24-7.51-28.8-14.61-43.96-20.09-18.16-6.39-37.29-9.85-56.55-10.02-15.66-.41-31.32.7-46.75,3.37-17.12,2.41-34.11,6.9-49.37,15.2-3.82,2.13-7.46,4.57-11.03,7.09-1.95,1.49-4.62,2.55-5.23,5.16-1.21,4.42,3.78,8.22,7.72,5.91,10.34-7.2,18.98-11.67,28.07-14.58,14.31-5.08,33.06-7.29,43.36-8.74,15.73-2.1,40.28-1.39,50.41-.09,9.21,1.22,18.27,3.39,27.13,6.14,14.36,4.7,14.45,4.89,29.22,11.66,26.32,12.14,47.35,24.83,59.69,44.86,9.12,14.14,12.46,23.84,15.3,41.73.51,3.12,1.93,15.85,1.12,24.49-.56,3.93-1.5,7.79-2.6,11.6-4.61,16.2-7.75,24.38-17.62,38.92-6.8,9.38-8.48,13.33-15.41,20.11-6.09,5.88-11.11,8.59-20.81,13.74-13.25,7.03-29.19,11.36-43.27,12.5-13.88,1.3-27.84,1.09-41.7-.38-2.1-.21-9.6-1.05-16.15-2.53-9.32-2.49-14.17-3.87-19.57-7.19-1.75-1.31-5.34-5.15-6.93-8.38-.15-.3-.27-.6-.4-.9-.5-1.55-1.08-3.1-1.38-4.7-.05-.57-.01-1.14,0-1.7.16-.48.35-1.03.48-1.39.45-.95,1-1.84,1.62-2.69.11-.13.21-.26.31-.39.93-1.09.17-.45,2.36-2.67,1.83-1.82,1.82-1.43,2.3-1.9.12-.07.25-.15.43-.27,4.41-2.37,4.04-2.28,8.7-3.59,5.19-1.6,16.71-1.01,20.64-.31,4.85.7,9.67,1.67,14.54,2.21,4.12.24,8.26.25,12.39.09,12.63-.64,24.71-5.01,36.59-9.04,13.21-4.76,20.3-7.6,31.08-14.36,4.19-2.72,8.23-5.77,11.65-9.42,1.34-1.52,2.78-2.99,4.03-4.6,0,.02.1-.07.39-.41,1.42-1.78,2.77-3.63,4.08-5.5.29-.44.62-.88.89-1.34.31-.37.57-.76.7-1.24,2.08-4.65-4.13-8.78-7.71-5.18-.32.33-.4.45-.36.46-1.76,1.39-3.4,3.45-5.17,4.81-1.2,1.06-.15.34.47-.18-4.32,3.39-7.97,7.61-12.42,10.86.06-.03.13-.08.21-.14-4.18,3.31-13.54,9.59-21.63,13.36-5.14,2.54-11.09,4.7-21.44,8.22-11.34,3.5-17.22,4.55-28.34,4.06-5-.11-10.01-.71-15.01-1.18.83-.85,1.7-1.67,2.6-2.45,2.96-2.88,6.88-4.76,9.26-8.19,1.9-2.55.96-5.83-.13-8.51-.2-.66-.39-1.32-.61-1.98-.99-6.79-3.81-17.39-4.12-22-1.14-13.18,2.62-26.46,7.23-31.93,5.17-6.12,12.34-11.01,15.26-13.9,3.72-4.51-1.89-10.96-6.96-8.03-4.16,2.99-8.15,6.23-11.96,9.66-3.59,3.23-7.05,6.76-9.28,11.09-5.04,9.97-7.13,21.39-6.38,32.52.48,5.5,1.56,10.99,3.71,16.1l-.55-1.34c1.48,3.96,3.2,7.88,5.77,11.26-.43-.53.19.51.59,1.27.02.07.05.13.08.21.12.37.24.74.35,1.11-3.05,1.57-5.88,3.66-8.69,5.62-3.9,2.56-7,7.54-6.89,8.92-1.69.02-3.38.09-5.08.27.35-.05.7-.09,1.05-.14-2.52.13-5.03.37-7.52.73-.26.03-.63.08-.94.13-2.3.28-4.6.67-6.83,1.31-3.16.96-6.22,2.29-9.09,3.94-2.8,1.28-5.33,3.2-7.45,5.42.33-.25.66-.5.98-.74-1.07.77-2.02,1.69-2.86,2.71-.93-.62-2.18-.61-3.25-.81-3.35-.26-6.73-.32-10.09-.56-2.38.05-5.02-.84-7.27.04-4.76,1.82-3.27,9.04,1.8,9,4.88-.04,9.83.51,14.67-.27-.75,1.92-1.05,4.06-1.23,6.06-.23,2.29.27,4.49,1.07,6.58,1.4,4.09,3.95,7.66,7,10.7,2.33,2.28,4.85,4.42,7.69,6.03,3.02,1.61,6.26,2.78,9.47,3.95,9.96,3.7,20.52,5.16,31.04,6.21,19.11,1.92,38.47,1.11,57.35-2.44,12.88-2.46,25.17-7.35,36.73-13.47,8.67-4.61,16.95-10.2,23.72-17.36,5.07-5.44,9.13-11.69,13.56-17.63,3.87-5.29,7.55-10.76,10.52-16.62,3.33-6.66,5.86-13.7,8.1-20.79,1.76-6.05,3.66-12.1,4.48-18.36.8-5.35.55-10.77.32-16.15Z"/>
      <path d="M107.41,171.28c.78-2.29.26-5.11-1.25-7.26-3.59-6.42-12.76-4.9-13.01,2.74.19,3.28,1.53,6.74,4.41,8.53,2.59,1.66,6,1.18,7.97-.89.94-.69,1.64-1.73,1.89-3.12Z"/>
      <path d="M185.23,127.81c-.1-.3-.22-.6-.34-.89-.58-1.51-1.71-3.03-3.3-3.55-2.47-1.17-5.51.03-6.84,2.35-.77,1.57-1.08,3.41-.78,5.12-.04.61-.02,1.24.07,1.88.43,7.97,12.14,9.24,12.6.66-.05-.74-.17-2.55-1.41-5.57Z"/>
      <path d="M174.24,36.5c-1.59-3.06-3.46-6.02-5.77-8.6-7.98-8.07-14.29,1.05-15.29,9.25-.19,2.07-1.29,4.35-.22,6.32.58,1.1,1.63,1.68,2.73,1.8-.1.37-.17.76-.17,1.14.46,6.64,9.26,4.86,13.76,4.18,3.5-.84,7.45-2.71,7.26-6.9-.15-2.55-1.14-4.94-2.31-7.18ZM165.89,42.78c-2.01-.13-3.97-1.13-5.98-1,.45-2.57.87-5.17,1.79-7.61.02-.05.05-.11.07-.16.17-.35.37-.67.59-1,.16.17.3.33.4.44,2.17,2.94,4.1,6.05,5.61,9.38-1.27.12-2.15-.12-2.48-.05Z"/>
      <g>
        <path d="M43.63,100.05c-3.03-1.39-6.17-2.56-9.5-2.98-2.71-.5-5.59-.61-8.11.66-5.19,2.62-4.09,9.06-3.01,13.75.66,3.3,2.05,6.38,3.36,9.46.92,1.67,1.48,3.76,3.12,4.87,2.89,2.36,6.51.98,8.06-1.64.46.03.92,0,1.38-.13,2.4-.88,4.06-3.1,5.91-4.79,2.41-2.45,5.04-5.06,5.82-8.53,1.54-5.34-2.67-8.66-7.03-10.67ZM36.3,115.18c-.14.14-.29.28-.44.43-2.27-4.34-2-4.57-3.66-9.14-.05-.13-.1-.3-.16-.49.27,0,.53.01.78.03.26.04,2.24.32,3.14.44,3.17.38,6.73,1.48,7.73,2.01-.05.08-.1.17-.15.25-2.16,2.43-4.76,4.39-7.24,6.47Z"/>
        <path d="M35.97,106.45c-.15-.02-.3-.04-.44-.05,1.16.15,1.04.13.44.05Z"/>
      </g>
      <path d="M155.39,168.93c.14-.16.27-.32.39-.49,1.64-2.8,2.8-5.88,3.64-9.01,1.37-4.31.15-10.77-5.39-10.76-2.79.11-5.32,1.47-7.75,2.75-1.38.75-2.82,1.4-4.07,2.36-3,2.42-12.82,8.33-5.77,14.34,2.49,2.06,5.45,3.43,8.56,4.25,1.56.32,3.16,1.09,4.76.77.02,0,.04,0,.05-.01.52,1.13,1.17,2.23,1.67,3.36,2.18,3.22,4.54,7.97,7.46,7.37,1.61-.12,2.84-1.65,2.84-3.23-.23-2.35-3.54-7.78-6.39-11.7ZM143.84,161.56c.48-.5.94-.96,1.18-1.13,0,0,0,0,0,0,.9-.66,1.85-1.25,2.85-1.75.03-.02.07-.03.11-.05.26-.07.52-.13.77-.19,1.06-.27,2.14-.45,3.22-.63-.11,2.03-.28,2.8-.9,5.5-.23-.09-.45-.19-.7-.25-2.21-.34-4.39-.86-6.54-1.5Z"/>
    </g>
  </g>
</svg>