<?xml version="1.0" encoding="UTF-8"?>
<svg id="Layer_2" data-name="Layer 2" xmlns="http://www.w3.org/2000/svg" viewBox="0 0 543.41 381.25">
  <g id="Layer_2-2" data-name="Layer 2">
    <g>
      <path d="M263.18,234.39c-7.17-3.26-14.47-2.94-23.71.76-10.79,4.71-20.75,11.4-29.23,19.56-6.15,5.69-11.05,12.7-13.46,20.78-4.46,14.55-3.26,30.44.91,44.93,2.38,7.87,13.87,4.79,12.02-3.22-4.76-16.27-5.36-35.06,3.76-47.77,3.42-4.11,7.25-7.87,11.29-11.37,3.73-3.15,4.49-3.66,10.52-7.49,8.15-4.89,11.77-6.57,17.27-7.03.89-.03,1.77-.01,2.65.05.41.07.83.15,1.23.26.38.1.74.22,1.11.36.05.03.1.05.17.08,1.89,1.15,1.39.51,3.24,2.65,1.67,2.81,1.08,1.72,1.72,3.91.08.33.14.67.2,1,0,.1.02.38.06.89.01.69-.02,1.37-.07,2.05-.07.41-.14.81-.23,1.21-.08.75-.8,2.83-1.12,3.76-2.05,4.48-4.22,7.25-5.19,8.4-3.64,4.59-8.98,7.59-12.17,12.55-.14.19-.26.39-.37.59,0,.01-.02.03-.02.04,0,0,0,0,0,0-.06.1-.13.19-.18.3-2.58,4.77-2.79,10.35-1.27,15.49,2.7,8.02,6.01,15.86,9.9,23.38.97,1.78,2.07,3.54,3.31,5.16,0,.02.02.04.05.09.4.56.78,1.14,1.19,1.69,0,0,0,.01,0,.02,0,0,.01.01.02.02.04.05.08.11.13.16,3.43,4.95,10.81.94,8.8-4.38-.17-.67-.41-1.32-.68-1.96-.31-1.21-.8-2.38-1.13-3.58-1.34-4.09-6.54-15.16-9.03-26.49-.02-.38-.04-.84-.03-1.29.02-.11.04-.23.06-.34.08-.33.18-.65.29-.97.14-.3.27-.6.39-.91.43-1.02.95-2.01,1.58-2.92.02-.03.03-.04.06-.08,3.69-3.96,7.42-7.93,10.16-12.65,2.57-3.98,4.9-8.19,6.04-12.83,2.56-9.37-1.24-20.47-10.24-24.86Z"/>
      <g>
        <path d="M117.33,340.42s-.05,0-.07.01c0,0,.02,0,.03,0,.02,0,.03,0,.05,0Z"/>
        <g>
          <path d="M541.68,43.47c-1.94-8.62-4.4-17.37-9.1-24.92-6.81-10.75-19.29-16.66-31.65-18.16-9.87-1.48-20.73,1.29-27.92,8.4-1.3,1.61-2.3,2.56-3.78,6.48.03-.07.06-.13.09-.2-.05.12-.1.24-.15.36-.04.1-.07.19-.11.28,0-.03.02-.07.03-.11-1.06,2.66-1.58,5.55-1.46,8.42,1.08,11.12,5.18,21.72,9.2,32.06,1.12,2.7,1.22,2.33,3.21,6.94.14.33.24.58.32.77.69,1.68,1.37,3.35,2.08,5.02.25.77.59,1.52.94,2.25.04.1.09.21.13.31.02.06.05.12.08.19,1.27,3.22,2.26,6.55,2.95,9.95.12.59.25,1.38.34,1.94.05.4.1.79.13,1.19.35,5.34.1,10.72-.34,16.05-.11.18-.21,4.83-1.97,11.89-3.15,9.82-2.71,7.77-6.57,15.93-4.05,7.43-4.91,8.57-9.41,13.52-4.92,5.55-11.09,9.75-16.84,14.38-2.47,1.52-9.73,7.79-17.21,11.76-.6.32-1.21.62-1.83.89-.55.19-1.1.34-1.67.45-1.36.06-2.8-.33-4.04.39-.11.04-.2.1-.31.15-.73-1.32-1.4-2.67-2-4.05-.11-.28-.24-.62-.38-.97,0,0-1.12-2.88-1.4-3.96-1.04-3.77-.64-3.87-.81-4.48-.09-1.24-.1-2.49,0-3.73.03-.12.06-.34.12-.67.59-2.41,1.32-4.34,4.83-9.17,3.21-4.27,6.58-8.55,8.38-13.65,1.91-5.7,2.37-11.96,1.36-17.89-.9-5.78-2.63-11.38-4.23-17-2.19-7.84-5.42-15.33-9.5-22.36-2.15-3.99-4.44-7.9-7.29-11.43-1.73-2.03-3.6-4.23-6.06-5.35.91.37.48.09-.67-.69-2.89-1.9-6.4-3.07-9.87-2.63-8.29.88-15.72,7.23-18.1,15.19-1.68,6.43-1.32,13.18-1.43,19.77.05,5.83.49,7.88.11,12.22-.1,1.07-.16,1.83-.2,2.43-1.89-.65-3.89-1.02-5.82-1.3-3.91-.61-7.87-.56-11.82-.48-7.39.24-9.64.64-18.82,3.6-6.75,2.31-13.19,5.54-18.68,10.14-12.85,9.92-20.78,25.47-22.22,41.55,0,.41-.03.84-.06,1.27-2.66.51-5.3,1.15-7.91,1.86-3.73,1.1-7.5,2.22-11.14,3.63.38-.46.75-.93,1.09-1.42.17-.26.25-.39.3-.46.87-1.16,1.65-2.39,2.24-3.72,2.52-6.25,2.27-6.14,2.46-11.65-.13-3.53-.76-7.06-2.3-10.26-2.11-4.56-6.27-7.61-10.58-9.95-9.93-5.69-22.24-9.71-33.46-5.63-10.24,3.28-19.19,10.21-25.22,19.08-3.47,5.21-5.62,11.2-7.25,17.21-2.06,7.91-2.27,15.25-3,19.93-.28,2.26-.55,4.52-.79,6.78-1.9-3.05-4.11-5.92-6.64-8.5-3.77-4.1-7.91-7.93-12.78-10.68-.07-.04-.15-.07-.23-.11.72-1.2,1.47-2.43,2.28-3.73,1.58-2.27,3.06-4.61,4.63-6.88.75-1.15,1.84-2.24,1.85-3.69.76-3.96-4.06-7.06-7.45-4.99-1.5.82-2.19,2.44-3.15,3.77-1.49,2.24-2.92,4.52-4.21,6.88-.91,1.67-1.76,3.38-2.58,5.1-2.74-.87-5.54-1.54-8.38-2.05.51-1.3,1.04-2.52,1.59-3.65,1.86-4.1,4.37-7.84,6.52-11.78.56-1.11,1.55-2.11,1.59-3.4.55-2.75-2.44-5.24-5.07-4.45-2.46.98-2.18,1.68-2.85,2.28-1.36,1.7-2.79,3.37-3.97,5.21-3,4.53-5.18,9.51-6.63,14.71-2.18-.16-4.36-.24-6.53-.27-5.28-.3-10.56-.77-15.85-.48-5.64.07-11.28,1.01-16.92.92-.1-.03-.19-.05-.27-.07-.77-.38-1.51-.81-2.21-1.29-.19-.13-.38-.27-.58-.41.09.07.14.12.16.14-.14-.11-.29-.22-.43-.33,0,0,0,0-.01,0,0,0,0,0,0,0-.22-.17-.43-.34-.65-.5.09.06.19.13.27.19-6.74-5.4-13.54-11.07-21.38-14.76,2.5,1.11-.14-.35-1.23-1.01-4.51-2.69-9.37-3.38-13.42.57-4.17,4.75-5.6,11.31-6.46,17.42.06-.44.11-.88.17-1.32-1.39,7.05-1.56,14.23-1.23,21.39-.08,5.14.19,3.7-.57,7.28-.7,2.37-.93,2.38-5.27,7.45-5.47,6.63-6.26,7.72-11.25,14.35-3.13,4.41-5.98,9.03-9.21,13.37-3.22,4.64-4.09,6.34-6.15,8.5-.32.21-.65.39-.99.56-.03.01-.05.02-.08.03-.2.03-.4.06-.6.13-5.76,2.17-10.12.63-18.57,3.42-7.79,2.6-19.23,6.87-21.67,15.51-.43,1.97-.34,4.01.18,5.96.09.44.33,1.07.52,1.51.04.11.08.23.12.34,2.35,6.82,7.46,12.12,12.46,17.13,6.45,6.89,14.39,14.31,16.8,18.7.69.96,1.89,3.48,1.63,2.78,1.51,3.61.84,1.42,2.36,6.01,1.81,6.48,3.91,13.02,8.16,18.37,5.45,7.43,12.62,13.29,19.66,19.16-.71,1.87-1.35,3.76-1.89,5.69-.44,1.85-1.64,3.88-.55,5.71.89,1.65,3.17,2.26,4.78,1.31.55-.36,1.01-.82,1.33-1.37,0,.02-.02.04-.03.07.01-.02.02-.04.03-.07.13-.23.24-.48.31-.75.64-1.56.26-.64,1.35-3.24.3-.68.58-1.34.85-1.98,2.52,2.22,5.06,4.42,7.8,6.39,1.71,1.26,3.55,2.33,5.46,3.25-.05.93-.09,1.87-.11,2.8-.07,2.21.02,4.41.22,6.61.03,1.1.22,2.26,1.06,3.05,1.55,1.64,4.43,1.25,5.53-.71.92-2.72.99-4.78,1.47-8.34,1.08.38,2.16.74,3.26,1.06,2.03.7,4.33.81,6.43,1.12,5.54.72,11.14.29,16.64-.55,2.27-.42,4.78-.59,7-1.38,1.11-.3,2.19-.7,3.27-1.1,3.19-1.28,6.4-2.58,9.32-4.41.02.03.04.07.06.1,1.13,1.55,2.73,2.7,4.22,3.9,4.24,3.37,8.67,6.49,13.54,8.89,14.97,8.02,31.88,11.52,48.71,12.6,6.32.4,22.69,3.94,34.56,5,4.8.4,9.62.24,14.43.35,4.65.09,9.29.62,13.94.69,6.48.07,12.95-.46,19.42-.48,7.76-.11,15.46-1.15,23.1-2.48,7.27-1.2,14.28-3.47,21.32-5.58,4.57-1.34,9.23-2.36,13.76-3.83,12.02-4.41,23.41-10.38,34.74-16.31,15.02-7.69,29.95-19.25,36.94-24.61,12.54-9.64,25.09-19.38,36.53-30.34,9.17-9.26,12.01-13.15,18.27-25.25,3.21-6.27,3.51-8.55,7.89-17.1,2.93-5.26,6.32-10.26,9.95-15.06.02-.01.02-.01.05-.03,2.63-3.23,5.3-6.46,7.23-10.18,2.32-4.31,4.04-8.91,6.04-13.37,2.73-5.94,4.98-12.08,6.58-18.43,1.96-7.39,4.03-15.37,1.53-22.87-.97-2.83-2.51-5.38-4.46-7.59.96-1.17,1.55-1.96,3.09-4.7,4.66-6.97,5.2-7.72,9.93-15.06,6.27-9.24,11.31-19.26,15.75-29.49,3.3-7.28,8.8-24.81,10.02-38.79.9-12.05.94-24.3-1.14-36.24ZM496.8,184.04c-.11,4.49-4.67,16.83-7.27,23.34-4.19,9.68-4.49,12.61-10.79,22.49-2.33,3.81-7.61,9.93-12.02,17.5-4.91,8.32-8.25,17.45-12.94,25.9-5.8,10.57-12.37,16.54-23.08,26.59-12.48,11.06-26.35,21.52-33.53,26.54-16.35,11.11-34.15,19.85-52.32,27.54-9.76,3.75-12.78,3.67-21.52,6.03-11,3.06-18.56,4.44-26.05,5.1-5.79.72-11.62.67-17.44.9-9.01.62-17.86.75-26.89.16-10.89.07-18.09.16-25.15-1.19-7.4-.84-14.72-2.18-22.09-3.18-11.1-.85-15.18-1.4-27.73-4.31-11.71-3.63-14.76-4.68-25.84-10.83-4.62-2.79-6.37-4.02-7.66-4.97,1.19-2.83-.09-6.49-3.56-7.4-1.24-.25-2.52-.2-3.65.34-.33.11-.66.23-.99.34-1.32.47-2.68.81-3.96,1.39-5.23,1.47-3.94,1.59-10.2,3.18-.93.24-1.88.4-2.82.6-.64.08-1.3.2-1.97.33.9-.14,2.14-.2.57-.05-.2.03-.41.04-.61.06-.15.03-.29.06-.45.09.11-.03.26-.06.42-.08-3.94.47-7.91.53-11.88.44-5.55-.14-4.65-.21-7.22-.61-.74-.15-1.51-.26-2.28-.28-1.05-.15-2.09-.33-3.13-.53,1.92-7.61,4.4-15.3,5.68-18.61,2.66-4.87-4.39-8.96-7.31-4.22-3.18,6.17-5.62,12.75-7.26,19.53-3.38-2.02-6.85-4.65-9.02-6.39,3.43-4.51,3.34-4.48,8.27-10.04,2.09-2.51,4.85-4.8,6.41-7.64,1.94-4.27-3.81-8.1-7.11-4.78-4.9,5.5-10.05,10.94-14.15,17.06-4.72-3.91-9.36-7.91-13.41-12.52-.58-.65-1.12-1.32-1.67-1.99-.19-.26-.38-.52-.55-.79-1.22-1.79-2.32-3.66-3.21-5.64-1.73-4.75-2.86-9.71-5.01-14.31-.37-.91-.83-1.78-1.4-2.57.8.95-2.2-3.47-3.05-4.45-3.58-4.88-8.33-8.69-12.76-12.74-7.85-7.23-15.8-13.78-16.92-19.35,0-.1,0-.23,0-.39.02-.07.03-.14.05-.21.11-.2.23-.4.36-.59.14-.15.31-.33.54-.56.04-.03.06-.05.1-.08,2.09-1.44,4.32-2.68,6.64-3.7,3.69-1.29,7.44-2.49,11.3-3.13.12-.01.28-.03.48-.05,3.07-.2,6.15-.43,9.2-.95,2.24-.49,4.73-.88,6.62-2.25,1.74-1.08,3.27-2.46,4.54-4.06-.15.22-.2.32.03,0,2.01-2.37,3.65-5.01,5.27-7.65,5.44-8.3,10.19-15.19,14.4-20.32,2.71-3.46,5.53-6.84,8.49-10.09,2.09-2.39,4.28-4.82,5.31-7.88,2.51-6.43,1.23-13.49,1.27-20.21.07-8.41,1.43-15.63,4.44-20.93,0,0,0,0,0-.01,1.17.58,2.3,1.24,3.4,1.93.28.2.55.4.84.59,6.42,4.43,6.87,4.76,13.14,10.37,3.11,2.77,6.09,5.95,9.95,7.66,3.49,1.73,7.47,1.53,11.24,1.21,3.92-.26,7.84-.52,11.77-.62,5.16-.21,10.3.33,15.44.72,1.5.08,2.8.15,4.01.23-.07,1.74-.02,3.48.23,5.2.06,1.1.29,2.24,1.13,3.04,2.18,2.36,6.47.59,6.35-2.62-.11-1.55-.08-3.12.05-4.7,1.84.37,3.82.91,6.29,1.7-.87,2.39-1.64,4.83-1.65,7.33.42,4.12,6.5,4.47,7.5.46.48-1.58,1.02-3.1,1.63-4.6,1.22.73,2.4,1.52,3.55,2.36,3.43,2.71,6.6,5.76,9.59,8.95,4.21,4.57,3.06,2.96,6.39,7.98,2.79,4.89,2.47,4.11,4.14,10.05.06.32.12.65.18.97,0,.1.03.39.08.91.43,6.09.01,12.21-.26,18.3.17,5.78,8.63,5.74,8.78-.05.74-9.03,1.78-18.33-.07-27.26,1.69-.75,3.01-2.34,3-4.61.39-7.03,1.21-10.54,2.36-19.38,1-7.8.64-8.89,2.81-16.75,1.86-5.94,1.28-5.05,4.29-10.43,4.99-7.63,12.92-14.1,23.86-16.2,5.23-.2,2.76-.34,8.31.99,5,1.56,2.18.66,6.1,2.15,3.73,1.61,7.23,3.73,10.66,5.9.46.4.88.83,1.28,1.3.14.22.28.43.41.66.63,1.44.66.95,1.23,4.2.32,4.82.21,4.04-.53,7.43-.12.4-.25.79-.4,1.19-.07.15-.17.36-.32.68-.19.41-.5.89-.72,1.22-.46.56-.94,1.09-1.48,1.57-2.02,2.3-10.93,3.76-15.27,2.79-4.05-.62-7.89-2.25-11.97-2.7-.51-.06-1.03-.13-1.54-.19-.18-.03-.66-.09-1.27-.15-1.03-.07-2.06-.16-3.09-.19-1.04-.1-2.11.11-3.02.63-1.62.89-2.53,2.64-2.57,4.46.16,4.32,3.77,4.98,7.22,5.76,2.51.68,5.04,1.32,7.6,1.82,2.25.59,4.48.97,6.66,1.18-.32.93-.4,2-.12,3.22.23,1.26.43,2.54.64,3.8.23.86.69,1.66,1.31,2.33-.4.47-.8.94-1.18,1.43-1.04,1.29-2.07,2.59-3.06,3.92-.59.74-1.14,1.57-1.14,2.55-.7,4.24,4.8,6.93,7.8,3.87,10.09-10.25,20.01-15.24,28.83-17.93,12.43-3.67,17.87-5.5,28.81-5.54,2.68-.11,5.33-.57,7.97-1.01.07-.01.13-.02.2-.03.5-.02.98-.14,1.42-.37.56-.18,1.05-.49,1.47-.93,2.11-2,1.61-5.72-.91-7.14-.41-.24-.84-.39-1.29-.49-1.34-.45-2.77-.68-4.12-1.11-4.02-1.02-8.17-1.51-12.32-1.58.85-6.38,3.09-12.37,6.87-18.88,4.77-8.78,16.44-16.66,22.09-18.73,4.85-1.81,9.9-3.11,15.02-3.9,6.9-.63,13.89-.83,20.8-.24.22.03.44.04.67.06.42.05.84.08,1.26.08.68,0,1.37.08,2.06.11,1.07.12,2.16.16,3.23.29.28,0,.57-.03.86-.06.17-.02.34-.04.51-.08.05,0,.09-.02.14-.03.19-.05.37-.1.56-.17.04-.02.09-.03.13-.05,1.32-.53,2.46-1.61,2.95-2.9.92-2.25.47-4.81.37-7.17-.2-2.39-.52-4.77-.85-7.14-.03-.29-.08-.57-.13-.85,0-.1-.02-.25-.04-.44-.66-6.54-.88-18.16-.21-21.39q.6-3.43,1.56-5.13c1.09-1.66.88-1.46,3.42-3.66.63-.41,1.94-1.27,2.48-1.48,2.01-.71,3.64-1.37,5.82-.73.29.16.58.34.85.53.19.17.46.41.8.75.25.25.5.5.75.75.38.42.83.8,1.24,1.2.84.79,1.57,1.68,2.29,2.58.06.08.12.17.2.28,3.53,5.24,6.1,11.07,8.88,16.72.54,1.24.11.18-.19-.53.75,1.88,1.67,3.69,2.47,5.55,2.99,7.82,5.69,15.83,7.04,24.12.31,5.99.11,5.06-.67,9.36-.33,1.54-1.45,4-4.54,8.31-3.96,5.38-8.21,10.79-10.25,17.24-.56,2.14-.82,4.35-.96,6.54-.27,1.82.22,3.69.43,5.5,1.43,6.94,4.59,13.55,8.97,19.12,3.86,5.01,10.34,9.8,13.21,11.89-4.97.85-11.64,2.16-15.74,3.5-12.16,4.18-23.81,10.29-32.93,19.49-5.03,4.97-9.34,10.6-13.55,16.26-3.99,5.46-7.88,11.08-10.53,17.33-3.54,8.17-4,17.16-4.78,25.91-.29,1.88-.5,3.99,1.04,5.41,2.33,2.45,6.77,1.28,7.55-2.02,1.4-6.57,2.12-13.31,4.39-19.66,1.12-4.03,8.01-15.56,13.62-22.44,3.01-4.46,14.11-16.03,19.7-18.93,4.45-2.86,9.32-4.94,14.21-6.92l-1.55.64c4.24-1.64,3.35-1.6,9.84-3.48,4.27-1.07,8.62-1.85,12.95-2.65,4.49-.74,2.1-.31,7.55-1.15.82-.1,1.63-.2,2.42-.38,6.55-.96,3.44-.4,9.76-1.56,6.96-1.86,9.99-9.17,12.83-15.11,1.78-3.88,3.62-7.78,6.14-11.24,2.87-3.37,5.87-4.45,6.49-4.8.52-.18,1.05-.3,1.59-.4.53-.04,1.07-.06,1.61-.04.59.01,1.17.06,1.76.11.6.1,1.19.2,1.78.35.5.14,1,.29,1.49.46.73.34,1.44.73,2.1,1.17.19.13.38.25.57.37.29.23.59.45.9.67.45.37.89.74,1.3,1.15.56.54,1.07,1.13,1.56,1.73.22.33.43.66.62,1,.21.37.39.75.57,1.14.73,2.83.55,1.1.5,5.34ZM269.55,169.58c-.83.61-1.65,1.24-2.46,1.88-.05-.22-.09-.43-.13-.65-.07-.24-.16-.47-.25-.68.97-.15,1.92-.34,2.84-.55ZM528.21,68.52c-.04,3.77-.19,7.54-.6,11.29-1.58,10.66-4.32,21.16-7.53,31.43-4.68,14.16-9.52,24.7-18.7,40.06-4.82,6.83-1.21,2.3-5.24,6.67-.91.81-1.67,1.8-2.51,2.71-6.32-2.36-13.5-2.3-19.51,1.16-12.26,7.58-15.59,19.42-20.33,27.98-.16.29-.35.56-.53.83-.05.05-.11.09-.16.14-.09.05-.18.12-.27.16-.28.08-.56.14-.8.19-.41.04-.81.07-1.22.12.41.05.69.09.9.11-.05,0,.26.03.59.07-1.69-.28-3.25-.2-4.8-.14-.77.05-1.54.08-2.31.12-.06-.09-.13-.17-.19-.26-.31-.32-.11-.05.13.27,0,0-.01,0-.01,0-2.41-3-6.63-7.56-10.18-11.39,2.9-.82,5.65-2.35,8.22-3.9,5.7-3.35,10.91-7.43,16.31-11.22,7.74-6.13,6.55-4.39,15.01-11.97,10.07-10.17,16.41-19.68,22.51-35.31,2.78-7.94,3.81-16.41,3.84-24.79.21-8.41-1.85-16.71-5.35-24.33-.76-1.56-1.41-3.2-2.34-4.65.03.03.06.06.09.09-.43-.91-.91-1.78-1.36-2.67-3.07-6.22-4.37-7.77-6.36-11.97-.2-.46-.38-.87-.47-1.07-3.1-7.78-6.47-15.52-7.99-23.8-.92-7.26,2.54-10.96,13.51-13.13,6.67-1.11,20.85,2.92,26.78,9.83.49.5.93,1.06,1.39,1.59.22.3.44.61.65.93,1.34,1.96,2.41,4.08,3.36,6.26,2.67,7.21,3.91,14.54,4.47,17.3.07,1.02.58,2.58.86,7.71.26,4.52.19,9.06.15,13.59Z"/>
          <path d="M469.23,15.27c-.05.12-.1.24-.13.34.02-.06.05-.12.07-.18.02-.05.04-.11.06-.16Z"/>
        </g>
        <path d="M118.58,154.04c.09.07.19.13.28.2-.16-.13-.39-.32-.67-.51.04.03.08.06.12.09.11.09.19.15.27.22Z"/>
      </g>
      <path d="M104.07,162.84c-.32-1.24-1.38-2.06-2.2-2.97-1.25-1-2.49-2.06-3.95-2.75-5.35-2.74-9.17,2.33-9.48,7.33-.26,2.95.14,5.88.7,8.77.56,2.17.79,4.66,2.16,6.48,3.42,4.76,11.03.99,9.5-4.64-.94-2.69-1.49-5.48-1.99-8.28.85.43,1.74.65,2.75.4,1.86-.5,3-2.47,2.5-4.33Z"/>
      <path d="M40.28,245.89c-4.18-.88-8.47.2-12.65.77,0,0-.28.02-.97.1-2.12.15-4.48.08-6.04,1.77-3.57,3.36-.94,9.74,3.97,9.61,2.8-.3,5.6-.65,8.34-1.33,1.55-.51,3.12-.9,4.7-1.28.03,2.04-.05,4.09-.24,6.11-.19.94-.05,1.94.43,2.77,1.75,3.27,7.08,2.25,7.38-1.49.38-3.07.59-6.16.61-9.25.07-3.88-1.44-7.06-5.53-7.79Z"/>
      <path d="M105.49,256.07c3.58-1.46,4.46-6.73,1.66-9.4-1.06-.94-2.3-1.64-3.71-1.74-.46-.07-.93-.12-1.39-.18-9.62-.82-17.92,6.92-21.2,15.44-1.35,3.43-1.44,7.26-.69,10.84,1.27,7.93,12.8,5.92,11.11-2,0,0,0,0,0-.01-.04-.4-.08-.81-.07-1.21,0-.4.01-.8.04-1.19.1-.55.25-1.08.42-1.61,2.01-3.87,1.35-2.34,3.48-4.79.5-.5,1.03-.96,1.58-1.41.19-.12.48-.3.91-.56.28-.15.57-.28.85-.41,2.05-.63,1.13-.16,5.49-1.18.22-.08.4-.15.57-.21.1-.03.2-.07.3-.11.39-.15.59-.24.65-.28Z"/>
      <path d="M145.45,177.46c-2.41-4.05-8.93-1.44-12.71,2.01-3.84,3.92-5.2,9.62-4.56,14.97.29,2.04.39,4.35,1.62,6.08,2.42,3.42,7.93.69,6.81-3.33-.44-2.53-.72-4.74.55-8.45.11-.22.25-.48.4-.74.14-.24.28-.46.41-.65,1.86-2.08,1.91-1.85,2.65-2.41,1.07-.56,2.07-1.24,3.14-1.79.08-.04.08-.05.04-.04.67-.36,1.25-.89,1.63-1.56.76-1.26.69-2.82.01-4.1Z"/>
      <path d="M151.37,220.2c-1.2-1.06-3.31-.61-4.06.78-.32.7-.65,1.4-1.07,2.05-1.24,2.1-3.4,4.19-4.61,4.02-.92.04-2.32-.83-5.8-4.09.51-1.31.83-2.63.89-3.84.03-3.04-2.99-5.28-5.9-4.5-1.85.49-3.5,1.51-4.92,2.8-1.04.8-1.95,1.87-2.63,3.06-.19.28-.39.57-.56.86-.85,1.47-.99,3.13-.59,4.6.19,1.08.67,2.09,1.52,2.92,2.42,2.01,4.86,1.93,6.96.72,4.58,3.58,7.47,8.77,4.94,12.19-.03.04-.05.07-.07.1-.33.4-.69.76-1.09,1.09-.16.11-.35.23-.53.34-1.97,1.1-1.43.58-2.94,1.44-.1.04-.26.09-.33.11-2.52.2-3.7,3.42-1.6,4.97,1.5,1.11,3.65.77,5.37.43,6.75-2.07,10.48-9.39,8.53-15.89.99-.14,2-.47,3.04-1.07,3.25-1.86,5.92-5.15,6.4-8.93.22-1.42.41-3.26-.94-4.17Z"/>
    </g>
  </g>
</svg>