<?xml version="1.0" encoding="UTF-8"?>
<svg id="Layer_2" data-name="Layer 2" xmlns="http://www.w3.org/2000/svg" viewBox="0 0 557.67 460.1">
  <g id="Layer_2-2" data-name="Layer 2">
    <g>
      <g>
        <path d="M314.78,229.63c.11-.01.23-.02.34-.03-.05,0-.18,0-.34.03Z"/>
        <path d="M557.27,261.88c-1.05-3.94-3.85-7.08-6.7-9.88-5.61-5.31-12.5-8.91-18.86-13.2-9.78-6.07-12.94-9.74-22.3-12.97-9.55-2.94-19.81-2.76-29.39-5.6-2.25-.93-7.11-3.38-11.13-8.05-.07-.11-.15-.22-.23-.33-3.11-4.84-5.78-9.96-8.46-15.05-1.32-2.18-2.44-4.49-3.6-6.76-.35-.93-.85-1.79-1.48-2.52-.22-.37-.43-.75-.62-1.13-.02-.03-.03-.07-.05-.1-.12-.34-.21-.69-.29-1.05,0-.23,0-.45,0-.64.03-.11.07-.23.11-.34.05-.14.1-.27.15-.41.05-.1.1-.22.17-.37,5.17-10.15,7.07-15.71,11.24-25.42,6.91-16.66,12.03-33.1,15.77-48.3,1.12-5.12,1.99-10.34,2.08-15.59-.07-10.56-2.52-20.98-6.07-30.88-2.74-8.18-6.42-16-10.95-23.34-3.89-6.72-8.38-13.15-14.18-18.37-9.18-8.33-18.9-16.98-31.19-20.14-14.44-4.4-34.42,1.09-34.88,18.73-1.39,18.95,16.59,29.6,27.77,41.98,6.96,7.81,11.65,17.07,15.52,35.18,1.36,4.27,1.75,17.45.26,25.16-1.19,7.81-3.67,20.86-5.73,24.02-2.14,3.9-2,4.02-3.29,5.31-.03-.01-.06-.02-.09-.03-4.66-2.75-7.96-3.72-10.46-4.87-8.31-3.4-16.93-5.94-25.59-8.26-6.15-1.63-12.43-2.66-18.75-3.35-5.6-.67-11.24-1.31-16.89-1.21-9.41.19-18.66,2.31-27.63,5.03-9.07,2.89-18.16,6.03-26.47,10.72-5.68,3.17-10.91,7.06-16.15,10.89-4.86,3.63-9.74,7.27-14.09,11.51-3.6,3.7-5.22,5.49-8.4,10.66-.04-.48-.08-.99-.13-1.58-.49-10.38-1.22-17.44-2.24-23.82.08.6.16,1.19.24,1.79-.88-6.05-1.25-12.31-3.82-17.94-5.76-10.12-14.69-8.9-23.19-2.88-3.05,2.26-7.89,5.7-12.36,11.48-5.88,7.39-12.8,17.51-14.57,18.29-.06.03-.1.05-.15.08-2.35.1-4.71-.08-7.06-.11-10.06-.17-20.12-1.06-30.18-.52-6.82.31-13.58,1.3-20.37,1.9-7.66.44-15.3,1.5-22.99,1.15-.34-.02-.55-.03-.69-.04-.19-.03-.38-.07-.57-.11-.01-.01-.02-.03-.04-.04-.02-.03-.03-.05-.05-.08-.94-1.24-3.47-5.47-7.19-9.89-3.59-4.29-7.71-8.13-12.32-11.31-8.88-6.28-22.71-8.65-30.92-.08-2.12,2.17-3.69,4.79-4.71,7.64-.12.25-.22.5-.31.77-2.79,7.62-4.62,15.55-5.74,23.59-.65,4.46-1.4,8.9-2.34,13.3-.19.64-.18.82-.08.75-.57,1.68-.69,3.55-1.1,5.28-1.03,5.43-1.93,10.88-2.9,16.32-2,13.15-5.4,26.11-6.42,39.4-.27,6.4-.13,12.31.56,17.92-1.57-.23-3.23-.47-5.04-.72-7.21-.92-14.58-1.32-21.73.22-2.2.56-4.65.81-6.56,2.06-2.17,1.41-1.88,5,.37,6.2.63.31,1.31.5,1.99.49-.02,0,.02.01.14.01,1.77.04,3.53-.08,5.29-.12,10.24-.02,18.56,1.21,27.58,2.32.92,3.35,2.12,6.63,3.6,9.89-9.57,3.37-19.03,7.01-27.85,12.06-4.16,1.57-4.4,7.18,0,8.52.88.17,1.78.16,2.6-.14.37-.12,1.32-.46,1.83-.62,2.82-.96,5.71-1.74,8.52-2.73,7.02-2.38,14.12-4.54,21.2-6.75,4.78,6.17,10.52,11.56,16.63,16.42,1.91,1.55,3.81,3.11,5.73,4.65-5.16,4.66-9.81,9.94-15.08,14.5-10.96,9.5-17.43,13.79-31.28,22.35-9.71,6.29-20.18,12.32-27.09,21.85-2.3,2.98-4.5,6.16-5.38,9.88-.85,5.01.27,10.59,3.56,14.54,2.3,2.53,5.36,4.24,8.11,6.23,4.43,2.94,9.62,4.63,14.91,5.08.14.02.23.03.28.03,4.01.51,8.08.86,12.12.57,5.63-.54,10.98-2.54,16.27-4.43,6.45-2.59,12.86-5.38,18.79-9.04,11.49-7.13,22.4-15.14,33.06-23.44,3.97-3.08,7.92-6.19,11.81-9.37.68-.67,1.49-1.28,2.32-1.89,1.37.77,2.79,1.48,4.19,2.2,8.33,3.89,16.97,7.06,25.65,10.04,3.24,1.12,6.51,2.18,9.83,3.01-.46.62-.92,1.25-1.38,1.87-4.61,6.33-4.76,6.77-11.51,14.17-7.47,8.1-16.33,15.3-21.56,25.17-3.39,6.72-2.04,12.41,1.7,18.62,4.92,8.28,14.84,13.13,24.39,12.07,7.28-.93,14.24-3.46,20.99-6.25,8.51-3.32,16.36-8,23.77-13.3,11.42-8.06,22.45-16.66,32.95-25.88,9.2-8.04,17.56-16.98,25.35-26.38.3.05.6.08.92.09,14.28.88,28.57-.32,42.71-2.37,17.32-2.83,34.49-7.44,50.45-14.81,9.63-4.45,18.6-10.15,27.48-15.93,8.6-5.78,17.3-11.7,24.62-19.09,3.51-3.76,3.6-4.02,4.9-5.79,1.04-1.04,1.6-2.38,1.72-3.76,4.59,1.59,9.35,2.63,14.2,3.06,6.29.47,12.57-.42,18.73-1.6,9.75-1.66,18.98-5.56,27.24-10.96,7.99-5.32,15.38-11.54,22.16-18.32,3.89-3.81,7.16-8.23,11.18-11.9.03,0,.06,0,.1,0,.03,0,.04,0,.07.01,3.15.54,6.32,1.03,9.38,1.96.53.22,1.06.43,1.39.55,8.94,3.86,21.22,9.26,31.92-.68,6.13-6.61,14.57-17.21,12.22-26.75ZM423.46,52.02c3.17-1.29,6.08-1.2,10.33.29,4.16,1.92,3.93,1.75,7.25,5.26.11.13.21.26.32.39.06.08.12.16.18.24.41.43,1.24,2.07,1.62,2.81,1.29,3.7,2.13,7.54,3.37,11.26,1.79,5.39,5.11,10.05,7.45,15.18,3.02,8.34,2.15,14.54-.09,19.69-2.03,4.07-6.06,4.67-11.1,5.04.13-2.69.14-5.38.01-8.08-.79-9.08-2.86-22.29-7.83-34.55-2.55-6.58-6.76-12.35-11.52-17.54ZM260.97,195.61c5.19-12.39,14.7-18.86,25.47-26.53,13.62-9.31,18.66-11.69,29.96-15.74,2.04-.72,4-1.37,5.93-1.98,3.07,4.35,7.91,7.23,11.17,11.48,1.07,1.44,2.04,2.95,2.88,4.53.82,1.53,1.63,3.07,2.36,4.65.14.3.25.57.34.78.04.11.08.22.13.33,1.62,5.04,2.08,5.46,1.94,8.95-.02.21-.04.36-.05.49-.8,4.77-3.11,5.88-7.39,13.17-1.99,3.4-4,6.97-4.19,11-.22,3.11.25,6.2.52,9.29.21,4.01.23,2.95-.33,5.25,0,.02-.01.04-.02.06-.14.26-.4.75-.68,1.18-2.85,2.89-1.39,1.55-5.34,4.03-4.16,2.08-1.8,1.18-5.95,2.53-.89.23-1.79.4-2.7.53-.21.03-.42.05-.63.08.14-.03.28-.05.41-.07-.64.06-1.29.11-1.94.1-.23,0-.46,0-.69-.01-.05-.01-.1-.02-.16-.03-3.9-1.16-1.32-.33-5.72-2.42-2.04-.79-1.03-.8-5.3-1.87-6.64-1.1-13.69-1.4-20.07,1.07-4.89-9.99-11.34-17.83-15.22-22.94-1.72-2.42-3.49-4.82-5.13-7.3.15-.19.29-.4.42-.62ZM180.98,180.58c.03-.25.09-.51.14-.76,6.57.45,13.15.8,19.73.35,4.41-.23,7.92-3.35,10.41-6.76.26-.33.39-.5.44-.57,1.42-1.77,2.78-3.58,4.11-5.41,4.94-7.04,11.58-15.25,15.21-17.71,4.37-2.61,3.73-2.46,6.8-3.31.04.12.09.24.13.36l-.09-.21c2.11,6.77,1.41,6.37,2.11,10.88.47,4.61,1.12,9.21,1.48,13.83.71,7.77.27,15.73,2.11,23.36,1.09,3.47,3.04,6.57,5.08,9.55,1.94,2.96,4.03,5.81,6.14,8.64-2.02,1.41-4.19,2.58-6.38,3.72-3.75,1.97-2.24,1.45-6.33,2.6-.52.12-1.05.22-1.57.31-5.63.36-6.99-.96-13.85-4.58-5.44-3.08-11.64-3.83-17.76-4.37-5.89-.55-9.45-1.32-16.44-5.61-7.53-4.99-11.48-10.22-11.82-18.32-.06-3.9.06-4.17.35-5.98ZM68.34,301.2c.99-.31,2.02-.58,2.78-1.31,5.39-3.86,1.13-12.48-5.25-10.75-1.32.47-2.64.94-3.97,1.4-.6-1.44-1.16-2.95-1.65-4.56,1.84.13,3.73.23,5.7.3,6.3-.19,6.27-9.44-.05-9.59-2.84-.16-5.33-.38-7.72-.65-.2-1.97-.35-3.94-.43-5.91-.17-4.67.14-9.35.65-14,.65-5.31.2-2.44,1.11-8.42.91-5.83,2.19-11.6,3.16-17.42,1.52-10.46,2.81-20.95,4.55-31.37.01-.1.03-.2.04-.3.02,0,.04-.11.07-.4,1.29-7.54,2.25-18.21,2.67-21.04.62-4.31,1.54-8.58,2.67-12.78.31-1.38.87-2.73,1.15-4.11,0,.05-.01.11-.02.16.15-.4.29-.81.44-1.21.36-.78.77-1.54,1.27-2.25.17-.19.34-.37.54-.54.24-.18.38-.29.46-.35.35-.22.7-.41,1.07-.59,7.44-3.28,19.64,4.63,27.7,17.59,6.11,11.6,12.56,9.74,23.89,8.39,2.24-.39,6.33-.65,10.89-.94-3.07,8.3-3.28,15.67-3.23,26.13.03,3.61-.07,7.25.52,10.83.57,3.21,1.44,6.36,1.8,9.6.65,4.37-.35,21.17-1.64,23.7-1.51,4.6-3.14,5.57-7.22,11.02-2.15,2.84-3.34,6.26-4.54,9.58-1.66,5.8-2.5,9.6-4.33,12.45-.71,1.15-4.34,5.7-7.89,9.04-3.12,2.84-5.91,6.02-9.01,8.87-.1.08-.2.16-.3.24-2.54,1.79-5.09,3.59-7.93,4.87-4.23,1.62-8.66,2.72-13.09,3.65-.45.09-.9.17-1.36.25-.23.03-.56.08-.88.16-.28.06-.56.12-.84.19-.33.04-.65.12-.95.27-.28.1-.52.23-.75.38-4.05-3.82-7.39-7.17-10.12-10.58ZM545.58,267.2c-.8,1.86-1.97,3.54-3.16,5.18-1.96,2.38-4.04,4.67-6.36,6.68-.16.12-.33.24-.48.37-.5.36-1.03.67-1.58.94-.35.1-.71.19-1.07.26-.75.06-1.5.1-2.25.1-5.43-.16-1.9.01-5.12-.48-4.13-.75-7.94-2.84-12.12-3.28.55-.03,2.28.42.86-.02-4.11-1.18-8.32-2.11-12.58-2.53-7.4.05-11.64,7.24-16.39,11.89-5.04,5.38-10.59,10.25-16.41,14.78-2.47,2.02-11.97,8.38-19.75,11.66-.08,0-2.69.95-3.65,1.2-6.69,1.89-12.25,2.92-15.34,3.2-10.32,1.3-19.14-2.27-26.09-5.15-6.8-3.01-8.81-4.05-13.24-6.49-1.37-.67-2.61-1.65-4-2.29-.19-.13-.37-.27-.56-.4-1.07-.61-2.37-.8-3.56-.47-3.86.89-4.68,6.47-1.31,8.49.74.74,1.64,1.34,2.43,2.02,1.87,1.42,3.67,2.96,5.67,4.19-.32-.25-.54-.41-.7-.53.05.04-.19-.15-.44-.35,2.88,2.24,6,4.07,9.22,5.66-.49.44-.95.92-1.38,1.44-3.41,3.5-1.59,1.89-5.78,6.48-6.21,6.02-9.62,8.01-14.13,11.4-11.37,7.77-22.9,15.46-35.52,21.09-9.48,4.36-28.88,10.11-43.98,12.47-8.75,1.32-20.27,2.55-32.24,2.49.06-.08.13-.16.19-.25,1.6-2.5,4.43-4.58,4.63-7.7,1.14-7.8-9.57-11.37-13.53-4.56-6.45,8.75-18.06,23.01-29.52,34.73-13.95,13.35-26.14,24.65-39.34,33.37-11.38,8.15-26.93,13.58-34.65,14.79-.91.18-3.26,0-3.88-.06-.83-.12-1.66-.28-2.45-.54-1.72-.81-3.34-1.82-4.9-2.91-.02-.02-.04-.03-.05-.05-1.31-1.36-.82-.41-2.93-3.99-.3-.6-.61-1.2-.9-1.81-.21-.58-.4-1.16-.56-1.75,0-.13,0-.27,0-.4.12-2.43,1.53-5.03,7.89-10.98,7.6-6.24,15.46-12.22,22.27-19.34,10.51-10.96,21.1-25.71,25.27-37.38.4-1.72,1.16-3.46,1.4-5.23.16-.65.29-1.31.43-1.97.16-.45.24-.9.24-1.36.13-1.37-.16-2.78-.85-3.98-2.05-3.78-7.56-4.51-10.58-1.46-.49.48-.87,1.01-1.18,1.59-.14.24-.28.49-.41.74-.35.6-.69,1.2-.99,1.82-.9,1.36-1.67,2.82-2.6,4.17-.26.51.87-1.08,1.16-1.42-3.66,4.83-6.36,10.36-9.78,15.37-.16.26-.33.52-.49.78-6-1.21-11.79-3.25-17.53-5.36-10.03-3.64-12.26-4.88-22.61-8.84-1.35-.48-2.69-.99-4.05-1.43-2.26-2.24-6.15-2.91-8.92-.16-10.2,8.63-27.8,21.78-31.05,24.19-6.88,5-13.69,10.17-21.12,14.36-7.77,4.55-19.73,8.83-23.67,9.69-15.13,1.47-20.38-3.06-23.72-5.73-.89-.76-1.81-1.51-2.6-2.38-.09-.15-.17-.32-.25-.48-.13-.43-.23-.87-.31-1.31-.02-.27-.04-.63-.05-1.03,0-.3,0-.61.02-.91.05-.23.12-.46.2-.68,7.27-12.73,20.79-17.73,41.49-31.68,10.29-7.05,19.97-15.02,28.09-24.53,2.11-2.53,4.12-5.16,6.13-7.77.07-.09.14-.18.21-.28,6.7,4.51,14.16,7.74,21.8,10.29,4.46,1.41,8.99,2.72,13.65,3.23,1.91.13,4.04.7,5.85-.07,4.61-1.77,3.11-8.73-1.73-8.68-8.58-.56-20.06-4.38-29.14-9.41-5.95-3.36-8.83-5.89-13.26-9.88.2-.02.39-.05.59-.07,9.4-1.08,18.78-4.29,25.74-10.89,4.55-4.95,9.75-9.32,13.88-14.64,3.48-3.81,5.54-8.38,6.92-13.31.83-2.97,1.47-6.01,2.66-8.87,1.94-3.92,1.83-3.1,5.24-7.21,1.63-2.11,3.45-4.15,4.61-6.58,2.24-4.68,3.06-9.82,3.26-14.97.34-5.74.46-11.52-.47-17.21-.42-3.45-1.59-6.75-2.21-10.16-.62-6.66-.83-13.37-.72-20.06.23-4.4.55-6.55,2.78-12.24-.14.34-.28.69-.42,1.03.36-1.24,1.22-2.3,1.68-3.49.73-.06,1.44-.12,2.14-.19,6.82-.53,13.67-.8,20.5-.49-3.52,19.64,8.11,32.35,26.7,38.72,7.86,1.95,14.2,1.23,19.53,2.86,5.94,1.47,13.95,9.51,24.33,7.45,4.73-.59,8.86-3.15,13.03-5.29,1.31-.69,2.99-1.67,4.42-2.84.19.27.38.53.56.8,9.77,14.48,11.76,22.61,11.84,33.29-.27,6.73-.51,6.39-1.91,14.33-3.23.32-6.47.67-9.69,1.08-2.14.3-4.29.59-6.43.89-1.16.22-2.49.14-3.4,1-3.5,2.48-.71,8.14,3.41,6.99,5.23-.81,9.77-1.44,14.56-1.97-.73,3.78-1.49,7.56-2.39,11.3-2.08.16-4.16.35-6.23.57-2.24.27-4.48.55-6.72.87-.95.18-2.04.09-2.79.79-2.41,1.66-1.03,5.7,1.89,5.61,4.18-.09,8.01-.09,11.65.01-.62,1.9-1.31,3.78-2.05,5.64.25-.6.5-1.2.74-1.81-4.62,12.43-14.73,22.79-27.09,31.06-.35.24-.71.46-1.03.72-1,.63-1.77,1.61-2.06,2.77-.82,2.83,1.57,5.86,4.5,5.79.94,0,1.8-.31,2.59-.8,1.79-.75,3.51-1.68,5.25-2.53,6.78-3.25,12.94-7.68,18.35-12.9,4.79-4.87,3.58-3.83,6.52-7.51,2.59-3.45,4.79-7.17,6.36-11.2,1.11-2.66,2.06-5.37,2.89-8.12,6.12.78,12.32,1.99,19.48,3.73,2.66.55,5.31,1.18,7.96,1.77,1.22.21,2.45.72,3.68.4,4.54-.32,6.53-6.47,3.3-9.57-1.16-1.25-2.84-1.58-4.42-2-2.55-.65-5.14-1.19-7.72-1.74-6.56-1.15-13.17-2.02-19.82-2.14.35-1.58.68-3.16.99-4.74.49-2.42,1-4.84,1.49-7.26,6.17-.48,12.37-.67,18.55-1.02,2.1-.25,4.34.07,6.36-.52,2.39-.81,2.58-4.4.38-5.58-.91-.55-1.99-.4-3-.49-2.61-.11-5.23-.24-7.85-.29-4.32-.04-8.63,0-12.94.14.29-1.64.57-3.29.82-4.94,1.7-9.51.65-18.27-1.78-26.09,3.31-1.09,4.16-1.23,8.4-1.2,4.81.37,3.32-.18,7.27.98,3.01,1.84,5.95,4.12,9.53,4.61,7.12,1.17,14.17-1.92,19.91-5.92,5.18-3.38,9.64-8.62,9.6-15.1-.13-5.34-1.11-8.41-1.37-11.22.05.38.1.75.15,1.13-.36-4.27-.44-3.18.43-6.46.11-.35.2-.6.25-.75.76-1.82,1.74-3.53,2.88-5.14,2.35-3.41,5.1-6.61,6.81-10.43,4.61-10.01-.42-21.37-6.78-29.4-2.49-3.35-6.67-6.42-9.71-9,4.33-1.01,8.34-1.64,12.05-1.79,18.31-.59,35.96,4.48,56.7,10.43,4.55,1.41,9,3.1,13.54,4.53.99.33,2.01.73,3.04.93,0,.06.2.15.76.3,11.81,3.02,15.98-12.28,19.02-20.76,2.01-7.22,3.73-14.6,4.69-22.05,12.04-.4,19.92-4.53,22.11-17.96.99-6.23.23-12.73-2.17-18.57-1.31-3.43-3.44-6.47-4.94-9.82-1.9-3.67-2.51-7.4-4.24-13.65-.97-3.09-2.67-5.85-4.79-8.28-7.35-8.49-20.84-11.72-30.34-5.59-2.4-2.17-4.86-4.26-7.14-6.56-2.53-2.48-5.04-4.98-7.27-7.74-3.41-5.11-3.07-6.48-3.48-8.18-.08-4.56-.14-4.15.52-6.05.14-.27.3-.54.46-.8.28-.31.58-.6.9-.88.74-.5,1.51-.97,2.31-1.36.17-.08.34-.15.51-.23.06-.02.12-.05.18-.07,1.08-.36,2.19-.63,3.31-.82,5.42-.35,6.96.3,14.38,2.81,3.21,1.43,6.22,3.29,9.07,5.34.42.31.84.62,1.25.93,3.36,2.65,6.61,5.44,9.78,8.32,4.25,3.74,7.18,7.57,7.7,8.35,3.8,5.61,7.3,11.45,10.38,17.48.81,1.68,1.56,3.38,2.29,5.1.2.5.4.99.6,1.48-.02-.04-.03-.07-.04-.1,1.26,3.19,2.47,6.39,3.58,9.63,1.79,5.21,3.08,10.58,3.86,16.03.07.65.13,1.3.2,1.95.31,4.82.28,9.66-.14,14.47-.54,6.34-3.53,19.94-7.18,32.76-2.25,7.25-4.89,14.38-7.66,21.45-2.18,5.51-2.85,7.24-6.08,13.51-1.42,2.8-3.2,5.43-4.38,8.34-.08.1-.8,1.73-1.02,2.4-.77,2.49-.63,5.12-.18,7.66,0,.28.02.56.07.83,0,.99.51,1.84.91,2.72.68,1.7,1.38,3.39,2.1,5.08.91,2.78,4.79,9.19,8.67,15.39,3.71,5.24,8.59,13.71,22.03,17.5,12.63,2.37,15.75,1.98,24.52,3.55,3.35.83,2.69.27,8.23,2.11,0,0,.21.09.68.29.47.25.94.51,1.4.78,6.05,3.94,11.91,8.16,18.02,12.01,7.81,4.95,12.05,7.62,14.89,12.66.03.13.06.25.09.38.02.25.02.51.01.76-.12.54-.28,1.08-.47,1.6Z"/>
      </g>
      <path d="M111.63,266.02c-2.5-4.54-7.62-4.21-10.75-1.12-4.76,3.44-5.02,12.09.14,15.28,9.87,4.38,13.67-8.59,10.61-14.16Z"/>
      <path d="M205.54,259.46c-2.18-.48-3.99.05-5.35,1.15-2.33,1.54-3.88,4.53-3.89,7.62-.57,8.02,9.16,12.02,13.52,4.81,2.26-4.57,1.3-12.06-4.28-13.58Z"/>
      <path d="M168.29,276.32c-3.23-.77-6.63-.29-9.93-.53-2.52-.02-5.06-.38-7.55.12-2.27.51-4.45,1.4-6.6,2.27-2.14,1.03-3.09,3.8-2.15,5.96.6,1.66,2.12,2.73,3.42,3.83,1.86,1.49,3.78,2.95,5.91,4.03-.03,3.47-.02,6.94.5,10.38.2,1.75.48,3.85,2.09,4.88,1.81,1.6,5.08,1.19,6.43-.82,1.22-1.36,1.08-3.39,1.27-5.1.23-2.26.27-4.52.3-6.78-.03-.8.07-1.64.1-2.47,1.06-.59,2.05-1.36,3.1-1.91,3.06-1.85,6.29-4.53,6.71-8.31.48-2.45-1.26-4.87-3.6-5.54ZM152.31,282.89c2.75-.12,5.51.3,8.27.38.48.03.95.05,1.43.07-.43.26-1.04.6-2.3,1.44-.75.55-1.7.91-2.42,1.5-.02,0-.04-.02-.06-.02-2.32-.78-4.25-1.81-6.05-3.11.38-.1.75-.18,1.13-.26Z"/>
      <path d="M233.75,165.5c-1.48-3.25-5.51-5.38-8.89-3.73-2.34.91-3.93,3-5.47,4.88-2.02,2.56-3.82,5.3-5.44,8.14-.65,1.39-1.81,2.66-1.93,4.23-.29,1.82.52,3.26,1.75,4.13.09,1.05.53,2.05,1.35,2.8.55.59,1.19,1.09,1.9,1.5,2.4,1.48,4.66,2.12,9.76,3.35,2.92.66,6.66.44,8.4-2.35,1.07-1.86,1.16-4.1,1.35-6.2.08-5.68-.28-11.54-2.77-16.74ZM222.29,179.91c-.24-.13-.47-.26-.71-.4,2.09-3.77,3.5-5.96,5.59-8.48,1.04,2.96,1.29,7.01,1.37,12.13-1.7-.65-3.12-1.52-6.25-3.25Z"/>
      <path d="M100.18,179.58c-2.18-4.79-5.64-9-9.9-12.09-3.43-2.56-8.91-3.24-12.1.03-1.37,1.53-1.87,3.59-2.07,5.59-.43,3.01-.6,6.05-.48,9.09.05,2.97.14,5.95.36,8.91.16,1.24.01,2.67.99,3.61.35.37.76.61,1.2.74,1.99,2.24,3.95,1.38,5.1,1.36,2.5-.3,4.94-.97,7.26-1.96,6.59-2.35,13.65-7.58,9.65-15.29ZM87.93,186.31c-1.84.84-3.85,1.09-5.78,1.61.21-4.91.36-6.96,2.13-12.98,2.71,1.53,5.88,5.4,8.06,8.92-1.3,1.21-3.52,2.11-4.41,2.45Z"/>
      <path d="M439.74,234.9c-.43-9.16-2.16-17.16-9.63-23.21-3.79-3.53-8.98-4.25-13.85-5.26-7.75-1.23-9.94-1.55-15.86-3.73-3.34-.99-6.87-.99-10.32-.98-3.41-.21-6.74.42-9.96,1.44-.08.02-.17.02-.25.04-4.05.93-7.79,2.88-11.27,5.11-3.36,2.22-6.54,4.81-8.79,8.2-.55.93-1.04,1.9-1.48,2.89-.57.9-1.09,1.83-1.55,2.8-.86,2.16-.9,1.48-1.39,5.51-.07.92-.22,1.88-.16,2.81-.05.63-.06,1.26-.06,1.89,0,.2,0,.4.01.59-.03.4.01.8.12,1.18-.06,3.44.24,6.86.82,10.09.54,3.16,2,6.02,3.65,8.72,2.42,4.68,1.33,2.5,2.24,5.07,2.89,11.4,7.38,16.13,18.27,20.49,11.93,5.05,25.89,2.5,36.59-4.33,4.04-2.69,7.68-5.97,10.72-9.75,3.03-3.52,4.25-5.46,7.58-11.39,3.43-5.42,4.96-11.8,4.57-18.19ZM426.73,248.01c-1.75,3.26-3.53,6.51-5.77,9.46-5.43,8.09-14.54,13.55-24.02,14.85-7.14.37-8.93.22-15.14-1.94-1.61-.67-3.19-1.41-4.71-2.28-2.71-1.64-1.89-1.13-3.17-2.31-2.28-2.12-3.4-6.69-5.45-13.22-1.73-4.99-2.71-5.48-3.34-9.14-.47-4-.41-8.06-.03-12.07.29-2.2.72-4.39,1.45-6.49.11-.32.22-.63.33-.95.07-.15.15-.32.25-.54.33-.61.64-1.16.95-1.67,2.67-2.95,4.18-4.02,7.48-6.15,3.52-2.17,2.9-1.45,7.74-3.38,3.07-1.09,4.53-1.73,11.26-1.24.25.02.49.05.73.07,2.95.34,5.51,2.24,8.46,2.49-.44-.03-1.75-.27-.72-.03,3.4.77,6.88,1.01,10.33,1.36,4.62.8,7.93,1.37,9.95,2.79,1.33,1.1,2.51,2.37,3.6,3.7.37.53.72,1.07,1.02,1.63.19.35.31.61.39.76.12.32.25.63.36.95.5,1.56.82,3.16,1.05,4.78.02.14.04.34.07.63.67,9.33.24,11.75-3.1,17.91Z"/>
    </g>
  </g>
</svg>