<?xml version="1.0" encoding="UTF-8"?>
<svg id="Layer_2" data-name="Layer 2" xmlns="http://www.w3.org/2000/svg" viewBox="0 0 556.33 432.86">
  <g id="Layer_2-2" data-name="Layer 2">
    <g>
      <path d="M553.26,309.82c-2.25-6.25-4.77-12.4-7.48-18.46-4.12-8.72-8.48-17.62-15.48-24.41-3.68-3.33-7.72-6.27-11.65-9.31-3.15-2.49-1.73-.99-4.57-3.96-.08-.13-.16-.26-.24-.4-.72-2.2-1.02-4.52-1.57-6.77-4.48-16.96-8.86-27.56-16.18-41.77-3.52-6.08-7.57-11.82-11.8-17.43-1.55-2.06-3.12-4.11-4.76-6.1,5.8-6.41,10.34-13.9,14.34-21.55,2.6-5.46,5.08-11.16,5.64-17.24.72-6.53-1.29-19.34-1.93-20.48-3.11-10.17-4.47-13.76-8.16-20.97-3.7-6.55-8.12-12.66-12.22-18.96-6.29-8.82-7.71-11.51-9.6-19.51-.02-.11-.03-.21-.05-.32-.19-2.05-.25-4.11-.08-6.16.67-3.93,2.18-7.66,3.63-11.37,1.68-4.49,3.46-8.97,4.61-13.63.8-4.8.44-2.61.81-6.14.76-6.47-.56-12.99-5.27-17.75-2.1-2.16-4.81-3.48-7.61-4.51-3.64-1.48-7.45-2.53-11.4-2.62-6.12-.19-11.9,2.81-16.83,6.18-5.61,4-8.73,10.46-11.69,16.5-3,6.25-5.03,13.02-5.94,19.9-.41,3.76-.06,7.56.27,11.31.97,10.98,5.64,21.04,10.6,30.72,6.23,12.23,13.22,24.11,18.48,36.81,1.43,3.26,3.69,12.7,1.54,19.69-1.62,6.59-1.46,6.13-4.95,12.12-.07.11-.14.21-.22.32-1.02,1.19-2.24,2.18-3.46,3.16-.25.19-.53.4-.76.58-.64.46-1.29.92-1.98,1.3-.52.24-.61.29-.49.26-.88.38-.96.47-4.04,1.36-3.67.94-3.88.94-5.22,1.13-7.56.46-15.14-.23-22.71-.16-16.45-.66-32.69,3.35-47.66,10-9.88,4.44-19.01,10.37-28.02,16.37-3.38,2.27-6.62,4.76-9.77,7.33-.79.73-1.73,1.36-2.54,2.09-.36-.54-.72-1.08-1.07-1.61-.07-.12-.14-.24-.21-.35-1.38-4.87-2.36-9.86-3.77-14.73-2.03-6.82-4.58-13.51-7.44-20.03-3.25-6.32-9.35-14.08-17.29-12.83-11.29,3.01-20.42,15.87-27.2,24.86-.8,1.11-1.54,2.27-2.25,3.44-7.87-.63-15.72-1.64-23.62-1.93-8.31-.31-16.65.15-24.89,1.28-3.98.64-8.02,1.09-11.91,2.15-1.02.26-2.12.53-3.06,1.03-7.12-6.71-14.75-12.87-22.3-19.07-2.53-2.02-5.24-3.81-7.85-5.72-3.55-2.88-7.91-3.89-11.69-.73-9.87,7.27-10.5,21.65-9.05,36.33.31,3.55.42,7.12.65,10.68.15,2.79.71,5.56.67,8.35-.88,1.61-1.96,3.1-2.88,4.68-4.47,7.15-8.11,14.24-9.73,19.17-1.92,6.12-2.88,12.52-3.66,18.87-1.4,12.02-.38,23.14,3.42,33.39-12.06,1.71-26.71,5.95-33.84,10.08-3.55,2.79-.17,7.98,3.96,6.25,11.35-2.58,25.66-6.54,34.07-7.36,1.08,1.91,2.28,3.79,3.59,5.63-9.21,3.43-18.14,7.67-26.51,12.82-1.52.98-3.02,1.97-4.48,3.03-1.51.86-2.8,2.49-2.4,4.32.14,1.96,2.01,3.45,3.93,3.46,1.45.05,2.53-.95,3.68-1.67,2.71-1.72,5.52-3.31,8.37-4.78,9.12-4.82,14.28-7.43,22.8-10.47.19.21.38.43.58.64,5.23,6.12,11.23,11.55,17.89,16.03-.57.77-1.09,1.61-1.69,2.34-.09.14-.18.27-.28.41-.19.26-.37.49-.53.71-.22.26-.43.52-.65.78-.86.94-1.73,1.88-2.57,2.85-.58.72-1.34,1.34-1.79,2.14-4.95,4.7-8.18,7.5-12.87,10.4-8.35,5.36-17.55,9.42-25.43,15.48-11.95,9.51-2.44,25.09,9.63,28.85,4.14,1.56,8.62,2.07,13.02,2.22,7.91-.29,19.18-4.91,22.23-6.43,12.47-5.3,24.34-12.33,34.12-21.72,9.66,1.57,20.42,4.24,29.28,4.97-10.57,8.86-21.82,18.04-26.66,25.24-3.1,5.05-1.98,11.82,1.2,16.56,3.64,5.33,9.52,8.9,15.88,9.9,12.7,2.22,23-1.85,36.42-7.62,10.94-4.84,21.6-10.4,31.22-17.56,12.84-9.72,24.94-20.47,36.13-32.06.29.12.6.21.94.26.44.1.87.21,1.32.24,1.59.5,13.13.75,18.72-.09,6.27-.43,12.26-2.18,18.34-3.61,6.83-1.17,13.43-3.37,20.01-5.49,6.89-2.16,13.77-4.44,20.31-7.55,7.82-3.98,15.45-8.65,22.19-14.33,1.49,3.14,3.36,6.09,5.49,8.85,2.44,3.41,5.57,6.47,9.51,8.06,4.04,1.96,8.64,2.28,13.02,1.47,5.05-.55,9.7-3.68,11.74-8.39,1.55-3.59,2.54-7.54,2.25-11.47-.22-2.67-.81-5.27-1.67-7.79,3.97.03,7.96-.32,11.9-.63,3.08-.29,6.16-.51,9.24-.77l-.14-.06c3.84.06,7.7-.68,11.52-1.08-.43.06-1.81.22-.77.15,2.42-.18,4.85-.22,7.27-.03.5.1,1,.22,1.49.37.27.15.54.3.8.45.32.31.62.62.9.96,1.24,1.77,2.43,3.57,3.68,5.33,7.08,10.2,17.09,25.34,31.43,22.24,3.06-.67,10.71-4.09,14.06-10.74,4.45-8.16,2.89-17.87-.31-26.18ZM453.97,330.92c-.12.6-.25,1.19-.4,1.78-.12.57-.51,1.73-.7,2.27-.16.33-.33.65-.53.96-.04.06-.07.09-.1.14-.23.28-.47.57-.74.83-.47.15-1.35.43-1.94.53-1.78.16-3.58.16-5.36.03-.51-.11-1.39-.3-2.09-.52-1.37-.59-2.67-1.34-3.96-2.09-.67-.29-2.62-2.12-5.27-5.18-1.95-2.42-1.81-2.03-4.18-6.07-.13-.21-.24-.44-.35-.67,1.52-1.61,2.97-3.28,4.34-5.03,1.8-2.26,3.57-4.56,5.16-6.98,4.35,3.52,9.3,6.24,14.75,7.75.15,1.3.6,2.8,1.18,5.43.01.06.02.13.03.19.24,2.2.35,4.43.16,6.63ZM545.84,328.43c-.06.26-.13.51-.21.76-.14.29-.29.57-.43.86-.21.34-.41.68-.63,1.01-.54.63-1.12,1.24-1.72,1.82-.91.6-1.85,1.15-2.85,1.57-.64.25-1.28.49-1.95.64.12-.02.24-.03.35-.05-.5.09-1,.19-1.5.29-.25,0-.49,0-.74-.02-.02,0-.03,0-.05,0-.4-.08-.81-.17-1.2-.28-.73-.37-1.45-.78-2.13-1.23-.05-.04-.09-.06-.14-.1-1.67-1.1-1.19-.57-4.42-3.51-5.48-5.48-5.08-5.96-10.01-12.72-2.81-4.01-5.85-8.44-10.69-10.07-5.73-2.28-12.01-.35-17.81.68-1.99.4-3.97.81-5.98,1.09-.29.03-.59.06-.89.11-5.49.42-10.97,1.07-16.47,1.32-9.87,0-11.53-.42-19.29-5.19-3.85-2.05-12.92-11.82-18.16-22.6-1.83-3.17-3.07-6.75-5.24-9.69.09.11.11.09-.08-.28-.43-.78-.81-1.58-1.23-2.36-.14-.34-.31-.67-.57-.94-1.82-2.79-6.52-1.78-7.24,1.43-.39,1.76.42,3.7,1.09,5.45.21,1.28.54,2.55,1.01,3.76.03.07.05.13.08.2.28.58.25.56.13.32,1.42,3.47,2.94,6.92,4.69,10.24,2.05,3.84,4.7,7.3,7.38,10.71.35.47.72.93,1.08,1.39-8.05,13.54-19.67,22.92-34.95,31.84-10.47,5.59-17.5,7.76-29.7,11.63-4.18,1.33-8.52,1.99-12.79,2.99-6.95,1.7-9.09,1.75-16.8,2.18-2.74.12-5.48-.01-8.22-.1.84-1,1.66-2.02,2.43-3.09.04-.05.06-.09.07-.11.47-.63.92-1.3,1.25-2.02.37-.6.58-1.29.58-2,.03-3.07-3.71-4.77-6.02-2.96-1.04.61-2.27,1.54-2.22,1.53-.88.63-1.35.98-3.71,2.75-23.16,20.85-40.87,38.61-67.37,52.03-8.18,4.25-10.48,5.3-19.11,7.98-5.08,1.37-6.16,1.59-9.18,1.62-3.62-.18-1.91.13-6.65-.9-.84-.22-1.67-.48-2.48-.79-.41-.19-.81-.38-1.19-.61-.96-.58-1.05-.47-3.45-2.94-.43-.48-.87-.95-1.28-1.44-.27-.4-.52-.81-.73-1.25-.24-.68-.43-1.38-.57-2.09-.03-.37-.05-.74-.04-1.11.03-.11.06-.23.09-.34.1-.18.19-.36.3-.54.14-.23.31-.45.46-.68.26-.28.52-.55.78-.82,10.46-10.44,23.11-18.39,33.58-28.84,3.39-3.32,6.82-6.62,9.73-10.38,1.19-1.74,3.1-3.34,3.25-5.55.87-5.67-7.04-8.31-9.88-3.33-1.9,2.67-4.77,5.67-8.17,8.85-.22-.03-.45-.06-.68-.06-1.77-.16-3.57-.01-5.34.08-4.56.18-9.14.16-13.71.11-6.45-.36-7.62-.52-12.88-1.47-.69-.09-1.38-.21-2.08-.34,2.35-2.75,2.73-3.02,4.17-5.55,1.89-4.2-3.61-7.96-6.94-4.92-.94.69-1.88,1.37-2.8,2.09-.03.02-.06.05-.09.08.34-.25.67-.51,1.01-.76-5.65,4.36-10.71,9.51-16.34,13.93-2.34,1.96-9.78,6.68-16.08,10.16-16.08,8.83-25.05,12.4-35.89,7.63-.81-.38-1.59-.82-2.33-1.33-.11-.1-.23-.19-.34-.29-3.09-3.16-2.11-1.8-4.25-6.24-.04-.12-.08-.25-.11-.38,0-.1,0-.2,0-.3,0-.03.02-.07.02-.1.64-.68,1.34-1.31,2.07-1.9.72-.47,3.09-2.09,3.83-2.48,8.65-4.98,17.42-9.94,25.12-16.34,2.69-2.29,5.2-4.77,7.65-7.31.33-.41.71-.79,1.1-1.17.4-.35.78-.73,1.17-1.08,1.89-1.72,3.58-3.64,5.12-5.68,2.31-2.9,1.77-2.26,2.88-3.6,15.39,6.72,32.74,9.61,49.32,6.24,2.77-.6,5.53-1.32,8.16-2.39-.3.12-.6.25-.9.37.32-.07.62-.19.93-.29,2.89-1.1,5.14-1.57,6.05-2.32,2.87-2.04.57-6.69-2.8-5.74-4.47.59-8.9,1.86-16.26,1.88-11.41-.05-15.92-.27-26.2-3-9.76-2.72-12.19-3.69-20.21-8.44-7.85-4.67-10.95-7.86-18.33-15.7-12.2-12.67-16.51-28.62-13.87-49.38.45-3.1,1.01-6.19,1.63-9.27.46-2.26,1.08-4.47,1.9-6.63,2.62-6.15,6.27-11.81,9.85-17.45,1.17-1.75,2.39-3.62,2.61-5.76.45-3.26-.36-6.53-.51-9.8-.86-17.67-3.5-31.88,3.93-39.89-1.18,1.48-.44.58.34-.22,1.2.73,2.29,1.63,3.44,2.43,4.3,3.06,4.13,2.92,8.49,6.53,4.88,3.92,9.86,7.72,14.61,11.8,1.71,1.44,3.42,2.89,5.06,4.42.71.6,1.3,1.42,2.22,1.68.98.45,1.94.44,2.77.12.92.37,1.91.53,2.89.27,2.19-.24,4.38-.45,6.56-.8-.43.06-.85.12-1.28.17,8.93-1.31,17.96-1.75,26.97-1.42,10.15.54,12.98,1.27,23.52,2.53.73.09,1.45.18,2.18.27.22.03.76.1,1.41.18,3.99.79,6.53-1.42,7.31-4.16,3.72-6.21,6.78-9.4,13.08-16.2,5.06-4.69,6.36-6.72,10.5-8.75.23-.11.46-.2.69-.3.12-.04.24-.08.36-.13.25.13.5.26.74.4.07.05.13.09.18.13,1.22,1.07,2.33,2.27,3.35,3.54,1.64,2.34,2.77,4.99,3.87,7.62.03.08.05.13.08.19,1.97,5.08,4.2,10.07,5.65,15.33,1.29,3.98,2.01,8.17,3.9,11.93,1.76,3.13,1.51,2.17,3.82,6.2,3.48,6.12,6.93,12.26,9.71,18.75.7,1.81,1.3,3.66,1.9,5.51,1.54,4.4,2.46,10.06,2.48,11.1.43,8.58,1.14,17.24.17,25.81-.19,1.29-.43,2.58-.71,3.86-6.96.66-13.88,1.71-20.73,2.92-2.67.65-5.36,1.24-8,2.03-1.47.39-3.12.77-3.89,2.23-1.73,2.78,1.14,6.54,4.29,5.59,8.89-2.38,15.97-3.36,25.57-4.07-.19.49-.36.98-.56,1.46-1.17,2.65-2.52,5.22-4.01,7.72-3.61-.48-7.22-.86-10.85-1.08-3.78-.28-7.55-.37-11.34-.31-1.15.06-2.39-.13-3.43.41-4.58,1.75-3.16,8.71,1.73,8.68,5.73-.2,12.22.27,17.91.85-1.04,1.37-1.63,2.16-4.79,5.54-1.27,1.61-2.91,2.92-4.25,4.46-.38.35-.71.73-.99,1.17-.24.32-.48.65-.69.99-.33.29-.65.6-.95.93-2.34,1.69-1.75,5.68,1.23,6.42.92.18,1.88.14,2.7-.36.09-.03.05-.02-.06.01.5-.21.98-.47,1.47-.71.46-.12.92-.28,1.37-.4.61-.25.84-.17,3.36-1.58,5.34-3.06,6.47-3.94,12.1-9.36,1.58-1.68,3.05-3.46,4.4-5.32,8.88,1.31,17.94,2.81,22.11,2.94,3.1-.22,4.46-4.42,2.25-6.54-1.67-1.53-4.21-1.41-6.28-2.08-3.35-.69-6.69-1.42-10.07-1.98-1.02-.17-2.04-.35-3.07-.52,1.91-3.85,3.42-7.89,4.45-12.07,3.63-.07,7.27-.03,10.89.16,2.49.08,4.97.3,7.45.5,1.28.04,2.67.52,3.87-.12,2.67-.88,3.37-4.71,1.37-6.61-.73-.66-1.59-1.1-2.56-1.19-.65-.1-2.07-.29-2.59-.36-5.63-.81-11.3-1.1-16.97-1.04.07-.73.13-1.47.16-2.2.42-7.23-.6-14.43-1.49-21.59-.73-5.35-1.02-10.8-2.51-16.02-1.98-7.61-5.43-14.61-9.43-21.31.56-.27,1.11-.64,1.62-1.15,8.26-7.19,12.14-9.5,22.14-15.92,12.85-7.97,20.47-11.47,33.76-15.01,11.27-2.91,17.81-2.89,30.76-2.73,5.88.02,11.79.36,17.62-.58,6.57-1.16,13.04-3.62,18.21-7.92,6.9-5.24,10.99-13.36,13.45-21.51,2.07-5.95,1.81-12.19.57-18.28-3.71-15.87-21.94-42.42-27.76-56.79-2.98-8.17-3.54-12.48-3.78-18.37-.17-6.3,0-5.44,1.56-12.47,1.81-6.81,1.71-5.89,4.61-12.21,2.29-4.5,3.53-6.4,4.93-7.79,1.97-1.87,1.75-1.49,6.25-3.77,1.44-.37,1.7-1.3,5.79-1.02.9.16,1.79.36,2.67.63.55.16,1.32.45,1.87.66,1.54.67,3.1,1.33,4.51,2.23.98.87.36.07,1.88,2.6.01.03.02.05.03.07.08.24.14.47.19.71.02.34.03.68.03,1.02.04,3.46-1.42,10.57-4.58,17.59,1.6-3.87-.95,2.27-1.59,3.69-2.29,5.17-4.59,10.46-4.96,16.17-1.64,14.13,6.54,26.76,10.15,31.09,3.21,4.11,5.59,7.64,10.98,14.9,4.62,6.35,8.05,13.45,11.11,20.65.3.8.57,1.62.91,2.41.02.07.05.15.09.26,1.44,4.02,2.19,8.23,2.79,12.44.03.26.08.67.14,1.08-.01.48.06,2.32-.03,3.31-.04.3-.08.61-.13.91-.41,2.37-1.11,4.68-1.96,6.93-1.95,4.69-4.4,9.16-7.05,13.49-3.05,4.82-3.25,5.3-5.64,8.26-1.1,1.37-2.22,2.73-3.56,3.89-3,1.25-4.61,5.52-1.79,8.33,6.23,7.17,13.63,18.64,19.64,30.28,3.17,5.8,6.12,11.71,8.62,17.82,2.7,6.68,3.61,8.82,5.6,16.87,1.48,8.12,2.99,10.92,9.68,15.87,6.12,5.11,8.85,6.05,13.1,10.4,3.71,4.08,3.24,3.53,6.09,8.01,3.56,6.2,6.46,12.75,9.15,19.36-.15-.37-.3-.74-.45-1.11,2.63,5.98,6.35,17.96,6.14,20.22-.03,4.36.18,2.11-.61,6.13Z"/>
      <path d="M416.87,280.66c-.04-.11-.09-.21-.13-.32-.02-.03-.02-.05-.04-.09-.01-.04-.02-.07-.04-.11-.05-.11-.1-.23-.14-.34.08.28.25.64.35.85Z"/>
      <path d="M288.67,195.82c.04.35.12.68.28.99.47,1.44,2.03,2.39,3.52,2.37,2.04-.01,3.83-1.77,3.79-3.83-.1-.91-.21-1.82-.32-2.72-.66-8.94-6.43-24-13.86-20.71-5.98,2.31-9.58,8.26-12.35,13.73-.84,2.3-2.75,4.82-2.3,7.32.66,6.01,9.38,6.49,10.88.67.46-1.15-.16.38-.35.84,1.32-3.51,3.26-6.72,4.91-10.08.79-1.41,1.17-2.02,1.45-2.4.1.17.2.36.32.57,2.09,3.95,2.92,6.47,3.93,12.61.04.26.08.48.11.64Z"/>
      <path d="M180.07,187.15c.04.06.08.11.12.16-.11-.19-.25-.38-.4-.55-.56-.78-1.12-1.56-1.71-2.31.2.26.4.53.6.79-2.51-3.31-4.72-6.96-8.27-9.28-3.16-2.6-8.68-2.97-10.96.93-1.71,3.77-1.21,8.06-.64,12.03.49,3.29.82,6.69,2.36,9.69,2.69,4.45,9.3.68,6.86-3.91-.71-1.28-1.73-8.06-1.76-11.7,2.32,1.96,5.29,5.72,8.17,8.78,2.21,2.35,6.37.61,6.29-2.6-.04-.66-.21-1.3-.53-1.86-.04-.05-.08-.1-.12-.16Z"/>
      <path d="M180.22,187.35s-.02-.03-.03-.04c0,0,0,0,0,0,.01.01.02.03.03.04Z"/>
      <path d="M168.25,268.2c-.59-.29-1.25-.46-1.99-.44-3.16.2-4.81,3.07-5.09,6.29-.42,2.18-.36,4.87,1.29,6.34,1.03,1.78,2.65,3,4.83,2.92,7.69-.08,7.68-13.65.97-15.12Z"/>
      <path d="M245.49,269.03c-1.77-1.26-4.35-1.29-5.98.38,0,0,0,0-.01.01-1.43,1.02-2.52,2.62-3.03,4.3-2.24,5.13,2.62,11.36,8.03,8.31.64-.4,1.18-.89,1.64-1.45.41-.37.77-.8,1.05-1.32.78-1.65.94-3.69.53-5.54.22-1.8-.55-3.73-2.22-4.7Z"/>
      <path d="M208.35,279.57c-2.79-.39-5.62-.44-8.43-.56-2.16-.03-4.35-.49-6.48.02-3.07.84-5.12,4.16-4.41,7.28.46,2.25,2.02,4.08,3.31,5.92,1.4,1.84,3.34,3.92,5.43,5.16-.01.69,0,1.39-.06,2.07.12,2.27-.79,5.05.96,6.87,2.16,2.34,6.41.59,6.29-2.6-.33-2.5-.22-5.08-.6-7.56,2.1-.89,4.13-1.96,5.86-3.46,1.69-1.23,6.09-7.31,2.48-11.4-1.15-1.13-2.79-1.55-4.34-1.72ZM207.81,285.97c-.22.28-.46.55-.73.79-1.84,1.78-2.48,2.45-3.21,2.88-.55.4-1.13.77-1.71,1.13-.01-.01-.03-.02-.04-.03-2.95-2.4-3.32-2.82-4.72-5.09.24-.03.47-.05.68-.08-.67.09-.07.03.62,0,3.04-.11,6.98-.69,9.64-.39-.15.26-.35.58-.52.79Z"/>
      <path d="M177.61,425.14c-5.61-.87-11.3-.54-16.95-.33-8.44.16-9.79.93-15.91-.93-1.09-.52-1.47-.4-2.69-1.55.85-1.83,1.79-3.66,2.02-5.67.35-3.56-1.56-7.31-4.41-9.42-4.29-3.84-10.21-4.32-15.72-4.24-11.33-.1-21.28,5.79-30.97,10.94-4.03,2.01-8.41,3.46-11.02,3.65-.69.06-1.39.1-2.08.15,3.41-2.9,6.46-6.23,8.7-10.14,3.67-6.81,6.93-19.76,6.06-31.15-.09-1.28-.83-6.81-3.41-11.21-3-5.56-7.18-10.48-12.42-14.03-4.55-3.12-9.35-6.04-14.69-7.57-10.81-2.64-17.8-2.79-26.01.33-3.27.52-6.49,1.39-9.59,2.48-7.16,2.77-12.3,6.42-16.75,10.12-3.81,3.51-6.18,8.17-8.1,12.91-3.73,8.1-4.62,17.36-2.67,26.05,2.5,8.18,4.62,13.2,11.39,21.33,8.06,8.8,19.27,15.68,31.45,15.98,4.2.11,8.47-.22,12.51-1.43,3.1-.9,6.02-2.34,8.9-3.81.07,0,.14.02.22.02,8.37.6,17.21.9,25.1-2.36,6.03-2.31,11.29-6.14,16.95-9.18,7-3.71,14.91-5.18,20.5-4.08,3.83.9,2.27.14,4.98,1.98.31.26.62.53.89.82.07.11.15.25.23.41.03.11.07.24.11.39-.13.48-.3.95-.48,1.41-1.67,3.24-2.75,7.47.12,10.37,4.21,4.29,9.69,4.07,13.01,4.43,5.77.05,11.55-.28,17.32-.3,4.91-.05,8.68.24,11.46.45,3.11,0,5.62,1.64,7.19-2.22.6-3.66-2.28-4.38-5.24-4.6ZM81.85,399.06c-6.29.22-12.58.58-18.88.79-5.9-.12-10.18-.96-11.01-.97-.03,0-.06,0-.09,0,.43-1.17.8-2.08,1.04-2.57.96-1.92,1.93-3.83,2.91-5.74,6.66,2.33,13.98,1.82,20.91,1.3,2.31-.18,4.61-.45,6.9-.75-.41,2.76-1.02,5.54-1.79,7.95ZM77.34,364.31c1.23,1.34,2.23,2.85,3.82,5.18,2.35,4.48,1.68,2.58,2.72,6.92.39,2.11.5,2.7.46,5.04-5.44.78-15.39,1.05-23.12.53-.24,0-.48.01-.72.02.32-.56.64-1.13.97-1.68,1.86-2.91,3.11-4.13,6.99-8.19,2.58-2.67,5.36-5.14,8.3-7.41-.29.22-.58.44-.87.66.46-.39.96-.73,1.47-1.08ZM20.25,364.32c.47-.52.96-1.01,1.42-1.53-.08.1-.15.19-.23.29.76-.67,1.3-1.15,1.71-1.52.04-.02.08-.04.13-.05,2.73-1.08,5.47-2.13,8.14-3.34,3.67-1.4,4.43-2.43,12.13-4.48,1-.42,4.55-.66,7.11-.7-2.06,1.87-4.06,3.8-6.06,5.74-3.97,3.78-7.76,7.79-10.9,12.28-5.03-1.21-9.95-2.86-14.88-4.4-.03,0-.05-.01-.08-.02.48-.77.98-1.53,1.51-2.27ZM22.15,399.37c-.73,3.6-1.26,7.28-1.43,10.96-2.59-2.96-4.87-6.52-6.87-10.82-.28-.8-.83-2.37-.98-3-.19-.72-.38-1.44-.56-2.16,2.43,1.2,4.93,2.24,7.43,3.26.85.24,1.7.62,2.55.97-.05.26-.1.53-.15.79ZM24.36,390.19c-3.33-1.24-4.89-1.98-9.82-4.43-.88-.31-1.77-.82-2.68-1.31.33-3.62,1.27-6.07,2.81-9.63.05-.12.1-.25.15-.37h0l-.04.09s.02-.06.04-.09c2.81,1.04,5.71,1.84,8.58,2.72,1.89.55,3.79,1.09,5.7,1.58-1.92,3.68-3.51,7.5-4.75,11.44ZM39.84,420.02c.05.46.19,1.38.27,1.9-.65-.11-1.27-.24-1.85-.43-2.89-.94-5.57-2.08-8.07-3.49.02-2.9.21-5.8.53-8.69,1.28-8.17,2.84-16.42,5.85-24.14,2.01-4.67,4.25-9.25,7.24-13.37,2.69-3.35,5.65-6.46,8.57-9.6,2.48-2.53,4.93-5.1,7.59-7.45.1-.11.22-.21.33-.3,3.27.75,5.34,1.69,9.87,4.44.08.05.14.09.22.14-5.44,4.04-10.45,8.68-14.79,13.88-3.12,3.87-5.43,8.3-7.72,12.69-5.74,10.41-9.69,22.42-8.04,34.41ZM74.53,409.98c-3.21,3.08-7.02,5.62-13.34,8.59-4.77,2.11-4.32,2.27-10.29,3.46-1.11.06-2.12.1-3.08.14.21-1.47-.22-3.11-.2-4.6-.07-.64.14-2.7.17-3.09.27-2.26.84-4.88,1.52-7.45,1.69.39,3.47.75,5.1,1.07,6.92,1.52,13.99,1.39,21.03.97-.27.27-.57.56-.91.9Z"/>
    </g>
  </g>
</svg>