<?xml version="1.0" encoding="UTF-8"?>
<svg id="Layer_2" data-name="Layer 2" xmlns="http://www.w3.org/2000/svg" viewBox="0 0 462.27 342.88">
  <g id="Layer_2-2" data-name="Layer 2">
    <g>
      <g>
        <path d="M261.61,178.46s-.04.02-.06.03h0s.04-.02.06-.03Z"/>
        <path d="M260.72,171.65c-2.04-.39-7.59.55-12.18,1.53-.42-3.8-1.16-7.57-2.16-11.27.15-.09.29-.17.44-.26,3.47-1.77,6.93-3.55,10.5-5.1-.03.01-.05.02-.08.03.62-.27,1.41-.65,1.78-.9.46-.25,1.38-.69,1.69-.85.76-.35,1.41-.92,1.83-1.65,1.12-1.85.41-4.48-1.48-5.53-.67-.33-1.39-.54-2.12-.53.02,0,.04,0,.06,0-.83-.03-1.66-.01-2.49,0-3.69.19-7.39.95-10.85,2.26-1.06.42-2.11.87-3.14,1.35-.16-.39-.32-.79-.49-1.17-1.41-3.17-4.27-10.84-9.16-16.91-1.12-1.5-.45-.55.26.36-4.05-5.36-8.97-10-13.71-14.74-3.51-3.57-7.59-6.61-10.78-10.49-.19-.29-.38-.58-.54-.89-.04-.08-.08-.17-.12-.25,0,0,0-.01,0-.02-1.06-3.07-.57-6.52-.81-13.29-.52-9.37-1.51-19.41-7.25-27.19-11.8-16.3-29.29-8.66-42.4,3.03-7.23,6.46-12.48,14.67-16.46,23.45-.2-.07-.41-.14-.61-.2-.18-.07-.36-.12-.55-.15-5.65-1.13-11.43-.4-17.06.52-9.66,1.46-19.04,4.27-28.15,7.76-8.81,3.28-17.1,7.75-24.9,12.99-7.91,5.34-12.02,8.04-20.29,17.14-15.13-4.7-40.11-3.55-47.69,9.02-6.56,12.39,6.7,33.95,13.14,44.87,2.16,3.54,4.37,7.04,6.68,10.48,1.34,1.72,2.24,4.13,4.25,5.1-6.75,22.64-.07,49.45,16.35,66.5-3.21,2.83-6.09,6.02-8.2,9.75-.85,1.55-1.61,3.15-2.26,4.79-.12.23-.21.47-.28.71-.01.03-.02.06-.03.08,0-.03.02-.05.03-.08-.21.73-.23,1.5-.03,2.23.53,2.17,2.98,3.57,5.12,2.96.73-.24,1.4-.62,1.93-1.16,0,.01.01,0,.08-.06,1.55-1.59,3.11-3.18,4.59-4.84,2.57-2.77,4.95-5.05,7.34-7.08,3.89,2.96,7.95,5.34,12.18,7.26-1.95,3.22-3.73,6.54-5.24,10-.61,1.67-2.01,3.3-1.51,5.16.51,2.11,3.11,3.17,4.97,2.08,1.32-.74,1.73-2.3,2.49-3.51,2.3-4.06,4.43-7.63,6.57-10.93,6.05,1.93,12.44,3.08,19.21,3.65,11.35,1,22.8,1.2,34.09-.5,6.25-.91,11.98-1.42,21.48-3.43,11.68-2.84,23.32-6.24,34.41-10.9,12.64-5.56,24.53-13.07,34.63-22.51,10.51-9.93,18.71-22.05,25.18-34.93,2.52-5.14,6.96-13.97,8.9-24.32.57-2.77.89-5.57,1.02-8.36,1.27-.38,2.53-.77,3.8-1.14,2.41-.73,4.79-1.53,7.16-2.39.33-.12.66-.25.98-.38-.02,0-.04.02-.05.02.29-.07.55-.19.8-.33-.09.04-.19.08-.29.12.1-.04.19-.08.29-.12.16-.09.32-.19.46-.32.42-.27.75-.63.99-1.08,1.24-2.04.03-4.87-2.28-5.44ZM229.37,188.63c1.92-.54,3.83-1.11,5.74-1.69-1.34,7.17-4.48,14.38-9.31,23.26-4.19,7.69-8.89,15.11-14.14,22.12.38-.5.76-.99,1.15-1.49-5.41,7.28-14.94,15.97-18.09,18.05.46-.35.91-.69,1.37-1.04-4.33,3.17-8.86,6.06-13.59,8.6-8.41,4.34-9.12,4.79-17.18,7.59-7.28,2.3-14.54,4.66-21.96,6.47-5.08,1.2-10.24,2.06-15.41,2.8-.85.12-1.71.24-2.56.36-.15.02-.29.04-.44.06-9.03,1.32-18.17,1.84-27.29,1.24-9.41-.59-10.38-.5-19.4-2.4.78-.96,1.59-1.92,2.43-2.89,3.57-3.7-1.72-9.09-5.49-5.57-1.68,1.98-3.32,4-4.91,6.06-3.05-1.14-5.96-2.5-8.7-4.07,2.67-1.63,5.6-3.32,8.97-5.26,6.35-3.89,1.01-13.28-5.59-9.81-4.44,2.47-8.74,5.19-12.91,8.1-8.48-7.79-14.45-18.42-17.18-31.65-2.04-8.75-1.59-18.57-.42-24.99.09-1.33.29-2.67.39-4,.25-1,.12-2.09-.4-2.98-.52-.97-1.43-1.58-2.44-1.84-.02-.04-.03-.08-.06-.12-10.23-15.69-23.16-36.85-21.19-46.2.06-.11.1-.22.16-.33.07-.12.15-.22.22-.34.22-.22.45-.44.7-.64.71-.48,2.04-1.11,2.79-1.46,5.96-2.05,4.78-1.53,10.39-2.17,4.03-.35,8.11-.34,12.13.13.7.11,2.03.31,2.82.46,1.62.3,3.2.74,4.79,1.17,2.42,4.21,8.68,5.7,12.54,1.81,9.02-10.19,12.78-12.57,21.68-18.55,9.72-6.51,18.74-10.75,24.92-13,8.8-3.46,17.98-5.84,27.32-7.32,3.29-.63,1.69-.14,7.17-1.06.02,0,.03,0,.05,0,.04,0,.07,0,.11,0,2.63,3.68,9.33,3.77,11.03-1.97,2.46-6.61,8.22-17.76,14.06-23.02,5.5-5.05,4.7-4.73,11.32-8.56,4.1-1.85,1.86-1.18,6.99-2.4.51-.03,1.03-.03,1.54,0,.2.04.4.08.59.13.21.05.41.12.61.18.54.26,1.06.56,1.55.9,4.61,4.14,6.32,12.58,7.24,18.42.94,6.53.16,13.31,2.02,19.69,2.06,6.96,9.57,13.33,17.32,20.96,6.89,6.99,9.9,9.42,13.51,15.66,2.46,4.4,3.96,7.46,5.21,11.01-2.01,1.37-3.99,2.8-5.91,4.29-2.34,1.73-4.54,3.64-6.66,5.64-.91.84-1.92,1.67-2.26,2.9-2.53,5.71,5,10.71,9.42,6.33,2.89-2.7,5.6-4.91,8.69-7.07.54,2.73.86,5.33.97,7.84-.54.18-1.08.36-1.62.54-2.01.68-4.03,1.34-6.07,1.94-.93.31-1.97.44-2.69,1.14-4.04,2.9-.85,9.36,3.94,8.07Z"/>
      </g>
      <g>
        <path d="M405.78,308.62c.27-.19.59-.41.78-.59-.26.2-.52.39-.78.59Z"/>
        <path d="M462.17,171.5c-.61-9.25-1.7-18.5-3.84-27.53-2.18-8.18-5.2-16.13-8.64-23.85-3.15-6.96-7.24-13.42-11.2-19.94-5.94-9.65-12.44-19.02-20.14-27.36-9.11-9.82-18.34-19.64-28.8-28.04-10.5-8.44-22.1-15.42-33.97-21.73-20.97-10.71-43.86-17.68-67.19-20.75-17.19-2.33-34.64-3.12-51.92-1.29-25.81,2.3-51.38,8.09-75.09,18.72-12.4,5.78-24.65,12.06-35.9,19.91-10.51,7.61-21.11,15.21-30.47,24.24-10.34,9.99-19.57,21.4-25.47,34.6-1.42,3.06-2.53,6.24-3.39,9.5-.54,2.34-1.31,4.82-1.11,7.22.67,5.8,8.99,6.17,10.42.64,1.42-7.64,9.96-23.46,14.69-29.19,7.61-9.44,16.68-17.63,26.22-25.09,5.83-4.45,12.44-9.73,21.61-15.59,10.79-6.93,27.52-15,34.66-17.88,10.01-3.95,20.42-6.86,30.89-9.36,6.13-1.42,12.34-2.44,18.58-3.29,22.79-2.87,45.88-3.94,68.79-1.85,11.71.52,35.86,7.8,46.37,12.76,15.21,6.47,35.26,19.77,43.95,26.62,7.94,6.31,15.11,13.52,22.15,20.81,8.79,9.35,13.36,14.01,19.41,23.09,6.17,9.31,12.29,18.75,16.83,28.98,1.78,4.19,5.89,14.75,7.66,23.51,2,9.56,2.5,16.15,2.79,28.3-.29,8.57-.86,9.8-2.32,18.97-1.55,8.93-3.44,17.8-6.22,26.43-2.11,6.75-3.5,13.72-5.83,20.4-2.84,7.55-4.33,10.56-8.82,18.84-4.34,8.2-12.69,20.48-15.34,23.64-4.55,5.78-11.5,11.5-13.71,13.11-11.5,7.93-28.05,16.46-42.7,20.83-11.08,3.84-22.45,6.81-34.07,8.41-2.49.31-4.99.56-7.48.79-5.62.53-11.26.86-16.91.88-10.43.12-20.9-.02-31.28-1.13-11.56-1.49-22.97-4.16-34.11-7.57-8.79-3.22-12.37-4.14-18.35-7.29-4.87-2.84-3.51-2.21-6.47-4.44-.14-.11-.27-.21-.4-.31-3.58-3.04-7.55-5.72-10.62-9.29-2.36-3.6-1.43-2.05-2.85-6.05-.15-.51-.26-1.03-.36-1.56,0-.19-.02-.46-.03-.83,0-.21,0-.43.02-.64.06-.33.13-.66.22-.98.07-.28.16-.56.25-.83,2.58-4.95,1.76-3.53,5.63-7.12.62-.46,1.56-1.17,2.08-1.58.66-.48,1.7-1.23,2.18-1.51.47-.39,2.57-1.4,2.99-1.62.32-.12.64-.24.95-.39,1.43-.35,2.87-.63,4.32-.84,0,0,0,0,0,0,.3-.04.61-.08.91-.11,2.95-.31,5.9-.65,8.87-.68,4.32.05,8.23.45,9.79.72,15.97,2.59,19.68,6.97,32.14,10.42,9.97,2.29,16.3,1.72,24.01,2.29,15.23.54,22.86.52,34.42-1.8,9.87-1.91,19.26-5.58,28.59-9.23,7.92-3.17,16.11-6.04,23.34-10.63,1.74-1.18,3.4-2.47,5.06-3.76.94-.8,1.94-1.53,2.78-2.42.19-.14.38-.29.57-.43,2.15-1.75,4.16-3.67,6.21-5.54.58-.52,1.18-1.05,1.69-1.65.1-.05.28-.19.57-.47,4.86-5.59-2.66-12.05-7.73-7.13-.32.23-.64.48-.96.71-1.61,1.17-3.24,2.32-4.87,3.46-.74.64-2.94,1.84-2.14,1.58-2.3,1.03-4.33,2.66-6.63,3.72-4.67,2.44-13.49,5.93-18.33,7.95-10.31,4.08-20.59,8.47-31.5,10.7-7.74,1.54-6.94,1.28-14.94,2.04-.49,0-.95.14-1.4.32.08-.18-2.15.3-3.21.38,3.92-.52-4.2.56-5.72.72-8.24.89-11.06,1.08-17.59.99-7.28-.12-9.83-.66-17.83-3.4-1.15-.46-2.25-.87-3.33-1.28.67-.76,1.44-1.46,2.31-2.09,1.61-.62,3.73-1.23,7.76-2.18,4.62-.77,6.83-1.06,13.75-1.19,2.2.06,4.4.19,6.59.44.59.1,1.18.23,1.77.21.26.07.52.12.79.16,4.41.73,8.43-3.57,7.06-8-.22-.59-.48-1.17-.75-1.75-.16-.49-.4-.94-.7-1.35-.67-.97-.99-2.1-1.94-2.88-.36-.43-.71-.87-1.05-1.32-.84-1.57-6.77-8.01-10.7-16.72-.13-.28-.25-.57-.37-.86-.38-.98-.74-1.96-1.09-2.94-2.17-6.89-3.63-14.03-4.83-21.14-.98-9.4-.21-19.82,3.61-30.3.79-1.94,1.72-3.78,3.56-7.31,4.74-8.28,6.57-10.62,13.74-17.46,7.81-6.45,10.87-9.62,20.5-14.16,2.68-1.21,1.57-.72,2.86-1.24-.06.03.08-.02.67-.26.2-.08.4-.16.6-.25-1.39.58-.75.32.14-.04.6-.16,1.24-.33,1.94-.52,1.22-.28,2.45-.54,3.68-.76,1.17-.23,2.5-.22,3.4-1.1,4-2.84.86-9.31-3.91-8.01-7.38,1.01-14.65,3.15-21.27,6.6-7.39,4.39-14.38,9.73-19.91,16.35-.71.86-1.39,1.74-2.06,2.63-.26.27-.53.54-.79.81-5.21,5.63-9.57,12.03-13.32,18.7-3.33,6.59-4.8,10.55-6.04,13.9-1.63,4.49-2.63,9.26-2.63,14.05.23,5.75.92,11.52,2.27,17.11,2.01,8.44,4.25,16.94,7.74,24.9,1.68,3.57,3.92,7.45,6.34,10.98-1.96.08-3.91.25-5.85.56-3.72.43-7.45,1.27-10.91,2.71-4.18,1.18-8.08,3.13-10.99,6.46-.98,1.28-1.96,2.53-2.68,3.74-4.15-1.09-8.2-1.81-12.88-2.28-3.52-.12-3.88-.58-8.86-.68-3.84-.03-7.68.36-11.49.81-1.81.24-3.62.51-5.4.94-2.33.08-4.66,1.04-6.8,1.87-4.22,1.63-8.15,4.09-11.28,7.39-.87.92-1.66,1.91-2.36,2.97-3.01-5.55-8.56-9.35-14.51-11.22-4.48-1.96-9.2,3.04-6.68,7.5.45.78,1.06,1.4,1.82,1.87.18.14.37.27.54.41,1.41,1.19,3.02,2.06,4.55,3.07,1.39,1.17,2.69,2.44,3.87,3.82.06.09.11.18.17.27.26.4.48.82.69,1.24.19.55.36,1.12.47,1.69.12,1.36.1,2.73-.02,4.09-.07.39-.15.77-.26,1.14-1.56,2.67-1.4,2.61-2.8,3.92-.55.38-1.16.78-2.18,1.51-11.89,8-23.74,8.63-40.01,8.45-4.98-.14-9.98-.24-14.94-.67-.83-.17-1.66-.36-2.48-.57,0,0,0,0,0,0-7.07-2.35-10.11-3.87-15.38-8.87-2.92-3.39-2.32-2.36-4.89-7.28-1.87-4.1-.96-1.87-2.29-5.51-.4-1.05-.56-2.24-1.28-3.11-.15-.34-.34-.66-.61-.94-2.86-4.03-9.03-1.45-8.95,3.02-.13.72-.12,1.49.1,2.3.71,2.35,1.54,4.58,2.48,6.71.17.41.36.81.54,1.22.05.11.1.23.16.34.32.69.67,1.36,1.04,2.02,5.39,10,13.8,17.03,25.93,20.17,2.91.83,5.9,1.1,8.91,1.26,10.76,2.1,21.97,2.01,32.73-.01,12.01-1.36,22.61-5.07,30.66-13.62.76-.73,1.56-1.52,2.31-2.37.72,1.48,1.57,2.88,2.6,4.17,2.53,3.48,6.08,6,9.36,8.71,2.89,2.36,5.71,4.83,8.76,6.99,4.25,2.9,9.09,4.78,13.82,6.75,7.1,2.97,14.4,5.42,21.89,7.2,16.42,4.38,33.38,6.01,50.34,6.09,23.29.8,46.71-2.31,68.74-10,6.95-2.23,13.9-4.59,20.45-7.84,9.2-4.68,18.12-9.99,26.3-16.3-.08.06-.16.11-.22.16,14.9-11.42,24.22-28.35,32.54-44.82,3.13-6.31,6.68-12.43,9.15-19.05,2.13-5.23,3.21-10.8,4.82-16.2,3.25-10.33,5.83-20.86,7.69-31.53,1.54-8.46,2.91-17.04,2.42-25.67Z"/>
      </g>
      <path d="M133.46,236.34c-.23-2.13-.14-4.9-2.27-6.09-2.06-1.25-4.91-.03-5.49,2.3-.25.83-.05,1.65.1,2.48.2,2.01-.02,2.26,0,2.39-.06.28-.12.56-.21.83-.01.04-.02.06-.03.09-.12.24-.26.47-.4.7-.92.83-1.04.95-3.68,2.35-.22.07-.45.14-.67.2-.13,0-.27,0-.4,0-.12-.02-.24-.04-.37-.07-.62,0-2.49-1.05-5.47-3.17-6.05-3.26-11.03,5.39-5.2,9.01,5.13,2.22,9.93,5.69,17.15,1.29,4-2.77,7.18-7.29,6.95-12.31Z"/>
      <path d="M202.76,195.12c-.71-2.35-3.01-4.3-5.5-3.16-2,.69-2.83,3.14-2.1,5.04.1.41.16.83.22,1.24.04.28.09.64.14.93,0,.04.01.08.02.12.03.35.08,1.06.05,1.59-.1.62-.25,1.23-.45,1.82-.01.03-.03.06-.04.08-1.02,1.53-.22.77-1.88,2.24-.13.08-.27.14-.41.21-.25,0-.5,0-.76-.01-.29-.05-.64-.13-.94-.22-.14-.04-.27-.09-.4-.14-.5-.25-1.3-.65-1.68-.95-1.81-1.59-4.67-2.32-6.64-.59-2.76,1.82-2.41,6.41.47,7.95,4.26,2.72,10.18,4.38,14.75,1.45,3.04-2.08,5.34-5.37,6.02-9.01.54-2.87.37-5.93-.88-8.59Z"/>
      <path d="M172.06,240.56c-.43-1.08-.79-2.2-1.33-3.24-.55-.88-.92-1.92-1.38-2.88.25-.63.52-1.38.61-1.75.79-3.27,3.61-8.6-.61-10.52-4.62-1.55-5.97,4.22-7.17,7.87-1.75-.22-3.5-.4-5.25-.6-1.26-.21-2.52-.52-3.77-.2-5.07,1.45-4.07,8.85,1.2,8.9,2.21.26,4.43.57,6.66.66,1.65,3.47,3.79,8.91,8.4,7.04,2.06-.71,3.23-3.2,2.64-5.28Z"/>
      <path d="M186.92,100.6c-.41-6.57-1.36-14.32-7.11-18.45-5.7-4.71-12.19,1.58-15.42,6.29-3.03,4.13-4.35,9.25-5.43,14.19-.92,3.96,2.57,6.28,5.54,5.7,1.98,1.25,4.81,1.1,7.06,1.65,3.77.47,4.68.63,7.99.93,6.72-.31,7.79-4.4,7.37-10.3ZM169.18,101.06c1.19-3.64,2.04-5.07,4.02-7.45,1.27-1.44.96-1.33,2.59-2.98.15.24.3.49.45.74,1.25,1.46,3.14,9.24,3.11,11.22,0,.25.01.5.01.75h0c-2.26-.5-4.45-1.31-6.75-1.65-1.15-.18-2.29-.41-3.43-.62Z"/>
      <path d="M46.23,154.42c-2.89-1.32-5.95-2.14-9.13-2.39-2.58-.36-5.26-.4-7.73.52-4.48,1.34-7.58,5.49-6.45,10.22.6,1.92,1.56,3.71,2.43,5.52,1.31,2.58,2.7,5.11,4.2,7.57,1.02,1.42,1.79,3.15,3.37,4.04.97.54,1.94.75,2.85.72,1.3.79,2.97.95,4.52-.03.11-.05.22-.1.33-.16,2.44-1.35,4-3.8,5.72-5.92,1.86-2.79,3.63-5.68,4.83-8.83,2-5.12.24-9.33-4.95-11.28ZM42.9,163.14c-2,3.15-2.69,3.65-4.89,6.53-1.76-2.62-3.36-5.35-4.87-8.13.72-.24.69-.13,3.46-.01.49.04.98.1,1.47.15.32.06,1.02.16,1.62.24-.18-.02-.36-.04-.54-.07,1.35.19,2.71.42,4.03.78-.1.17-.19.34-.28.51Z"/>
    </g>
  </g>
</svg>