<?xml version="1.0" encoding="UTF-8"?>
<svg id="Layer_2" data-name="Layer 2" xmlns="http://www.w3.org/2000/svg" viewBox="0 0 354.65 442.04">
  <g id="Layer_2-2" data-name="Layer 2">
    <g>
      <path d="M251.28,144.99c.12-3.07-1.88-5.95-5.15-5.91-2.7.01-5.06,2.34-5.01,5.06.01,1.46.1,2.92.18,4.39-.09,1.54.17,1.05-.63,3.88-.31.32-.65.65-.89.87-.35.22-.71.42-1.08.59-.13.04-.29.09-.49.15-.29.07-.52.13-.7.16-3.71.04-1.89.18-4.79-.47-2.34-.81-1.56-.35-2.87-1.12.62-.93,1.15-1.92,1.49-3.01.7-1.86.8-3.87,1-5.83.21-4.08.32-8.8-2.24-12.22-1.37-1.94-3.83-3.31-6.22-2.68-2.46.57-4.68,1.85-6.74,3.26-3.03,1.64-5.94,3.51-8.5,5.82-13.24,11.59.06,17.3,11.56,18.43.11.38.26.75.47,1.1.04.59.07,1.36.07,2.39-.02.2-.03.36-.04.5-.1.68-.22,1.36-.43,2.02-.22.47-.47.92-.75,1.35-.07.07-.14.13-.21.19-.32.21-.76.49-1.17.71-.36.12-.72.23-1.09.32-.16.04-.28.06-.4.09-2.99.19-2.71-.11-4.11-.13-.39,0-.78-.04-1.17-.07,0,0,0,0-.02,0-.36-.05-.73-.09-1.09-.13-.23-.04-.65-.13-1.1-.26-3.39-1.63-7.29.97-5.85,4.75,3.09,7.56,14.3,8.7,20.56,4.55,3.96-2.4,5.94-6.46,6.46-10.83,6.92,1.89,14.64.76,18.73-5.71,1.84-3.75,2.59-8.05,2.23-12.21ZM219.47,138.94c1.52-.81,1.63-.98,3.87-1.52.08.29.15.58.21.87.08-.32.51,4.21.1,7.29-.07.42-.21,1.17-.37,1.6-.03.1-.07.19-.1.29-.32-.07-.67-.11-1.04-.12-5.38-.22-9.29-.52-11.51-1.32,1.45-1.99,4.71-4.92,8.84-7.09Z"/>
      <path d="M256.72,104.16c-3.95-6.76-12.8-5.05-12.86,2.97.2,3.58,2.27,7.27,5.9,8.25,1.26.36,2.5.23,3.61-.22,1.03-.27,2.03-.79,2.93-1.6,2.62-2.49,2.48-6.59.43-9.39Z"/>
      <path d="M170.94,140.04c-1.18-.67-2.42-.93-3.59-.86-2.15.03-4.21,1.24-5.24,3.41-.28.5-.5,1.05-.66,1.63-.19.74-.26,1.53-.23,2.32-.13,1.18.15,2.44,1,3.66.3.55.67,1.06,1.11,1.5.74,1.12,1.68,2.09,2.82,2.79,3.85,2.11,8.43-.19,9.38-4.4.79-3.87-1.37-7.95-4.6-10.05Z"/>
      <path d="M107.94,96.97c-2.31-1.7-4.86-3.06-7.36-4.45-2.77-1.37-5.88-2.63-9.01-2.05-3.79.8-6.1,4.72-5.81,8.44.27,2.81,1.72,5.33,2.98,7.8,2.52,4.56,5,9.29,8.67,13.04,1.24,1.13,2.76,2.3,4.53,1.74,1.4-.35,2.33-1.51,2.61-2.81.67-.44,1.3-.97,1.95-1.4,2.44-1.75,4.77-3.72,6.41-6.27,4.68-6-.13-10.44-4.98-14.04ZM103.3,110.05c-.81.59-1.71,1.09-2.56,1.64-1-1.72-2-3.82-3.18-6.18-1.19-2.66-2.01-4.25-2.45-5.49.08.03.16.06.25.09.07.03.13.06.23.1,3.03,1.44,9.1,5.08,11.03,6.45-.1.18-.21.36-.32.53-.11.15-.18.25-.23.32-.91.97-2.75,2.5-2.78,2.54Z"/>
      <path d="M244.56,40.38c-2.07-3.75-4.18-7.74-7.51-10.53-2.28-1.95-5.86-2.71-8.63-1.43-2.16,1.14-3.37,3.42-4.52,5.48-2.53,4.62-4.44,9.57-5.93,14.62-1,4.3,3.29,6.64,6.34,5.34.5.2,1.02.31,1.57.31.21.03,1.56.2,2.19.25,2.77.37,5.59.57,8.36.12,1.56-.25,3.06-.75,4.52-1.34.03,0,.61-.23,1.15-.46.89-.34,1.64-.95,2.35-1.57,3.08-3.42,2.03-7.1.12-10.79ZM228.29,45.66c.58-1.85,1.23-3.68,1.96-5.48,1.16-2.82.66-2.4,1.9-4.63.35.32.81.76,1.02,1.06.06.07.1.12.14.18,1.23,1.74,2.21,3.63,3.25,5.49.36.58,1.33,2.79,1.46,3.06.02.05.04.1.06.15.01.03.02.07.04.11-4.47,1.35-5.18.17-9.83.06Z"/>
      <g>
        <path d="M291.49,239.05s0,.02,0,.03c0-.06-.02-.15-.03-.26.01.09.02.17.03.23Z"/>
        <path d="M351.01,95.55c-2.01-.52-3.97.51-5.92.93-3.3.97-6.57,2.04-9.84,3.08-4.43,1.47-8.88,2.96-13.3,4.5-.02-.11-.04-.22-.07-.33-.87-3.71-1.95-7.37-3.24-10.95,1.17-.63,2.33-1.27,3.51-1.89,5.24-2.68,10.46-5.38,15.67-8.11,1.53-.8,3.05-1.59,4.59-2.38.64-.31,1.29-.66,1.66-1.28,2.01-2.27.03-6.12-2.95-6.01-1.47.03-2.7,1-4.03,1.53-3.62,1.73-7.27,3.4-10.84,5.21-3.58,1.8-7.13,3.64-10.66,5.52-3.16-6.69-7.22-12.93-12.34-18.36-5.66-6.2-12.41-11.31-19.08-16.37-1.76-1.27-3.55-2.51-5.35-3.72-.23-.17-.49-.33-.76-.47h0s-.04-.02-.06-.03c-.01,0-.03-.02-.04-.02-1.32-.78-2.66-1.51-4-2.25-3.45-2.01-7.23-3.42-10.54-5.65-.09-.11-.19-.21-.28-.32-.5-.74-.95-1.52-1.37-2.32-3.48-7.16-6.8-14.42-11.03-21.19-2.87-4.51-6.08-8.99-10.47-12.13-7.59-4.71-14.8-2.57-19.23,3.55-.15.18-.36.45-.59.76-.62.8-1.8,2.36-2.15,2.94-2.37,3.57-4.44,7.36-6.12,11.3-1.76,4.22-3.31,8.55-4.36,13-.88,3.74-1.34,7.58-2.42,11.27-.03.08-.06.16-.08.24-.36.1-.72.18-1.09.24-.2.03-.43.06-.67.09-3.52.43-7.07.79-10.5,1.71-8.32,2.2-15.25,5.37-20.2,7.37-9.75,4.21-18.81,9.72-27.65,15.55-6.51,4.3-12.55,9.35-19.43,13.06-2.07.91-1.06.75-3.27,1.22-.11-.02-.22-.05-.34-.08-4.52-2.26-2.66-1.32-7.42-3.12-.11-.05-.22-.09-.33-.14-.82-.35-1.63-.74-2.49-.95.06,0,.13.02.19.02-3.04-1.13-6.04-2.37-9.04-3.59-4.29-1.92-8.54-4.1-13.18-4.99-2.75-.35-1.67-.61-7.24-.52-3.87.35-8.1,1.5-10.65,4.6-1.78,2.41-2.61,5.48-2.75,8.47,0,0,0,0,0,0-.4,3.98.77,7.99,1.55,11.87,1.36,5.17,4,14.72,7.64,22.21,2.56,5.46,3.43,7.63,5.02,11.98,1.72,4.26,3.26,12.88,3.38,13.69.45,5.41,3.32,21.51,6.44,33.45,1.68,6.17,3.55,12.6,6.19,18.61-5.42,3.86-10.72,7.87-15.84,12.12-.52.44-2.05,1.71-2.5,2.12-1.19.92-1.94,2.51-1.63,4,.16,2.13,2.19,3.75,4.27,3.75,2.32-.07,3.99-2.03,5.94-3.06,4.95-3.2,9.88-6.44,14.81-9.67,2.66,3.9,5.88,7.37,9.92,10.14.06.04.12.08.18.13-1.43,1.57-2.86,3.14-4.28,4.72-3.67,4.02-7.2,8.16-10.72,12.3-1.69,2.26-4.46,4.75-5.68,7.15-1.65,3.36,1.95,7.32,5.48,6.25.98-.27,1.87-.82,2.45-1.68-.68.88,1.01-1.29,1.58-2.02,1.52-1.93,3.03-3.86,4.58-5.77,4.5-5.59,9.1-11.1,13.78-16.54,4.75,2.49,9.81,4.42,14.91,6.03,2.98,1.04,6.01,2,9.06,2.81-.05.14-.12.25-.16.4-3.95,12.37-6.23,18.61-12.88,29.97-7.51,12.33-16.9,23.39-24.55,35.62-9.33,15.2-17.64,31.82-19.4,49.79-.56,4.94-1.12,9.91-.93,14.89.4,7.02,2.08,13.86,4.42,20.48.18.54.38,1.08.57,1.62-2.82-.98-5.69-1.85-8.48-2.91-1.89-.83-3.71-1.81-5.5-2.82-1.78-.99-3.48-2.1-5.1-3.33-.37-.29-.74-.59-1.09-.91-.35-.31-.69-.63-1.04-.94-4.66-4.73-5.51-6.39-9.77-13.91-3.42-7.08-3.63-6.47-5.73-13.7-2.04-7.99-1.77-19.31-.11-31.29-.06.5-.12.99-.19,1.49,1.58-11.24,4.49-22.27,5.45-33.61.81-8.6-.1-17.26-1.08-25.81-1.38-11.27-4.99-22.43-12.4-31.21-3.04-3.65-6.99-6.71-11.43-8.44-2.39-.85-4.97-.92-7.46-1.27-13.03-1.96-27.68,7.29-28.86,20.96-.16,2.41.52,4.77,1.41,6.98,1.35,3.48,2.86,6.9,4.02,10.44,2.39,8.6,5.66,16.94,7.96,25.57,2.66,11.54,3.52,16.8,2.72,29.42-.97,9.42-6.32,30.08-7.02,44.58-.08,7.96.66,15.95,1.97,23.79,2.76,11.62,8.17,23.18,17.81,30.62,7.48,5.92,16.94,8.56,26.03,10.91,16.06,4.31,32.71,1.42,49.05.87,3.51-.19,7.02-.34,10.52-.61.7-.07,1.43-.09,2.15-.15,7.14,5.97,15.66,10.31,24.49,13.11,5.24.78,16.49,2.47,26.29,1.4,5.06-.63,7.35-1.06,11.15-1.5,4.12-.37,8.26-.66,12.32-1.52,4.46-1.2,10.78-2.26,11.4-2.39,2.06-.58,4.09-1.05,5.7-1.43,1.35,1.88,2.8,3.69,4.44,5.35,2.78,2.92,5.55,5.92,8.97,8.1,3.36,1.9,7.08,3.21,10.9,3.8,2.98.52,6,.76,8.98.14.67-.09,1.32-.25,1.94-.46,0,.01-.02.02-.03.03,1.46-.54,2.92-1.11,4.27-1.89,2.87-1.73,5.68-4.41,6.34-7.78.1-.24.21-.53.35-.88.75-2.21.95-4.58,1.02-6.9.01-1.67-.06-3.33-.2-4.99,4.3-.67,8.62-1.45,12.77-2.75,2.31,4.64,5.36,8.84,9.56,12.01,4.46,3.29,10.1,4.37,15.53,4.68,7.17.3,17.36-2.58,18.35-10.91.7-5.78.18-11.62.32-17.43.16-7.8-.17-15.63.79-23.39,2.18-16.47,5.71-32.65,9.41-51.97,2.1-13.13,3.39-26.41,3.67-39.7.32-15.72-.98-31.41-3.4-46.94-2.22-14.26-5.15-28.53-9.98-42.16-1.33-3.66-3.89-9.59-7.51-16.38-.95-1.61-1.93-3.2-2.97-4.75,1.53-1.31,3.01-2.71,4.38-4.19-.35.26-.7.53-1.05.79,2.28-1.64,4.05-3.91,5.8-6.1-.23.3-.46.6-.69.9.25-.23.42-.53.64-.79,7.92-9.31,11.29-21.47,12.73-33.4.39-3.91.79-5.14.92-11.31-.01-3.72-.23-7.45-.66-11.15,6.4-2.16,12.82-4.27,19.26-6.34,2.28-.72,4.58-1.4,6.86-2.12,1.03-.35,2.2-.49,3.01-1.26,3.32-2.19,2.12-7.73-1.7-8.61ZM103.57,350.28c.87-11.17,1.28-16.17,7.21-32.37,2.92-6.95,6.34-13.69,9.99-20.28,4.22-7.4,9.11-14.39,13.79-21.5,4.75-6.63,8.66-13.77,11.87-21.22,5.04,1.46,7.82,3.84,10.21,8.87,0,0,0,.01,0,.02.3.88.56,1.78.73,2.69.05.6.13,1.55.11,2.07-.14,4.14.14,2.5-.64,5.65-.38,1.5-3.61,6.68-5.57,8.83-2.87,3.51-9.19,10.2-9.29,10.67-4.35,5.37-3.53,11.01-6.62,19.53-.42.93-.88,1.85-1.38,2.74-3.34,5.23-5.8,11.16-5.8,17.45.04,9.7,5.54,19.61,4.89,25.52,0,.1-.01.21-.02.31,0,.01,0,.03-.01.04-.39.72-1.2,1.85-1.6,2.41-.23.28-.48.53-.74.77-1.54,1.02-3.16,1.94-4.8,2.79-.53.16-1.06.29-1.61.38-.22.02-.55.05-.97.08-.63.1-2.19.05-2.9.03-2.18-.39-4.27-1.17-6.36-1.89-1.04-.53-2.36-.89-5.7-4.34-2.42-2.2-3.81-4.04-4.98-4.69.04-1.27.11-2.75.19-4.56ZM14.48,242c-.88-2.38-2.06-4.69-2.61-7.17,0-.11,0-.22,0-.33.07-.33.15-.66.24-.99.08-.29.17-.57.27-.85.36-.81.77-1.59,1.24-2.34.37-.4.76-.78,1.18-1.13.58-.4,1.17-.77,1.78-1.12.86-.5,1.76-.93,2.67-1.35l-1.46.6c.87-.34,1.72-.72,2.57-1.09.79-.3,1.59-.58,2.42-.75.14-.03.26-.05.36-.07.27-.03.53-.06.8-.08,5.8,0,5.53.09,8.79.76.88.45,1.72.99,2.55,1.52.11-.48,5.07,4.73,5.79,6.29,3.04,4.39,4.84,9.01,6.04,13.66-.75-.04-1.52.07-2.24.2-1.76.27-3.51.6-5.1,1.43-2.18,1.1-3.85,2.89-5.64,4.5-.13.07-.25.14-.34.18-4.4,1.61-4.46.83-9.9,2.11-1.47.31-2.89.79-4.34,1.18-1.59-5.09-2.92-10.26-5.06-15.16ZM93.59,408.17c-8.43.3-16.88,1.08-25.3.43-2.33-.3-4.66-.63-6.96-1.15-8.15-1.87-16.01-4.21-20.34-6.27-10.57-5.13-15.08-13.07-18.61-23.17-1.97-6.63-1.79-7.59-2.31-12.9-.29-4.57-.64-9.15-.44-13.73.37-9.29,4.91-27.33,7.31-40.83,2.43-15.19-.24-30.51-4.71-45.1,1.02-.23,2.03-.49,3.04-.7.3-.04.59-.09.89-.14.18-.02.41-.05.7-.09,2.62-.23,5.32-.03,7.86-.82,3.39-.86,5.98-2.67,8.32-5.23.14-.12.24-.2.31-.27.29-.2.59-.39.9-.56.1-.03.2-.06.34-.1,1.36-.22,2.93-.45,4.25-1.04.13.87.25,1.73.37,2.59.94,8.55,1.54,17.19.3,25.74.06-.48.12-.96.18-1.44-.79,8.84-3.35,17.34-4.88,26.05-1.85,11.1-3.25,22.45-1.45,33.65.6,4.56,2.13,8.91,3.93,13.12,2.88,7.12,6.99,13.75,11.94,19.63,5.83,6.9,14.01,11.41,22.48,14.24,3.83,1.16,7.9,2.41,11.92,2.03.82.05,1.63.01,2.45-.1.4-.07.81-.11,1.23-.15,3.04,5.56,6.73,10.77,10.73,15.7-4.82.2-9.65.35-14.47.58ZM302.04,219.19c1.2-1.13,2.26-2.38,3.26-3.7.3.91.58,1.82.86,2.74,2.13,7.57,3.9,15.25,5.23,23,1.58,8.13,2.82,17.58,3.58,27.37-.32-.37-.63-.76-.94-1.14-2.46-3.8-4.83-7.66-7.67-11.21-3.91-5.47-9.57-9.29-13.74-14.53-.26-.38-.51-.77-.72-1.17-.11-.36-.29-.95-.4-1.47.03.24.02.2,0-.03-.05-.24-.08-.47-.09-.66.02.17.04.31.06.42-.11-.9-.34-3.02-.33-4.33.29-1.54.84-3.03,1.35-4.51.22-.52.52-1.18.71-1.54.26-.61,1.3-2.12,1.71-2.72.03-.03.05-.06.08-.09,2.08-2.43,4.75-4.24,7.06-6.43ZM311.57,140.86c-2.43,9.15-1.48,6.64-4.44,13.16-4.14,7.26-5.62,9.41-9.03,14.47-.05.1-.08.17-.09.2-.14.19-.29.37-.43.55-.89,1.4-1.9,2.73-2.78,4.13-.29.33-.55.68-.71,1.09-3.85.66-6.92,5.1-4.52,9.3,4.3,6.81,8.42,13.79,11.74,21.15-1.89,3.53-3.42,5.56-5.02,7.16-2,1.92-4.22,3.59-6.29,5.44-2.12,2.06-3.86,4.5-5.24,7.11-1.38,2.71-2.81,5.52-3.38,8.53-.45,3.81-.42,7.85.73,11.53,2.94,6.81,5.28,8.01,11.73,14.02,6.77,6.32,7.1,9.04,13.48,15.84,1.67,1.55,3.64,2.76,5.77,3.55-1.77-.73-.37-.11.59.23.33.11.11,0-.18-.11.67.24,1.37.35,2.09.36.6,13.89.18,27.81-1.61,39.04-.94,8.12-3.04,15.99-5.13,23.87-2.81,11.72-6.06,23.4-7.55,35.38-.88,6.5-1.42,13.06-1.13,19.62.13,8.07,1.06,16.14.88,24.21,0,.04-.03.08-.04.12-.04.03-.09.08-.13.12-.43.28-.87.54-1.33.78-.37.1-.93.26-1.43.37-.16.01-.39.03-.72.06-4.9-.09-2.77.06-7.63-1.05-.64-.19-.88-.26-.88-.25-.14-.06-.28-.12-.43-.18-12.5-1.94-17.73-29.1-19.38-48.17-.76-8.56-.4-17.15-.09-25.71.27-6.38.57-16.13-.5-18.74-1.65-4.35-8.03-3.28-8.62,1.04-.01.05-.02.09-.04.16-1.46,6.94-2.3,18.56-2.66,29.26-.13,14.16,2.04,28.26,5.23,42.03.49,1.99,1.02,4,1.64,6-2.86.86-5.74,1.67-8.68,2.24-.58.19-1.21.3-1.86.4-1.66-7.73-4.21-15.32-6.05-22.97-2.11-8.45-2.09-10.71-2.99-17.83-.56-4.69-1.45-10.58-1.83-18.58-.15-3.79-.37-7.58-.54-11.37-.25-2.11.23-4.39-.56-6.38-1.24-3.65-6.74-3.96-8.55-.59-1.2,2.38-.8,7.97-1.22,13.67.29,15.92,1.25,24.79,4.09,39.26,2.1,8.81,5.14,17.37,7.38,26.15,1.55,6.63,1.76,7,1.96,12.85,0,.06,0,.08,0,.1-.27,2.23.11.65-.64,3.59-.03.02-.06.05-.09.07-.45.31-.92.59-1.4.84-.77.27-1.57.48-2.38.62-.4.03-.8.07-1.2.1-1.36.03-2.71-.12-4.06-.19-.26-.02-.45-.04-.61-.06-1.65-.24-3.29-.59-4.88-1.12-.32-.11-.56-.2-.78-.28-.61-.28-1.21-.59-1.78-.94-.22-.14-.43-.31-.65-.46-2.32-1.99-4.52-4.12-6.64-6.32-2.09-2.6-5.57-9.98-8.45-16.15-5.01-11.45-4.36-8.73-8-21.19-2.39-9.35-4.3-18.81-6.36-28.24-1.51-7.95-2.21-9.28-2.32-15.69-.25-7.63-11.41-7.64-11.63.06-.18,4.99.72,9.93,1.49,14.85,1.19,6.84,2.44,13.67,3.72,20.5,1.42,7.44,2.81,14.92,5.27,22.1,1.79,5.15,4.2,10.05,6.47,15,.78,1.64,1.58,3.29,2.42,4.91-1.37-.04-2.75-.04-4.12.02-4.92.27-11.57,1.24-11.91,1.22-3.73.4-7.49.21-11.22.62-8.08.77-7.87,1.49-14.85,1.58-3.92.02-7.83-.29-11.73-.63-4.3-.54-1.35.22-6.09-1.21-10.88-5.1-18.85-11.15-23.9-19.4-3.32-4.87-6.17-10.04-9-15.2-.52-.69-2.9-6.87-4.47-12.9,1.7,1.61,3.6,3.05,5.79,3.88,5.5,2.65,11.73,3.69,17.71,2.17,6.33-1.96,11.76-6.6,14.01-12.91,2.18-6.97-.37-14.33-1.74-21.23-.66-3.77-1-4.12-.89-10.23,0-.09.01-.17.02-.25,1-5.79,2.34-5.79,5.33-12.76,2.1-5.72,2.53-11.94,3.55-17.91-.02.31-.25,1.89-.11.92.72-3.01.15-1.47,2.42-5.24,4-6.2,8.85-11.83,12.55-18.23,7.17-12.21,3.88-26.21-9.38-32.26-1.31-.54-2.68-1.1-4.08-1.55,1.35-4.02,2.53-8.1,3.55-12.22.07-.3.1-.58.12-.85,1.52.22,3.05.4,4.58.5,3.9.25,7.81.41,11.71.3,2.11-.24,4.62-.14,6.33-1.56,4.88-3.54.99-11.21-4.73-9.68-.33.05-.55.09-.71.13-3.24.28-6.52.02-9.77-.07-4.26-.21-3.19-.22-5.34-.42-5.91-.85-11.62-2.73-17.25-4.66,0,0,0,0-.01,0-2.91-1.21-5.77-2.56-8.51-4.12-.22-.13-.43-.25-.62-.37,1.64-1.85,3.28-3.7,4.93-5.54,1.29-1.42,2.63-2.8,3.94-4.2,1.01-.96,2.03-2.08,1.97-3.56.08-3.19-4.16-4.97-6.37-2.65-3.85,3.76-7.59,7.64-11.27,11.57-2.87-1.88-2.86-1.64-6.95-6.02-.41-.5-.84-1.08-1.28-1.71,4.85-3.1,9.73-6.14,14.68-9.08,6.31-3.86,1.01-13.2-5.56-9.75-4.8,3.03-9.59,6.1-14.32,9.25-2.1-4.68-4.05-10.02-5.41-15.12-2.75-8.67-3.95-17.74-7.1-26.28-.07-.2-.15-.4-.23-.59-.02-.07-.04-.18-.07-.31-.64-1.73-1.08-3.55-1.78-5.26.01.01.01-.01-.02-.12-.74-2.82-1.51-5.65-2.48-8.4-2.42-6.54-8.58-19.28-9.92-22.46-3.99-10.02-3.76-13.23-4.5-21.53-.1-.54-.04-1.83,0-2.55.02-.09.03-.19.06-.27,0-.02,0-.03,0-.05.08-.13.17-.27.26-.4.22-.25.44-.5.7-.73.64-.27,1.25-.6,1.73-1.15,0,0,0,0,0,0,5.59-2.98,13.46.91,24.19,6.07.84.39,1.69.78,2.54,1.16,0,0-.01-.01-.02-.01.97.62,2.19.85,3.26,1.28,1.42.4,2.84.94,4.3,1.21-.16,0-.12.03.4.17,2.46.57,5.11,1.38,7.63.76,1.83-.22,3.6-.79,5.27-1.56,9.34-4.67,15.22-10.93,21.94-14.71,13.92-8.75,24.51-13.42,34.59-17.28,4.95-1.85,9.99-3.58,15.23-4.38.66-.07.74-.09.56-.08.17-.02.33-.04.5-.06,4.42-.42,9.64-1.06,12.14-5.22,2.65-4.91,2.78-10.68,4.25-15.98,2.39-8.46,3.52-10.94,8.79-18.87.37-.53.76-1.04,1.15-1.56.53-.67,1.08-1.32,1.72-1.88.21-.14.42-.27.63-.39.04-.01.08-.03.12-.04.2,0,.4-.03.6-.07,0,0,.01,0,.02,0,.06.01.12.03.18.04,2.99,1.65,5.02,4.28,10.49,12.74,3.14,5,5.79,10.28,9.07,15.2,1.68,2.53,3.39,5.15,5.95,6.86.05.02.1.04.14.07,3.82,2.81,8.29,4.61,12.16,7.39.89.57,1.77,1.16,2.64,1.76.88.67,1.88,1.21,2.76,1.84,2.36,1.57,4.71,3.17,6.97,4.89,3.67,2.84,7.34,5.68,10.72,8.86,5.04,5.19,6.47,6.72,9.1,10.71,1.63,2.49,3.1,5.19,4.43,8-.89.5-1.79,1-2.68,1.51-3.36,1.96-6.71,3.92-10.08,5.86-.88.56-1.97.92-2.53,1.84-2.75,3.32,1.42,8.09,5.14,5.92,4.4-2.56,8.8-5.13,13.22-7.65,1.09,3.1,2,6.29,2.73,9.52-5.52,2.07-10.99,4.25-16.35,6.61-4.04,2.89-.85,9.37,3.94,8.07,4.67-1.73,9.35-3.4,14.05-5.04.9,8.21.55,16.28-1.24,23.27Z"/>
      </g>
    </g>
  </g>
</svg>