<?xml version="1.0" encoding="UTF-8"?>
<svg id="Layer_2" data-name="Layer 2" xmlns="http://www.w3.org/2000/svg" viewBox="0 0 459.37 431.12">
  <g id="Layer_2-2" data-name="Layer 2">
    <g>
      <g>
        <g>
          <path d="M365.38,246.92s.04,0,.06,0c-.02,0-.04,0-.06,0,0,0,0,0,0,0Z"/>
          <path d="M459.18,391.01c-.71-9.38-7.65-16.79-15.48-21.29-4.61-2.67-9.64-4.52-14.64-6.32-4.97-1.64-9.99-3.3-15.19-3.99-3.3-.45-6.64-.72-9.97-.6.17-4.23.3-8.46.34-12.7-.09-28.95-.23-57.91.42-86.86.63-23.63,1.65-47.25,2.49-70.87,1.12-27.12,2.56-54.25,2.14-81.4-.03-10.5-1.15-20.96-1.95-31.42-.57-7.21-.65-14.46-1.12-21.68-.44-6.75-1.12-13.5-2.09-20.2-1.04-6.89-2.57-14.4-8-19.24-1.45-1.39-4.11-3.38-9.33-5.59-4.85-2.21-9.61-4.75-14.79-6.14-6.14-1.73-12.53-2.49-18.91-2.35-4.85,0-9.74.45-14.35,2.04-2.99.91-5.88,2.1-8.74,3.37-1.79.85-3.79,1.92-5.17,3.42h0s0,.01-.01.02c-.14.15-.28.31-.4.48-1.93,2.23-3.04,4.98-4.16,7.67-2.44,6.32-2.23,13.28-2.63,19.95-.03,2.58-.08,5.17-.14,7.75-1.62-3.33-3.51-6.52-5.8-9.45-11.43-14.52-28.1-23.31-46.75-22.58-12.19.26-23.44,3.12-34,7.88-.09-.21-.2-.42-.33-.62.04.04,0-.06-.26-.44-2.59-3.49-6.33-5.95-9.43-8.97-6.57-5.84-17.95-15.58-26.52-8.25-6.98,7.92-2.58,29.08,1.45,38,.15.48.35.96.6,1.42-1.43.77-2.51,1.3-3.55,1.66-.01,0-.02,0-.03-.01-.29-.14-.58-.27-.88-.38-.57-.24-1.19-.39-1.77-.63-1.8-.89-.61-.33-7.19-2.88-5.8-1.77-11.68-4.21-17.85-3.92-7.31.3-12.51,6.12-13.37,13.17-.76,7.76,1.14,15.54,3.07,23,2.4,9.76,5.31,19.42,7.05,29.33,1.04,5.45,1.62,10.99,3.12,16.34,2.24,7.84,5.77,15.3,10.52,21.94,3.67,5.44,8.66,9.73,14.08,13.35,1.38.95,2.79,1.85,4.21,2.73-2.99,13.21-9.78,23.12-19.08,33.08-7.96,8.31-19.38,14.63-31.93,21.65-17.2,9.56-34.04,20.79-45.88,36.8-2.98,4.52-2.58,4.72-3.72,7.3-.4,1.25-.91,2.48-1.34,3.73-1.15-.33-2.54-.81-4.3-1.48-3.71-1.49-2.03-.52-5.8-2.8-4.14-2.47-9.95-8.28-15.19-14.5-.36-.42-1.03-1.26-1.37-1.69-3.22-4.42-5.44-9.43-6.11-11.38-2.31-5.82-3.84-11.91-4.65-18.11-.84-5.73-1.28-8.37-1.71-16.11-1.15-18.18-.82-36.6-4.84-54.46-2.99-13.25-12.35-31.92-27.36-33.4-4.92-.54-10.29-.07-14.52,2.69-8.14,6.02-7.02,15.59-2.96,24.43,1.35,3.42,3.51,6.41,5.48,9.49,1.04,1.6,1.91,3.3,2.66,5.06.06.15.12.31.18.46,1.36,3.55,2.31,7.24,3.21,10.94.23.67.73,3.67.76,3.78.76,5.91.53,11.91.09,17.84.05-.41.1-.81.15-1.22-.66,7.42-1.86,11.67-2.05,20.97-.08,7.76.73,15.5,2.22,23.11,1.44,8.47,4.03,16.77,8.53,24.14,6.37,10.64,14.1,20.53,23.64,28.5,5.03,4.04,10.23,8.11,16.17,10.73,7.51,3.06,9.43,2.34,15.42,4.24.09.04.18.08.27.13.22.12.43.26.63.4.43.38.84.78,1.22,1.2,2.04,3.23,1,1.66,2.59,5.86,1.52,4.55,2.8,9.19,3.93,13.85,2.06,9.49,2.26,14.51,2.43,25.41.18,7.93.48,15.87.02,23.8-.32,6.59-1.48,13.11-1.63,19.7-.21,5.58.89,11.12,3.12,16.23.15.54.36,1.06.58,1.6,1.18,3.13,2.84,6.05,4.78,8.78,5.5,8.46,13.88,14.97,23.45,18.18,4.35,1.29,8.56,3.08,13,4.05,3.37.6,7,.92,10.29-.18,0,0-.02,0-.02,0,0,0,.02,0,.03-.01.13-.04.26-.07.39-.12.26-.07.5-.19.73-.32.43-.17.86-.32,1.28-.5,6.32-2.89,8.85-8.35,6.6-14.78-.08-.23-.11-.47-.17-.71,0,.07.02.15.03.22-.47-2.9-1.63-5.67-3.02-8.24-1.37-2.25-3.02-4.32-4.86-6.2-.16-.17-.31-.35-.45-.53-.21-.35-.42-.77-.57-1.08-.11-.32-.22-.63-.31-.96-.87-3.96-.8-7.04.23-9.85.47.52.97,1.03,1.47,1.52,3.3,3.46,6.3,7.19,9.78,10.48,3.54,3.44,7.44,6.48,11.38,9.43,3.02,2.28,6.63,3.55,10.13,4.89,3.94,1.48,8.11,2.83,12.37,2.29,6.63-.3,12.21-6.03,10.2-14.79-.31-1.87-1.18-3.59-2.04-5.25-2.81-5.9-4.55-8.43-5.81-12.77-.21-.74-.4-1.48-.54-2.23-.02-.35-.02-.7,0-1.05.02-.08.03-.16.05-.27.02-.07.05-.14.07-.21,1.51-2.68,3.56-5.03,5.31-7.56,2.55-3.28,5.29-6.78,7.47-9.75,2.38-2.97,4.85-5.91,6.45-9.39,2.31-4.71,4.07-9.69,4.94-14.86.7-3.79,1.17-7.67.55-11.5.02-.01.05-.03.07-.04,13.07-6.82,23.52-17.5,34.26-27.41,12.69-12.42,25.34-25.04,35.7-39.5,7.88-10.73,14.55-22.25,20.26-34.27,4.54-8.89,8.42-18.16,10.91-27.83-.08,7.49-.2,14.97-.38,22.45-.34,9.9-1.18,19.8-1.08,29.71.11,16.56.41,33.11.62,49.67.07,22.64-.12,45.29-.08,67.93-.39-.11-.82-.13-1.25,0-9.65,2.43-19.67,3.69-28.89,7.57-2.04.65-3.89,2.02-5.75,3.03-6.37,3.92-11.68,10.06-13.13,17.54-2.75,13.63,9.2,23.33,20.64,27.78,9.66,4.18,20.14,5.77,30.54,6.85,11.33,1.17,22.7,1.96,34.08,2.6,15.03.77,30.1.75,45.13.07,14.03-.86,28.59-1.86,41.35-8.27,4.04-2.16,7.6-5.11,11.22-7.9.33-.26.65-.54.93-.84.04-.02.09-.06.17-.12,2.36-2.03,4.38-4.51,5.8-7.28,2.23-4.7,2.61-10.08,2.12-15.21ZM386.02,374.35c-7.89,2.03-12.91,2.78-18.65,1.66-2.85-.59-5.59-1.64-8.28-2.72-3.57-1.79-7.08-3.83-10.96-4.89-3.93-.92-5.52-1.22-11.26-1.13-2.05.1-4.09.36-6.13.63.01-2.72-.02-5.44-.03-8.17,1.54.43,3.1.75,4.69.93,4.49.35,9.06.01,13.5-.78,3.53-.83,6.89-2.28,10.49-2.84.79-.17,5.2-.54,8.47-.03-.28-.04-.57-.07-.85-.11,3.37.52,6.61,1.58,9.89,2.48,4.25,1.28,8.68,1.88,13.11,1.95.2,0,.4,0,.61.02-.13,2.59-.27,5.17-.42,7.76-.07,1.39-.14,2.78-.21,4.17-1.32.35-2.64.72-3.96,1.06ZM389.02,326.94c-4.89-.83-9.7-2.17-14.65-2.6-4.61-.21-9.28.22-13.76,1.33-4.54,1.22-8.72,3.66-13.33,4.58-2.31.17-4.62,0-6.92-.16-2.63-.28-2.51-.18-7.3-.98-.7-.13-1.42-.3-2.15-.42.02-6.37.01-12.74-.03-19.11,7.38,1.06,15.02.77,22.09-1.72,3.1-1.17,8.08-3.57,8.34-3.59,2.44-.96,4.97-1.69,7.56-2.11.15-.02.26-.04.34-.06.04,0,.08,0,.13-.02,9.2-.67,14.44.57,22.49,1.55-.18,7.87-.39,15.75-.5,23.62-.91-.08-.8-.1-2.3-.32ZM391.25,335.74c0,1.51-.01,3.02,0,4.54,0,5.08-.14,10.15-.36,15.22-.25,0-.51.01-.76,0-.41.05-2.24-.14-2.91-.21-5.05-.52-9.74-2.54-14.59-3.88-5.35-1.54-11.05-1.69-16.49-.58-3.31.64-6.44,2-9.76,2.56-2.07.12-4.15.07-6.22,0-3.19-.19-2.64-.16-4.29-.48-1.74-.35-3.45-.87-5.12-1.49.03-4.08.06-8.16.09-12.24,6,1.05,12.13,1.98,18.18,1.3,4.39-.56,8.28-2.86,12.32-4.55.14-.06.36-.14.67-.26,4.76-1.62,5.73-1.52,8.62-1.86,7.31-.58,10.31,1.08,18.83,1.84.58.01,1.18.06,1.79.11ZM359.93,296.85c-2.6.91-5.1,2.09-7.64,3.16-.14.06-.29.12-.43.17-3.46,1.41-7.98,2-8.92,2.06-5.12.5-8.71,0-11.55-.44-.2-.02-.4-.05-.6-.09-.07-5.65-.19-11.29-.33-16.94,5.26.76,10.64.87,15.87.03,4.42-.71,13.24-5.11,13.75-5.22,4.33-1.55,5.79-1.47,11.69-1.24.13.01.26.03.39.04,2.97.46,5.81,1.49,8.75,2.06,3.06.68,6.18,1.05,9.29,1.31.67.14,1.32.15,1.94.06-.02,5.06-.1,10.11-.2,15.17-9.44-2.03-20.34-4.46-32.02-.13ZM391.24,274.47c-2.44-.38-4.87-.87-7.25-1.55-13.12-4.64-22.7-3.34-34.52.53-4.69,1.54-12.87.89-16.31.25-1-.18-2-.38-2.99-.62-.2-7.69-.4-15.38-.56-23.07,3.18.97,6.42,1.76,9.7,2.34,2.9.51,5.86.91,8.76.25,3.7-.95,3.8-2.2,7.8-1.7,2.66.31,13.25,3.4,18.82,2.3,1.64-.2,3.27-.52,4.91-.73.37-.05.83-.11.28-.04.91-.02,4.87-.13,6.75.06,2,.13,3.98.33,5.97.56-.15,7.18-.28,14.36-.36,21.54-.36-.04-.69-.06-.99-.13ZM389.67,246.67c-3.44-.14-6.89-.03-10.32.37-4.64.5-9.28.45-13.91-.11.12.01.32.04.46.06-.17-.02-.35-.04-.52-.07-.01,0-.02,0-.03,0,0,0,.02,0,.03,0-3.99-.5-7.92-1.63-11.96-1.45-2.04-.07-4.04.36-6.04.74-.05,0-.09,0-.15.02-2.61.02-1.48-.04-4.02-.29-2.39-.35-4.75-.86-7.08-1.45-1.98-.5-3.94-1.07-5.88-1.73-.26-.07-.53-.17-.79-.27,0-.36-.02-.72-.02-1.09.11-4.54.23-9.08.34-13.62,7.82.47,16.98-2.57,21.45-2.58,6.6-.5,9.71,1.77,17.7,1.76,3.31-.25,6.38-1.6,9.59-2.34.67-.24,3.78-.57,6.8-.47,2.23.07,4.47.2,6.68.47.4.05.83.13,1.26.22-.18,7.32-.36,14.65-.52,21.97-1.01-.11-2.07-.02-3.06-.13ZM392.55,218.38c-4.53-.61-9.13-1.06-13.69-.56-5.77.37-8.82,2.06-13.4.92-3.81-.8-7.54-2.06-11.46-2.27-5.77-.35-16.52,2.36-18.4,2.41-1.6.2-3.21.35-4.82.28-.27,0-.55-.03-.83-.06.09-5.48.12-10.96.06-16.44,7.1-.36,14.33-.8,21.06-3.16,5.27-1.93,10.65-3.73,16.2-4.64,6.37-.6,9.35,0,14.98,1.04,3.88.81,7.64,2.17,11.58,2.7-.12,6.65-.26,13.3-.42,19.95-.29-.05-.58-.09-.86-.16ZM393.5,192.21c-5.34-.83-10.54-2.36-15.84-3.4-3.58-.57-7.21-.96-10.84-.84-4.09.25-8.14,1-12.15,1.79-4.6.86-8.98,2.61-13.63,3.23-.23.03-.53.07-.82.11-3.05.35-6.12.63-9.19.79-.4.05-.81.06-1.23.06-.03-.82-.04-1.63-.08-2.45-.11-5.13-.36-10.25-.55-15.37,11.67.06,23.41,1.52,35.03.1,5.79-.85,7.89-1.89,12.32-1.92,3.47-.13,6.91.33,10.36.66,2.5.22,5.02.13,7.53.27-.16,5.16-.31,10.32-.45,15.47,0,.52-.02,1.04-.03,1.57-.15-.03-.29-.05-.45-.08ZM394.65,167.95c-2.63-.15-5.26,0-7.89-.21-4.71-.37-9.44-1.04-14.17-.57-8,1.09-10.98,2.22-19.06,1.84-6.03-.16-12.05-.59-18.07-.95-1.91-.1-3.81-.18-5.72-.26-.59-.01-1.21-.08-1.8-.02-.17-.27-.36-.52-.57-.75,5.95-5.94,11.52-12.26,16.48-19.05.25.03.5.03.75,0,5.67-.53,11.38-.94,17.06-.44,1.39.11,11.87,2.04,16.85,2.52,4.45.48,8.92-.07,13.35-.51,1.1-.13,2.19-.26,3.29-.4-.15,6.27-.33,12.53-.53,18.8ZM330.38,377.36c7.96-1.61,12.57-1.77,18-.61,6.96,1.99,9.26,3.6,16.36,5.69.36.11.72.2,1.09.29-3.79.14-7.55.2-10.84.14-4.98-.25-17.82-2.27-24.71-4.45.04-.37.07-.72.1-1.07ZM395.51,124.7c0,6.34-.09,12.69-.22,19.03-4.08.43-8.17.77-12.26.49-.23-.02-.46-.05-.63-.07-4.95-.62-9.64-2.43-14.51-3.4-6.05-1.16-12.38-1.81-18.51-.96,3.64-5.85,6.94-11.91,10.38-17.88.27.06.55.1.86.09,5.35.11,10.7.73,16.05.34,3.65-.19,7.06-1.6,10.62-2.24,2.75-.34,5.52-.41,8.28-.22-.01,1.61-.03,3.21-.05,4.82ZM395.56,111.48c-.5.02-1,.04-1.48.03-5.79.22-11.35,1.97-17.02,2.98-3.11.38-6.26.26-9.39.2-1.23-.03-2.46-.07-3.69-.11,3.2-5.62,6.28-11.3,9.09-17.12,2.95.02,5.93.09,8.85-.36,2.73-.38,5.34-1.3,8.07-1.67,1.52-.19,3.06-.3,4.59-.14.17.03.33.06.5.08.28,5.36.43,10.73.47,16.11ZM394.7,89c-1.11.03-2.24.24-3.3.3-4.32.71-6.75,1.18-11.64,1.23-1.17.06-2.34.07-3.51.06.96-2.2,1.89-4.42,2.75-6.67,1.54-4.06,3.22-8.1,4.14-12.35,3.6-.4,7.18-.99,10.75-1.58,0,4.65.09,9.3.4,13.94.16,1.69.28,3.38.41,5.07ZM393.87,51.77c.08,3.96.05,7.92.03,11.88-.16.01-.31.02-.46.03-4.52.48-4.74.7-8.82,1.01-.24.03-.49.06-.74.08.04-3.15-.34-6.31-1.13-9.36-1.01-3.61-2.7-6.55-4.87-8.71,3.11-.5,6.25-.72,9.78-.35.93.12,1.31.1,4.05.72.65.13,1.31.34,1.98.51.08,1.33.14,2.72.18,4.19ZM331.22,18.31c.3-.15.6-.32.88-.51,0,0-.01,0-.02.01.63-.44,1.33-.79,2.01-1.13.12-.04.32-.12.65-.25,3.95-1.32,7.94-2.61,12.01-3.45,2.76-.27,5.54-.24,8.31-.22,4.26.07,6.43.45,6.56.48,7.74,1.44,13.24,3.62,17.83,5.61-12.65,1.37-20.2,3.95-29.31,3.81-5.38.1-10.77-.06-16.15-.18-1.88-.04-3.76-.1-5.64-.15.92-2.09,1.92-3.37,2.86-4.01ZM325.9,31.66c.13-.86.28-1.67.43-2.44.33.1.69.17,1.08.16,5.8.41,11.59.77,17.4,1.07,4.06.25,8.14.33,12.16-.33,5.4-.84,10.5-2.96,15.83-4.14,5.14-1.18,8.83-1.77,12.72-2.19,1.01-.16,2.05-.15,3.08-.2,1.76,1.72,2.34,4.13,3.65,10.7.28,1.66.56,3.59.81,5.79-1.61-.32-3.26-.49-4.83-.7-4.67-.51-9.4-.37-14.03.38-6.72,1.17-12.03,2.86-16.65,3.06-5.51.45-11.04.82-16.56.26-5.38-.51-6.14-.65-11.97-1.53-1.21-.08-2.48-.49-3.7-.5.12-3.13.28-6.26.58-9.38ZM325.01,48.5c7.4,1.19,14.82,2.58,22.33,2.75,1.48.03,2.96-.03,4.44-.14-2.03,2.34-3.42,4.56-5.53,7.28-1.3,1.97-2.61,3.95-3.92,5.92-.01,0-.02,0-.03,0-3.33-.12-6.57.81-9.86,1.22.31-.04.61-.08.92-.12-2.36.32-2.97.47-6.89.55-.69.07-1.41.03-2.12,0-.02-.08-.03-.15-.05-.23,0-.11,0-.23,0-.34-.04-5.63.44-11.25.71-16.87ZM337.35,71.87c-1.46,2.21-2.92,4.43-4.36,6.65-2.45,3.88-4.41,7.42-6.3,10.71.06-5.36-.3-10.73-1.06-16.04,2.81,0,5.61-.12,8.38-.59,1.22-.24,2.33-.49,3.33-.73ZM302.05,45.79c.84-.96,1.77-1.84,2.74-2.68.36.47.72.94,1.07,1.43.7,1.11,1.31,2.09,1.84,2.99-.74.21-1.44.36-1.58.35-.49.03-.98.03-1.46-.01-2.11-.35-2.32-.61-2.81-1.48,0-.03-.02-.06-.04-.12,0-.02,0-.04-.02-.07.06-.11.15-.26.26-.42ZM200.76,9.41c.16,0,.32,0,.48,0,.68.13,1.34.34,1.98.58.14.07.3.14.49.24,5.48,2.65,10.07,8.29,16.33,14.71.37.33.74.68,1.11,1.02-4.34,2.52-8.57,5.36-12.7,8.45-.61.43-3.06,2.33-3.91,2.99-3.87-9.09-5.61-24.63-3.78-27.98ZM204.6,340.12c-1.49,3.44-3.28,6.78-5.59,9.75.04-.05.09-.12.15-.2-6.28,8.43-8.67,11.72-14.71,20.24-2.79,3.5-3.94,8.27-2.27,12.53,1.13,2.94,2.43,5.82,4.16,8.46,1.82,2.74,5.5,8.45,5.12,8.63.05.21.1.43.15.64-.02.07-.04.14-.06.21-.1.19-.21.38-.33.56-.25.3-.52.58-.81.85-.07.02-.15.04-.23.07-.07,0-.14.02-.22.03-.22.09-.45.15-.69.2-3.77.12-11.5-2.91-12.7-3.46-6.42-3.53-6.15-4.08-10.45-7.43-4.67-3.86-8.66-8.43-13.01-12.62-1.54-1.3-1.97-1.65-2.38-1.92,1.99-1.89,4.37-3.92,7.17-6.29,4.2-3.47,8.46-6.92,11.99-11.11.18-.21.35-.41.52-.62-.09.09-.4.32-.61.46,2.07-1.56,3.43-3.92,5.09-5.89,3.68-4.91,3.98-5.31,6.44-8.84,1.9-2.54,3.44-5.32,4.72-8.22,1.01-.21,2.02-.45,3.02-.69,6.29-1.59,12.34-3.93,18.2-6.67-.17,3.41-1.06,6.35-2.69,11.32ZM306.74,175.32c-2.68,2.53-5.4,5.03-8.13,7.52-1.1,1.2-2.75,2.02-3.39,3.55-1.15,2.34,1.36,5.15,3.84,4.38,1.71-.71,2.61-1.83,5.4-3.86,1.17-.89,2.33-1.79,3.49-2.69-1.24,6.83-3.57,14.7-6.64,22.33-2.35,5.31-5.05,10.45-7.67,15.62-11.9,22.99-22.82,37.27-40.48,55.13-7.5,7.56-15.18,14.94-23.21,21.94-7.21,6.26-8.39,7.6-15.55,12.04-9.91,5.88-15.55,8.06-24.04,11.52.67-3.05.88-4.76,1.25-7.24.19-2.08.99-4.37.04-6.35-2.08-5.34-9.98-3.71-10.16,1.82-.54,2.89-1.28,5.74-1.76,8.65-.67,3.7-1.69,7.33-3,10.85-.14.36-.28.73-.42,1.09-.15.34-.3.67-.45,1.01-3.83,7.37-4.65,8.96-8.23,15.13-3.2,5.24-3.38,5.7-7.61,10.16-8.18,8.67-20.51,14.9-23.8,27.12-1.2,6.72-.83,14.59,4.56,19.47,1.99,2.07,4.37,6.28,5.17,9.54,0,.46,0,.92-.04,1.38-.04.17-.09.37-.15.58-.03.06-.07.11-.1.16-.31.27-.66.6-.94.93-.04.04-.07.07-.11.11-.17.11-.37.23-.61.36,0,0,0,0-.01,0-.49.15-1,.27-1.5.37-.62,0-1.22.16-1.83.29-4.39.28-8.32-1.91-15.05-4.22-9.81-3.16-18.6-12.3-24.94-22.85.26.35.53.7.79,1.05-.15-.37-.32-.74-.48-1.1-.7-1.76-1.31-3.55-1.74-5.39-1.33-4.55.78-18.6,1.09-27.41.28-6.77-.04-13.54-.11-20.31-.02-13.99-.64-22.33-3.52-34.63-1.91-6.95-2.97-14.83-8.12-20.25-1.15-1.08-2.38-2.1-3.76-2.86-.43-.22-.88-.41-1.33-.58-2.26-1.01-4.62-1.77-7-2.44-2.99-.72-6.1-1.06-8.98-2.19l-.55-.26c-2.48-1.1-4.71-2.64-6.92-4.19-.8-.56-1.6-1.13-2.39-1.71-3.77-3.05-7.35-6.37-10.74-9.85-5.94-6.88-7.28-8.65-12.24-16.45-5.08-8.46-6.1-11.46-8.1-21.21-1.59-8.61-1.99-10.38-2.3-18.79-.34-15.39,2.69-31.15-1.76-46.22-1.37-5.44-2.92-10.88-5.42-15.92-2.18-4.06-5.16-7.68-6.78-12.04-1.54-4.57-1.83-4.76-2-8.06,0-.47.03-.94.07-1.42.04-.3.12-.59.22-.88,0-.03.02-.05.03-.08.08-.17.14-.34.23-.5.07-.13.16-.24.25-.37.3-.33.61-.65.94-.95.1-.09.21-.18.32-.27.22-.16.44-.32.65-.48.15-.1.37-.23.64-.39.11-.06.2-.11.3-.16,3.47-1.03,2.56-.81,7.33-.64,1.23.41,1.92-.14,5.3,2.14.07.06.15.11.22.17,11.47,9.64,13.95,23.99,15.7,38.48,1.35,13.66,1.83,27.4,2.71,41.1.84,10.72,1.75,21.65,5.34,31.86,2.07,6.7,5.36,12.96,10.16,18.11,7.98,8.7,16.98,17.28,28.78,20.16,2.33.87,4.73,1.56,7.23,1.68.45.03.28,0-.02-.03,1.35.12,2.81-.07,3.84-.96.82-.53,1.34-1.35,1.61-2.25.34-.47.63-1,1.01-1.44,6.16-9.35,10.05-13.72,22.01-25.21,5.87-4.98,10.78-8.49,19.64-14.32,11.95-7.51,24.22-14.66,34.89-23.98,11.75-10.66,21.76-23.79,26.04-39.26.33-1.64.87-3.34,1.11-5.04,1.14-2.38.7-5.56-2.11-7.17-7.18-4.28-10.53-6.06-14.73-10.16-4.69-4.41-10.05-14.01-11.64-18.55-3.08-8.2-3.44-17.07-5.21-25.6-2.23-12.3-6.98-23.99-9.33-36.24-.22-2-.24-4.02-.13-6.02.02-.14.03-.24.04-.32.11-.61.26-1.21.46-1.8.31-.64.66-1.25,1.06-1.84.13-.14.26-.28.4-.4.13-.09.28-.15.42-.23.02,0,.03-.01.05-.02.46-.02.91-.02,1.37.01.06.01.12.02.19.03,4.95,1.33,1.73.61,6.04,2.19,2.42.92,4.89,1.68,7.3,2.62,2.92,1.23,5.9,2.36,9.03,2.9.56.17,1.13.23,1.69.19l-.2-.02c2.14.12,4.39-.35,6.19-1.51.15-.06.29-.12.44-.19,3.19-1.6,5.8-4.12,8.6-6.29.14-.13.31-.23.43-.38.85-.64,1.72-1.27,2.48-2.01.04-.03.08-.06.13-.09,5.82-4.19,11.84-8.11,18.14-11.55,9.29-5.06,16.88-7.96,28.99-9.7,18.72-2.48,33.82,2,45.98,15.13-2.04,1.79-4.04,3.73-4.83,6.34-.87,4.16,2.92,7.92,6.92,8.23,2.38.43,4.84.1,7.07-.81.05-.02.09-.04.14-.06,1.15,2.47,1.97,4.9,3.35,8.94.17.51.32,1.01.47,1.51-.25.12-.49.26-.73.45-.24.08-.49.15-.75.19-.17.01-.33.02-.5.06.1-.01.2-.03.3-.04-.33.03-.65.06-.98.06-.69,0-1.38-.07-2.07-.1-.47-.08-1.1-.2-1.47-.32-.44-.12-.87-.27-1.29-.42-.09-.04-.19-.09-.3-.14-6.85-4.54-12.12,5.53-4.68,8.27,4.56,2.1,10.66,2.42,14.55-.77,1.16,4.55,1.91,8.69,2.23,12.41.67,6.03.78,8.36.7,15.47.04.91.05,1.82.1,2.74-.8.91-1.64,1.79-2.55,2.66-9.86,10.14-14.9,16.92-25.3,27.21-1.57,1.32-3.12,3.36-2.05,5.47.87,2.53,4.5,3.24,6.34,1.31,8.32-7.32,16.13-15.19,23.5-23.47,3.97-4.15,8.04-8.2,11.31-12.94,3.17-4.4,5.45-9.35,8.28-13.96,3.82-6.16,8.1-12.03,12.13-18.05,5.78-9.03,12.11-16.35,16.01-16.11.39-.02.78,0,1.17.01.01,0,.02,0,.04,0,.3.06.59.14.88.24.24.13.44.24.58.32.37.34.71.72,1.03,1.11.18.27.46.69.69,1.11.86,1.51,1.29,3.16,1.94,7.68.98,11.33-11.57,35.79-22.17,53.95-5.73,9.98-11.01,20.27-17.72,29.64-5.45,7.71-16.53,19.88-26.45,28.71ZM444.49,405.64c-.24.16-.49.32-.73.48-3.79,2.21-7.59,4.46-11.59,6.28-12.52,4.67-20.6,5.68-31.94,6.71-16.17,1.29-32.4,1.76-48.62,1.31-9.27-.53-18.52-1.32-27.76-2.2-10.51-1.07-15.43-1.29-26.5-4.49-6.09-1.84-12.52-4.85-15.91-8.2,1.56,2.01.07.09-.67-.84-1.63-2.36-1.48-2.42-1.86-3.17-.29-.8-.5-1.63-.67-2.47-.02-.2-.03-.38-.04-.56,26.36,15.52,56.44,12.44,89.34,11.54,26-1.2,52.99.85,77.72-8.72,1.06-.54,2.31-1.07,3.58-1.62-.63,2.1-1.84,3.71-4.36,5.94ZM448.39,390.55c-4.41,1.51-8.84,2.98-13.33,4.23-12.3,3.62-20.93,3.66-30.7,4.81-24.77,3.07-49.74,2.1-74.62,1.52-17.69-.43-29.87-1.39-46.26-7.86-.34-.15-1.15-.49-1.54-.67-.77-.28-1.48-.75-2.19-1.18.32-.57.66-1.12,1.04-1.65,3.65-5.57,12.11-11.03,26.43-16.18,3.01-1.22,6.01-2.45,9.03-3.64,0,0,.01,0,.02,0,.02,3.07.08,6.15.51,9.19.02.11.03.22.05.34.08,2.1,1.27,4.03,2.97,5.19.43.64,1.03,1.24,1.83,1.74,7.43,3.82,15.89,4.87,24.01,6.36,3.51.51,7.03,1.1,10.59,1.12,5.43-.18,10.86-.62,16.29-.97,6.22-.71,12.51-.69,18.7-1.72,2.67-.34,5.35-.82,7.82-1.93.65-.19,1.23-.49,1.73-.94.66-.42,1.17-.98,1.55-1.68.85-1.4.96-3.04.51-4.52.03-.25.04-.51.04-.78.16-3.92.36-7.84.56-11.76,1.75-.02,3.49-.06,5.24,0,5.57.2,7.98,1.01,15.37,3.1,13.02,3.77,23.23,9.39,25.22,17.6-.28.11-.56.22-.84.32Z"/>
        </g>
        <path d="M203.43,38.22c-.06.03-.1.06-.11.08.04-.03.07-.06.11-.08Z"/>
      </g>
      <path d="M275.91,49.65c-5.93-3.79-14.39-2.09-18.24,3.85-1.97,3.03-2.81,6.72-2.71,10.31.17,1.6.01,3.3.87,4.74,3.19,5.35,11.32,1.99,9.8-4.03-.12-.61-.25-1.23-.37-1.84-.02-.23-.04-.49-.06-.74-.04-.47-.01-1.04,0-1.4.08-.47.17-.93.31-1.38.11-.2.22-.4.35-.59.18-.21.38-.4.58-.59.02-.02.04-.02.06-.04.34-.2.68-.39,1.04-.57.34-.11.65-.19.85-.23.32,0,.64,0,.88,0,.16.03.32.05.48.08.3.07.61.11.92.14.17.03.41.08.72.14,5.43,2.31,9.46-4.57,4.51-7.86Z"/>
      <path d="M245.44,88.36c-8.63,8.04-17.33,16.07-24.83,25.2-4,5.08-5.6,6.58-7,9.15-1.45,2.95,1.71,6.41,4.8,5.48,1.11-.26,1.87-1.12,2.73-1.81,1.82-1.48,3.53-3.09,5.3-4.63,6.25-5.6,12.43-11.27,18.85-16.68,2.39-2.08,4.81-4.13,7.21-6.2,1.2-1.08,2.68-2.04,3.13-3.67,2.74-6.17-5.41-11.59-10.19-6.85Z"/>
      <path d="M258.34,102.92c-3.88,8.39-6.9,17.16-9.83,25.92-.7,2.63-2.4,5.64-2.14,8.35.21,3.29,4.33,5.22,7.09,3.53.75-.49,1.39-1.12,1.82-1.88-.01.03-.03.06-.04.1.02-.04.04-.08.06-.12.08-.14.14-.29.2-.44.12-.26.24-.51.36-.77,3.46-7.97,6.58-16.08,9.63-24.21,1.41-3.43.73-1.79,1.74-4.03.43-1.01,1.13-1.95,1.13-3.08.88-5.75-7.13-8.41-10.01-3.37Z"/>
    </g>
  </g>
</svg>