<?xml version="1.0" encoding="UTF-8"?>
<svg id="Layer_2" data-name="Layer 2" xmlns="http://www.w3.org/2000/svg" viewBox="0 0 464.98 301.01">
  <g id="Layer_2-2" data-name="Layer 2">
    <g>
      <g>
        <path d="M220.35,58.51s.03.04.04.06c-.14-.24-.37-.6-.56-.82.16.24.32.48.49.72.01.02.02.03.03.05Z"/>
        <path d="M167.08,9.84s.03-.03.05-.04c-.28.19-.42.28-.05.04Z"/>
        <g>
          <path d="M230.36,89.18s0-.02.01-.03c.02-.06.05-.13.07-.19-.04.09-.09.2-.13.31.02-.03.03-.06.05-.09Z"/>
          <path d="M464.48,160.74c-.83-10.07-3.32-19.87-5.3-29.75-2.73-14.73-8.34-28.79-15.99-41.65-3.3-5.75-6.46-11.63-10.6-16.83-5.45-6.77-11.85-12.82-18.87-17.96-6.52-4.54-12.86-9.44-19.78-13.36-11.75-5.59-23.8-10.86-36.44-14.08-9.97-2.65-20.03-5.12-30.3-6.26-16.08-1.64-32.34-1.44-48.44-.22-9.38.86-18.62,2.74-27.8,4.82-7.54,1.71-15.11,3.45-22.32,6.31-3.44,1.37-6.87,2.78-10.22,4.37-.14-1.54-.32-3.09-.51-4.62-.61-4.92-1.58-9.83-3.63-14.38-3.24-7.92-9.97-15.4-18.72-16.87-6.73-1.01-13.66.81-19.73,3.68-3.15,1.55-5.94,3.71-8.71,5.84,0,0,0,0,0,0,0,0,0,0,0,0-.01.01-.03.02-.04.03,0,0,0,0,0,0-5.05,3.76-10,7.7-14.25,12.36-6.27,7.14-12.07,14.8-16.46,23.25-.33.66-.64,1.33-.93,2.01-4.21-.27-8.48.71-12.62,1.38-9.86,1.71-19.43,4.99-28.31,9.6-9.07,4.78-17.82,10.19-25.73,16.74-2.81,2.28-5.53,4.67-8.06,7.26-.91-.27-1.84-.47-2.76-.68-4.42-1.43-8.96-2.41-13.59-2.86-5.44-.65-10.92-.29-16.35.33-6.28.71-12.46,2.27-18.25,4.83-15.78,6.5-8.82,25.11-4.13,37,1.24,3.04,3.23,5.68,5.25,8.24,4.16,5.08,3.64,4.48,7.1,9.14,1.55,2.11,3.11,4.22,4.73,6.27.37.48.75.99,1.19,1.42-.16.74-.2,1.49-.16,1.49-.02.28-.04.56-.05.84-.38,10.1.52,20.4,3.38,30.12,1.51,4.6,3.35,9.1,5.44,13.48-6.42,4.8-12.24,10.43-17.29,16.59-.15.19-.39.51-.6.78-.29.28-.51.61-.63.99-.18.35-.27.73-.25,1.14-.02,1.6,1.41,3.02,3.01,2.98,1.93-.07,3.07-1.9,4.48-2.99,4.58-4.07,5.51-4.67,10.22-8.15,1.69-1.18,3.42-2.31,5.16-3.42.51.91,1.03,1.81,1.56,2.7,1.13,1.78,2.33,3.53,3.56,5.24-4.33,3.68-8.35,7.74-11.96,12.1-1.31,1.62-2.58,3.26-3.84,4.91-.94,1-1.38,2.42-1,3.76.59,2.42,3.57,3.64,5.72,2.39,1.38-.84,2.04-2.43,3.08-3.61.11-.15.2-.26.27-.36,1.39-1.8,2.81-3.58,4.3-5.29,1.87-2.36,4.8-5.38,7.78-8.2,1.83,2.27,3.73,4.5,5.66,6.69.12.13.24.25.36.38-6.91,4.44-11.74,12.27-13.07,20.31-.83,4.09.24,8.14,1.94,11.86,1.95,5.07,5.11,9.63,9.08,13.34,2.94,2.53,6.22,5.51,12.54,8.68,5.46,2.66,16.34,7.04,25.92,9.41,11.97,2.88,24.28,4.29,36.58,4.53,9.22.67,19.23.51,27.23-4.71,4.1-2.91,7.86-6.65,9.89-11.31-.07.16-.14.33-.2.49.14-.25.27-.5.41-.75.04-.07.07-.14.11-.22,4.54,7.2,13.71,9.93,21.87,10.56,8.56,1.09,17.18.45,25.69-.85,8.67-1.12,17.45-1.92,25.75-4.87,1.52-.5,3.04-.99,4.54-1.54,1.09,1.06,2.2,2.1,3.35,3.09.18.22.37.44.57.64,3.6,3.6,7.7,6.62,12.13,9.11,4.45,2.67,9.15,5,14.13,6.48,11.03,2.74,22.71,4.28,34.05,5.02,9.9.2,19.78,1.13,29.68,1.06,9.93-.38,19.84-1.59,29.65-3.19,9.66-1.68,18.86-5.26,27.89-9-.5.21-1,.41-1.5.62,7.29-2.85,14.43-6.15,21.07-10.32,8.72-5.49,16.81-12.02,23.74-19.67,7.76-8.56,13.43-18.73,17.73-29.4,4.72-11.22,8.29-22.94,10.12-34.99,1.76-11.34,2.56-22.87,1.47-34.31ZM437.89,104.12c2.34,4.59,3.82,7.81,5.26,12.33,3.15,11.26,3.43,15.34,4.85,25.24,1.19,9.04,2.02,11.59,2.63,18.49-.71-.42-1.36-.86-1.9-1.34.16.12.32.25.44.34-1.82-1.38-3.58-2.86-5.13-4.54-.66-.7-1.3-1.42-1.91-2.16-1.83-2.68-2.99-5.77-5.03-8.31-1.65-2.43-4-4.12-6.35-5.81-2.45-1.68-1.96-1.48-2.43-1.87-.64-.78-.61-.48-1.67-2.86-.07-.19-.16-.44-.26-.73-1.3-4.38-1.03-3.56-1.01-8.41.51-7.13-.01-6.61,3.92-12.97,1.12-1.75,5.14-5.29,7.76-6.86.33-.21.59-.38.83-.52ZM305.27,43.58c3.09-6.05,3.79-7.15,7.9-11.33.1-.09.21-.17.32-.26.68-.45,1.42-.88,2.04-1.41,3.74.29,7.07.63,9.75.99,7.87,1.1,15.56,3.16,23.2,5.29,13.03,3.37,20.05,5.63,30.11,10.24,5.54,2.31,11.03,4.84,15.95,8.31,4.18,2.85,8.37,5.69,12.47,8.65-.1.61-.08,1.24-.11,1.86-.15,2.04-.18,4.08-.39,6.11-.16,2.21-.7,4.96-3.66,8.94-.3.32-1.55,1.76-2.04,2.12-1.89,1.73-3.87,3.34-5.84,4.98-.16.11-.26.19-.34.25-2.39,1.7-5.19,2.64-7.86,3.8-4.22,2.04-11.97,4.15-19.47,5.66-3.35.55-12.73.82-17.52-.82-.41-.15-.59-.21-.63-.22-1.43-.65-2.79-1.45-4.04-2.39-2.6-2.12-4.86-4.62-6.9-7.27-.06-.08-.12-.16-.18-.25-3.33-4.53-6.96-9.16-12.2-11.56-2.93-1.49-6.18-2.05-9.24-3.17-1.45-.67-2.83-1.47-4.12-2.41-.37-.31-.97-.82-1.31-1.16-3.49-3.77-2.75-3-5.53-7.35-.42-.62-1.31-2.54-1.58-3.12-.02-.04-.03-.09-.05-.13-.23-.6-.43-1.2-.59-1.82-.44-2.08-.42-1.51-.24-4.97.23-1.4.53-2.79.92-4.15.89-2.91.58-1.83,1.18-3.42ZM237.99,40.96c.12-.9.47-1.8.24-2.7-.01-.14-.05-.27-.08-.4,12.35-3.8,25.8-6.23,35.54-7.3,3.28-.34,6.84-.56,10.53-.69-1.03,1.28-1.95,2.64-2.59,4.16-2.36,4.92-3.09,10.34-4.75,15.48-1.38,2.86-1.12,2.16-2.89,4.13-1.24,1.1-.59.54-3.12,2.43-1.26.98-2.57,1.91-4.03,2.6-.05.02-.08.04-.13.05-1.55.57-3.2.78-4.82,1.09-3.43.5-1.38.39-5.61.61-.38,0-.76-.02-1.14-.05,0,0,0,0-.01,0-.74-.04-2.72-.75-3.78-1.15-2.71-1.19-5.37-2.55-7.78-4.28-.53-.43-1.27-1.06-1.66-1.46-.5-.42-1.58-1.68-2.11-2.28-.28-.41-.52-.83-.73-1.28-.07-.2-.14-.44-.22-.72-.96-4.23-.62-2.61-.91-5.95-.07-.59.02-1.88.04-2.27ZM130.36,60.09c2.82-.57,5.78-.77,8.39-1.99.09-.04.18-.08.27-.12.03-.01.06-.03.09-.04.04-.03.07-.05.11-.07.31-.16.59-.36.86-.58,1.99-.26,3.85-1.54,4.46-3.9,6.06-12.87,20.22-30.75,36.15-38.53.34-.15.52-.23.59-.26.09-.04.19-.08.28-.11,1.36-.49,2.75-.87,4.17-1.15,1.56-.17,1.47-.34,5.1-.08.77.14,1.52.35,2.26.61.46.21.92.43,1.36.68.4.23.8.48,1.18.74.18.15.36.29.53.45,5.72,5.14,8.57,13.86,9.29,28.64.36,2.51,0,5.23.42,7.75,0,1.63.19,3.25.44,4.86.78,3.99,3.05,7.54,5.52,10.71,4.62,6.4,11.01,11.18,15.91,17.34,1.12,1.24,2.04,2.35,2.87,3.46-.05.17-.11.33-.17.49.1-.2.16-.25-.07.19-.04.11-.07.21-.12.32.01-.06.03-.13.06-.2-2.08,3.87-2.66,5.61-4.98,7.62.66-.17-3.71,2.53-5.57,3.44-.43.25-2.21,1.05-2.92,1.38-3.16,1.23-5.36,1.42-6.42,1.57-7.33.61-11.24,1.18-16.03-.4-.38-.11-.74-.25-1.11-.38-3.42-1.64-6.44-3.99-9.81-5.73-4.6-2.47-9.74-3.72-14.95-3.88-4.26-.2-8.47.73-12.73.58-5.31-.27-5.75.13-10.03-1.12-3.8-1.85-7.99-6.27-9.88-9.29-3.23-5.92-5.22-12.45-5.49-19.98-.11-.96-.04-1.98-.03-3ZM111.16,65.34c3.37-1.3,6.82-2.36,10.31-3.26.37,9.1,2.67,18.2,7.55,25.94,1.86,2.66,4.1,5.01,6.58,7.09,2.18,1.78,4.39,3.67,7.08,4.63,2.62,1.06,5.46,1.32,8.24,1.66,3.98.41,7.99.57,11.98.23,6.18-.53,10.9.88,13.46,2.16,3.63,1.77,6.69,4.45,10.07,6.63,1.99,1.06,4.13,1.86,6.34,2.33,4.99,1.01,6.83.85,13.6-.32,5.2-.89,10.45-2.01,14.97-4.85,2.65-1.71,4.18-2.73,5.16-3.49,2.15-1.5,4.11-3.27,5.54-5.49.83-1.33,1.64-2.69,2.39-4.08,1,1.81,2.1,3.9,3.51,6.53,2.04,3.88,3.93,7.84,5.62,11.89.35.86.55,1.33.52,1.25.08.2.16.4.25.6,1.64,3.93,1.72,3.76,2.6,6.29-2.5,1.23-4.94,2.57-7.33,3.94-1.75,1.04-3.49,2.12-5.12,3.34-1.02.58-1.78,1.58-2.07,2.71-1.03,3.64,3.17,6.86,6.42,4.92,4.09-2.5,7.36-4.32,10.53-5.77.53,3.48.3,6.06-.27,10.06-1.79.33-3.56.7-5.33,1.12-2.24.57-4.46,1.2-6.62,2.02-1.33.4-2.68,1-3.36,2.29-1.96,3.23,1.27,7.44,4.9,6.38,3.47-.91,6.12-1.5,8.59-1.88-.92,4.11-2.03,8.18-3.26,12.21-4.13,13.62-11.91,24.8-25.45,35.77-7.54,6.01-25.9,15.79-38.71,21.11-12.16,5.85-29.06,11.22-46.66,10.87-12.96-.05-22.29.28-31.62-1.92-5.96-1.1-12.02-1.94-17.72-4.12-3.73-1.75-6.64-3.1-9.17-4.43,1.26-.79,2.42-1.78,3.48-2.82,2.46-2.63,4.27-5.17,4.83-10.63.73-4.59.25-9.23-.05-13.84-.74-10.94.23-16.67,4.42-24.96,2.55-5.4,6.63-11.5,8.42-13.37,2.37-2.46,2.57-3.09,6.59-6.37,1.29-1.01,7.06-5.19,10.54-8.45,2.36-2.15,4.39-4.62,6.38-7.11,13.41-15.91,10.14-37.47-3.08-52.39-1.4-1.68-2.75-3.41-4.21-5.05-.22-.27-.43-.54-.65-.8-.08-.11-.18-.25-.29-.41-.62-.8-1.04-1.78-1.63-2.61.01-.05-.1-.3-.4-.86-1.11-2.39-.85-1.79-1.31-3.17,1.14-.52,2.29-1.03,3.44-1.53ZM47.6,193.59c.31-.17.62-.34.93-.51,1.45-.7,2.9-1.39,4.37-2.03.12-.05.26-.1.43-.16.93-.37,1.98-.52,2.72-1.23,4.28-3.07.9-9.92-4.17-8.54-3.06,1.21-6.04,2.63-8.93,4.21-3.55-6.83-4.88-10.11-7.24-19.47-1.13-6.99-1.85-8.27-2.01-13.6-.13-1.51-.09-3.04-.25-4.55,0,.02.01-.09.02-.42-.02-1.07-.39-2.12-1.05-2.96.84-1.86.72-4.16-1.03-5.92-.62-.38-5.47-7.91-8.67-11.97-3.66-5.05-3.44-3.77-6.41-9.2-.82-.97-4.97-15.33-4.59-16.7-.02-.74,0-1.48.05-2.21.08-.46.2-.91.34-1.36.04-.08.08-.16.13-.24.1-.1.21-.2.31-.3.36-.22.73-.42,1.12-.6,3.31-1.2,6.79-1.84,10.25-2.45,1.84-.46,11.15-.92,18.08-.5,2.5.25,1.81-.07,7.36,1.09,2.78.58,5.5,1.43,8.33,1.72.85.15,1.75.16,2.63.05,2.27,1.02,5.08.85,7.25-1.29,7.06-7.64,10.56-9.99,16.7-14.43,5.54-3.62,11.24-7.04,17.13-10.09.34,1.34.76,2.66,1.24,3.96,0-.04,0-.07,0-.11.05.21.11.42.2.63.16.44.66,1.74.87,2.21,2.79,6.63,7.57,10.42,11.89,18.57,7.95,14.73,4.12,30.07-8.86,40.51-3.39,2.35-7.06,4.24-10.51,6.51-2.96,2.02-5.12,3.89-5.6,4.39-4.44,4.57-7.71,10.12-10.11,15.99-2.09,4.92-3.86,9.98-4.8,15.25-1.1,6.47-.45,13.08-.34,19.6.05,3.01-.02,6.03-.24,9.03-.02.16-.03.32-.05.48,0,.06-.02.12-.02.17-.04.65-.47,2.07-.59,2.5-.14.3-.29.59-.47.86-.07.08-.14.16-.21.23-2.26,2.06-.94,1.2-3.95,2.88-1.05.43-1.81.98-2.36,1.57-2.91-2.22-5.96-5.09-10.12-9.45-.29-.32-.57-.63-.84-.94,1.82-1.28,3.67-2.54,5.6-3.66,1.02-.52,2.12-1.15,2.39-2.37.71-2.4-2.14-4.59-4.28-3.28-2.7,1.39-5.34,2.92-7.91,4.57-1.81-2.12-3.15-3.9-4.75-6.47ZM155.06,262.48c-.02.14-.05.3-.09.48-.05.63-.6,2.22-.94,3.14-.3.68-.62,1.35-.96,2-.2.28-.4.57-.59.85-.1.12-.22.27-.37.44-3.41,3.31-1.63,1.75-4.65,3.8-4.85,2.56-2.76,1.96-8.23,3.13-5.66.92-4.3,1.04-10.82,1.17-4.62-.04-9.23.32-13.84.13-5.88-.31-14.21-1.3-16.1-1.56-14.62-2.06-29-7.27-35.93-13.46-5.66-5.3-6.15-5.46-9.42-11.54-2.32-4.88-1.74-3.01-2.87-7.17-.25-1.52-.38-.62-.15-4.16.83-4.59,1.92-5.93,3.43-7.72.95-1.04,1.97-2.01,3.06-2.91.12-.08.23-.17.36-.25.82-.54,1.83-.86,2.55-1.51,6.77,5.1,14.65,8.73,22.77,11.18,4.99,1.36,10.16,2.01,15.29,2.62.46.06.92.12,1.38.18,7.58,1.15,15.25,1.52,22.89.98,6-.21,11.73-.53,17.32-1.09.29.23.49.36.44.3.27.19.55.36.84.53,1.85,1.18,3.78,2.22,5.64,3.39,3.57,1.98,9.19,8.25,9.07,15.82,0,.41-.04.83-.08,1.24ZM363.03,283.87c-6.75.94-25.34,2.65-37.94,1.16-1.57-.23-4.43-.41-7.87-.6.69-5.59,3.34-10.59,6.87-12.39,4.56-2.37,5-2.76,8.69-3.68.33-.06.58-.1.75-.13,1.87-.24,3.75-.33,5.63-.14,1.79.26,3.57.61,5.27,1.2.39.13.77.28,1.15.43.01,0,.02,0,.03.01,2.68,1.21,5.54,1.92,8.25,3.06.24.09.48.17.72.26.09.03.18.07.27.1,3.72,1.75,4.5,3.35,5.66,4.75,1.29,1.82,2.26,3.83,3.24,5.83-.24.04-.48.09-.73.13ZM428.48,246.68c-2.06,2.61-4.24,5.12-6.55,7.51-4.11,4.57-12.82,11.43-13.47,11.72.15-.11.3-.23.45-.34-2.14,1.48-4.36,2.87-6.6,4.2-.6.34-1.21.67-1.82,1-2.49-11.09-3.72-13.17-.88-21.3.72-1.7,1.81-3.2,2.93-4.65-.06.08-.13.17-.19.25,1.77-2.31.68-1.12,3.15-3.87,2.58-2.57,5.21-5.2,6.95-8.44,1.79-3.55,2.81-6.9,4.81-8.81,2.64-2.63,3.39-2.84,4.66-3.42,2.84-.66,1.94-.65,5.26-.47,3.21.67,2.03.26,4.81,1.8,3.63,2.95,3.79,4.48,6.49,7.18-.53,1.17-1.18,2.54-2.05,4.34-2.22,4.68-4.85,9.15-7.96,13.3ZM449.61,191.45c-1.36,8.65-3.54,17.16-6.47,25.41-.28.79-.54,1.49-.77,2.16-.6-.57-1.21-1.13-1.82-1.68-3.08-2.7-6.75-4.83-10.82-5.6-8.22-1.52-15.25,1.75-20.07,8.45-1.69,2.1-2.39,4.74-3.69,7.05-1.21,2.21-2.79,3.66-6.44,6.79-4.01,3.92-7.52,8.65-8.72,14.22-.61,3.19-1.13,6.47-.84,9.72.43,4.67,2.25,9.03,3.58,13.49.26.83.49,1.67.73,2.5-1.94.92-3.89,1.81-5.87,2.64l-1.24.49c-4.74,1.7-9.54,3.32-14.41,4.64-.54-1.88-1.3-3.84-2.24-5.57-3.84-7.1-9.51-12.27-17.55-13.97-2.73-.57-5.28-1.75-8.02-2.25-4.93-.93-10.02-.82-14.89.43-4.51,1.49-8.87,3.73-12.59,6.7-3.82,3.46-5.45,8.71-6.09,13.68-.14,1.11-.23,2.23-.25,3.35-7.67-.39-16.13-.87-19.89-1.77-7.15-1.16-14.42-2.21-21.19-4.88-4.44-1.96-8.52-4.6-12.88-6.71-1.7-.72-3.19-1.9-4.84-2.7-3.61-2.85-11.92-9.54-12.53-11.61-2.77-4.5-1.81-10.99.49-13.12,2.74-3.54,14.44-5.26,20.89-3.85,9.11,1.67,10.71,3.66,19.74,7.68,7.88,3.53,16.3,5.63,24.89,6.35,5.41.58,10.83,1.14,16.28.81,6.86-.29,13.62-1.67,20.23-3.44,8.08-2.31,16.3-4.56,23.82-8.39,4.99-2.74,9.57-6.12,14.15-9.49,1.24-.88,2.47-1.76,3.7-2.65l-.18.05c1.02-.53,1.94-1.29,2.83-2.08,2.06-1.7,4.08-3.44,6.06-5.22,7.49-6.97,10.81-10.92,15.31-17.24,1.76-2.37,3.26-4.91,4.54-7.56.43-1,1.03-1.97,1.41-3,.32-.59.61-1.2.61-1.89.7-5.41-6.61-7.3-8.98-2.67-.3.41-.56.85-.85,1.25-2.77,4.05-1.42,2-4.12,5.6-.23.31-.29.4-.28.39-.41.54-.85,1.11-1.09,1.44-3.54,4.62-7.49,8.91-11.77,12.84-2.83,2.58-5.79,5.02-8.8,7.39-.56.44-1.13.87-1.68,1.31-.06.05-.11.11-.16.17-2.8,2.28-5.59,4.59-8.36,6.91-2.08,1.68-4.1,3.29-9.11,5.86-5.63,2.81-27.25,8.44-33.47,8.81-6.3.71-23.32.13-32.95-3.16-3.18-.73-6.26-2.14-9.52-3.75.12-.16.24-.33.34-.51,0,0-.02.01-.04.03.3-.43.6-.87.89-1.3.02-.02.03-.04.05-.07.11-.16.19-.29.27-.4.28-.33.54-.66.84-.97.6-.6,1.24-1.16,1.9-1.69.58-.41,1.16-.81,1.77-1.18,1.89-1.24,3.71-2.58,5.68-3.69,7.8-4.01,10.58-5.54,10.76-10.85-.09-1.58-.61-3.03-1.27-4.45-1.12-2.53-2.33-5.02-3.47-7.53-2.23-5.8-3.69-13.65-3.72-15.59-.8-8.66.14-10.47,1.97-19.4,3.44-12.36,9.11-23.73,18.11-32.25,1.1-.98,9.46-6.47,14.48-9.07,1.72-.93,3.47-1.79,5.25-2.59,1.22-.6,2.72-.91,3.46-2.16,3.27-3.96-1.65-9.66-6.14-7.07-6.1,2.49-11.82,5.82-17.39,9.33-4.88,2.82-9.41,6.25-12.66,10.92-4.38,5.37-8.02,11.27-10.73,17.66-3.96,8.45-6.59,17.5-7.61,26.78-.41,3.92.08,7.86.59,11.75.92,7.48,3.19,14.73,6.43,21.51-4.82,2.54-9.73,5.01-13.63,8.89-1.9,1.96-3.7,4.13-4.85,6.62.02-.06.05-.12.07-.18-.04.09-.08.19-.12.28,0,.02-.01.03-.02.05-.18.4-.34.81-.5,1.22-.1.29-.2.59-.29.89-.02.06-.03.13-.05.2-.01.05-.03.09-.04.14,0,0,.01-.03.02-.04-.02.07-.03.15-.05.22-2.45-.98-5.07-1.85-7.94-2.48-13.37-2.8-32.96-1.01-38.16,13.89-3.74,10.34.69,19.82,5.47,25.43-8.1,2.44-13.68,2.98-20.26,3.81-8.17,1.13-16.41,2.35-24.68,1.6-6.9-.68-8.89-.55-14.24-3.77-.93-.76-1.8-.92-3.48-4.2-.21-.4-.39-.81-.57-1.22-.01-.04-.02-.06-.04-.11-.88-3.19-.84-2.36-.65-6.6.65-2.61,1.16-3.24,3.66-6.67.42-.51.85-1.02,1.32-1.5.47-.47.98-.91,1.5-1.33,2.04-1.48,4.15-2.88,6.46-3.89.06-.03.12-.05.18-.08,2.31-.84,4.62-1.67,6.99-2.31,1.18-.38,2.45-.64,3.6-1.14.63-.24,1.73-.67,2.37-.92,5.04-1.69,3.38-9.03-1.58-8.79-.77-.08-1.54-.12-2.31-.1-.21-.02-.42-.04-.63-.03-3.96.2-3.42.05-8.92,1.24-5.75,1.9-11.24,4.93-15.38,9.4-1.51,1.8-2.89,3.73-4.06,5.78-1.68-3.28-3.85-6.32-6.61-8.69,8.89-1.99,17.8-5.05,27.35-9.84,14.69-6.88,29.27-14.37,42.16-24.3,8.79-7.11,16.64-15.51,22.71-25.07,5.44-9.16,8.63-19.41,10.65-29.84.72,0,1.45,0,2.25,0,3.82.05,5.48.36,6.18.4,4.45.4,3.16.34,6.21.65.19.03.38.05.58.06.05,0,.08,0,.13.01-.04,0-.07,0-.11-.01.86.02,1.73-.18,2.48-.61,2.7-1.46,3.21-5.38,1.04-7.53-.96-1.03-2.34-1.32-3.64-1.7-1.83-.5-3.68-.9-5.54-1.26-2.63-.4-5.27-.54-7.91-.5.47-4.22.49-8.48.01-12.7.58-.15,1.17-.31,1.79-.46,3.35-.82,6.78-1.3,10.15-1.99.2-.05.4-.09.6-.13.09-.02.17-.03.26-.06.04,0,.08-.02.13-.03-.03,0-.06,0-.08.01.21-.06.41-.12.61-.22,3.25-1.1,3.5-5.98.52-7.58-1.85-.92-5.57-.99-10.14-.47-2.03.26-4.03.69-5.99,1.23-1.03-3.16-2.25-6.25-3.53-9.31-3.78-8.62-7.94-17.18-13.33-24.92-2.94-3.9-6.07-7.68-9.41-11.24-2.65-2.82-5.61-5.35-8.12-8.31-2.84-3.43-1.5-1.84-3.37-4.31.16.27.21.37-.04-.06-.2-.27-.43-.57-.72-.95.05.02.12.09.21.18-.61-.9-1.18-1.83-1.64-2.81-.16-.48-.29-1.12-.38-1.62-.04-.43-.07-.85-.08-1.28.06-.58.09-1.17.14-1.75.15-1.39.3-2.78.43-4.18,3.14-1.84,6.74-3.52,10.6-5.04-.3,2.2-.31,4.44-.15,6.65.25,2.99.69,6.02,2.11,8.7,4.51,7.52,12.99,12.2,21.46,13.74,3.04.55,6.1.09,9.09-.53,2.99-.64,6.01-1.38,8.74-2.79,2.14-1.18,3.95-2.84,5.82-4.39,1.98-1.59,3.96-3.2,5.4-5.32,3.46-4.46,4.02-10.23,5.56-15.49,1.43-3.98,1-3.77,2.78-6.45,1.26-1.5,2.67-2.87,3.86-4.42,0,0,.11-.13.35-.45,0,0,0-.01.02-.02.05-.06.1-.12.14-.19-.02.02-.03.04-.05.06.12-.15.22-.3.32-.45,3.09.02,6.18.08,9.19.19-5.61,6.55-9.29,15.53-9.68,23.5-.28,5.62,2.21,10.9,5.34,15.42,1.87,2.62,3.78,5.26,6.22,7.39,4.14,3.93,9.51,5.89,14.91,7.41,2.43.85,3.52,1.7,4.68,2.57,3.65,3.23,6.32,7.37,9.6,10.94,4.72,5.15,10.95,9.23,18.06,9.74,5.28.6,10.66.69,15.92-.18,5.97-1.14,11.89-2.8,17.6-4.9,4.16-1.87,8.54-3.38,12.39-5.84,4.97-3.82,9.91-8.25,12.57-14.04,1.72-3.46,2.64-6.6,3.23-11.76,3.46,3.19,6.71,6.61,9.67,10.25,3.74,5.12,6.77,10.71,9.88,16.23-1.58.89-3.07,1.93-4.5,3.06-5.15,3.71-9.14,8.97-11.22,14.98-1.02,3.08-1.19,6.36-1.42,9.57-.48,5.12.41,10.31,2.68,14.93,3.27,5.85,6.15,5.76,9.35,9.32,2.1,1.87,3.64,6.37,7.23,10.72,3.34,4.16,7.45,7.78,12.04,10.51.96.51,2.01,1.07,3.09,1.44.03,8.24-.95,16.57-1.58,20.28Z"/>
        </g>
      </g>
      <path d="M192.65,60.22c-1.34-3.73-4.33-2.85-8-3.54-3.36-.26-3.37-.34-8.41-1.41-1.3-.3-2.63-.52-3.9-.91,0-.07,0-.13,0-.2.04-.42.04-.5.03-.41.01-.12.03-.24.04-.35,0-2.6.86-5.04,5.34-11.27,2.62-3.5,1.63-2.32,5.24-6.55,1.04-1.33,2.67-2.3,3.2-3.94,2.27-5.1-4.48-9.59-8.43-5.66-3.51,3.38-6.52,7.23-9.46,11.11-2.48,3.44-4.97,7-6.26,11.08-1.63,5.44-1.37,11.8,3.96,15.06,3.14,1.78,6.82,1.85,10.3,2.47,4.05.72,8.2.5,12.22-.34.26-.05.51-.1.77-.14.14-.02.27-.04.4-.07.03,0,.06-.01.09-.02-.02,0-.05,0-.07.01.19-.05.39-.11.57-.21,1.89-.63,2.85-2.85,2.36-4.72Z"/>
      <path d="M53.69,102.44c-2.35-1.3-4.96-1.96-7.56-2.56-4.51-.98-5.61-.96-11.82-1.13-2.22-.06-4.45-.02-6.67.14-1.37.11-2.79.07-4,.82-5.45,3.25-2.04,11.53,4.1,9.98,2.69-.46,8.4-1.31,14.55-1.09.02,0,.04,0,.06,0,2.09.41,4.2.77,6.22,1.44.21.11.42.22.62.33-.06,2.1-.5,3.04-3.42,7.71-1.32,1.65-2.81,3.15-4.1,4.81.12-.16.25-.32.32-.41-.12.15-.23.29-.34.43-1.3,1.3-1.84,3.48-1,5.16.76,2.22,3.38,3.39,5.6,2.8,1.58-.4,2.69-1.68,3.63-2.95,2.42-3.74,5.23-7.3,7.13-11.35,2.38-4.83,1.81-11.4-3.32-14.16Z"/>
      <path d="M125.82,175.01c-2.27-2.01-6.12-.75-7.1,2-.04.09-.09.2-.14.31,0,0,0-.01,0-.01-2.13,4.13-1.07,2.51-3.93,5.57-1.18.9-.77.89-4.17,2.44-3.22,1.02-1.6.45-4,.9-1.51.11-3.6.33-8.25-1.21-.41-.11-1.24-.42-1.7-.59-.24-.1-.47-.21-.7-.32-.8-.47-1.79-.59-2.69-.35-2.55.63-3.5,4.07-1.6,5.9,9.62,7.72,21.55,9.96,30.68.23,2.69-3.09,8.17-11.66,3.59-14.87Z"/>
      <path d="M209.48,133.92c-.25.2-.49.57-.67.91,0-.01,0-.02.01-.03,0,.02-.01.03-.02.05-.22.42-.36.79-.31.72-.29.71-.37.94-1.75,3.19-2.92,4.35-5.53,6.68-10.06,7.81-.24.04-.4.07-.53.1-.88.07-1.77.05-2.65,0-.42-.02-.78-.04-1.03-.06-.29-.05-.59-.09-.88-.16-2.35-.24-4.57-1.87-6.94-1.47-5.85.63-6.34,9.15-.65,10.62,6.75,3.09,14.37,3.39,20.8-.66,3.76-2.38,6.79-5.81,8.87-9.74,1.31-2.43,2.35-5.02,2.54-7.79.64-3.67-3.95-6.19-6.71-3.48Z"/>
      <path d="M179.93,190.83c-.13-1.93-1.96-3.74-3.89-3.85-1.35-.2-2.7.3-4.05.52-.77.08-1.55.06-2.32.02-.17-.04-.33-.07-.5-.12-.19-.11-.34-.2-.47-.27-.29-.27-.56-.54-.83-.83-.25-.37-.48-.74-.68-1.14-.02-.04-.03-.06-.05-.1-.11-.32-.23-.63-.32-.95-.06-.19-.12-.37-.19-.55.13-.18.28-.4.51-.69,1.91-3.04.19-7.17-3.27-8.07-.14-.03-.27-.06-.41-.08-1.13-.66-2.46-1.01-3.73-.94-4.22.32-8.45,3.11-9.87,7.18-1.22,4.63,2.67,8.03,6.91,7.99.15.45.32.9.51,1.33.46,2.59-.05,5.15-1.1,5.8-.14.13-.29.25-.44.37-.08.05-.18.12-.3.19-.85.5-1.72.99-2.63,1.36-2.33.9-1.31.19-3.42,1.44-3.42,2.68-.53,7.71,3.6,6.56,5.3-.64,9.7-3.74,11.38-8.3,2.61,1.24,5.6,1.59,8.6.58,1.77-.63,3.42-1.51,4.79-2.81,1.39-1.1,2.56-2.79,2.17-4.64Z"/>
    </g>
  </g>
</svg>