<?xml version="1.0" encoding="UTF-8"?>
<svg id="Layer_2" data-name="Layer 2" xmlns="http://www.w3.org/2000/svg" viewBox="0 0 454.89 353.34">
  <g id="Layer_2-2" data-name="Layer 2">
    <g>
      <g>
        <g>
          <g>
            <path d="M260.89,167.54c.05-.02.1-.04.12-.05-.04.02-.08.04-.12.05Z"/>
            <g>
              <path d="M219.68,48.48c-.1-.13-.19-.25-.28-.38.08.11.19.25.28.38Z"/>
              <g>
                <path d="M164.71,68.81s0,0,0,0c.01.01.03.02.04.03-.01-.01-.03-.02-.04-.03Z"/>
                <path d="M454.54,187.19c-1.42-16.22-6.31-35.75-11.97-54.54-1.98-7.21-4.38-14.31-6.85-21.36-2.3-7.04-4.78-14.02-7.89-20.74-7.41-14.77-16.76-28.6-27.52-41.14-8.97-9.96-16.61-14.03-30.03-21.69-19.1-10.25-40.18-15.95-61.2-20.77-13.17-2.84-26.44-5.55-39.88-6.66-10.62-.71-21.28-.08-31.82,1.36-34,4.61-67.33,14.94-97.59,31.18-9.81,5.18-19.42,10.82-28.28,17.51-8.73,6.66-16.79,14.23-24.19,22.34-4.78,5.55-9.31,11.37-13.09,17.66-3.57,6.13-6.34,12.69-8.78,19.34-1.83,5.07-2.95,10.36-3.83,15.68-.37,2.36-.68,4.74-.88,7.12-.05,1.04-.24,2.16.11,3.15-.54.66-1.07,1.33-1.58,2.01-2.05,2.81-3.98,6.11-4.63,9.59-2.91-1.03-5.87-1.91-8.77-2.96-8.05-2.91-16.59-5.48-25.23-4.54-6.12.76-12.94,2.64-16.62,7.97-4.47,6.12-5.13,14.38-2.38,21.36,2.09,6.36,4.85,12.51,8.17,18.32,1.94,3.37,3.97,6.7,6.15,9.93,1.2,1.61,2.15,3.7,4.13,4.41-.08.34-.15.67-.24,1.01-.89,3.76-.93,5.22-1.42,10.76-.34,5.07.46,10.12,1.18,15.13,1.29,8.4,3.44,16.69,6.72,24.54,5.25,12.39,11.06,21.11,20.18,27.94-5.99,5.46-11.98,11.48-14.52,15.04-2.02,1.9-.53,5.49,2.24,5.42,1.76,0,2.79-1.56,4.03-2.58,2.74-2.39,5.38-4.88,8.11-7.28,2.56-2.27,4.83-4.29,6.98-6.17,2.11,1.19,4.36,2.32,6.8,3.41,1.86.83,3.75,1.55,5.66,2.21-4.8,8.12-8.96,16.32-11.14,22.97-1.38,2.73,1.22,5.72,4.04,4.24.47-.3.86-.69,1.13-1.16,0,0,0,0,0,0,.1-.17.17-.36.23-.55.41-.95,1.34-3.15.68-1.6.05-.1.09-.21.14-.31,1.68-3.89,3.69-7.62,5.75-11.32,1.47-2.71,3-5.39,4.56-8.06.84,1.35,1.7,2.68,2.55,4.03,1.28,2.12,2.53,4.26,4.15,6.15,3.06,3.54,7.12,6.05,11.11,8.43,20,11.03,56.37,21.23,74.9,3.25.93-.97,3.13-3.44,4.45-6.08,1.22.96,2.48,1.89,3.77,2.75,4.23,2.97,9.59,3.82,14.55,2.47.9-.27,1.91-.54,2.88-.87.76,2.35,1.6,4.33,2.23,5.67,4.66,9.97,14.76,15.56,24.2,20.29,10.53,5.42,21.81,9.42,33.56,11.08,8.7,1.38,17.57.76,26.32.12,11.95-.6,26.67-3,33.95-3.95,12.5-1.59,24.97-3.47,37.32-5.98,13.58-2.44,26.76-6.91,38.76-13.76,14.2-7.76,30.12-24.64,40.43-42.15,11.52-20.62,19.83-43.05,25.31-66.01,2.39-10.99,4.05-22.32,2.95-33.58ZM423.31,112.89c1.45,3.45,3.08,7.46,4.56,11.57-1.72.24-2.65,1.83-3.53,2.19-1.98,1.47-2.85,2.19-6.52,4.33-7.42,4.1-15.2,7.51-22.96,10.89-.57.21-.47.23-2.33.91-2.14.77-4.34,1.36-6.59,1.74-.86.1-1.72.17-2.58.15.04-.03.08-.06.12-.08,2.21-1.73,9.46-6.74,14.29-10.1,4.85-3.29,9.82-6.45,14.22-10.33,3.97-3.48,7.61-7.33,11.23-11.17.02-.03.05-.06.08-.09ZM376.38,45.43c1.66,1.16,3.31,2.33,4.93,3.53,2.66,2.15,5.2,4.44,7.56,6.91-1.2,2.7-.83,1.78-1.55,3.54-1.73,4.43-4.15,8.53-6.44,12.69-6.37,12.49-17.09,26.87-24.01,31.59,1.14-2.8,2.83-5.85,4.69-10.16,7.65-15.11,10.85-31.77,14.82-48.11ZM301.62,20.74c-.42-1.42-.81-2.85-1.22-4.28,5.34,1.14,10.65,2.39,15.94,3.73-.02.84.03,1.7,0,2.53.89,16.8-.87,31.61-2.88,45.22-1.27,7.8-2.62,15.7-5.43,23.11-.44.98-1.47,3.31-1.84,3.93-1.66,3.06-2.46,4.28-3.32,5.35-1.05,1.24-1.77,1.94-2.2,2.28-.9-3.74-.19-8.1.19-13.44.81-8.69,4.18-26.77,4.75-44.12.22-8.31-1.42-16.46-3.99-24.32ZM215.6,16.41c.89,1.05,2.1,1.88,3,2.9,2.48,2.94,5.13,5.73,7.58,8.69,6.21,8.02,7.83,9.13,13.13,18.94,5.26,10.53,9.99,19.64,12.75,28.93.81,3.12,1.24,6.04,1.29,6.81.02.11.04.27.05.44-.45-1.14-.96-2.45-1.78-4.24-1.76-3.89-3.95-7.57-6.25-11.16-3.55-5.45-7.19-10.83-10.92-16.16-3.67-5.29-7.35-10.61-11.83-15.26-4.86-5.22-10.4-9.73-16.14-13.93-1.32-.87-2.68-1.8-4.07-2.71,4.42-1.19,8.84-2.27,13.19-3.25ZM143.26,43.15c2.33,1.52,6.31,5.27,10.17,8.73,4.57,3.82,8.11,6.34,10.62,8.4,2.26,1.87,4.45,3.83,6.7,5.71-.45.26-.89.54-1.32.83-.74.3-1.42.8-2.13,1.17-.73.44-1.45.89-2.16,1.34-.13-.19-.28-.35-.44-.51-.07-.06-.15-.11-.22-.17.08.06.15.12.22.17-.24-.24-.51-.47-.82-.64-.6-.46-1.22-.9-1.89-1.25-2.63-1.47-5.29-2.89-8.06-4.06-8.87-4.35-18.26-7.5-27.91-9.59,5.48-3.53,11.33-6.94,17.23-10.12ZM91.41,84.41c8.74-10.33,18.04-19.13,27.11-25.93,5.51,1.64,11.02,3.28,16.32,5.54l-1.01-.42c5.22,2.09,8.66,3.44,17.18,7.88,2.3,1.13,4.62,2.23,6.95,3.31-1.82,1.8-3.21,3.78-5.87,7.55-2.84,3.93-4.72,8.41-6.42,12.93-.52,1.41-1.02,2.83-1.46,4.27-4.69-1.07-9.59-1.33-14.37-1.11-7.13.46-14.31,1.25-21.23,3.07-5.44,1.59-10.53,4.11-15.54,6.73-6.85,3.56-12.85,8.5-18.52,13.7-1.04.92-2.07,1.85-3.1,2.79,3.27-14.67,11.06-29.53,19.98-40.3ZM140,124.83c3.11,6.41,4.61,9.88,6.77,15.42,1.09,2.84,2.19,5.69,2.95,8.63-.49-.61-.95-1.19-1.94-2.56-6.08-7.41-13.21-20.96-20.79-31.6-1.2-1.69-2.42-3.36-3.63-5.04,2.81-.29,5.96-.48,10.02-.53,1.79,5.39,4.26,10.53,6.62,15.68ZM103.96,120.72c2.31,3.77,4.42,7.66,6.66,11.48,4.74,7.53,10.57,18.03,12.54,23.58.87,2.1,1.8,4.63,2.53,6.95-1.95-2.28-3.82-4.64-5.79-6.88-8.75-11.06-18.22-21.52-27.81-31.85-.5-.46-.97-1-1.43-1.54.45-.36.82-.64,1.1-.8,3.54-2.4,6.49-4.26,9.31-5.75.81,1.7,2.18,3.37,2.9,4.81ZM67.89,144.55c1.21-1.51,2.5-2.95,3.83-4.37.87,1.38,1.8,2.72,2.77,4.03,4.11,5.58,8.58,10.88,12.8,16.37,4.23,5.41,10.96,14.53,15.66,23.28-4.9-4.51-9.55-9.26-14.28-13.95-7.45-6.6-15-13.09-22.38-19.77-.37-.3-.74-.62-1.11-.94.73-2.22,2.06-3.76,2.71-4.65ZM162.14,304.49c-1.45,1.15-2.73,2.51-4.19,3.65-1.56,1.45-.83.67-4.15,3.16-1.34,1.06-4.39,3.04-10.42,4.21-2.64.54-2.43.61-7.32.55-7.62-.27-8.59-.46-16.7-2.22-12.42-2.87-25.11-8.72-30.91-12.92-2.8-2.22-3.86-3.58-5.14-5.58,2.09.33,4.18.62,6.28.87,12.6,1.8,25.42,2.31,38.08.83,5.86-.71,11.74-1.55,17.39-3.33,3.78-1.15,7.44-2.6,11.02-4.24.41,5.2,3.04,10.24,5.83,14.57.08.14.18.27.27.41-.01.01-.02.02-.03.03ZM145.09,281.46c-7.11,2.08-12.35,2.76-17.58,3.37-9.12,1.2-25.42.38-28.95-.2-2.44-.37-11.16-1.47-18.6-3.16,1.26-1.85,2.53-3.68,3.84-5.49,2.14-3.92-3.54-7.23-5.89-3.4-1.58,2.21-3.21,4.56-4.83,6.99-2.79-.91-5.69-2.03-8.5-3.27,1.12-.84,2.27-1.69,3.49-2.55,1.73-1.18,3.46-2.38,5.35-3.28,1.23-.41,2.48-.9,3.11-2.12,1.83-2.93-1.2-6.89-4.52-5.88-5.79,2.06-10.44,6.29-15.29,9.97-1.79-.98-3.41-1.96-4.78-2.87-7.06-5.87-7.63-7.26-12.21-14.49-4.87-8.48-5.96-11.13-8.52-20.14-3.45-12.44-4.11-21.96-3.42-32.62,0-.35.04-.7.05-1.05.06-.38.1-.76,0-1.14-.06-1.03-.59-1.86-1.35-2.41.12-.94-.05-1.93-.6-2.85-7.68-11.66-12.16-20.08-15.25-31.6-.14-.48-.28-1.15-.36-1.55,0-.05-.01-.1-.02-.15.09-3.17-.3-1.43.67-4.4.02-.04.03-.06.04-.09.43-.87.93-1.71,1.51-2.49.17-.21.25-.31.3-.36.01,0,.02-.01.04-.02-.26.31-.1.15.27-.17,3.35-2.12,1.22-.99,5.02-2.25,7.04-1.69,13.41-.44,23.78,3.05,3.32,1.1,6.65,2.19,10.01,3.19,1.61.3,3.22,1.17,4.87.81,2.04-.22,3.4-1.41,4.1-2.92,7.4,7.35,14.74,14.76,22.28,21.97,3.05,2.9,5.93,5.98,9.08,8.78,3.84,3.08,8.72,6.76,10.15,7.74,1.94,1.25,4.07,2.47,6.4,2.66,2.69.06,4.75-2.46,4.49-5.08-.9-7.62-5.86-14.04-9.84-20.37-6.94-10.2-12.13-16.34-18.79-26.66-2.03-2.96-3.82-6.07-5.64-9.16-.4-.54-.72-1.15-1.07-1.75.23-.22.46-.44.7-.65,1.78-1.65,3.82-3.57,5.78-5.38,7.64,8.99,15.04,18.19,22.21,27.57,1.2,1.63,6.18,7.84,10.16,12.27,2.43,2.73,4.72,5.62,7.74,7.73,4.38,3.83,10.45,2.7,11.03-3.61.41-6.94-6-20.76-10.96-29.82-4.32-7.68-8.89-15.22-13.19-22.92-1.22-2.1-2.54-4.14-3.72-6.26,2.37-.84,4.87-1.53,7.76-2.16.29-.05.59-.1.88-.15,4.11,6.51,8.29,12.99,11.82,19.84,4.2,7.95,8.06,16.15,13.81,23.14,2.68,3.4,5.42,7.29,9.59,8.91,2.86.82,5.78-1.2,6.45-4.02.72-3.04.1-6.21-.71-9.17-2.85-9.66-9.27-21.97-11.08-27.1-1.84-4.35-3.16-8.89-4.97-13.25,1.52-.05,3.04-.13,4.55-.32,2.94,1.81,7.55.77,8.61-3.33,1.72-5.67,3.73-9.81,8.36-17.44,3.48-5.22,2.6-3.91,4.95-7.12.1-.13.22-.24.31-.38-.14.18-.27.35-.41.53,1.97-2.51,4.12-4.89,6.41-7.11,1.98-1.24,1.45-1.07,3.38-1.44.4-.01,1.05-.03,1.47,0,.3.02.46.03.52.03.05,0,.11.01.16.02,5.44,1.13,4.68.98,7.38,3.17.29.28.54.59.79.91-.28-.38-.48-.78.04.02.02.03.04.06.06.09.06.08.14.15.2.23-.05-.04-.11-.1-.16-.17.76,1.11,1.36,2.3,1.89,3.53,1.42,3.91,1.65,6.87,1.97,8.06.97,5.93,1.78,9.2,1.92,12.26.59,5.14-.67,10.92,2.04,15.57,1.07,1.47,2.27,2.89,3.69,4.03-.04-.03-.09-.06-.13-.09,5.03,4.78,10.14,9.47,15.15,14.28,6.33,6.53,6.93,7.76,11.73,15.34,2.09,3.57,1.67,2.98,2.29,4.14.77,1.64,1.04,2.21,1.17,2.55-2.16,2.19-4.26,4.45-6.31,6.74-1.81,2.07-3.62,4.14-5.27,6.35-.54.77-1.34,1.48-1.35,2.48-.5,2.88,3.31,4.75,5.34,2.64,3.21-3.71,6.33-7.06,9.47-10.13.04.51.1,1.14.19,1.98.04,1.93.05,3.72.02,5.39-.23.15-.46.3-.69.45-2.08,1.42-4.12,2.89-6.11,4.45-.86.73-1.98,1.34-2.3,2.5-1.57,3.34,2.48,6.86,5.62,4.96.92-.61,1.86-1.19,2.8-1.77-.12.9-.25,1.74-.39,2.54-1.39,9.23-3.75,18.35-7.01,27.1-6.7,15.13-13.24,25.94-23.54,36.15-4.54,4.76-11.44,10.14-13.71,11.82-6.65,5.14-13.88,9.41-21.44,13.05-8.8,4.25-12.24,6.19-19.78,8.39ZM219.43,328.4c-9.1-4.38-14.64-8.67-17.52-13.34-.34-.6-.68-1.18-1.06-1.74-1-2.54-1.31-2.38-2.45-7.27-.08-.33-.13-.58-.17-.78.02.16.04.36.07.61-.03-.21-.05-.43-.08-.64-.1-.52-.08-.57-.02-.13-.02-.17-.04-.35-.06-.52-.14-.54-.08-1.75-.03-2.43.11-.6.27-1.19.47-1.76.08-.18.16-.37.26-.55,3.65-7.23,13.98-11.37,23.96-12.22,0,.12-.03.23-.03.35-.28,13.2-1.53,31.39.7,42.37-1.29-.61-2.62-1.25-4.04-1.95ZM230.09,333.24c.42-.55.68-1.25.66-2.08.72-9.73.85-19.48,1.22-29.23.13-3.59.19-7.18.3-10.76-.03-1.06.19-2.19.15-3.27.47.07.94.15,1.39.24,4.15.62,8.18,1.78,12.15,3.1-.01.12-.04.23-.04.36.15,14.23-2.78,28.56-.46,42.72.1.62.39,2.36.49,2.84.04.28.11.55.21.81-6.7-1.51-11.47-2.94-16.06-4.74ZM245.02,279.16c-.51.41-.98.86-1.42,1.34-.06-.02-.11-.03-.17-.05.43-.36.87-.72,1.3-1.08.1-.07.2-.14.3-.22.27-.21.53-.43.81-.62l-1.1.83c.31-.26.61-.52.92-.77,3.03-2.48,5.91-5.11,8.16-8.32,3.19-4.01,6.52-7.93,9.28-12.26,3.54-5.62,6.55-11.54,9.23-17.61,2.27,6.06,4.8,12.01,8.13,17.56.94,1.61,1.98,3.15,3.07,4.66-3.32.04-6.65.4-9.89,1.01-4.58,1.13-8.72,3.48-12.88,5.64-3.92,1.9-7.64,4.16-11.2,6.66-1.55,1.03-3.07,2.09-4.54,3.22ZM279.12,226.37c.15.08.29.16.43.24,7.85,3.48,16.46,4.71,24.84,6.3,4.7.91,9.52,1.43,14.14,2.72-10.6,2.53-17.89,2.85-30.26,2.26-1.8-.11-3.61-.24-5.41-.37-.11,0-.22-.01-.33-.02-.24-.8-.5-1.63-.78-2.53-.88-2.85-1.82-5.7-2.63-8.59ZM285.05,339.34c-13.16.85-24.35.85-32.16-.12.64-.69,1.05-1.6,1.02-2.68.37-7.54.52-15.07.68-22.62.22-6.5.6-13.01.6-19.52,6,2.01,12.01,4.02,18.17,5.46,2.69.51,5.39.92,8.1,1.26-.07,9.72.82,19.42,1.4,29.12.12,1.44.29,2.86.53,4.28.02.24.05.47.11.7,0,.05.01.1.02.15,0-.04-.01-.09-.02-.13.23.96.71,1.87,1.41,2.57.63.67,1.4,1.11,2.22,1.36-.7.05-1.39.11-2.09.15ZM291.34,338.82c.91-.46,1.7-1.16,2.23-2.1,1.04-1.79.75-3.96.75-5.95-.22-7.66-1.3-15.26-1.8-22.91-.11-1.7-.21-3.4-.24-5.11-.02-.21-.02-.42-.02-.63,2.79.17,5.58.26,8.38.33.03.28.07.56.14.84,1.41,8.17,3.17,16.29,4.88,24.4.63,3.11,1.28,6.21,2.19,9.25-5.5.57-10.99,1.31-16.49,1.87ZM317.12,335.97c-.47-8.13-1.99-16.15-3.53-24.14-.58-3.1-1.16-6.19-1.66-9.3,0-.04-.01-.08-.02-.12,6.45-.27,12.88-1.04,19.06-2.86,1.72,5.47,3.81,10.82,6,16.12,1.83,4.39,3.57,8.84,5.92,12.98.58,1.04,1.22,2.06,1.92,3.02-11.22,2.26-18.19,3.25-27.7,4.29ZM375.46,321.74c-7.07,3.7-13.02,5.8-20.76,7.72.03-.58-.03-1.16-.18-1.72,0,0,0,0,0-.01-.48-2.13-1.25-4.19-2.07-6.21-1.81-4.45-2.69-6.27-5.21-12.37-1.46-3.61-2.88-7.23-4.12-10.92-.38-.92-.63-1.92-.89-2.91,1.61-.72,3.2-1.49,4.78-2.28,4.36,10.36,10.67,19.95,18.61,27.9.33.3.66.6,1.01.88,2.63,2.83,7.87,1.09,7.86-3.16-.09-2.17-2.16-5.41-4.6-9.6-3.51-5.84-7.17-11.59-10.31-17.65-1.66-3.32-1.67-3.45-2.04-4.35,3.11-1.96,6.14-4.04,9.1-6.19.79-.59,1.57-1.18,2.36-1.77.25.41.55.8.92,1.18,5.8,5.39,11.1,11.32,17.19,16.39,3.31,2.77,6.78,5.66,10.97,6.94.1.02.18.03.27.05.65.19,1.29.24,1.88.18-7.2,7.25-15.44,13.43-24.76,17.91ZM444.46,204.48c-2.28,17.3-7.56,34.11-13.82,50.36-5.86,15.33-14.39,31.06-25.86,44.11.09-1.11-.18-2.25-.91-3.24-.02-.03-.03-.06-.05-.08-4.25-5.38-9.64-9.78-14.5-14.6-2.48-2.37-4.97-4.73-7.48-7.05-1.08-.86-2.01-1.99-3.09-2.87,1.32-1.22,2.6-2.5,3.82-3.82,7.06,3.72,13.33,8.73,20.35,12.51,2.23,1.26,4.63,2.21,7.01,3.16.38.13.95.34,1.26.45.7.28,1.48.34,2.21.15,1.82-.44,2.99-2.49,2.48-4.29-.2-.62-.52-1.18-.97-1.62,0,0,0,0,0,0-.06-.06-.13-.12-.19-.18-5.29-4.77-11.65-8.09-17.65-11.85-2.88-1.75-5.78-3.47-8.78-4.99-.07-.03-.13-.07-.2-.1.39-.55.75-1.11,1.05-1.7,2.3-2.98,4.11-6.3,5.82-9.64.16-.28.27-.53.33-.71,1.2-1.95.97-4.59-1.19-5.8-2.1-1.22-4.73-.17-5.67,1.99,0,0,0,.01-.01.02-1.24,1.36-2.12,3.09-3.36,4.46,1.41-1.9-.3.38-.97,1.11-.47.57-2.18,2.33-2.17,2.51-1.66,1.24-3,2.93-4.65,4.2-5.42,4.4-7.34,6.29-12.27,9.8-11.58,8.24-27.57,17.13-36.21,20-12.96,4.92-35.77,5.15-50.89,4.06-7.55-.96-14.74-3.4-21.89-5.97,4.22-2.89,8.67-5.39,13.23-7.72,5.08-2.59,3.78-2.21,8.48-3.42.21-.03.39-.06.54-.08.78-.09,1.57-.17,2.35-.22,2.61-.22,5.26-.09,7.85-.46-.37.11-1.88.19-.87.15,4.05-.02,5.06-.21,6.45-1.03,1.92-1.1,2.95-3.39,2.38-5.54-1.09-2.52-4.15-6.45-6.72-11.42-1.98-3.7-3.23-6.33-4.28-8.99,13.63,1.5,27.85,2.26,40.81-2.78,6.38-2.73,5.83-9.81.23-13.19-3.24-2.12-7.15-2.84-10.89-3.59-4.46-.89-8.95-1.64-13.41-2.53-6.46-1.4-13.02-2.47-19.29-4.62-3.38-1.02-2.69-.97-4.86-1.73-.22-.1-.44-.17-.67-.21-.43-4.13-.75-9.4-.82-13.88,15.71,5.67,32.27,10.05,49.04,9.8,4.25-.03,7.54-4,5.36-8.03-1.72-2.9-4.84-4.58-7.71-6.16-4.09-2.2-8.37-4-12.64-5.81-6.78-2.96-13.92-5.26-20.22-9.2-3.05-1.91-5.91-4.12-8.99-5.99-.03-.02-.06-.04-.09-.06.99-2.37,2.21-4.79,3.78-7.71,2.08-3.67,3.21-5.58,4.5-7.27,5.65,4.54,12.13,7.98,18.66,11.07,5.47,2.51,11.1,4.87,17.16,5.39,7.3.87,9.41-4.64,7.27-8.13-2.95-5.19-8.44-8.1-13.16-11.45-4.52-3.16-5.48-3.78-9.61-7.87-1.03-.95-1.88-2.19-2.9-3.19,3.29-1.93,6.42-3.47,8.82-4.3,7.08-1.5,5.13-11.7-2.03-10.21-7.01,2.27-13.53,5.84-19.53,10.1-3.91,2.78-7.8,5.64-11.05,9.2-10.57,12.18-17.22,27.8-18.54,43.88-.39,4.58.07,9.16.41,13.73.47,5.67,1.12,11.39,2.9,16.81.06.17.12.33.17.5-.26.27-.51.56-.73.92-3.07,7.52-6.65,14.83-10.93,21.74-4.18,6.33-3.72,5.2-7.12,9.68-4.27,5.44-5,6.73-10.49,12.21-1.67,1.73-3.81,3.77-5.24,5.15-9.46-1.34-19.2-.62-27.91,3.58-5.97,2.56-11.08,6.86-14.87,12.11-2.48,3.34-3.27,7.36-3.18,11.33-.13.05-.25.11-.38.17-3.57,1.07-2.76.67-4.61.82-.23,0-.46,0-.69-.02-.83-.15-1.64-.39-2.44-.66-1.65-.84-3.19-1.88-4.69-2.97-.7-.58-1.31-1.26-1.9-1.96-.13-.19-.26-.39-.39-.58-3.18-6.18-4.39-7.16-5.55-11.82-.46-1.79-.59-1.06-.49-4.23.72-.4,1.43-.8,2.15-1.21,19.73-10.5,41.86-28.57,51.71-43.04,8.77-11.47,16.14-24.14,20.28-38.03,2.58-8.74,4.04-17.8,4-26.92,5.34-2.6,10.79-4.99,16.21-7.39-.2.08-.57.23-.79.32,1.61-.64,3.17-1.43,4.75-2.15.14-.06.27-.11.4-.18.02,0,.03-.01.02-.01.2-.12.4-.24.58-.4,3.04-2.01,1.94-7.09-1.56-7.9-2.18-.5-4.3.72-6.41,1.16-3.63,1.2-7.22,2.55-10.65,4.25-1.05.51-2.08,1.04-3.11,1.59-.36-3.07-.91-6.12-1.89-9.05,2.78-2.07,5.66-4,8.74-5.8,2.94-1.9,7.77-3.95,8.54-4.63,2.79-1.97.56-6.48-2.71-5.56-6.61,1.21-12.48,4.6-17.75,8.69-3.64-6.94-8.6-13.2-13.79-19.02-5.33-5.15-10.94-10.01-16.53-14.87-.58-.51-1.15-1.04-1.69-1.59-.41-.49-.83-.97-1.23-1.46-.11-.16-.22-.32-.31-.49-.6-2.06-.42-1.57-1.06-8.12-.53-5.22-1.86-10.3-3.17-15.37-2.04-9.87-7.05-20.38-17.96-22.36-1.91-.38-3.86-.65-5.81-.58-1.42-3.13-3.88-5.71-6.16-8.24-4.58-5.14-10.09-9.32-15.48-13.57-1.46-1.12-2.94-2.21-4.44-3.27,9.31-4.66,18.41-8.62,26.04-11.4,4.31-1.59,8.82-3.11,13.41-4.53.04.03.08.06.12.08,7.16,3.8,9.64,6.15,14.45,10.06,4.96,4.32,9.52,9.13,13.54,14.35.2.27.5.68.77,1.04.68.88.33.44-.04-.05.32.42.65.84.96,1.28,4.97,6.81,9.39,14.01,14.71,20.56,3.79,5.05,5.9,7.07,9.02,11.76,2.68,3.8,4.29,8.53,8,11.48,2.06,1.34,4.87.43,6.21-1.51,3.57-4.76,2.21-12.03.96-17.43-3.18-10.65-8.6-20.49-13.75-30.29-3.18-5.94-6.73-11.64-10.78-17.03-4.05-5.65-6.41-9.17-10-12.83,6.71-1.27,13.06-2.22,18.7-2.76,16.03-1.52,27.89-.86,41.16,1.71,1.29.23,2.58.48,3.87.72.03.17.04.34.09.51,2.14,8.14,4.6,16.25,5.82,24.59.02.51.34,3.99.32,4.9.16,4.98-.1,9.95-.23,14.93-.18,11.44-2.27,22.8-1.52,34.27.17,3.74.22,7.58,1.61,11.11,1.69,5.72,6.82,6.08,11.2,2.89,1.03-.34,4.99-4.81,6.94-8.22,6.71-10.91,9.05-23.75,11.32-36.17,2.16-12.91,3.27-18.83,2.96-31.2.06-2.96-.09-5.89-.54-8.8,10.74,3.01,21.33,6.52,28.11,9.77,4.85,2.3,9.53,4.92,14.09,7.77-4.28,12.21-7.72,24.72-12.25,36.84-2.46,6.6-7.42,16.27-9.49,26.94-1.79,9.49,6.64,12.18,13.89,7.94,3.75-2.34,6.92-5.49,9.7-8.91,3.06-3.76,3.65-4.53,7.16-9.81,5.36-8.53,10.47-17.23,14.99-26.23.64-1.47,1.31-2.93,1.93-4.42,3.07,3.8,4.86,6.43,9.04,12.84,5.79,9.34,11.82,18.63,15.91,28.87.11.27.23.57.36.89-5.12,5.25-10.25,10.54-16.07,15.02-4.93,3.68-13.42,9.19-20.32,14.37-4.26,3.51-12.99,8.89-7.42,14.93,7.34,6.99,24.79-3.19,32.95-6.16,6.87-3.22,14.49-5.81,19.94-11.29.19-.22.56-.68.92-1.15,4.33,13.07,8.63,26.19,11.69,39.62-8.26,3.17-16.75,5.81-25.47,7.37-8.54,1.29-18.14,4.77-23.39,7.15-4.4,2.49-3.55,8.08-.2,11.12,4.55,4.15,10.83,5.58,16.75,6.53,2.74.43,5.38.94,10.49,1.34,5.64.62,11.28.28,16.87-.67,3.85-.63,5.89-1.09,7.84-1.89-.08.92-.17,1.83-.26,2.75ZM276.93,195.17c.02-.09.04-.2.07-.28.52-3.27,1.02-5.95,1.58-8.32,1,.8,2.03,1.57,3.13,2.24,9.16,6.09,19.67,9.55,29.63,14.09-6.1-.85-16.64-2.61-25.81-5.18-2.72-.76-5.43-1.54-8.11-2.4-.16-.04-.32-.1-.48-.15ZM301.01,152.8c.52.83,1.29,1.6,2.02,2.5,2.44,2.64,5.22,4.93,8.11,7.05,3.36,2.38,7.32,4.93,10.35,7.14-1.99-.56-4.06-1.23-5.69-1.92-2.03-.77-6.27-2.55-10.92-4.98-3.21-1.69-6.35-3.52-9.34-5.58,1.68-1.43,3.54-2.85,5.47-4.2ZM436.13,193.64c-1.76.34-15.21,1.31-21.58,1.1-5.4-.38-6.93-.36-13.07-2.29-1-.44-1.77-.84-2.38-1.2,7.62-1.65,9.53-.97,21.75-3.44,6.26-1.55,12.28-3.91,18.23-6.38,1.53-.64,3.06-1.31,4.57-1.99.84,4.23.98,6.95,1.3,12.88-4.25.54-2.16.3-8.83,1.31Z"/>
              </g>
            </g>
          </g>
          <path d="M198.22,305.28c0-.06-.02-.12-.02-.17,0,.04.01.09.02.13,0,.01,0,.02,0,.03Z"/>
        </g>
        <path d="M187.79,76.64s-.06-.07-.09-.11c.04.06.09.11.13.17-.01-.02-.03-.04-.04-.06Z"/>
      </g>
      <path d="M186.16,101.88c-.18-6.09-1.58-16.46-9.18-17.07-2.85-.03-4.88,2.26-6.74,4.12-1.84,1.99-4.7,5.54-7.12,10.66-.75,1.55-1.48,3.1-2.16,4.67-.51,1.25-1.27,2.43-1.21,3.83.15,6.13,8.74,7.2,10.38,1.3.88-2.39,3.35-8,5.35-11.99.17.96.27,1.73.03-.05.04.41.11.82.17,1.23.29,2.3.45,4.62.64,6.93.09,1.83.42,3.64.68,5.45.07.64.11,1.28.32,1.88.07.2.13.4.19.6-.54,2.52,2.18,4.99,4.62,3.84.88-.28,1.47-1.02,2.01-1.76.48-.6.91-1.24,1.21-1.95.04-.09.42-.81.48-1.21.54-3.48.6-6.99.36-10.5Z"/>
      <path d="M49.16,169.29c-.54-2.08-2.58-2.96-4.15-4.17-2.76-2.01-5.78-3.63-8.83-5.14-3.51-1.62-7.43-2.98-11.31-1.98-2.47.68-4.78,2.33-5.55,4.85-.76,2.56.15,5.2.95,7.64,1.24,3.53,2.87,6.9,4.69,10.16,1.18,2.16,2.41,4.29,3.75,6.36.6.83.99,1.87,1.88,2.41,3.46,2.87,8.43-1.49,6.17-5.35-4.09-6.7-7.08-12.06-8.91-17.57,2.94.55,7.25,2.86,13.53,6.75,1.4.93,3,1.85,4.73,1.31,2.24-.55,3.69-3.07,3.05-5.29Z"/>
      <path d="M128.23,238.36c-1.96-2.07-5.59-1.57-6.98.89-1.04,1.95-.46,4.26-.66,6.4-.05.42-.16.82-.3,1.22-.11.23-.28.54-.48.85-.09.15-.2.28-.3.42-.04.04-.06.07-.11.13-.31.34-.86.86-3.26,2.22-2.19,1.16-2.06.94-2.88,1.21-.14.03-.28.05-.41.08-.5.03-1.57.09-2.08,0-.63-.1-3.12-.34-4.62-1.44-1.86-1.54-4.46-2.63-6.55-.84-2.54,1.68-2.23,5.91.44,7.33,5.29,3.95,12.93,4.94,18.82,1.77,4.86-2.53,9.8-6.58,10.13-12.46.06-.49.11-.97.15-1.46-.02.2-.04.34-.06.46.07-.55.19-1.55.24-2.02.32-1.67.23-3.51-1.08-4.75Z"/>
      <path d="M207.17,199.09c-.55-4.88-7.66-4.56-7.74.36-.02.69.22,1.3.5,1.91.07.19.14.41.21.65.13.43.22.88.29,1.32.02.22.05.53.07.82-.04,1.22.18.71-.39,2.65-.48.95-1.1,1.83-1.75,2.68-.66.81-2.48,2.57-3.85,2.96-.11.01-.29.03-.56.04-2.31-.09-1.09.18-3.55-.65-.43-.2-1.1-.48-1.51-.63-.63-.22.63.27.85.37-2.75-.79-5.07-3.62-8.1-2.81-3.84.93-4.57,6.45-1.1,8.35,3.77,2.04,7.99,3.75,12.34,2.9,3.35-.76,6.41-2.86,8.66-5.42,2.82-3.29,7.02-8.3,5.62-15.5Z"/>
      <path d="M173.41,254.09c.04.05.06.06.03.02-1.08-1.99-2.59-3.68-4.05-5.4-.57-.49-1.06-1.1-1.59-1.65.44-1.03.73-2.14.94-3.18.43-1.8.55-3.64.7-5.48.08-.34.13-.68.14-1.03.54-5.78-7.8-6.65-8.45-.87-.48,2.98-.52,5.81-.72,7.34-.67.02-1.6-.02-2.78-.13-3.01-.5-1.23-.5-3.77-1.04-3.85-.62-5.66,4.83-2.27,6.74,3.09,1.57,6.67,2.26,10.14,2.05.09.21.17.41.26.62,1.37,2.95,2.99,6.04,5.61,8.06.26.09.51.23.76.34,2.04.97,4.97.03,5.49-2.55,0-.03,0-.06.01-.09.02-.05.03-.08.05-.13.31-1.23.14-2.52-.51-3.59Z"/>
    </g>
  </g>
</svg>