<?xml version="1.0" encoding="UTF-8"?>
<svg id="Layer_2" data-name="Layer 2" xmlns="http://www.w3.org/2000/svg" viewBox="0 0 370.85 451.41">
  <g id="Layer_2-2" data-name="Layer 2">
    <g>
      <g>
        <path d="M133.35,222.62c-.19-.03-.37-.05-.56-.08,1.16.17,1.14.17.56.08Z"/>
        <path d="M159.06,431.18c-6.81-1.45-12.03-.26-15.94-1.78-.13-.04-.22-.08-.32-.11-.59-.28-1.16-.6-1.69-.98-.25-.23-.49-.48-.65-.65-.12-.19-.22-.39-.32-.58-.08-.26-.14-.52-.19-.74-.02-.28-.03-.57-.02-.85.97-1.82,1.32-1.74,3.99-4.66,2.71-3.17,5.36-6.56,6.81-10.51.62-1.77,1.48-3.82.4-5.58-1.67-3.08-6.56-2.44-7.37.98-1.04,3.46-.49,1.97-1.74,4.31-1.68,2.48-1.42,2.21-2.36,3.25-2.32-1.13-4.66-2.21-6.98-3.34-8.23-4.66-9.55-5.92-15.91-12.66-7.27-8.34-10.35-13.31-13.48-24.45-3.49-12.19-4.2-19.25-2.97-33.16.64-5.72,1.84-15.91,4.17-25.54,2.99-11.9,7.14-23.47,11.35-34.98,2.17-5.9,3.85-11.96,5.73-17.96,2.52-8.06,4.99-16.19,6.17-24.57.53-3.89.83-7.82.97-11.74-.04-1,.15-2.06.07-3.06,1.31.29,3.64.67,4.56.81,1.15.16,2.32.26,3.48.21.13.01.27.03.43.04.32.02.65.02.97.01.32.02.64,0,.96-.06,3.1-.2,4.93-4.08,3.33-6.69-.23-.35-.5-.67-.79-.96,0,0,0,0,0,0,0,0,0,0-.01-.01-.28-.28-.59-.53-.94-.73-.04-.03-.08-.06-.12-.08l-.06-.03s-.08-.04-.12-.06c-.36-.19-.73-.38-1.1-.55-.4-.24-.81-.45-1.23-.66-.79-.42-1.59-.84-2.44-1.13-.37-.15-.73-.29-1.1-.43-2.61-1.17-6.86-2.38-11.73-5.04-8.61-4.83-9.77-6.28-16.31-11.49.52.41,1.28.98.62.44-.44-.41-.85-.79-1.24-1.16,2.81-1.9,5.71-3.8,8.65-5.64,2.34-1.49,4.69-2.98,7.09-4.39,1.9-.95,3.72-2.35,4.21-4.53,1.43-5.04-4.4-9.52-8.91-6.82-6.34,4.01-12.58,8.2-18.62,12.67-.23-.37-.47-.75-.73-1.17-2.02-3.61-3.54-7.45-4.61-11.42,8.54-2.15,17.16-3.88,21.18-4.39,2.19-.51,4.84-.07,6.68-1.53,4.31-3.09.91-9.99-4.2-8.6-8.53,1.22-17.07,2.87-25.34,5.36-1.28-12.37,1.17-25.15,5.9-35.33.1-.24.19-.48.29-.72.39-.92.77-1.84,1.18-2.75,2.03-4.6,4.27-9.1,6.6-13.56,1.44-2.72,2.93-5.41,4.41-8.1.45-.72.7-1.5.73-2.33.14-.9.08-1.73-.12-2.48.41-1.09.5-2.32.14-3.59-1.67-7.53-3.23-15.08-4.47-22.69-.49-2.39-1.48-10.34-.61-17.03.57-6.11,1.39-11.13,6.71-13.29,4.04-1.27,19.07,4.38,28.13,12.66,3.46,2.96,6.7,6.16,10.15,9.13,1.11.86,1.99,2.14,3.35,2.58,3,1.5,6.82-1.2,6.69-4.49-.02-2.74-2.45-4.35-4.06-6.26-7.86-8.28-16.75-15.96-27.36-20.44-8.51-3.83-18.95-6.94-26.8-.06-5.63,4.46-7.74,11.63-8.42,18.51-.99,6.54-.71,13.17.36,19.69,1.05,7.2,2.42,14.34,3.92,21.46.19.98.36,2.01.64,2.99-7.66,14.07-15.61,28.56-17.84,44.63-1.05,8.34-1.09,16.83.09,25.16-2.8,1.15-5.56,2.43-8.25,3.85-2.42,1.28-4.78,2.67-7.09,4.13-1.11.68-2.41,1.34-2.71,2.73-.46,1.65.63,3.5,2.29,3.9,2.43.21,1.67-.16,3.06-.61,1.65-.73,3.32-1.43,4.99-2.13,2.2-1.12,5.52-2.31,9.34-3.49.08.34.16.68.25,1.02,1.28,5.6,3.45,10.95,6.38,15.85-1.97,1.64-3.93,3.3-5.83,5.02-2.72,2.53-5.38,5.12-7.85,7.89-1.4,1.81-3.89,3.25-3.9,5.76-.03,2.05,1.81,3.87,3.87,3.82.86-.06,1.68-.31,2.34-.83,1.09-.78,2.19-1.55,3.28-2.32,3.8-2.72,8.83-6.5,14.58-10.64,3.75,4.15,8.28,7.49,12.77,10.8,4.02,3,8.42,5.39,13.05,7.23-.58.67-.94,1.55-.93,2.62-.39,3.6-1.4,11.27-3.39,17.65-2.27,7.6-5.26,14.95-8.21,22.3-4.27,11.56-11.35,27.86-15.71,44.15-2.57,8.66-3.33,17.68-4.28,26.63-.72,8.3-1.37,16.71-.49,25.02,1.08,8.9,3.06,17.85,6.33,26.25-7.05-1.34-14.97-3.53-19.48-6.81-.78-.65-2.47-2.08-2.98-2.65-4.11-4.24-3.84-3.9-6.13-7.39-4.64-8.55-7.41-19.14-7.16-30.47.33-10.58,1.88-16.12,4.15-27.12,2.64-14.99,2.51-25.84-2.07-40.37-1.75-5.75-4.28-10.1-6.11-12.75-3.04-4.63-6.97-8.54-11.56-11.63-4.54-3.33-9.65-6.44-15.45-6.46-14.06-.04-26.22,10.19-27.79,24.29-.68,4.94-.09,10.01,1.08,14.82,1.38,4.83,3.47,9.42,4.84,14.26,2.34,8.32,2.5,10.91,5.62,21.52,2.12,6.38,1.09,2.95,3.04,8.94.45,1.24.62,2.5,1.06,3.72.87,3.92,1.28,6.86,1.23,6.62,0,.34.03.68.09,1.01.02.28.04.57.06.85,1.04,15.66-.54,25.96,3.12,39.93,1.5,5.17,2.5,8.16,5.9,14.61,4.17,6.79,9.42,13.1,15.95,17.73,10.79,7.52,24.06,10.23,36.92,11.74,5.32.49,10.69-.02,15.97-.71,5.92-.8,9.39-1.33,16.92-4.03,1.3-.55,2.53-1.1,3.62-1.64,2.84,2.3,5.88,4.34,9.14,6.02,2.23,1.1,5.06,2.18,7.73,3.02-.04.06-.08.12-.12.19-3.99,7.45,1.23,16.06,8.9,18.19,5.4,1.35,11.13.79,16.48-.51.69-.16,1.46-.41,1.89-.57.55-.18,1.06-.46,1.47-.87,2.24-2.07.77-6.01-2.13-6.33ZM97.33,407.43c-5.68.31-11.39.99-17.08.62-1.86-.14-7.39-1-12.7-2.17-6.66-1.49-12.88-2.74-20.17-7.37-3.6-1.94-10.11-8.95-12.39-12.95-2.66-4.58-3.34-6.22-4.36-9.14-.41-1.26-.22-.47-.13.32-.49-3.08-1.6-6.06-2.01-9.18-.3-1.36-.63-7.59-.42-8.9.74-8.5,1.31-12.73,1.43-23.11.01-.88.03-1.77.02-2.65.05-.45.07-.9.07-1.35.1-2.68.14-5.38-.16-8.05.01-1.23-.15-2.49-.35-3.7-.36-2.78-.74-5.57-1.48-8.28-3.89-12.88-4.26-16.61-8.88-27.84-2.85-6.91-3.69-7.49-4.96-12.23-1.06-5.24-.76-2.35-.87-8.02.02-.33.06-.66.09-.99.11-.66.24-1.31.42-1.96.75-2.17.13-1.36,2.41-4.81.67-.81,1.78-2.1,2.35-2.52,1.42-1.16.59-.78,4.14-2.52,1.38-.51,2.79-.91,4.23-1.19.28-.05.55-.09.83-.14.11-.01.21-.02.35-.04.53-.07,1.33-.03,1.86,0,3.76.71,6.61,2.77,11.98,6.34.38.32.53.43.55.43,1.53,1.27,2.93,2.7,4.22,4.22.45.51.87,1.06,1.3,1.59.14.19.29.4.44.61.16.23.34.46.52.69,1.79,2.43,3.41,5,4.6,7.78,1.58,2.93,3.95,12.9,4.17,17.03.45,4.09-.31,10.03-.41,11.07-.66,7.44-6.07,25.47-7.18,36.72-.47,5.1-.05,10.25.67,15.3-.08,1.28,2.33,11.83,4.6,16.93,2.83,7.38,8.11,13.81,14.3,18.65,5.71,3.78,12.57,5.46,19.21,6.79,3.31.62,6.63,1.17,9.97,1.54.64.03,1.3.13,1.96.18,2.6,3.78,5.47,7.42,8.63,10.77-3.35.77-7.1,1.22-11.78,1.53Z"/>
      </g>
      <g>
        <path d="M282.81,205.77s.04-.02.05-.03c-.02,0-.03.02-.05.03Z"/>
        <path d="M368.27,123.98c-2.86-1.19-1.37-.47-5.68-.85-6.29-.33-12.61.17-18.82,1.19-4.44.68-8.82,1.67-13.17,2.8-.48-3.61-1.12-7.16-1.93-10.64,4.39-1.81,8.49-3.45,12.77-5.25.89-.35,1.78-.7,2.68-1.05,4.35-2.05,7.71-1.71,8.68-6.57.51-2.71-1.49-5.39-4.08-6.09-3.1-.66-6.06,1.26-8.98,2.05-4.85,1.7-9.66,3.5-14.38,5.53-4.82-13.59-12.31-26.09-22.03-37.48-2.55-2.96-5.14-5.9-7.78-8.78-1.25-1.2-2.31-2.79-3.79-3.71-1.85-7.05-3.71-14.12-5.72-21.13-1.71-7.02-4.28-13.94-8.53-19.84-4.14-5.77-9.25-11.72-16.31-13.74-7.64-1.55-11.75,1.27-17.66,6.08-9.39,8.21-14.47,19.92-20.1,30.78-.74,1.63-1.84,3.27-2.32,5-7.43-.47-18.1.86-26.06,2.22-4.72.85-9.47,1.63-14.09,2.93-4.68,1.44-9.21,3.35-13.7,5.29-3.19,1.39-6.35,2.83-9.53,4.23-1.38.64-3.07,1-3.9,2.4-3.22,3.83.77,9.78,5.57,8.39,7.16-2.26,14.18-5.01,21.47-6.88,8.37-2.09,15.47-2.95,19.82-3.46,7.02-.66,14.05-1.25,21.11-1.31,1.37-.04,2.74-.17,4.07-.5,1.25-.24,2.42-.84,3.33-1.73,1.54-1.45,2.09-3.54,1.8-5.5.49-.42.92-.94,1.26-1.56,4.64-9.58,12.84-25.24,16.34-29.39,1.76-2.04,3.55-4.09,5.63-5.82.12-.1.21-.17.28-.23.36-.25.72-.49,1.1-.71.24-.07.47-.13.71-.18.23-.01.47-.02.7-.01.29.07.55.15.76.21.33.16.66.34.97.53.38.25.68.44.88.59.34.27.68.53,1.04.78,1.3,1.06,2.49,2.24,3.67,3.43,1.63,1.73,3.17,3.54,4.62,5.42,4.39,6.58,4.84,8.05,7.04,15.06,1.39,5.54,2.73,11.09,3.74,16.72.73,2.81.73,6.07,2.48,8.47.29.39.61.71.95.99.27.55.64,1.09,1.13,1.59,10.41,10.77,13.93,14.63,19.38,22.91,5.91,9.1,8.58,14.79,11.29,22.58-2.38,1.1-4.75,2.24-7.09,3.42-1.9,1.16-4.41,1.71-5.74,3.59-3.86,4.71,1.96,11.35,7.22,8.33,3.16-1.53,6.05-2.87,8.78-4.09.55,2.9.8,5.64,1.09,9.37-3.69,1.17-7.38,2.37-11.04,3.62-1.49.49-3.02.87-4.17,1.99-3.96,4.02-.14,10.81,5.36,9.36,2.92-.94,6.18-1.88,9.59-2.78-.31,1.77-.79,3.7-1.48,6.44-2.68,8.35-3.64,10.82-9.48,19.38-8.05,10.04-23.25,22.21-28.68,27.18-.67.68-1.38,1.32-2.04,2.01-.29.24-.55.51-.76.83-2.3,2.56-.66,7.08,2.64,7.82,1.25.24,2.54.19,3.66-.47-.04.02-.11.04-.19.07,1.09-.46,2.14-1.03,3.22-1.53,1.47-.79,2.89-1.65,4.28-2.56,1.96,13.48,4.26,26.95,8.38,39.96,4.84,14.53,11.83,28.2,18.28,42.05,3.16,6.24,8.81,25.9,10.91,38.57,2.28,12.82,4.18,25.79,1.09,38.28-1.42,6.82-4.48,17.67-5.63,19.41-2.13,4.47-4.93,8.58-7.5,12.8-2.02,3.2-3.96,6.47-6.21,9.52-1.26,1.53-2.63,2.97-3.86,4.52.21-.3.35-.51.14-.24-.23.23-.43.46-.61.71-4.31-1.87-4.87-1.42-7.45-2.97-3.31-1.61-4.86-3.05-5.35-3.4-1.17-.82-2.23-2.09-3.75-2.11-4.15-.69-6.77,4.7-3.78,7.63,4.08,4.81,5.62,6.44,8.85,8.01,2.21,1.07,4.56,1.75,6.88,2.5.32.16.64.35.94.54.08.07.16.13.23.2.24.23.46.48.67.74.02.03.03.04.05.07.11.18.19.38.29.57.07.24.14.48.19.72.03.46.03.92,0,1.38-.15.9-.35,1.79-.65,2.66-.11.22-.22.44-.35.66-.05.08-.11.16-.16.24-.05.05-.09.09-.15.16-.1.1-.22.19-.32.28-.35.22-.86.52-1.29.69.23.13-6.02,1.6-8.48,2.04-.08,0-.17.01-.29.02-.84.03-1.67.08-2.5.04-.13-.01-.25-.02-.38-.02-.03,0-.06,0-.09,0,.02,0,.04,0,.06,0-.2,0-.41,0-.61.05-1.63.1-3.04,1.46-3.44,3.01-.38,1.45.13,2.98,1.16,3.99,0,0-.02-.01-.03-.01.02.02.04.03.06.04.24.24.52.44.81.61,1.21.84,2.58,1.45,4.01,1.74,2.69.63,5.39.03,8.02-.58,2.45-.59,4.92-1.18,7.24-2.2,5.7-2.44,8.94-9.2,8.3-15.21-.11-1.59-.54-3.13-1.19-4.55.67-.48,1.26-1.07,1.87-1.62,1.78-1.66,3.3-3.57,4.77-5.5,2.74-3.68,5.12-7.63,7.63-11.47,2.65-4.1,5.38-8.18,7.3-12.68,2.33-5.18,3.73-10.68,5.05-16.18,1.68-6.54,2.9-13.24,2.98-20.01-.3-17.38-2.63-34.8-6.85-51.65-3.11-11.2-8.03-21.76-13.28-32.09-7.6-15.65-11.5-24.28-15.68-41.81-1.54-6.33-3.25-12.61-4.65-18.98-.47-2.02-.96-4.03-1.4-6.05-.22-.79-.33-1.64-.51-2.46.95-.8,1.89-1.61,2.82-2.43,6.51-5.7,12.8-11.72,17.65-18.94,6.41-9.96,10.83-21.6,11.17-33.48,10.05-2.25,19.78-3.98,25.38-4.55,2.93-.31,5.83-.81,8.74-1.26.08-.01.16-.02.23-.04.64,0,1.24-.14,1.8-.43.65-.21,1.21-.56,1.69-1.07,2.43-2.3,1.85-6.58-1.05-8.21Z"/>
      </g>
      <path d="M268.87,45.77c-.55-5.55-.57-11.81-4.25-16.35-2.02-2.32-5.23-3.71-8.31-3.06-2.43.47-4.04,2.52-5.26,4.52-1.77,2.85-3.05,5.96-4.3,9.06-1.48,3.65-.97,2.43-2.65,6.32-.53.9-.67,2.01-.4,3.02.24,1.03.88,1.81,1.69,2.3.15.89.55,1.74,1.25,2.41,1.28,1.41,3.24,1.44,5,1.51,2.16.11,4.33.13,6.48-.04,2.74-.42,5.81-.28,7.97-2.27-.02.02-.02.02.02,0,1.02-.59,1.86-1.48,2.23-2.61.48-1.54.56-3.2.51-4.81ZM260.18,47.41c-3.56-.49-4.26-.41-6.11-.77-.46-.04-.93-.14-1.39-.25,1.79-4.41,2.58-7.19,5.74-12.21.13.07.26.14.39.22.06.06.14.13.24.22.08.09.14.15.19.21.09.13.19.26.27.4.9,1.5.93,2.1,1.79,5.44.81,2.93,1.42,5.29,1.7,6.95-.41-.05-.83-.07-1.25-.07-.43-.03-1.17-.11-1.56-.15Z"/>
      <path d="M140.36,67.6c-1.4-2.3-10.48-10.61-16.58-11.81-5.61-1.19-9.1,3-8.92,8.36.32,5.27,2.48,10.2,3.81,15.27.57,1.95,1.16,3.89,1.79,5.81.42,1.49.96,3.07,2.42,3.83,1.51.92,3.23.7,4.54-.16.29.04.58.06.88.05,1.13,0,2.21-.34,3.14-.97.14-.09.27-.19.41-.28,0,0,.04-.02.12-.09.15-.1.29-.21.44-.32,0,0,0,0,0,0,3.78-2.93,2.16-1.26,5.61-4.67,3.52-4.05,7.28-9.45,2.34-15.03ZM135.02,72.39c-.13.09-.36.27-.67.53-1.98,1.71-1.18,1.24-4.94,3.21-.42.27-1.35.75-2.07,1.14-1.44-5.11-2.93-10.6-3.17-12.18,1.22.37,1.2.5,1.85.73,4.57,2.18,8.37,5.09,9.31,6.28-.1.1-.2.2-.3.29Z"/>
      <path d="M168.58,125.99c-1.91-6.49-10.53-6.69-12.95-.48-.89,2.2-1.1,4.81-.56,7.2.28,2.34,1.14,4.59,2.78,6.22,2.31,2.28,6.31,2.35,8.48-.15.34-.43.72-.84.96-1.34-.03.04-.06.07-.08.11.18-.23.35-.47.49-.73,1.62-3.33,1.77-7.26.88-10.82Z"/>
      <path d="M262.21,103c-1.89-1.22-4.46-1.36-6.46.02-4.9,3.16-5.24,10.95-1.41,15.09,3.73,3.76,9.87,1.95,11.58-2.88,1.98-4.68.22-10.53-3.71-12.22Z"/>
      <path d="M231.18,155.53c-.72-2.41-3.16-3.69-4.98-5.22-2.73-2.13-1.59-.89-4.76-4.19-1.02-1-1.81-2.39-2.97-3.24-.03-.16-.07-.31-.1-.47-.17-.63-.26-1.3-.44-1.94.56-.58,1.08-1.19,1.56-1.81,2.3-2.77,4.58-6.51,3.35-10.21-3.34-8.41-17.84-4-22.29,1.37-2.29,2.49-2.56,6.62-.24,9.18,1.22,1.42,2.98,2.22,4.57,3.14,1.66.8,3.46,1.89,5.31,2.56.09.4.18.8.25,1.2,0,.12,0,.21,0,.3-.77,3.22-4.2,8.81-6.12,14.52-.77,2.17-2.05,4.68-.75,6.88,1.33,2.45,4.89,2.91,6.84.94,1.47-1.5,2.71-6.42,3.39-7.5.91-2.06,1.91-4.12,2.78-6.22,1.93,1.62,4,3.07,6.17,4.41.16.11.31.23.46.34,1.59,1.48,3.85,2.17,5.84,1.02,1.76-.98,2.61-3.13,2.11-5.06ZM206.41,134.22c2.19-2.45,7.35-3.7,9.4-3.5-.07.11-.15.22-.23.33-1.61,1.94-.65,1.07-3.12,3.69-.62.53-1.14,1.15-1.55,1.83-1.27-.51-2.42-1.17-4.49-2.36Z"/>
      <g>
        <path d="M196.72,445.28c.13-.05.26-.11.39-.16-.28.11-.53.2-.39.16Z"/>
        <path d="M214.81,337.39c.02-.27,0-.54-.06-.81-.22-3.09-4.41-4.47-6.54-2.25-.54.39-1.03,1.69-1,1.74-.21.54-.38,1.11-.56,1.66-.78,2.23-1.25,4.52-1.53,6.86-1.2,8.81-1.54,17.39-1.98,29.01-.71,12.29-.55,24.59-.74,36.89-.36,14.11-.51,21.02-5.8,24.31-4.31,2.28-6.65,2.95-10.45,3.05-3.22-.13-4.65-.85-6.15-2.19-.12-.12-.22-.25-.33-.37-.03-.05-.05-.08-.09-.13-.14-.24-.3-.46-.46-.68-.1-.17-.2-.34-.29-.52-.13-.41-.25-.83-.34-1.25-.18-.64,0-7.15.22-11.01.23-2.49.82-11.42-1.28-16.89-2.22-5.84-3.57-8.71-7.83-14.54-.49-.81-1.1-1.55-1.62-2.34-4.79-6.84-10.17-17.3-11.39-21.05.18.44.36.88.54,1.33-1.21-2.97-2.14-6.04-3.05-9.11-2.23-7.44-3.54-15.1-4.62-22.78-.62-4.42-.35-1.97-.75-5.91-.01-1.8-.21-3.72-1.6-5.03-3.16-3.35-9.22-.9-9.09,3.75,1.41,15.7,3.63,31.77,10.11,46.28,2.48,5.1,5.42,10.01,8.79,14.57,1.98,2.42,3.76,5.21,6.25,7.11-1.61-1.3-.56-.28.19.65.35.4,1.17,1.45,1.64,2.04,1.19,1.64,2.33,3.32,3.12,5.19.05.11.1.22.15.32.1.27.2.54.31.82,1.12,3.15,1.67,6.47,2.2,9.76.7,5.84-.38,9.48-.37,16.85,0,.01,0,.02,0,.03-.28,2.12-.14,4.36.7,6.34,3.07,6.29,10.88,8.8,17.49,8.17,3.14-.3,6.16-1.09,9.05-2.35,0,0,0,0,0,0,.07-.03.14-.06.21-.09,6.06-2.21,10.54-7.46,12.65-13.47,2.96-8.44,2.43-17.62,2.97-26.43.61-18.55,1.52-37.09,1.17-55.65,0-6.13.21-6.14.17-11.87Z"/>
        <path d="M197.65,444.9c-.18.07-.35.14-.53.22.36-.14.76-.29.53-.22Z"/>
      </g>
      <path d="M297.05,318.67c-1.96-3.56-7.62-2.69-8.37,1.34,0-.02.02-.05.03-.07-.05.13-.11.27-.15.41-.6,1.89-2.87,8.59-3.92,14.07-3.81,17.84-9.5,27.51-16.9,44.34-3.87,9.06-7.82,18.32-8.8,28.2-.68,5.6-.51,14.04,3.25,18.94l-.19-.19c.37.49.75.98,1.13,1.46,2.78,4.28,2.67,3.71,3.59,7.66.02.17.03.34.04.52.08.53.01,1.7-.02,2.23-.05.29-.11.57-.19.85-.12.23-.24.45-.38.67-.18.19-.37.38-.57.56,0,0-.01.01-.02.02-.44.28-1.07.59-1.44.76-.63.23-1.26.43-1.91.59-4.36.96-6.79.43-8.37.25-6.32-1.67-5.84-1.44-10.39-3.87-.7-.41-1.37-.87-2.03-1.35-.76-.62-1.49-1.28-2.17-1.98-.37-.38-.72-.77-1.05-1.17-.06-.1-.14-.21-.23-.36-.65-1-1.25-2.03-1.75-3.11-.72-1.93-1.36-3.88-1.84-5.88-.52-2.13-.87-4.3-1.2-6.46-1.01-9.03-.6-18.15-.62-27.22-.22-13.12-.47-18.94-1.23-32.4-.08-3.49-.3-6.98-.34-10.48-.1-1.38.43-2.86-.23-4.14-1.3-3.58-6.8-3.23-7.7.51-.77,4.56-.71,9.19-1.04,13.79l.15-1.2c-.6,6.15-1.4,18.68-1.53,19.73-.21,8.22-.14,16.44.08,24.65.11,5.66.21,11.32,1.03,16.93.31,2.79,1.1,18.28,7.45,24.08,9.4,9.09,23.49,11.52,33.12,9.28,1.52-.35,2.99-.86,4.43-1.47.03-.01.05-.02.07-.03.03-.01.05-.02.08-.03.1-.04.21-.09.31-.13-.06.03-.13.05-.19.08,2.09-.85,4.1-2.07,5.57-3.81,5-6.46,3.74-14.38,1.76-20.15-.67-1.74-1.4-3.47-2.3-5.11.01.05.03.1.04.15-.41-.85-.93-1.67-1.35-2.53-.03-.07-.06-.15-.1-.25-1.14-3.87-.71-3.01-.93-4.97-.2-4.38.16-6.71.43-8.73,0,0,.02-.08.07-.32.6-2.68,1.44-5.31,2.35-7.9,1.49-4.23,1.91-5.14,2.52-6.62,7.35-17.19,16.78-33.81,19.86-52.46.83-4.2,1.58-8.44,2.16-12.67-.06.45-.23,1.74-.05.71.13-.57.27-1.44.36-2.09.36-1.2.24-2.53-.39-3.62Z"/>
    </g>
  </g>
</svg>