<?xml version="1.0" encoding="UTF-8"?>
<svg id="Layer_2" data-name="Layer 2" xmlns="http://www.w3.org/2000/svg" viewBox="0 0 482.78 459.21">
  <g id="Layer_2-2" data-name="Layer 2">
    <g>
      <g>
        <path d="M382.83,358.38c-.04.33-.09.67-.13,1,0,.03,0,.06,0,.09.05-.36.09-.73.14-1.09Z"/>
        <path d="M470.9,286.03c4.84-17.14,11.84-34.18,11.88-52.24-.18-9.55-2.1-18.96-2.58-28.49-.4-5.98-1.01-11.99-2.53-17.8-2.69-9.26-6.89-18-11.14-26.63-3.31-7.11-10.65-16.99-11.86-19.77-.23-.41-.46-.82-.67-1.23-.05-.17-.1-.34-.15-.51.06-6.19.41-2.49.84-10.89,1.46-22.74.7-46.67-9.73-67.41-6.12-12.05-15.14-22.65-25.45-31.34-8.12-6.51-17.43-11.37-26.82-15.78-9.96-4.46-20.15-8.68-30.9-10.82-4.54-.99-9.16-1.6-13.78-2.12-.25-.03-.42-.04-.51-.05-.89-.12-1.55-.19-.76-.09-.44-.06-.88-.11-1.32-.16-4.63-.57-9.3-.65-13.96-.68-12.62.15-25.3.12-37.85,1.61-6.21.7-12.25,2.4-18.22,4.19-5.25,1.59-4.15,1.43-10.1,3.81-2.85,1.22-5.78,2.28-8.45,3.88-2.41,1.43-4.69,3.07-6.92,4.76-.32.23-.63.48-.97.69-4.09,2.91-7.9,6.35-10.56,10.65-5.16,8.39-.54,18.23,7.82,22.24,8.72,3.74,18.81,2.39,27.66-.25,8.46-2.69,16.6-6.35,25.16-8.72,13.79-3.37,25.77-4.27,37.74-2.03,18.42,3.98,28.2,10.24,41.62,23.57,7.27,7.97,10.26,12.51,13.04,17.46,3.52,6.71,4.45,8.03,5.97,12.98,1.15,4.17.78,3.07,1.11,5.11.17,1.82.24,3.64.19,5.46-.28,5.05-.65,9.59-1.15,12.18-.36-.02-.72-.05-1.07-.08-.17-.02-.31-.03-.45-.05-1.86-.25-3.7-.68-5.56-.91.05.02.09.04.14.06-1.88-.63-3.91-.79-5.86-1.13-3.12-.4-6.25-.88-9.4-.83-22.99.29-55.34,3.76-74.01,17.96.44-.34.89-.67,1.33-1.01-3.34,2.38-6.58,4.92-9.44,7.86-9.04,9.49-17.09,19.92-23.97,31.07-2.99,4.68-5.27,9.74-7.12,14.97-.69,1.94-1.39,3.88-1.96,5.85-8.48,1.43-17.97,7.08-23.94,10.64-7.89,4.89-11.62,8.58-17.43,12.03-3.93,2.01-2.03,1.08-6.07,3.07-.28.05-.55.12-.83.2-6.23-.23-12.46-.88-18.71-.95-8.13.12-16.31-.86-24.37.53-4.5.64-5.66.75-10.78,1.32-3.96-5.2-8.01-10.33-12.23-15.32-3.71-4.66-7.66-9.14-12.45-12.71-3.28-2.67-6.87-5.18-11.12-5.95-5.92-1.36-12.03-1.39-15.51,4.46-.55.95-1.14,1.95-1.5,3.01-.55,1.1-1,2.24-1.44,3.39-2.94,8.68-5.6,17.48-8.08,26.3-1.59,6.4-3.39,12.74-4.78,19.19l.05-.13c-.28.89-.43,1.83-.7,2.72-.18.69-.36,1.38-.58,2.06-.17.46-.32.93-.48,1.39-.58,1.21-1.3,2.36-2.02,3.49-3.31,5.08-7.2,9.77-10.24,15.02-5.44,8.69-10.27,17.9-12.71,27.92-4.27,15.87,1.65,35.03,6.03,44.69,3.29,8.04,7.89,15.6,13.8,21.96-5.77,4.85-7.59,6.7-13.89,10.48-4.73,2.79-9.77,4.97-14.83,7.08.11-.06-.34.12-.94.38-4.79,1.97-9.73,3.53-14.64,5.18-3.33,1.13-6.83,1.52-10.25,2.25-4.58,1.18-9.13,2.52-13.52,4.3-1.82,1.06-10.61,3.06-14.28,8.86-4.71,8.85.56,20.59,9.54,24.32,8.39,3.64,17.61,4.76,26.68,4.19,7.86.05,15.68-.73,23.51-1.27,4.62-.12,9.19-.88,13.66-2.04,7.67-1.62,15.11-4.2,22.21-7.53,11.64-5.61,22.64-12.49,33.58-19.32,4.14-2.92,5.85-3.89,8.31-6.29.62-.59,1.25-1.19,1.86-1.78.03-.04.05-.07.08-.11,1.08-1.11,2.31-2.17,3.18-3.07,2.75.13,5.51.09,8.24-.27,3.61-.41,6.44-.91,8.89-1.49-9.12,8.94-18.84,13.84-32.93,20.05-14.2,6.56-16.95,7.63-29.47,12.53-3.22,1.38-11.53,4.13-17.92,8.18-10.02,6.16-12.39,17.94-4.08,26.73,6.04,5.53,14.65,6.98,22.52,7.92,4.9.54,9.8-.09,14.68-.46,7.78-.53,15.57-1.16,23.3-2.27,12.94-1.69,25.46-5.47,38.19-8.22,25.03-5.39,44.81-11.49,66.13-22.08,7.37-3.55,14.71-7.21,21.72-11.45,6.24-4.18,12.23-8.84,17.54-14.16.16-.17.32-.35.48-.53.74.2,1.56.23,2.44,0,5.9-.95,13.82-1.3,23.48-3.72,5.27-1.25,10.19-3.6,15.09-5.87,1.6-.73,3.16-1.53,4.7-2.37-.73,1.6-1.66,3.66-3,6.97.15.12-1.56,2.76-1.74,6.24-.14,5.26,3.75,10.06,8.65,11.68,4.2,1.4,8.8.8,13.1.2,7.65-1.69,15.22-5.16,20.32-11.28,4.52-5.19,7.96-11.14,10.71-17.43,2.24-5.29,4.1-10.75,5.7-16.27.69-2.83,1.21-5.71,1.57-8.6.44-3.56.59-7.17.36-10.76-.15-1.72.07-3.72-1.28-5.02-.03-.03-.06-.05-.09-.07,1.47-1.55,2.97-3.09,4.55-4.54.25-.27.67-.78,1.08-1.29,3.9,3.92,7.3,8.33,11.3,12.15,4.13,3.87,4.03,3.3,6.04,7.35.07.23.13.46.18.69.02.41.02.81,0,1.22-.36,2.1-.86,4.18-1.32,6.25-1.2,5.82-4.07,22.24-6.97,27.2-.36.68-.78,1.33-1.23,1.95-.07.08-.16.17-.27.28-2.4,2.27-.47.64-4.22,3.13-6.76,3.62-9.7,5.04-12.94,9.84-3.81,6.03-3.67,14.75,1.52,19.93,4.45,4,10.59,5.48,16.39,6.23,6.97.86,6.62.72,11.88-.23,3.59-.93,7.06-2.41,9.87-4.88,8.48-7.63,15.1-17.07,21.55-26.42,6.36-9.01,12.84-17.94,19-27.08,3.5-5.32,7.2-10.51,10.5-15.96,2.26-3.59,4.34-7.37,5.4-11.51,2-7.65-1.15-23.63-3.88-35.3-2.58-11.27-2.21-14.1.8-26.51ZM131.92,386.62c-9.29,6.51-19.49,11.63-29.51,16.89-10.24,5.32-17.6,7.82-32.67,10.99-4.15,1.06-6.44.75-12.87,1.25-9.25.82-18.6,1.03-27.88.64-3.79-.59-7.48-1.77-11.08-3.1-.63-.28-1.25-.56-1.85-.89-.36-.2-.71-.42-1.04-.65-.5-.43-.99-.89-1.43-1.38,0,0,0-.01-.01-.02-.39-.56-.73-1.15-1.02-1.76-.18-.53-.31-1.08-.42-1.63,0-.08-.02-.16-.02-.24,0-.49,0-.97.02-1.46.02-.11.05-.23.08-.34,2.41-2.16,8.59-4.61,12.8-6.09,9.2-2.94,16.13-4.52,22.14-7.26,14.24-5.7,28.73-11.93,39.95-22.68,1-1.08,2.41-2.04,3.53-3.14,9.25,7.33,19.89,13.08,31.27,16.25,4.35,1.14,8.8,1.86,13.26,2.44-.86.54-1.86,1.19-3.25,2.16ZM361.65,386.93c-5.72,7.95-9.2,11.94-20.5,14.39-2.46.43-2.89.66-7.68.62-.22-.05-.44-.11-.65-.19-.09-.04-.19-.09-.28-.13-.36-.18-.7-.38-1.04-.6-.04-.04-.08-.07-.12-.1,1.06-3.04,4.75-8.37,6.91-13.14.97-2.19,1.79-4.43,2.48-6.72.2-.62.43-1.26.54-1.91,7.5-5.02,14.67-10.53,21.48-16.45,4.2-3.7,7.92-7.89,11.98-11.74.14-.15.28-.3.42-.45-1.21,15.34-4.44,22.69-13.53,36.42ZM463.06,334.86c.71,4.66.61,2.44.81,7.81-.17,4,.16,2.39-1.7,7.8-1.71,4.21-14.42,22.49-20.29,30.52-4.53,6.35-9.19,12.61-13.69,18.99-5.68,7.86-8.33,12.15-17.1,19.34-.78.57-1.61,1.08-2.48,1.5-.93.31-2.53.82-3.19.87-.37.06-.56.09-.65.11-.67.06-1.34.09-2.01.09-.26-.03-.52-.05-.78-.04-3.94-.07-5.32-.44-5.42-.4-2.83-.38-5.62-1.11-8.31-2.07-.32-.17-.62-.35-.84-.48-.1-.1-.19-.21-.29-.31-.13-.23-.26-.47-.37-.7-.09-.36-.16-.73-.22-1.1-.05-.61-.05-1.22-.01-1.83.08-.29.22-.86.39-1.43.31-.65.67-1.28,1.08-1.87.24-.23.48-.45.73-.67.37-.26.75-.52,1.14-.76,2.73-1.7,5.78-2.87,8.39-4.78,3.64-2.43,6.5-5.97,7.98-10.1,1.84-4.39,2.69-9.12,3.73-13.75,1.29-4.99,3.25-10.66,3.48-11.69,2.15-8.63,4.26-14.2-1.47-22.04-1.77-2.64-4.18-4.68-6.42-6.89-2.46-2.7-4.66-5.62-7.08-8.35-4.29-5.16-8.55-8.58-9.94-11.04-3.08-5.05-2.36-3.91-3.63-7.44-1.97-6.98-1.73-8.59-1.98-17.48-.07-8.7-.35-17.39-.61-26.08,0-.24-.02-.48-.05-.72.04-.88,0-1.76-.43-2.54-.85-2.6-3.89-3.88-6.44-3.22-2.61.62-4.03,3.15-4.12,5.69-1.36,9.78-2.09,19.66-1.46,29.53.47,8.92,1.8,18.06,6.48,25.83,1.09,1.86,2.34,3.55,3.68,5.15-1.55,1.17-3,2.48-4.38,3.86-.23.2-.43.44-.62.67.03-.04.06-.08.1-.13-.04.05-.09.11-.13.16-.09.11-.18.22-.26.33-.33.4-.65.79-.97,1.2-2.13,2.73-4.01,5.64-6.12,8.38-.02.02-.22.27-.63.78-2.82,3.76-6.39,6.83-10.07,9.72-5.38,4.41-6.9,5.56-11.03,8.55-14.03,10.06-25.09,15.47-35.47,19.05-6.59,2.22-13.38,3.7-20.08,5.52.6-.92,1.2-1.85,1.79-2.77,2.09-3.4,2.57-4.13,2.87-5.06.28-.77.71-1.49,1.01-2.25.27-.52.44-1.09.46-1.67.48-2.52-1.37-4.99-3.79-5.64-1.92-.52-4.01.23-5.28,1.71-.84.74-1.62,1.56-2.33,2.42.03-.04.06-.08.08-.11-1.33,1.58-2.6,3.22-3.94,4.79-1.37,1.66-.68.86-3.23,3.99-2.38,2.86-4.85,5.66-7.52,8.26-2.79,2.64-5.78,5.06-8.83,7.39-.43.31-.85.61-1.28.92-6.01,4.14-10.5,7.08-19.49,12.45-7.82,4.61-15.64,9.3-23.83,13.23-6.14,2.41-12.42,4.5-18.77,6.29-11.48,3.06-23.21,5.11-34.81,7.66-17.09,3.99-29.13,6.14-44.55,7.22-6.1.37-12.22,1.17-18.32.59-3.85-.29-13.04-2.47-15.44-4.89-.43-.59-.78-1.23-1.09-1.89-.05-.16-.11-.35-.19-.61-.08-.32-.13-.55-.17-.73-.03-.43-.04-.85-.02-1.28.04-.18.08-.37.14-.55.29-.56.62-1.1.97-1.62.46-.55.96-1.07,1.5-1.54,2.92-2,6.08-3.69,9.31-5.12,3.1-1.49,10.01-3.78,16.8-6.11,6.04-2.12,11.95-4.57,17.86-7.03,14.02-5.88,23.33-9.79,32.67-18.05,2.99-2.6,5.86-5.35,8.46-8.34,1.03-1.4,2.54-2.54,3.12-4.19.75-1.67.59-3.28-.09-4.61.54-.05,1.1-.09,1.68-.12,2.79-.25,5.57-.67,8.34-1.09.7-.06,1.39-.21,2.08-.32,1.8-.31,3.6-.66,5.37-1.1,2.99-.63,16.61-5.88,20.71-8.44.11-.06.21-.13.32-.2,1.24-.6,2.45-1.53,2.85-2.87,1.53-3.13-1.24-7.14-4.69-6.99-1.45.15-2.83.64-4.21,1.17-2.95.87-5.81,2.16-8.74,3.07-.04.02-.09.03-.13.05-4.87,1.22-9.8,2.22-14.72,3.21-3.73.75-8.43,1.69-12.04,2.29-.16.02-.32.04-.48.06-1.19.25-2.66.21-3.98.44-.12,0-.24,0-.36-.01-.95-.08-1.89-.07-2.82.02-3.71-.2-5.89.44-6.59.44-1.79.26-.15,0,.71-.1-.4.05-.81.09-1.21.14-4.41.51-8.87.6-13.3.35-9.61-.86-10.28-.58-19.77-2.71-2.39-.63-4.73-1.39-7.04-2.27-11.4-5.17-18.85-9.4-25.39-16.6-9.6-10.42-17.11-28.71-17.63-43.46-.45-8.66,2.45-17.07,5.41-23.69,3.52-7.57,10.3-18,12.89-21.12,2.9-3.86,6.35-7.49,8.03-12.09.96-2.86.33-1.49,1.16-6.1.05-.29.09-.58.11-.88.56-4.2,1.23-8.38,2-12.55,1.99-9.57,4.99-18.93,8.23-28.15,1.46-3.88.71-2.2,2.06-5.08.17-.25.26-.41.32-.52.29-.35.58-.71.89-1.04.2-.2.41-.37.62-.56.26-.17.52-.33.79-.48.02,0,.03-.01.05-.02,0,0,0,0,.02,0,.42-.01.84,0,1.26.04,0,0,0,0,0,0,.79.13,3.55.58,4.29.89.05.02.09.03.13.04,4.36,2.22,3.79,2.41,6.4,4.37,3.34,2.66,6.17,5.85,8.84,9.16,4.71,5.59,9.5,11.43,11.54,14.48.51.7.96,1.46.97,1.35,1.06,2.37,3.07,4.39,5.6,5.09,2.01.47,4.06.25,6.08-.02,3.88-.39,7.74-1.02,11.6-1.57,6.7-.82,13.44.03,20.14.38,8.52.73,10.72,1,16.89,1.79,1.91.32,3.87.32,5.75-.22.65-.13,1.2-.42,1.72-.77.38-.19.74-.41,1.09-.63,7.63-5.43,7.94-7.47,21.54-16.2,6.45-4.01,13.81-7.74,17.58-8.96,4.61-1.36,3.29-1.33,6.99-1.41.36.06.72.15,1.07.26.12.07.24.13.36.2,0,0,.02.02.03.03.19.36.2.33.13.13,0,0,0,0,0,0,.06.15.12.3.19.44.01.02.01.02.02.04.57,1.56,1.07,3.14,1.43,4.76.55,2.92.46,2.55.76,7.58.19,4.77-.06,9.54-.17,14.3-.03,5.27.04,10.53-.11,15.8.03,1.19-.3,5.23-.4,6.61-.29,1.81-.72,3.71.33,5.37,2.17,4.1,8.76,3.24,9.81-1.3,1.66-9.48,1.54-19.17,1.82-28.77.02-9.2.36-18.8-3.16-27.47-1.6-4.04-4.02-6.42-6.92-7.65,1.28-3.39,2.91-7.06,5.6-11.69,6.91-10.38,8.22-11.64,14.15-18.86,10.38-11.52,15.66-17.74,28.76-23.57,1.15-.4,4.55-1.63,5.51-1.85,5.87-1.78,11.9-2.96,17.93-4.03.05,0,.08-.02.12-.02,11.23-1.93,15.35-2.54,28.33-3.11,4.61-.21,9.23-.24,13.85-.31,1.78-.05,3.57.23,5.34.09,4.78.49,9.97.75,14.37-1.14.42-.21.77-.5,1.08-.83.85-.7,1.54-1.59,2.05-2.57,2.31-5.05,2.19-10.82,2.95-16.24.78-11.34-.62-17.7-5.71-29.43-2.78-7.39-8.74-15.11-16.71-23.71-5.99-5.96-12.65-11.32-19.77-15.86-13.49-7.86-29.07-12.18-44.71-11.89-8.92.3-17.84,1.67-26.51,3.79-7.15,2.1-14.12,4.83-21.04,7.57.48-.2.96-.39,1.44-.59-4.71,1.84-9.46,3.73-14.48,4.53-.17.03-.35.05-.52.08-.09.01-.18.02-.27.03-5.8.5-6.56.44-10.24-.49-.07-.02-.13-.05-.2-.07-.3-.14-.59-.29-.88-.46-.26-.15-.51-.33-.76-.51-.53-.46-1.04-.93-1.5-1.46-.06-.07-.11-.14-.17-.21-.23-.36-.45-.74-.64-1.13-.09-.26-.16-.53-.22-.8-.01-.28-.02-.56,0-.84.09-.43.21-.85.36-1.27,2.09-3.67.93-1.67,3.15-4.39,4.46-4.46,4.78-4.47,10.58-7.82,3.38-1.8,3.96-1.76,9.37-3.64,5.02-1.63,4.62-1.47,10.9-3.4,15.01-5.01,27.56-4.18,45.27-4.95,25.88-1.09,44.54,4.88,67.23,17.45,8.08,4.55,13.8,8.42,17.56,11.8,6.94,6.68,11.6,12.32,14.49,16.71,4.35,6.29,8.96,16.21,9.58,18.11,6.22,18.11,6.19,30.7,6.26,51.18.17,5.42-1.12,11.04.49,16.32.65,1.95,1.7,3.71,2.96,5.32,2.2,3.72,4.68,7.27,6.95,10.95,6.26,11.02,9.93,18.99,13.12,28.16,3.43,10.64,3.02,14.22,4.25,25.13.22,3.06,2.56,17.43,1.96,25.52-.24,7.16-3.41,19.16-6.32,30.03-2.55,8.4-5.23,16.79-6.44,25.51-.15,1.07-.29,2.14-.41,3.21.06-.46.11-.92.17-1.37-2.24,10.75,2.31,26.54,4.9,39.79Z"/>
      </g>
      <g>
        <path d="M162.26,328.36c-.26-.75-.92-1.41-1.68-1.67-.93-.48-1.99-.17-2.99,0,0,0,0,0-.02,0-2.82.33-1.45.48-3.28.36-.32-.07-.85-.19-1.3-.32-2.36-1.26-2-1.1-3.04-2.06-.1-.11-.19-.21-.27-.3-.25-.39-.44-.81-.63-1.23-.04-.11-.08-.25-.14-.46-.06-.27-.1-.45-.12-.57-.04-.42-.06-.85-.05-1.28.04-.14.08-.28.09-.41,1.47-.11,2.86-.56,4.03-1.44,2.38-1.67,2.74-5.16,1.73-7.72-1.06-2.8-3.77-4.77-6.3-6.21-2.03-1.19-4.45-1.25-6.44-.31-1,.08-1.99.34-2.92.82-3,1.77-3.79,5.84-2.03,8.76,1.06,1.79,2.93,3.41,5.09,4.53-.81,2-1.52,3.76-2.76,4.89-.05.04-.09.07-.13.1-.14.09-.27.18-.41.27-1.96,1.22-3.76,1.39-5.86.95-.45-.11-1.61-.58-3.23-1.74-.64-.53-1.14-1.28-1.97-1.51-1.43-.72-3.23.02-4.01,1.35-1.83,3.39,2.44,5.55,5.02,6.63,3.94,1.67,8.62,2.05,12.51.04.51-.25.97-.57,1.4-.9,2.27,3.47,6.3,5.84,10.44,5.97,3.25.32,10.9-2.26,9.26-6.53Z"/>
        <path d="M153.03,318.87c-.05.04-.11.07-.16.11-.02.01-.03.03-.05.04.1-.07.21-.15.21-.15Z"/>
        <path d="M152.76,319.07s.04-.03.06-.05c-.15.11-.29.2-.06.05Z"/>
      </g>
      <g>
        <path d="M218.86,310.95c.01.09.02.2.02.29-.02-.17-.05-.34-.07-.51,0,0,0,0,0,0,0,0,0,0,0,0-.02-.12-.03-.24-.05-.36-.15-.88-.26-1.79-.57-2.63-1.04-2.89-2.72-5.53-4.84-7.74-5.9-5.73-16.47-6.81-23.4-2.37-2.24,1.51-4.08,3.5-5.67,5.66-.87,1.32-2.16,2.59-2.38,4.2-.51,2.95,3.39,4.84,5.45,2.7,5-5.72,7.88-6.4,15.77-6.24.99.16,1.97.41,2.91.76.23.11.56.28.88.47.32.19.64.4.85.55.07.06.14.11.2.17,3.08,2.65,3.67,5.37,5.17,7.64,1.45,2.19,5.11,1.4,5.69-1.12.12-.48.13-.96.03-1.44Z"/>
        <path d="M218.86,310.95c-.01-.09-.03-.18-.05-.23,0,0,0,0,0,0,.02.08.03.15.05.23Z"/>
      </g>
      <path d="M122.98,285.83c-3.66-3.56-8.72-5.59-13.73-6.26-2.96-.07-5.83.84-8.46,2.13-1.29.7-2.83,1.26-3.74,2.44-2.36,2.85,1.22,6.92,4.4,5.07,1.1-.37,3.8-1.42,6.5-1.18.08.01.14.02.24.04.1.01.19.02.28.04.57.08,1.14.19,1.69.33,4.84,1.38,5.28,1.84,7.57,3.59,1.52,1.35,3.08,2.7,4.39,4.26.01.02.02.03.04.05.08.15,1.04,1.44,1.67,1.48,1.95.95,4.44-.77,4.36-2.92-.11-3.72-2.57-6.67-5.2-9.06Z"/>
      <path d="M263.77,227.21c-.14-7.26-3.93-15.64-12.53-13.64-3.56.75-6.57,2.94-9.58,4.85-5.04,3.03-8.7,7.72-12.01,12.49-1.87,1.08-3.11,3.25-2.44,5.77.12.9,1.33,2.39,1.18,2.12.31.38.62.76.94,1.14.67.8-.28-.42-.53-.76,2.52,3.5,5.95,6.47,9.85,8.33,3.46,1.43,7.11,2.35,10.71,3.36,7.89,2.54,11.35-2.95,12.46-9.99-.03-1.94,2.1-8.16,1.96-13.67ZM243.49,237.25c-.39-.3-.17-.12.15.12-1.58-1.19-2.72-2.1-3.79-2.93,1.38-1.41,2.82-2.75,4.36-3.97,1.41-1.02,5.79-4.06,8.06-5.36.22,1,.4,2.02.56,3.03,0,.04,0,.07.01.11.19,6.31-.64,7.87-.73,12.15-.07.41-.15.82-.25,1.23-.19-.06-.37-.11-.56-.17-.57-.26-1.39-.65-1.79-.89-1.97-1.17-4.18-1.94-6.02-3.32Z"/>
      <path d="M141.87,227.68c-.45-1.28-.24-.98-1.9-4.08-.43-.63-3.59-4.56-4.47-5.73-4.56-5.98-12.5-11.29-19.26-5.26-3.68,4.62-4.54,10.82-5.39,16.5-.22,2.56-.73,5.22-.68,7.82-1.26,2.19-.73,5.44,1.71,6.75,1.61.95,3.57.66,5.35.47,2.49-.35,4.93-.95,7.34-1.62,7.34-1.86,19.73-4.78,17.3-14.85ZM116.79,234.27c.87-4.28,2.49-9.9,2.95-10.51.6-1.42,1.31-2.79,2.15-4.08.07,0,.15,0,.24,0,.19.04.43.09.67.16.36.2.71.43,1.05.67.1.09.24.21.45.39,3.62,3.56,2.03,2.38,5.1,6,2.29,2.78,2.58,3.02,3.33,3.86-.08.07-.15.13-.22.19-.26.17-.53.31-.81.44-.07.03-.14.05-.24.09-4.18,1.16-2.63.76-6.5,1.19-3.06.26-3.29.65-8.19,1.6Z"/>
    </g>
  </g>
</svg>