<?xml version="1.0" encoding="UTF-8"?>
<svg id="Layer_2" data-name="Layer 2" xmlns="http://www.w3.org/2000/svg" viewBox="0 0 377.1 458.48">
  <g id="Layer_2-2" data-name="Layer 2">
    <g>
      <g>
        <path d="M64.29,394.8c-.01-.1-.03-.21-.05-.32,0,.02,0,.02,0,.04.02.1.03.19.05.29Z"/>
        <g>
          <path d="M57.17,290.47c-.08-.06-.16-.13-.26-.2.04.03.06.05.09.08.05.04.11.08.16.12Z"/>
          <g>
            <path d="M318.55,449.74s-.04.03-.06.05c0,0,0,0,0,0,.02-.02.05-.04.07-.06Z"/>
            <path d="M374.63,82.86c-2.06-1.13-4.54-.55-6.78-.6-4.41.16-8.82.37-13.2.98-2.45.33-4.9.66-7.35,1.01-.07-.2-.12-.41-.19-.61-.61-2.05-1.32-4.06-2.13-6.02,8.52-4.17,13.68-5.51,18.41-7.73,5.77-1.7,3.98-9.79-1.41-9.55-2-.11-3.98.27-5.97.49-5.89.7-11.27,3.46-16.51,6.12-2.82-4.59-6.07-8.94-9.53-13.07-5.9-6.67-13.48-11.51-20.79-16.46-.07-.05-.14-.1-.21-.15-.95-.86-1.93-1.7-2.76-2.68-.57-.87-1.06-1.79-1.48-2.74-.03-.06-.06-.11-.1-.16-.21-.43-.41-.87-.6-1.31-1.23-3.17-2.42-6.35-3.66-9.52-2.06-5.62-4.04-11.51-7.95-16.15-5.91-7.14-13.05-5.86-17.36,2.09-3.74,6.65-5.53,14.32-9.91,20.61-.09.11-.2.23-.31.37-.32.35-.66.68-.9.89-2.8,1.72-8.28,2.58-14.05,4.3-6.32,1.69-15.14,4.53-17.97,4.96-6.26,1.19-5.89,1.52-11.68,1.56-.12,0-.22-.01-.31-.02-.41-.07-.81-.16-1.2-.28-.07-.04-.13-.07-.2-.11-2.7-2.7-5.35-5.45-8.13-8.07-.41-.38-.86-.72-1.33-1.03-.41-.31-.81-.63-1.21-.94-2.52-1.66-5.18-3.19-7.97-4.3.67.26,1.78.76.59.19-3.21-1.55-6.62-3.04-10.27-2.79-2.06.06-4.1.57-5.95,1.5-2.68.95-5.16,2.9-6.22,5.6-.02.04-.03.07-.05.12-.79,1.51-1.14,3.27-1.6,4.91-.78,4.53-1.19,9.62-2.78,17.3-1.64,7.97-1.53,11.27-3.05,21.84-1.1,9.22-2.57,18.44-2.53,27.74.06,4.92,1.03,9.77,1.8,14.62.89,5.27,1.67,10.59,3.48,15.64,2.19,6.37,4.4,10.85,7.59,14.86-.02.2-.05.39-.05.6-.56,17.16-4.04,22.23-11.38,32.91-8.24,11.54-16.4,22.46-31.73,35.42-2.76,2.65-16.09,9.75-23.29,14.91-6.66,4.87-13.01,10.27-18.8,16.16-7.11,8.09-13.04,17.18-17.84,26.81-3.66,7.65-7.03,15.48-9.58,23.57-.06-.02-.12-.04-.19-.07-.25-.1-.47-.19-.65-.26-3.54-1.56-6.95-3.46-10.1-5.69-.05-.04-.1-.07-.15-.11.33.26.45.39-.16-.12-.14-.1-.27-.2-.41-.3.1.07.21.15.32.22,0,0-.01-.01-.02-.02-2.17-2-4.16-4.19-6.2-6.32-.5-.5-1.59-1.87-1.77-2.1-.02-.02-.03-.04-.05-.06-3.59-4.8-6.24-10.16-8.54-15.66-.09-.22-.18-.44-.27-.64-.28-.74-.57-1.47-.81-2.22-.78-2.22-1.35-4.5-1.72-6.83-.79-12.78.63-19.17,2.65-30.36,2.57-12.9,3.94-21.63,5.18-31.84,1.8-15.44,1.38-34.24-11.81-44.77-5.65-4.89-14.24-6.27-21.09-3.27-2.6,1.33-4.65,3.5-6.37,5.83-1.61,2-3.03,4.15-3.87,6.6-2.19,5.71.15,11.76.97,17.51.54,5.38,3.24,21.93,3.21,32.24-.48,9.51-1.12,9.53-3.52,21.39-1.8,8.5-2.79,17.14-2.9,25.83.03,8.09.65,16.23,2.09,24.19,1.49,5.7,3.65,11.33,6.67,16.4,2.63,4.07,5.97,7.6,9.36,11.04,3.19,3.09,6.3,6.31,10.04,8.75,6.14,3.66,12.86,6.21,19.63,8.44,4.4,1.2,8.94,2.73,13.51,2.71.19-.02.36-.07.53-.11-.69,5.16-1.02,10.37-.64,15.56.59,6.9,1.39,13.83.93,20.76-.95,6.51-3.09,11.32-4.55,14.66.01-.03.02-.05,0-.04-.51,1.12-.95,2.27-1.41,3.41-1.58,3.56-1.76,7.46-1.6,11.3,1.35,11.44,4.67,22.56,6.86,33.86,1.03,5.3,2.26,10.7,5.09,15.37,3.9,6.37,9.09,13.15,16.88,14.54,5.74.91,11.31-2.33,14.45-7.04,5.88-8.93,6.11-20.11,6.48-30.45.03-.76.08-1.52.14-2.28.07-.43.17-.84.29-1.26.13-.22.27-.44.42-.65.58-.69,2.13-1.97,2.78-2.5,1.33-1.01,2.7-1.96,4.09-2.89.04.2.07.4.14.6,1.67,5.22,3.69,10.32,5.74,15.39,1.78,4.33,3.48,8.73,6.07,12.66,4.23,5.84,9.78,11.63,17.02,13.35,4.58.9,9.58-.3,13.75-2.26,5.01-3.28,5.29-9.2,5.5-11.64-.32-5.7-2.31-8.08-2.54-9.18-1.66-5.57-1.49-8.38-2.16-15.75-.13-4.06-.36-2.67.45-6.1.11-.22.24-.44.38-.65.56-.61,1.83-2.05,2.32-2.43,8.49-8.37,16.68-17.5,20.88-28.84,1.44-3.86,1.98-8,2.27-12.09-.05-2.06.22-4.34-.27-6.35,9.63-4.39,19.25-8.94,27.78-15.29,5.53-4.06,10.43-8.87,15.2-13.78,7.77-8.15,10.91-11.72,16.98-20.01.56-.92,1.2-1.83,1.8-2.76.53.78,1.05,1.57,1.59,2.35,1.45,1.87,2.93,3.74,4.46,5.57-4.88,2.74-6.52,7.22-7.47,13.88-1.17,8.15-1.71,16.38-2.09,24.6-.74,10.26-.69,20.55-1.1,30.82-.67,10.74-1.5,21.47-1.69,32.23-.11,7.97.6,15.92.92,23.88.11,2.46.26,4.93.59,7.37.02.15.04.32.06.5,0,.3.02.59.07.88-.35,1.86.33,3.91,2.2,4.93,11.8,6.43,25.64,7.17,38.82,7.27,12.32-.36,25.1-1.34,36.29-6.96.56-.31,1.08-.68,1.59-1.06-.01,0-.03.02-.04.03.34-.19.63-.43.91-.69-.12.1-.28.22-.43.33.15-.11.29-.23.44-.34.66-.63,1.16-1.43,1.39-2.32.38-1.36.06-2.8-.71-3.95.22-.4.38-.82.49-1.27,0,.02,0,.03.02,0,.24-.91.47-1.81.7-2.72,1.73-6.54,1.63-13.33,1.85-20.03.44-14.97,1.01-29.94,2.41-44.85.49-14.08,1.36-28.14,1.86-42.21-.41-11.15-1.6-17.47-8.98-23.44.32-1.31.45-2.65.15-3.99-2.06-8.67-6.76-16.68-11.68-27.4-.55-.61-2.35-7.02-2.84-11.83-.91-6.64,1.11-22.24,3.99-34.43,2.49-10.29,5.39-20.48,7.82-30.79,2.34-8.72,3.22-17.77,2.96-26.79-.04-2.44-.11-4.89-.29-7.32-.02-.54-.04-1.09-.11-1.63,4.51-2.98,9.12-6.66,13.66-10.55,6.6-6.25,10.67-14.54,13.91-22.91,4.62-11.7,6.37-24.66,4.52-37.12,5.63-.69,13.91-1.59,20.28-1.97.5-.03.99-.09,1.48-.13,5.44.31,7.94-6.26,3.25-9.28ZM63.38,317.84c-.43-.27-.91-.5-1.47-.65-7.26-.9-14.25-3.22-21.03-5.91-.4-.2-2.31-1.05-3-1.37-6.18-3.01-6.2-3.17-10.8-7.39-6.65-6.42-9.38-8.65-12.75-16.22-2.23-5.12-3.77-10.3-4.03-17.07-.88-16.04.15-22.58,2.35-34.17,1.36-6.85,3.48-13.56,4.22-20.53.97-6.82.38-13.73-.38-20.54-1.2-8.88-1.69-17.87-3.58-26.64-.17-1.81-.29-.6-.32-4.05.1-.45.23-.89.38-1.32.02-.04.04-.07.06-.12,1.48-2.38.46-1.19,3.71-4.32.2-.13.4-.25.6-.37.09-.02.18-.04.25-.06,3.36-.17,3.1.06,4.26.25.25.06.49.13.74.21.65.33,1.27.7,1.88,1.11,1.07.92,2.04,1.94,2.93,3.04,1.03,1.45,1.96,2.99,2.7,4.61.98,2.64,1.54,5.41,2.21,8.14.95,4.87.4,1.29.9,6.17.77,18.05-1.77,28.91-4.68,47.39-1.22,7.46-1.91,15.01-1.85,22.57.28,6.46.41,11.01,3.63,19.23,1.2,3.39,4.93,10.95,9.63,16.75,2.07,2.85,4.64,5.26,7.21,7.65,2.19,2.15,4.57,4.09,7.24,5.61,3.45,1.98,6.74,4.27,10.47,5.72.29.12.58.25.88.38-.66,2.9-1.03,5.07-1.28,7.03-.29,1.19-.57,2.38-.82,3.58-.09.43-.17.86-.25,1.29ZM163.97,384.51c-.3.36-.59.72-.89,1.07-2.54,2.96-5.13,5.86-7.77,8.74-1.92,2.1-4.09,3.94-5.77,6.24-3.85,5.08-2.55,11.87-2.24,17.79.15,5.46.42,10.99,2.55,16.1.28.82.53,1.65.69,2.5,0,.24,0,.48,0,.7-.18.34-.38.67-.58.99-.01.01-.02.02-.03.04-.25.11-.5.23-.75.36-.13.04-.28.09-.48.15-3.76.75-2.08.7-4.61.71-.44-.1-.88-.23-1.31-.38-.38-.19-.76-.38-1.13-.58-4.35-2.37-3.24-1.95-5.39-3.59-1.21-1.06-2.4-2.16-3.46-3.39-1.48-2.19-2.75-4.51-3.85-6.91-5.1-10.42-7.12-17.34-8.52-19.43-.31-.44-.67-.77-1.05-1.05,3.01-1.96,5.99-3.98,8.75-6.28,3.45-3.19,6.34-6.92,9.49-10.39,5.33-5.93,9.95-12.59,12.47-20.2.15-.44.28-.87.43-1.3.1-.02.19-.04.29-.06,7.64-1.15,14.98-3.55,22.11-6.47.13,9.56-2.19,14.81-8.93,24.66ZM309.67,425.3c-1.11-.32-2.32-.4-3.42-.47-9.32-.16-12.98,1.81-20.4,1.94-2.04,0-5.31-1.13-9.68-1.38-5.33-.32-10.57.83-15.8,1.71-.11,0-.25.02-.46.04-4.59.08-4.64.04-9.04-.98-.6-.15-1.22-.41-1.83-.61.03-4.79.15-9.58.32-14.37,3.12.64,6.35.71,9.47.01,3.88-.81,7.48-2.57,11.29-3.6,4.15-.91,7.17-1.23,13.15-.83,2.76-.02,8.29,1.96,13.54,2.43,2.9.48,5.82.24,8.73.13,2.92-.03,1.71.33,4.22.36-.12,5.2-.16,10.41-.11,15.62ZM305.91,444.91c-8.69,2.65-12.61,2.5-22.67,2.93-5.32.14-10.64-.22-15.94-.56-6.87-.41-7.47-.3-12.94-1.38-1.81-.4-3.6-.89-5.36-1.47.08-3.99,0-7.99.07-11.98,0-.02,0-.03,0-.05,3.96,1.49,8.22,2.22,12.43,2.07,5.68-.43,7.51-1.24,11.67-1.38,5.21-.45,7.48,1.23,14.01,1.22,3.44-.2,10.27-1.59,10.6-1.48,5.22-.48,7.65-.1,10.92.18.39.06.78.05,1.15-.02.11,4.34-.09,9.08.56,10.05,0,.01.01.02.02.04-1.98.99-.91.48-4.5,1.83ZM310.02,401.8c-.62-.11-1.27-.17-1.89-.22-5.21-.41-5.46.63-9.84.43-3.68-.02-6.62-1.01-11.99-2.03-5.85-1.05-11.88-1.1-17.73-.05-3.82.81-7.49,2.21-11.19,3.44-2.97.75-2.53.79-6.39.54-.37-.06-.89-.14-1.31-.22.31-6.53.71-13.05,1.13-19.57,5.79.95,11.72,1.21,17.56,1.09,5.58-.61,6.03-1.27,10.88-1.23,4.43-.06,12.37.25,13.83.52,5.92.74,11.92,1.18,17.89,1.22-.41,5.35-.73,10.72-.94,16.08ZM311.51,379.24s0,0,0,.01c-11.07.32-18.31-2.18-29.85-2.79-8-.7-10.85.68-18.01.82-4.98.32-8.9.12-12.57-.22.1-4.76.09-9.52.23-14.27,1.55.44,3.11.85,4.71,1.08,3.84.59,7.75.42,11.57-.29,4.3-.87,8.46-2.38,12.81-3.01,1.93-.27,10.95-.9,15.95-.46,5.54.4,7.7.9,13.82,2.05.83.08,1.73.31,2.61.44-.38,5.01-.75,10.35-1.28,16.64ZM311.87,355.81c-6.54-1.25-22.26-2.76-32.12-2.23-6.96.57-13.65,2.68-18,2.66-4.94-.1-6.04-.33-9.41-.93-.24-.03-.49-.08-.74-.13.21-4.58.47-9.16.56-13.74.06-1.58.1-3.01.13-4.34,8.47.71,19.29,1.17,21.09,1.58,5.31.7,10.36,2.74,15.72,3.04,7.2-.19,9.01-1.75,15.83-1.18.58.08,1.17.17,1.75.28,2.76.5,5.41,1.55,8.19,1.89-.68,4.62-1.14,8.89-1.53,13.21-.49-.03-.99-.04-1.46-.12ZM314.87,318.8c.18.27.36.61.5.89.17.51.32,1.02.45,1.54.87,3.74.62,8.77.09,13.61-5.06-1.48-10.29-2.18-15.56-2.35-3.43-.1-6.84.49-10.26.46-.57.05-1.88-.06-2.34-.09-4.89-.78-9.65-2.22-14.61-2.58-3.51-.33-7.02.27-10.53.36-3.38.14-6.77.23-10.15.32.16-3.48.51-6.52,1.59-10.32.03-.05.05-.09.08-.14,1.78-1.11,1.55-.74,2.43-1.11,1.07.91,2.18,1.78,3.35,2.57,4.16,2.24,8.69,4.06,13.45,4.37,4.11.17,8.44-.65,12.09-2.6,1.74-1.11,3.23-2.65,4.32-4.43.6.28,1.23.52,1.84.73,6.82,1.46,16.11,1.58,21.59-3.28.92.92,1.4,1.58,1.69,2.04ZM337.61,107.94c-.09,7.27-3.54,19.58-6.54,25.41-4.22,8.27-4.97,9.26-11.06,14.91-5.95,5.28-11.14,9.38-14.05,11.55-.32.19-.61.42-.88.66-1,.76-1.9,1.67-2.88,2.46-.19.16-.38.32-.56.49-.79.6-1.4,1.42-1.64,2.4-1.06,3.51,3.18,6.79,6.32,4.84.18-.08.25-.11.24-.13.42-.15.84-.31,1.27-.48.4,11.3-.23,18.89-3.27,29.75-4.89,18.81-10.42,37.63-11.67,57.13-.28,7.19.24,14.51,1.98,21.51,2.76,8.61,9.36,20.17,12.48,27.68-.49.26-.93.6-1.42.87-.74.26-1.49.48-2.26.64-2.32.71-5.12.68-11.02.28-.46.03-.93.05-1.39.1-.14-.01-.29-.03-.42-.04-.04,0-.06,0-.09-.01-.53-2.09-1.3-4.13-2.29-6.03-3.96-6.77-8.31-13.31-12.11-20.16-3.9-7.89-6.32-13.92-8.23-24.41-.5-2.76-.94-6.18-1.32-11.38-.43-3.04.56-4.97-2.38-6.41-1.21-.6-2.8-.22-3.74.71-.65.73-1.09,1.61-1.03,2.61.04-.33.06-.52.07-.61-.03.29-.17,1.6-.17,2.11-.63,6.98.07,13.94,1.23,20.82,1.37,7.51,4.33,14.63,7.61,21.48,2.4,4.47,5.01,8.83,7.75,13.09,1.7,2.78,3.75,5.37,5.15,8.31.6,1.7,1.07,3.44,1.4,5.21,0,.11,0,.22,0,.3-.04.16-.08.31-.12.44-.16.34-.34.67-.54.99-.32.19-.64.36-.98.52-.07.02-.15.05-.28.09-3.33.73-1.57.58-5.78.69-.41-.06-.82-.12-1.23-.21-4.82-1.35-3.4-1.1-6.43-2.35-3.42-1.7-3.46-2.25-7.61-6.48-7.42-7.36-10.83-13.32-15.44-19.38-6.97-9.44-12.53-22.2-15.64-29.99-1.54-5.31-9.44-3.24-8.15,2.18,3.3,9.59,7.36,18.97,12.17,27.9,1.46,2.3,2.96,4.58,4.45,6.86-1.96,1.35-2.98,3.86-4.32,5.81-2.25,3.63-2.15,3.29-3.12,4.61-7.07,9.07-15.64,16.95-24.48,24.27-5.91,4.97-33.09,18.48-41.1,21.08-3.39,1.29-6.87,2.36-10.41,3.17,1.18-7.07,1.15-13.47.28-20.18,0-.24-.03-.47-.09-.69,0,0,0-.01,0-.02,0-.83-.34-1.64-.92-2.23-1.42-1.5-4.04-1.14-5.05.65-.32.53-.42,1.13-.43,1.74-.04.31-.1.78-.13,1.09-.67,5.31-.95,15.2-4.78,26.45-1.7,5.17-3.54,9.25-7.99,15.49-3.07,3.85-6.47,7.42-9.72,11.11-1.5,1.65-3.05,3.29-4.79,4.7-6.17,4.39-12.81,8.09-18.79,12.76-6.53,4.52-7.69,8.82-7.9,16.48-.61,8.56-.3,11.28-2.1,18-1.85,6.65-4.45,7.97-6.49,8.25-.03,0-.05,0-.08,0-.26-.06-.51-.13-.76-.22-.11-.06-.24-.12-.39-.2-3.41-2.02-2.88-1.49-5.87-5.08-1.86-2.53-3.77-5.09-5-7.99-1.81-4.23-4.76-19.1-6.36-27.65-.7-3.81-1.43-7.62-2.03-11.44.07.54.04.73-.05-.29-.01-.08-.03-.15-.04-.23.01.07.02.13.04.19,0-.01,0-.02,0-.03-.33-3.75,0-3.31,0-4.8,0,.07.19-1.09.45-1.97,11.45-20.79,10.18-24.18,8.25-47.27-.03-3.72.05-6.6.24-9.15.36-1.99.6-4.57,1.08-7.79.44-2.28,1-4.75,1.69-7.82,3.2-12.21,5.56-16.43,11.4-28.09,7.85-14.56,12.73-22.8,22.78-33.07,7.38-7.42,12.37-10.51,18.19-15.33,7.2-5.52,13.76-11.79,20.59-17.75,12.75-10.48,25.31-21.84,33.16-36.59,4.05-8.21,7.63-16.77,9.17-25.85.18-.91.33-1.83.49-2.74.59.45,1.2.91,1.84,1.38,2.31,1.57,4.82,3.86,7.82,2.95,4.16-1.08,5.64-6.51,2.59-9.53-14.37-11.15-17.88-18.01-20.83-36.16-1.08-7.42-1.21-6.3-1.6-12.32.07-9.68.7-13.09,1.58-19.75,2.21-15.24,3.36-23.59,4.98-36.14.04-.43.11-.87.13-1.3-.07.57-.14,1.15-.22,1.72.43-2.83.42-5.7.59-8.55.04-.84.12-1.67.09-2.49.04.17.07.14.07-.35-.08-1.09.07-2.2.1-3.29.01-.08.03-.15.04-.23.06-.06.12-.12.17-.18.12-.06.25-.12.37-.18.26-.08.6-.18.96-.25.05,0,.11,0,.19,0,.43.08.87.18,1.29.32,1.16.54,2.27,1.19,3.37,1.86.4.26.58.37.62.38.42.29.86.55,1.29.83,4.11,2.81,2.3,1.25,5.07,3.82,3.54,3.32,6.41,7.49,10.61,10.04,6.38,3.15,13.7.7,20.1-1.2.99-.2,4.92-1.71,2.37-.73,5.39-1.17,10.67-2.72,16.04-3.96,4.33-1.18,8.78-1.86,13.08-3.15,2.39-.81,4.81-1.7,6.74-3.37,4.26-3.73,6.66-9.04,8.97-14.1,1.25-2.67,2.4-5.41,3.83-7.99.18.3.36.59.52.9,3.1,5.01,4.51,12.59,7.69,21.56,0,0,0-.01,0-.02.29,1.07.82,2.08,1.42,3.01,3.07,4.92,8.23,7.88,12.99,10.95,9.33,5.87,11.83,8.4,16.07,13.58,7.22,9.8,10.51,15.53,13.07,24.9,2.1,7.88,2.24,9.36,1.86,18.72Z"/>
          </g>
        </g>
      </g>
      <path d="M248.69,87.25c-.14-1.18-.52-2.31-1.16-3.28-.26-1-.84-1.87-1.53-2.63-3.26-3.22-8.55-1.16-9.7,3.03-.55,1.73-.32,3.55.21,5.27.11.46.27.9.46,1.33.14.35.28.69.43,1.02,2.29,4.8,8.82,4.29,10.75-.3.39-.65.67-1.36.72-2.14.13-.84.04-1.61-.17-2.3Z"/>
      <path d="M307.86,75.47c.14-.11.3-.21.43-.34,3.35-3.24,2.8-9.77-1.18-12.28-3.45-2.18-8.58.37-8.47,4.58,0,.22.01.44.04.66-.09.37-.15.75-.18,1.13-.3,1.57-.12,3.27.62,4.66,1.75,3.13,5.59,3.68,8.17,2,.11-.06.21-.14.31-.22.08-.06.16-.12.24-.19Z"/>
      <path d="M218.15,107.59c-7.18,1.59-13.95,4.67-20.61,7.74-1.54.68-2.96,1.59-4.43,2.41-1.13.55-2.15,1.42-2.45,2.69-.84,2.83,2.25,5.43,4.87,4.43.02,0,.02,0,.04-.01,5.75-1.42,11.27-3.58,16.81-5.65,2.04-.71,4.08-1.43,6.18-1.95,1.24-.37,2.7-.34,3.68-1.29,4.2-3.01.88-9.71-4.08-8.36Z"/>
      <path d="M224.31,120.26c-7.08,4.11-14.02,9.3-18.67,16.13-.08.12-.16.25-.24.37-.02.04-.05.07-.07.11-.03.05-.07.11-.11.16.02-.02.04-.05.06-.07-.4.66-.64,1.43-.63,2.2-.04,2.67,2.71,4.74,5.27,4.02,1.02-.24,1.75-.97,2.52-1.62,1.08-.86,2.15-1.73,3.16-2.67,3.27-2.82,9.5-7.97,9.82-8.01,1.51-1.3,3.91-1.99,5.02-3.54,3.28-4-1.67-9.64-6.14-7.07Z"/>
      <path d="M294.32,93.42c2.76-4.61,1.94-11.2-3.75-12.92-1.79-.6-3.7-.39-5.53-.09-2.21.35-4.46.8-6.49,1.76-10.15,4.88-5.21,15.93,4.04,18.11.49.21,1.02.38,1.57.5.15.68.33,1.35.46,2.03.46,1.42.88,3.03,2.31,3.77,2.17,1.32,5.18.03,5.79-2.42.35-1.18-.11-2.34-.36-3.49-.34-.94-.61-1.93-1.04-2.84.18-.23.35-.47.51-.71.9-1.18,1.77-2.4,2.48-3.71ZM280.07,90.36c.43-.13,1.15-.33,1.57-.37,1.19-.26,2.37-.56,3.57-.74.73-.09,1.46-.15,2.19-.17-.06.24-.14.46-.2.64-.36.78-.76,1.53-2.27,3.82,0,0,0,.01-.01.02-.02.02-.03.04-.05.05-3.64-1.17-4.09-1.64-4.81-3.24Z"/>
    </g>
  </g>
</svg>