<?xml version="1.0" encoding="UTF-8"?>
<svg id="Layer_2" data-name="Layer 2" xmlns="http://www.w3.org/2000/svg" viewBox="0 0 559.52 252.83">
  <g id="Layer_2-2" data-name="Layer 2">
    <g>
      <g>
        <g>
          <path d="M558.81,148.36c-1.7-12.58-11.79-21.81-22.49-27.51-12.64-6.59-25.74-13.19-40.05-15-6.78-.98-8.41-1.34-10.91-1.68-5.78-8.99-10.95-18.38-17.33-26.97-5.83-7.8-11.7-15.65-18.66-22.5-5.56-5.41-11.56-10.37-17.87-14.88-5.22-3.6-10.75-6.72-16.2-9.94-12.79-7.38-25.82-15.3-40.48-18.22-16.6-2.47-33.59-2.54-50.25-.69-10.56,1.21-15.97,1.58-27.41,4.17-7.14,1.78-16.17,4.06-20.66,4.25-2.34.21-4.68.39-7.03.39-.67.04-1.36-.07-2.04-.09-7.43-2.78-15.43-4.1-23.34-4.21-6.53-.06-12.98,1.12-19.42,2.07-2.95.32-2.65.43-6.51.78-4.22-9.86-11.39-20.37-23.22-17.99-.49.08-.96.23-1.44.35-1.11.15-2.21.52-3.29.83-15.81,5.36-21.61,16.72-26.35,28.3-1.77,4.4-3.2,8.94-4.17,13.58-.03.37-.08.74-.14,1.12-2.88-.36-6.65-.21-10.43.8-7.57,2.02-14.82,5.48-21.41,9.69-7.91,5.02-17,13.16-24.35,24.19-7.64-4.24-16.15-6.79-24.84-7.6-9.99-1.48-23.28.19-27.23,11-1.89,5.28-1.07,11.11-.39,16.56,1.37,9.63,6.45,18.22,12.42,25.82-1.97,10.47-4.77,14.55-11.45,21.99-6.46,7.34-17.54,19.2-22.14,22.1-4.05,2.72-8.72,4.32-12.96,6.7-3.27,1.87-6.33,4.22-8.96,6.93-8.31,8.43-11.2,23.62-2.68,32.86,12.19,11.57,30.49,10.21,46.11,10.3,16.84-.06,32.59.19,45.67-3.08.57-.17,1.14-.37,1.71-.58.59,2.21,1.45,4.36,2.47,6.31.75,1.38,1.68,2.62,2.71,3.78.05.09.08.18.13.27.41.76,1.06,1.33,1.81,1.7,2.02,1.85,4.31,3.44,6.61,4.89,7.15,4.58,15.43,6.63,23.65,8.37,4.93,1.27,9.85,2.58,14.87,3.42,4.27.76,8.51,1.89,12.87,1.89,2.32.06,4.63-.26,6.96-.33,3.35-.14,6.77-.34,9.88-1.7,3.98-1.56,8.3-3.26,10.57-7.13.76-1.34,1.31-2.76,1.64-4.24,3.29,1.89,7.59,3.03,13.15,2.65,12.59-.96,24.86-5.11,35.72-11.48,8.88-4.87,17.34-10.42,25.5-16.39.23-.02.47-.06.71-.13,9.41-1.85,18.19-2.32,29.71-2.37,9.08-.33,18.26.26,27.16-1.97,2.19-.46,4.31-1.22,6.36-2.1.86-.32,1.68-.77,2.39-1.34,3.2,7.74,7.13,15.1,12.6,21.66,8.97,10.49,21.77,17.67,35.44,19.67,13.15,2.27,21.52,1.4,32.6-1.88,12.12-3.34,21.19-12.33,30.63-20.11,8.02-6.69,19.14-14.27,31.93-19.48-.47.2-.71.3-.79.34.27-.11,2.75-1.16,3.54-1.42,6.75-2.71,16.04-4.2,19.63-4.56,11-.95,22.24-.85,32.78-4.59,24.17-7.67,29.89-32.87,26.94-47.54ZM89.25,203.45c-1.39,1.92-2.74,3.88-3.83,5.99-.56.87-.87,1.93-.58,2.95.1.42.28.77.51,1.09-2.88.26-5.77.47-8.67.57-9.77.04-19.54-.18-29.31-.1-11.26.02-19.4.62-27.39-1.84-2.46-.84-2.6-.69-6.35-3.2-.48-.42-.95-.85-1.36-1.33-.25-.63-.91-.42-1.64-4.64-.1-3.95-.21-3.29,1.17-7.71,2.36-4.63,3.14-5.32,7.87-9.12.1-.07.23-.15.42-.28,4.07-2.74,8.68-4.56,12.87-7.1,7.95-5.24,14.11-12.67,20.29-19.8,5.45-6.58,11.64-12.87,15.15-20.76.96-2.22,1.74-4.51,2.37-6.84.66.09,1.31.08,1.94-.04-.16.74-.27,1.49-.45,2.22-.63,3.24-.37,2.86-.51,7.84.04,8.59.56,17.23,2.36,25.64,1.25,5.1,3.08,10.03,5.09,14.88-1.54.25-2.99,1.12-3.91,2.75-1.76,3.18-13.86,12.22-20.58,17.64-.14.11-.28.22-.42.33-.18.12-.36.25-.51.41-.03.02-.06.05-.09.07.03-.02.06-.04.08-.06-.17.17-.33.34-.46.55-.42.45-.69.99-.83,1.6-.79,2.78,1.52,5.71,4.4,5.66,1.46.04,2.64-.86,3.86-1.54,1.99-1.17,3.99-2.32,5.96-3.53,5.57-3.68,11.37-7.24,15.96-12.16.52-.61,1.07-1.22,1.58-1.86.8,1.29,1.63,2.57,2.47,3.83,1.3,1.98,2.64,3.95,4.06,5.85-.52.67-1.03,1.33-1.52,2.01ZM98.17,212.3c-.1,0-.2-.01-.3,0-.49,0-.99.02-1.48,0-.88,0-1.71.15-1.6.17-.17.02-.35.05-.52.07-.96.11-1.92.21-2.89.32,1.52-1.58,3.17-3.31,4.86-5.05.83.79,1.69,1.56,2.57,2.29-.27.72-.5,1.46-.67,2.2ZM105.73,218.9c-.94-4.71-.39-1.13-.73-4.44,1,.6,2.03,1.17,3.06,1.71-.62,1.45-1.2,2.92-1.75,4.41-.2-.53-.39-1.08-.58-1.67ZM183.41,235.9c-.09.48-.23.99-.32,1.3-.16.29-.32.59-.49.87-.12.13-.25.27-.38.39-.27.17-.55.32-.84.46-.2.1-.41.19-.62.28-.05.02-.09.03-.15.05-1.94.71-3.92,1.31-5.93,1.75-4.1.34-8.22.4-12.32.71-2.98.08-5.93-.5-8.89-.81-5.63-.71-4.67-.43-10.23-1.45-10.18-2-20.09-3.61-26.44-7.76-1.57-.94-2.89-1.79-4.03-2.62.53-1.4,1.07-2.8,1.55-4.22.32-.88,1.8-4.62,1.42-3.73.19-.47.39-.94.59-1.43,1.95.66,3.93,1.24,5.92,1.7,5.56,1.03,11.23,1.03,16.87.92,9.09.2,18.17-.7,27.06-2.6,1-.2,2.01-.38,3.02-.56.3.21.61.41.93.61-.24-.19-.49-.38-.73-.56h0c3.99,3.07,1.46,1.02,5.16,3.91,5.33,4.98,8.72,8.52,8.94,10.58,0,.03,0,.05.01.07.02.71-.04,1.42-.11,2.13ZM183.37,218.58c-.68-.59-1.34-1.12-1.97-1.61.82-.17,1.64-.35,2.46-.54-.24.96-.39,1.64-.49,2.16ZM170.3,206.84c-.17.02-.35.05-.52.07-.59.08-1.19.15-1.78.23-8.72,1.18-11.6,1.94-22.06,1.9-6.34-.15-12.72.28-19.04-.36-1.48-.25-2.94-.56-4.37-1-.15-.04-.3-.1-.45-.14,1.59-2.95,3.15-5.42,4.45-6.73,4.29-3.69-.81-9.83-5.09-6.12-2.96,2.82-5.25,6.24-7.35,9.73-2.95-1.36-5.81-2.98-8.75-5.52,1.6-1.44,3.04-2.62,4.19-3.36,1.43-1.07,2.92-2.05,4.46-2.95.9-.54,1.99-.92,2.54-1.86,3.05-3.72-1.55-8.96-5.7-6.57-4.1,2.32-7.98,5.09-11.52,8.21-4.87-6.08-13.75-20.33-15.91-36.95-.61-3.7-1.56-18.61-2.64-24.35.03,0,.03-.1,0-.39-.15-1.5-.09-3.04-.27-4.53,0,0,.02-.09.04-.32-.04-1.89-1.27-2.95-2.66-3.2-.31-.82-.8-1.63-1.51-2.41-4.4-4.95-10.73-14.89-12.02-22.64-.61-3.78-1.1-4.3-.86-10.23.05-.22.1-.44.16-.66,2.58-4.01,14.62-2.77,31.49,1.48,4.21,1.03,8.72,2.18,9.86,1.79.01,0,.03,0,.04,0,2.12.6,4.58,0,6.16-2.53,1.03-1.69,8.91-10.26,14.5-14.24-.45.34-.91.69-1.36,1.03,3.07-2.24,6.25-4.32,9.44-6.38,6.06-3.6,12.24-7,18.72-9.77,2.8-1.07,5.66-1.95,8.56-2.68.38-.11.77-.19,1.16-.29-.03,0-.07,0-.1.01.9-.22,1.75-.67,2.41-1.32.25-.23.45-.49.64-.76,1.82-.34,3.49-1.59,3.99-3.67,1.5-10.27,9.51-24.29,13.6-29.61,1.66-2.18,3.57-4.16,5.69-5.9.36-.25.78-.58,1.1-.82,2.57-1.87,4.62-2.72,6.24-3.54,1.71-.34.82-.38,2.58-.29.24.14.43.26.57.35.64.57,1.02.97.42.2,2.08,2.66,1.71,1.8,2.51,3,2.58,3.98,2.05,3.78,2.99,5.47,2,4.09,1.02,1.94,2.27,4.96,1.85,4.57,2.95,9.35,3.89,14.17.29,1.03.49,2.11.85,3.13,0,.04.01.12.06.3.49,1.44,1.01,2.87,1.56,4.29.06.79.15,2.02.13,2.52-.1,4.29,1.21,7.41,5.03,9.07l1.13.89c1.79,1.4,3.6,2.77,5.42,4.13,10.38,7.69,18.81,13.02,25.28,22.07,4.5,7.73,5.4,11.21,8.03,20.24.92,3.34,1.66,6.36,2.24,9.28-.1.05-.2.1-.29.15-3.79,2.05-7.57,4.13-11.16,6.52-1.07.69-2.08,1.47-3.09,2.24-.71.6-1.62,1.11-1.87,2.06-1.33,2.83,2.1,5.8,4.76,4.19,2.94-2.27,8.11-4.95,12.83-7.2.25,2.75.35,5.56.31,8.61-2.08.86-4.14,1.76-6.17,2.73-1.85.97-3.74,1.9-5.4,3.19-.67.51-1.49.98-1.72,1.84-1.22,2.6,1.93,5.34,4.37,3.85,2.15-1.4,5.16-2.69,8.41-3.8-2.09,14.09-12.13,31.37-24.98,41.91-.26.17-.51.37-.73.59-3.02,2.38-.76.66-3.95,3.04-6.25,4.4-12.76,8.51-19.68,11.78-2.72,1.36-10.77,4.16-17.48,6.19-7.99,2.71-16.2,4.69-24.58,5.7ZM329.83,197.82c-.62.11-1.22.28-1.77.59-.53.42-5.24,1.97-9.25,2.95-6.31,1.47-8.4,1.56-15.91,1.89-7-.07-14.02-.36-20.98.61-.55.07-1.11.15-1.66.22,1.07-.87,2.15-1.73,3.21-2.61,3.63-3.67-.79-9.62-5.38-7.1-11.85,8.91-24.26,17.05-37.32,24.07-7.6,4.34-12.38,6.98-17.97,8.71-15.39,4.28-22.65,3.07-25.54.08-.68-.68-1.3-1.41-1.92-2.15-.36-.52-.66-1.08-.93-1.65-.25-.68-.43-1.38-.56-2.1-.02-.23-.03-.46-.02-.69.06-1.28-.11-1.29.66-4.33.69-2.83.42-2.37,1.02-3.41.82-.28,1.65-.57,2.47-.85,6.57-2.27,13.18-4.51,19.45-7.54,4.96-2.39,9.57-5.42,14.16-8.46,2.96-1.99,5.81-4.13,8.61-6.34.95-.74,2.04-1.54,2.9-2.47,0,.03,0,.05-.01.08,5.09-4.59,9.3-10.1,12.95-15.88,7.42-11.99,11.24-23.19,12.47-35.85,3.9-1.01,7.49-1.72,9.68-1.99.57-.09,2.18-.32,3.04-.44.09-.01.18-.02.27-.03,1.05-.12,2.2-.19,2.99-.97,2.57-1.67,2.22-5.91-.44-7.33-1.52-.89-3.18-.54-4.8-.17-2.48.48-4.95,1.01-7.37,1.73-.99.29-1.96.61-2.93.93.02-1.97,0-3.97-.07-6.04-.02-1.06-.07-2.13-.13-3.19,1.32-.58,2.37-1.02,2.97-1.28,1.27-.49,2.53-.98,3.77-1.53.19-.07.37-.14.55-.23.03-.01.05-.02.08-.03l-.07.03c.6-.32,1.12-.8,1.47-1.4,1.24-2.04.03-4.87-2.28-5.44-2.01-.41-3.99.64-5.87,1.23-.49.18-.99.37-1.48.56-.49-3.32-1.12-6.62-1.82-9.9-1.48-7-3.5-13.99-6.78-20.37,7.41,6.09,16.16,15,23.06,23.18,4.82,5.96,8.24,10.49,13.97,19.05,8.58,13.92,19.17,33.3,23.61,44.59,3.88,10.12,6.75,20.84,10.36,31.2-.15.03-.3.05-.45.09ZM548.28,160.32c-.03.38-.06.76-.09,1.15-1.55,11.36-6.62,18.89-14.62,23.17-4.04,2.43-15.51,5.19-19.91,5.35-12.76.71-25.8,1.21-37.84,5.92-7.16,2.76-14.19,5.93-20.78,9.87-4.88,2.98-9.38,6.52-13.89,10.02-11.79,9.5-19.3,17.81-30.42,20.62-9.21,2.68-15.04,2.86-23.78,1.29-5.16-.88-10.24-2.19-15.07-4.23-4.32-1.94-11.9-6.8-16.64-11.99-5.78-5.85-9.09-12.3-13.41-22.24-1.31-3.16-3.55-8.87-5.69-15.25-1.69-5.07-3.1-10.23-4.96-15.25-4.88-13.48-10.99-26.47-17.74-39.11-8.91-17.3-19.96-33.75-34.01-47.3-7.52-7.28-18.67-14.16-24.78-16.84-4.88-2.37-10-4.17-15.09-6-.7-.25-1.39-.51-2.09-.76-4.71-2.95-9.51-5.78-14.11-8.91-.15-.14-.3-.28-.46-.42-.09-2.15-.03-.89-.38-4.73-.03-.14-.06-.31-.08-.48,0-.02,0-.03,0-.05-.03-.24-.07-.48-.1-.73-.02-.17,0-.05.1.71.07-.67,0-1.37,0-2.04-.05-1.08-.07-2.16-.17-3.23.02-.55-.02-1.1-.06-1.65-.23-3.16-.3-5.73-.89-8.86,7.81-.68,15.58-1.99,23.44-2.07,7.16.15,7.15.38,13.92,1.75,6.22,1.78,5.99,1.31,11.76,4.94,4.45,3,12.76,10.73,19.92,16.91,9.8,8.2,14.65,12.1,25.76,19.21,2.09,1.04,4.08,3.22,6.59,2.54,2.44-.6,3.68-3.6,2.41-5.77-3-3.4-5.68-5-10.84-9.35-9.1-7.34-17.57-15.4-26.37-23.08-2.73-2.24-5.41-4.62-8.22-6.81,10.64-.69,19.87-3.39,28.83-4.02,9.36-.65,18.7-1.76,28.08-2.14,13.94-.49,28.63-.2,38.7,1.91,12.27,3.12,19.23,7.06,31.15,14.46,15.11,9.71,18.79,12.27,29.67,21.89,9.6,8.62,20.04,22,24.75,28.56,12.8,18.12,21.58,32.62,35.58,47.57,3.43,3.79,7.52,6.87,11.69,9.79,2.2,1.4,4.43,3.39,6.84,3.88,2.62.51,5.04-2.33,4.26-4.86-.26-.84-.74-1.56-1.42-2.1-.31-.29-.64-.57-.96-.86-1.83-1.67-6.81-5.3-10.65-9.29-5.92-6.35-9.49-10.86-13.21-16.06,2.19.57,4.57,1.16,7.28,1.88,6.94,2.16,10.66,3.62,14.63,5.33,14.55,6.66,25.91,11.69,30.84,21.56,1.56,3.38,2.76,9.05,2.54,16.19Z"/>
          <path d="M475.92,206.47s-.04.02,0,0h0Z"/>
        </g>
        <path d="M222.46,44.28c0-.06-.01-.1-.02-.15,0,0,0,0,0,.01,0,.05.01.09.02.14Z"/>
      </g>
      <path d="M438.58,182.47c.04-2.49-2.53-4.43-4.93-3.76-4.23,1.86-10.88,10.19-24.2,12.59-2.65.83-12.19,1.06-14.34.41-7.89-1.76-9.7-2.95-16.29-6.17-3.81-2.27-2.73-1.65-5.6-3.87-.79-.8-1.89-1.25-3-1.25-3.57-.1-5.56,4.65-2.96,7.12,4.66,4.35,10.21,7.56,16.06,10.03,3.85,1.71,7.79,3.29,12.01,3.79,15.41,2.36,33.12-2.39,42.08-15.88.22-.34.43-.69.63-1.04-.02.02-.04.05-.06.07.38-.62.6-1.34.59-2.07Z"/>
      <path d="M144.58,149.65c-1.54-5.2-9.2-3.14-7.95,2.13,1.01,2.89,1.57,6.29,1.53,6.45.03.48.04.96.02,1.44-.06.3-.15.71-.25,1.05-1.41,2.62-.18.89-2.25,3.15-.04.03-.06.05-.09.08-.24.16-.49.31-.73.46-1.77.9-1.5.73-2.81.89-.16,0-.33-.02-.49-.03-.3-.07-.74-.17-1.13-.3-.31-.13-.72-.3-1.09-.44-.84-.39-2.49-1.15-3.04-1.52-2.3-1.15-4.46-3.51-7.24-2.66-4.07.99-4.85,6.83-1.16,8.85,6.39,4.77,13.45,8.25,20.83,3.17,8.12-5.46,8.48-14.09,5.87-22.73Z"/>
      <g>
        <path d="M201.98,155.01c0-.08-.01-.15-.03-.23,0,.02,0,.06,0,.11,0-.02,0-.04-.01-.07,0-.03,0-.04,0-.05-.1-.48-.34-.94-.69-1.29-.96-1.02-2.73-1.03-3.71-.03-.41.46-.71,1.01-.76,1.63-.09.59-.2,1.19-.38,1.77-.01.02-.02.04-.03.06-.13.28-.36.66-.55.95-.39.44-.83.84-1.29,1.21,0,0,.02-.01.03-.02-.02.02-.04.03-.06.05-.52.37-1.07.69-1.63,1.01-.48.27-.97.51-1.47.75-.27.07-.55.13-.83.2-.08,0-.16,0-.24,0-.32-.07-.63-.15-.93-.26-.23-.11-.49-.23-.74-.36-1.34-.79-.98-.56-2.57-1.98.06-.09.12-.18.18-.27.08-.1.16-.22.25-.35.81-1.2,1.5-2.51,1.85-3.92,1.29-4.42.54-10.63-4.73-11.41.04,0-.14-.04-.62-.09-.82-.15-1.65-.02-2.46.1-3.72.71-6.99,2.85-10.18,4.81-2.14,1.43-4.41,2.88-5.72,5.17-2.02,3.47-.18,7.38,3.19,9.12,2.94,1.67,6.53,1.89,9.81,1.34.11.13.22.27.35.4.66.87,1.38,1.71,2.15,2.49.08.33.15.65.2.84.02.19.02.39.02.58-.48,2.07-.11,1.19-1.28,3.04-1.31,1.43-.15.41-2.41,1.86-.46.24-.93.48-1.4.69-.17.06-.37.13-.57.19-.7.17-.73.3-2.62.18-2.86-.64-5.3,2.66-3.77,5.22.85,1.53,2.59,1.88,4.2,1.99,2.85.28,5.6-.79,8.07-2.13,3.07-1.63,5.15-4.7,5.95-8.05,4.13,1.65,8.59,1.16,12.18-3.42,2.01-2.23,3.44-5,3.51-8.04.08-1.27-.04-2.55-.25-3.8ZM172.92,155.71c-.12-.04-.21-.07-.28-.1-.36-.17-.93-.41-1.35-.58.3-.28.59-.51.7-.61,3.3-2.37,7.6-4.82,9.45-5.3,0,1.14-.03,2.27-.14,3.4-.24,1.57-.21,1.76-.34,2.29-.05.27-.13.53-.19.79-.01.03-.02.06-.03.09-.11.01-.22.02-.32.03-.42-.06-.86-.05-1.33.08-3.22.42-3.25.61-6.16-.1Z"/>
        <path d="M201.95,154.78s0,0,0,0c0-.01,0-.02,0,0Z"/>
      </g>
      <path d="M207.18,36.6c-1.49-7.1-5.38-16.17-13.76-16.42-11.04-.02-19.04,18.98-18.98,28.39.68,6.23,9.72,6.73,11.28.69,1.68-9.15,4.97-15.85,8.38-19.05.04.02.08.05.12.07.41.37.78.78,1.13,1.21.27.4.69,1.03.89,1.44,1.8,3.61.97,1.78,2.1,5.26,1.08,4.06,1.22,6.67,1.37,7.22.02.27.05.54.07.82-.18.09-.35.18-.53.26-.09.03-.19.07-.3.1-1.77.54-3.58.94-5.41,1.2-.86.07-1.76,0-2.54.38-1.33.43-2.19,1.87-2.18,3.23.28,3.94,3.97,3.69,6.94,3.18,3.56-.54,7.39-1.23,10.15-3.71,1.54-1.5,2.06-3.59,2.08-5.69.16-2.88-.25-5.76-.78-8.59Z"/>
      <path d="M94.01,93.03c-5.75-3.22-12.7-6.57-19.42-4.87-11.51,3.77.29,22.19,4.83,28,3.11,3.07,8.09-.69,5.97-4.52-2.33-3.13-4.36-6.51-6.05-10.03-.13-.3-.26-.6-.4-.9-.06-.16-.17-.48-.3-.87-.27-.52-.77-2.51-1.04-3.57.53,0,.65.09,2.86.71,5.37,1.68,6.53,2.76,11.54,4.9-.56.6-1.18,1.26-1.46,1.48-1.32,1.33-3.26,2.52-3.16,4.63-.04,2.43,2.47,4.32,4.8,3.66,2.9-1.16,4.57-4.22,6.47-6.55,3.8-5.89.47-9.02-4.64-12.06Z"/>
      <path d="M222.06,115.31c-.46-3.11-2.94-5.64-6.23-4.77-2.47.66-4.07,3.35-3.37,5.83.68,1.88,1.27,3.82,1.7,5.77,0,.01,0,.02,0,.03,0,.13.04.53.05,1.03,0,.48-.03.87-.03,1.02-.1.45-.23.94-.3,1.2-.01.02-.02.05-.04.08-.75,1.19-.29.82-1.89,2.33-.14.08-.28.15-.42.22-.29.09-.75.23-1.15.32-.07,0-.14.01-.24.02-2.33-.04-.81.22-3.67-.59-2.23-.74-3.41-1.33-6.92-4.04-5.07-2.77-9.31,4.58-4.39,7.6,5.78,4.13,14.42,6.76,20.55,2.06-.15.13-.12.13.35-.21,3.34-2.15,5.72-5.71,6.37-9.64.48-2.75.32-5.57-.37-8.27Z"/>
      <path d="M393.63,62.27c-.21-3.35-2.99-6.05-6.34-4.34-2.35,1.39-3.08,4.42-4.38,6.68-.11.31-.24.62-.38.93-1.59-1.55-3.57-2.71-5.76-3.07-1.68-.28-3.63-.38-4.9.95-.91.86-1.23,1.99-1.11,3.09-.28,1.29,0,2.7,1.12,3.82,2.07,2.35,3.91,4.97,6.49,6.8,3.78,2.93,8.7,2.01,11.25-2.03,2.58-3.65,4.53-8.29,4.02-12.82Z"/>
      <path d="M353.94,110.56c-2.35,2.27-3.75,5.27-4.97,8.29-.43-.46-.87-.92-1.32-1.36-1.76-1.94-3.53-4.41-6.45-4.26-4.98-.09-7.66,6.36-4.09,9.84,2.94,3.13,6.23,6.24,10.37,7.65,5.37,1.57,9.87-1.76,11.85-6.64,1.38-3.17,2.7-6.49,2.61-10,0-4.17-4.99-6.26-8.02-3.51Z"/>
      <path d="M424.25,126.66c-2.33.57-4.05,2.61-5.07,4.7-.22.5-.43,1.06-.63,1.65-1.28-.99-2.68-1.8-4.16-2.48-1.25-.65-2.62-1.32-4.06-.87-2.12.49-3.17,2.61-2.92,4.54-.29,1.13-.08,2.39.93,3.39,4.06,4.18,10.82,12.17,17.01,7.48,3.67-2.98,5.73-7.94,5.48-12.64.02-3.44-3.05-6.65-6.59-5.77Z"/>
      <path d="M341.35,29.2c-5.04-.97-6.66,3.73-7.04,7.96-.28-.23-.76-.62-1.73-1.36-1.28-1.12-2.59-2.23-4.39-2.2-4.78-.02-6.53,6.53-2.36,8.89,4.39,3.27,11.08,8.71,16.15,3.75,3.16-4.17,6.26-14.97-.63-17.03Z"/>
      <path d="M501.53,159.01c-.07-2.08-.31-4.34-1.79-5.93-1.58-1.59-4.13-1.99-6.11-.93-2.04,1.1-3.11,3.15-3.73,5.3-2.02-1.14-4.33-1.71-6.66-1.16-5.98,1.63-5.9,6.86-3.14,10.19,2.47,2.88,6.28,4.03,9.78,5.15,1.16.52,2.24.65,3.18.49,1.21.43,2.58.39,3.77-.33,1.29-.68,1.91-1.98,2.44-3.27,1.41-2.98,1.95-6.26,2.26-9.52Z"/>
      <path d="M440.92,78.81c-.04-2.93-2.39-5.99-5.48-4.35-1.92,1.23-2.69,3.34-2.98,5.52-3.18-2.14-8.04-3.22-9.6,1.09-.12.53-.2,1.09-.1,1.63.07.47.07.48-.02.04,0,1.75.59,3.46,1.8,4.75,1.58,1.7,3.66,2.76,5.88,3.4,1.67.42,3.35,1.44,5.1,1.16,2.1-.22,3.3-1.77,3.55-3.48.81-1.36,1.2-2.96,1.57-4.49.24-1.69.51-1.84.28-5.26Z"/>
    </g>
  </g>
</svg>