<?xml version="1.0" encoding="UTF-8"?>
<svg id="Layer_2" data-name="Layer 2" xmlns="http://www.w3.org/2000/svg" viewBox="0 0 340.03 463.76">
  <g id="Layer_2-2" data-name="Layer 2">
    <g>
      <path d="M337.38,93.39c-3.28-6.35-10.6-9.55-17.36-6.85-4.2,1.54-7.66,4.48-11.09,7.26-9.93,8.11-15.9,15.92-22.13,24.41,1.04-6.01,1.05-12.18.59-18.25-.33-3.84-.72-7.55-1.27-11.05,3.42-1.09,7.08-2.15,11.52-3.51,3.77-.56,4.89-5.57,1.54-7.52-1.18-.65-2.49-.65-3.75-.23-1.59.39-3.19.8-4.78,1.21-2.14.53-4.25,1.14-6.35,1.8-.69-2.36-1.51-4.58-2.53-6.57.5-.34,1.01-.7,1.57-1.08,3.21-2.02,6.41-4.05,9.64-6.03,2.42-1.55,6.22-3.06,5.51-6.59-.17-2.24-2.31-3.96-4.51-3.96-1.48-.04-2.67.87-3.89,1.59-2.29,1.37-4.57,2.76-6.8,4.22-2.14,1.36-4.27,2.76-6.37,4.19-2.21-3.05-4.68-5.92-7.49-8.44-4.57-4.2-14.64-10.45-18-11.31-1.05-.81-2.29-1.32-3.42-2.01-1.58-3.08-.73-1.62-3.49-6.19-6.1-11.54-12.39-23.38-22.05-32.37-6.89-6.11-16.73-10.26-24.11.76-4.41,6.28-6.12,13.89-8.56,21.05-.63,1.89-1.29,3.77-1.97,5.64-2.34,1.18-2.86,1.13-7.06,2.91-5.24,2.28-10.36,4.81-15.6,7.08-6.07,2.68-10.49,4.26-17.81,7.92-.36.08-.72.19-1.07.29-2.84-1.81-5.62-3.72-8.59-5.31-11.45-6.41-20.12-10.96-30.56-10.01-5.47.55-11.41,2.91-14.53,7.61-.84,1.46-1.5,3.08-1.74,4.76,0,.04-.01.07-.02.11-.37,1.5-.36,1.71-.72,5-.47,2.23-1.05,12.98-.6,21.13.08,2.72.11,5.44.25,8.16.04-.14.08-.28.11-.43-.41,12.1-1.31,16.73-2.56,29.38-.53,7.4.5,14.78,1.59,22.09,3.66,18.96,11.52,31.77,26.89,42.26,4.28,2.74,8.68,5.31,13.22,7.6,0,.07-.01.13-.01.2.52,8.73,1.1,17.49.2,26.21-.1,1.98-1.98,11.79-3.48,18.26-1.58,7.4-4.47,14.41-7.34,21.39-3.58,8.83-4.46,11.8-9.72,21.52-4.61,8.82-9.73,17.35-14.52,26.06-3.56,7.12-6.23,14.77-7.62,22.62-.51,2.83-.8,5.66-.94,8.49-.54-.07-1.09-.13-1.63-.2.3.02.45.02,0-.02-1.76-.31-3.46-.92-5.16-1.49-.03-.01-.06-.02-.09-.04-.36-.16-.73-.32-1.09-.5-4.63-2.45-5.02-2.52-7.25-4.17-.03-.02-.04-.03-.07-.06-7.3-6.37-8.79-8.38-12.85-17.03-.06-.15-.11-.27-.15-.36-.15-.38-.3-.77-.44-1.15-1.84-4.7-3.12-9.59-3.89-14.58-.03-.18-.05-.32-.07-.44-.07-.57-.15-1.27-.22-1.85-.65-7.43-.17-14.9-.07-22.34.05-8.16-.06-16.34-.76-24.48-.56-6.02-1.37-12.05-3.19-17.83-1.23-3.91-3.01-7.61-4.86-11.26-2.87-5.89-6.27-11.69-11.61-15.67-5.16-4.49-12.69-7.01-19.17-3.91C6.47,194.82.11,201.16.02,208.93c-.25,4.98,2.21,9.43,4.08,13.88,2.34,5.9,3.87,8.91,6.69,16.7,3.2,9.68,3.58,24.86,2.48,40.7-.35,6.01-2.1,11.84-2.26,21.1.24,13.12,3.62,18.67,9.91,28.54,6.03,9.04,13.21,17.5,22.33,23.55,10.62,6.99,23.2,10.75,35.83,11.71,3.42.16,7.05.23,10.48-.41,2.52,12.9,6.96,25.29,11.67,37.53.46,1.76.94,3.51,1.44,5.25,2.91,9.44,6.03,15.25,8.07,20.7,2.2,5.76,3.58,12.21,6.91,17.42.11.27.21.54.32.81,2.12,4.22,1.5,2.79,3.44,5.38.03.03.06.06.09.08.38.52.78,1.03,1.21,1.51,6.53,7.2,15.89,10.39,25.47,10.33,1.33.06,2.68.05,4.01-.09,6.91.1,13.48-2.01,15.61-9.4.52-2.27.7-4.08.57-5.72.08-.27.15-.55.18-.83.61-2.71-.31-5.37-1.52-7.77-.19-.39-.19-.35-.11-.16-.06-.15-.12-.29-.19-.44-2.87-5.68-4.92-8.65-5.67-12.31-.08-1.6,0-3.2-.01-4.8.02-.27.04-.45.05-.58.02-.18.05-.36.07-.53.75-3.95.84-3.85,1.44-4.94.47-.54.97-1.05,1.51-1.53,4.35-4.26,9.53-7.69,13.17-12.63,0,0,.01-.01.02-.02,2.57-2.85,4.89-5.91,6.9-9.17.76,1.33,1.52,2.65,2.29,3.97,3.33,5.89,6.79,11.69,10.42,17.39,7.75,12.43,16.98,25.56,31.12,31.09,4.16,1.3,8.67,1.16,12.98.85,2.79-.42,5.72-.53,8.33-1.69,4.77-2.46,8.52-7.78,6.61-14.33-.94-2.85-2.34-5.54-3.99-8.03-1.53-2.21-3.32-4.28-4.4-6.78-.43-.65-2.16-5.81-1.88-7.05,0-.26.01-.47.02-.64.08-.44.17-.88.28-1.32.14-.28.28-.57.45-.82.77-1.27,5.06-4.63,10.18-11.84,4.93-7.38,8.86-15.48,11.75-23.87,2.32-7.22,2.98-14.95,2.08-22.47-1.27-8.45-3.45-17.23-8.51-24.24.71-1.65,1.4-3.31,2.07-4.98,3.02-6.69,6.98-19.38,9.47-30.02,2.86-10.35,5.8-20.69,7.49-31.3,1.79-11.97,3.77-24.11,2.96-36.25-.25-3-.63-5.98-1.05-8.96,4.43-3.57,8.04-8.11,11.79-12.37,4.83-5.94,8.94-12.42,13.21-18.76,5.39-8.06,10.65-16.22,15.26-24.76,7.12-12.93,13.92-26.44,16.17-41.17,1.02-7.01,1.37-14.58-1.95-21.05ZM83.56,357.19c-4.91-.08-9.32-1.09-16.06-2.99-8.64-2.68-18.33-6.71-26.89-15.64-5.21-5.4-7.49-9.17-12.05-17.35-4.07-8.06-3.4-6.79-4.87-13.58-1.17-5.52-.37-13.22.89-22.17.97-7.27.5-14.61-.04-21.9-.74-7.16-1.23-13.08-3.68-22.47-.93-4.02-2.67-7.77-4.12-11.62-1.71-5.01-3.72-9.89-6.24-14.55-1.59-3.46-1.17-1.94-1.87-4.99-.03-.38-.04-.76-.02-1.15.06-.31.17-.82.3-1.26,1.68-3.18.85-1.69,3.4-4.36,1.93-1.54,1.2-1.22,4.54-2.95.83-.24,1.92-.45,2.22-.52.37-.04.84-.03,1.22,0,3.28.74,2.41.48,6.32,3,.58.51.65.53.5.38,4.76,3.79,5.92,6.82,9.49,13.54,4.35,8.51,5.13,16.35,5.43,28.14.06,7.36-.13,14.72-.58,22.07-.45,7.07-1.21,14.19-.69,21.27,2.57,22.49,12.49,39.88,34.13,48.58,3.45,1.38,7.12,2.18,10.82,2.13.41,6.12,1.35,12.23,2.43,18.28-1.08.13-2.09.07-4.58.09ZM326.77,122.11c-3.37,11.17-7.68,19.29-15.03,30.24-10.85,17.17-29.17,37.67-36.6,48.28-.3.42-.67.77-.97,1.17-.6.8-.94,1.78-.94,2.78,0,.32.03.63.1.93-.25.56-.39,1.18-.37,1.87,1.11,10.9-.06,25.51-1.09,31.76-1.38,11.5-1.51,15.84-4.43,30.82-2.59,11.18-4.82,22.45-7.8,33.54-2.43,8.37-4.54,13.37-7.11,19.34-3.31,7.61-7.31,14.91-11.97,21.78-.57,1.02-1.44,1.94-1.99,2.97-.57.78-1.07,1.6-1.6,2.4-.06.08-.1.16-.15.24,0,0,0,0,0,0,0,0,0,0,0,0-.31.5-.5,1.08-.49,1.68-.03,2.01,2.05,3.59,3.98,3.04,1.54-.49,2.52-1.98,3.68-3.02-.11.07-.23.13-.34.2,4.25-4.06,4.68-5.06,7.96-9.62,2.14-3.17,4.05-6.47,5.81-9.86,1.12,2.94,1.69,6.04,2.65,10.74.67,3.66,1.77,13.77-.32,20.61-2.27,7.86-3.67,11.11-8.4,19.15-.37.63-1.79,2.59-2.41,3.44-2.4,3.05-5.23,5.71-7.94,8.47-2.24,2.54-1.92,2.28-2.58,3.22-.79,1.65-1.59,3.53-1.74,5.41-1.47,5.66.58,11.36,2.98,16.46,1.43,2.95,3.69,5.38,5.52,8.07,2.08,3.18,2.46,3.69,2.91,5.53,0,.22.01.44,0,.66-.02.09-.05.2-.08.34-.05.15-.09.27-.12.37-.2.38-.46.77-.58.96-.33.35-.73.72-1,.95-.16.1-.31.18-.44.25-1.82.58-1.36.34-4.77.67-3.41.16-6.08-.2-6.72-.21-2.17-.25-1.15.17-4.2-.81-.8-.38-2.36-1.13-2.83-1.47-1.36-.78-2.66-1.67-3.91-2.6-3.71-3.04-7.04-6.56-10.05-10.28-7.54-10.77-17.52-26.49-23.31-34.11-.58-.76-1.65-2.21-.72-.96-.22-.43-.53-.77-.93-1.02-.2-.18-.42-.31-.66-.43.04-.08.08-.16.11-.25.08-.18.16-.36.24-.55,3.23-5.96,5.91-12.38,6.49-19.15.47-5.27.21-10.59-.2-15.86-.15-1.73-.36-3.46-.63-5.17-.13-.88-.31-1.8-.95-2.45-2.76-3.87-8.96-.78-7.71,3.76.08,3.08.06,8.47-.47,13.89-.9,3.7-1.54,5.14-2.23,7.89-1.26,4.35-3.07,10.28-4.22,13.42-1.81,3.66-4.01,7.56-6.6,11.53-2.1,3.24-4.5,5.61-8.09,9.47-2.53,1.74-5.05,3.49-7.49,5.37.2-.15.4-.3.59-.45.19-.14.31-.23.21-.16l.27-.2c-.11.07-.21.16-.32.24-.04.03-.07.05-.14.1-1.49,1.06-2.97,2.2-3.83,3.85-2.6,5.43-3.25,11.72-2.31,17.63,1.1,4.81,3.79,9.02,6.56,13.09,2.19,4.17,2.51,4.52,2.73,6.87-.05-.36-.1-.72-.15-1.09.03.32.01.63-.01.95-.01.07-.02.14-.04.21-.11.48-.25.95-.41,1.41-.05.11-.12.23-.19.36-.13.22-.25.43-.39.64-.37.4-.59.62-.26.38,0,0,0,0,0,0-.13.1-.26.2-.39.3-.09.06-.23.14-.47.28-.07.04-.14.07-.2.1-.41.13-.83.24-1.25.33-.43.04-.94.08-1.33.08-.59.08-2.09-.05-2.91-.13-.14-.02-.28-.04-.41-.06-8.69-1.57-11.33-2.16-17.46-5.56-1.81-.96-2.86-1.52-3.65-2-.09-.18-.17-.36-.26-.54-3.19-8.4-11.38-32.97-17.62-48.58-2.55-6.44-4.68-13.02-6.6-19.68-2.67-8.07-4.73-16.31-6.06-24.7-2.02-11.29-2.81-19.5.46-31.01,4-13.53,8.78-20.93,17.11-37.43,3.13-5.73,6.21-11.48,8.82-17.48,8.93-18.49,15.82-41.19,16.12-57.51.03-6.54-.32-9.36-.74-12.34-.03-1-.07-2-.13-3-.05-1.2-.12-2.4-.18-3.6,2.15.74,4.3,1.45,6.51,1.97,1.19.22,2.41.73,3.62.44,5.51-.6,5.91-8.6.61-9.95-9.44-2.52-13.98-5.05-23.68-10.95-6.16-4.05-5.78-3.45-11.06-8.38-11.69-10.98-14.39-25.98-15.63-37.68-1.19-10.52.61-21.11-.07-31.65-.48-11.72-3.51-21.73-4.18-29.98-.19-5.31-.64-7.33.62-11.07.08-.15.14-.31.19-.47.15-.17.28-.35.44-.51.21-.21.38-.37.52-.49.1-.04.2-.08.3-.12.24-.16.46-.35.68-.53.1-.07.23-.15.39-.26,2.06-1.05,1.13-.93,4.44-1.52.17-.01.35-.03.52-.02,1.51-.24,2.32-.29.34-.05.88-.08,1.76-.11,2.64-.09,4.7.24,11.2,2.42,16.89,5.39,4.69,2.3,9.09,5.12,13.72,7.54,1.2.59,2.43,1.14,3.7,1.57.11.01.2.03.29.04,1.29.37,2.67.25,3.96-.03,1.61-.54,3.24-1.39,4.54-2.56,1.16-.6,2.31-1.22,3.47-1.83,4.04-2.04,8.2-3.84,12.37-5.61,5.96-2.5,11.79-5.3,17.72-7.88-.37.15-.73.3-1.1.45,4.22-2.1,10.75-2.61,12.33-7.74,2.61-7.54,4.5-16.62,6.76-20.72,2.28-3.6,1.14-2.16,4.26-5.26.11-.08.24-.14.35-.21.02,0,.03,0,.05,0,.03,0,.07.02.1.02.1.04.19.08.28.12.48.11.83.21,1.06.28.73.35,1.43.78,2.1,1.24,1.47,1.24,2.81,2.62,4.14,4,3.91,4.44,2.68,3.04,6.47,8.52,4.19,6.19,7.57,12.85,11.53,19.17.96,1.4,1.9,2.84,2.94,4.18,1.28,1.8,2.87,3.39,4.73,4.58.36.22.75.38,1.14.51,1.57.78,3.23,1.41,4.9,1.93.26.11.52.21.74.3,4.77,2.04,9.53,4.3,13.61,7.56,3.13,2.69,5.66,5.49,7.73,8.43-.38.29-.76.57-1.14.86-1.93,1.49-3.82,3.03-5.66,4.63-.77.64-1.61,1.3-1.88,2.3-1.98,4.38,3.9,8.28,7.27,4.89,2.36-2.03,4.16-3.5,5.81-4.77.58,1.35,1.08,2.73,1.54,4.13-.82.35-1.65.68-2.47,1.05-1.75.98-4.03,1.45-5.3,3.07-2.83,3.41,1.46,8.29,5.27,6.07,1.61-.78,3.13-1.47,4.62-2.1.74,3.64,1.29,7.45,1.79,11.48.84,8.64,1.06,13.69-1.02,20.85-.78,2.8-1.8,5.52-2.84,8.23l-.17.44c-.06.18.1-.21.15-.29-.04.08-.07.16-.11.23-.28.51-.41,1.09-.35,1.67-2.66,3.7-5.3,7.41-7.89,11.16-1.99,2.84-4,5.66-5.84,8.6-.77,1.47-2.07,2.82-2.2,4.52-.77,4.9,6.13,7.19,8.56,2.88,6.45-10.07,14.02-19.02,18.81-25.99,7.66-10.78,11.11-16.53,19.79-25.63,3.53-3.75,11.28-9.82,11.81-10.23,3.02-2.53,6.2-4.29,7.39-4.12.18,0,.37,0,.55,0,.17.04.39.1.65.18.21.11.41.23.61.36.7.6,1.97,2.09,2.66,5.26.27,7.44-.25,12.96-2.84,20.4Z"/>
      <g>
        <path d="M251.25,199.03c-1.62-2.36-3.78-4.26-6-6.04-3-2.5-6.37-4.51-10.09-5.72-7.18-2.26-14.88-3.33-22.29-1.58-6.7,1.45-11.31,3.8-18.84,8.8-4.28,3.08-7.97,6.86-11.77,10.48-1.43,1.57-3.72,2.89-3.69,5.25-.08,3.23,4.19,5.01,6.43,2.67,5.37-4.52,9.77-8.4,13.47-10.69,7.93-4.73,15.43-7.11,21.62-7.43,4.71.02,7.06.5,13.3,2.5,1.75.8,3.39,1.81,4.92,2.97,1.37,1.11,2.68,2.3,3.81,3.66,1.52,2.53,1.11,1.71,2.42,6.24.16.66.3,1.32.43,1.99.05.61.07,1.21.05,1.82-.01.26-.03.47-.04.67-.1.59-.25,1.16-.44,1.73-.32.66-.69,1.29-1.12,1.88-.16.18-.35.38-.58.62-.5.49-1.03.95-1.57,1.4-.27.19-.55.38-.82.56-.71.48-1.45.92-2.24,1.28-.21.07-.45.16-.71.24-3.98,1.15-5.55.2-10.59.15-6,.47-10.22,4.06-12.88,6.01-5.65,4.47-14.07,13.85-16.62,15.46-2.33,2.42-12.82,7.98-18.8,12.3.3-.23.6-.45.9-.68-3.99,2.04-2.49,8.24,2.04,8.21,2.77-.37,4.02-1.58,5.63-2.12,5.59-2.76,11-5.99,15.89-9.87,7.45-6.29,13.67-16.97,20.01-19.79,1.56-.58,1.94-1.24,5.05-1.1.34.06.44.07.32.02-.03,0-.06,0-.11,0,.04,0,.07,0,.11,0-.11-.05-.37-.15-.78-.33,4.9,1.91,10.67,2.26,15.66.51,5.03-1.93,9.7-5.82,11.63-10.95,2.53-7.05.03-14.96-3.71-21.1Z"/>
        <path d="M228.49,230.9s-.03,0-.04,0h0s.03,0,.04,0Z"/>
      </g>
      <g>
        <path d="M110,79.19c-.03-.07-.06-.14-.08-.21.03.08.06.15.08.21Z"/>
        <path d="M124.62,62.06c-3.48-1.9-7.29-3.08-11-4.44-1.65-.59-3.31-1.18-4.99-1.7-.64-.21-1.31-.45-1.99-.27-2.46.25-3.35,2.84-2.51,4.69-.02.53.1.65.28,1.77,0,0,0-.02,0-.02,0,.01,0,.02,0,.04.02.15.05.31.07.49.7,5.66,3.19,10.92,5.34,16.14.02.05.03.08.05.12.01.03.03.07.04.11-.01-.03-.03-.07-.04-.1.28.63.31.76.12.31.21.53.52,1.26.67,1.61,1.69,4.16,5.62,7.94,10.13,4.93,1.68-.99,2.91-2.54,4.37-3.8,3.01-2.77,6.24-5.8,7.47-9.81,1.22-5.02-4.42-7.9-8.02-10.06ZM123.43,75.55c-1.59,1.91-4.51,4.87-4.96,4.94-.09.05-.18.1-.27.14,0,0-.02,0-.03,0-.02-.03-.03-.06-.04-.09-1.26-3.97-2.18-8.05-3.61-11.96-.46-1.19-.9-2.58-1.31-3.96,5.2,1.99,9.54,4.03,12.51,6.79.04.05.07.08.1.12-.11.94-.77,2.01-2.39,4.02Z"/>
        <path d="M104.41,62.11c.04.32.09.65.13.97-.02-.17-.04-.33-.06-.47-.02-.16-.05-.33-.07-.49,0,0,0,0,0-.01Z"/>
      </g>
      <path d="M222.56,36.23c-1.41-4.51-3.13-9.41-6.89-12.49-7.34-5.87-11.35,4.04-12.3,10.09-.32,2.48-1.23,5.54-.46,7.95.44,1.18,1.35,1.82,2.36,2.03.02,0,.03.01.05.02.38.21,1.72.86,2.23.94,3.59.64,7.4.82,10.93-.21,3.36-.93,5.54-3.16,4.09-8.31ZM216.27,38.52s-.05,0-.07,0c-1.16-.17-2.3-.39-3.47-.44-.48-.03-1.83-.13-2.46-.17-.24-.05-.48-.1-.73-.16.09-1.93.38-3.49,1.19-6.8.1-.34.39-1.11.58-1.61.12-.28.27-.55.44-.8,2.27,2.25,5.08,7.59,5.48,10.02-.35,0-.74,0-.96-.03Z"/>
      <path d="M174.96,101.68c-1.56-3.2-6.05-4.81-8.79-2.1-2.48,2.49-1.69,6.99.58,9.75,2.09,3.58,6.46,4.12,8.92.33,1.52-2.54.74-5.6-.71-7.98Z"/>
      <path d="M242.78,78.58c-.14-.87-.41-1.77-.82-2.6-.02-.05-.03-.11-.06-.16-.35-1.09-1.03-2.23-1.98-2.93-.15-.18-.3-.35-.47-.51-1.92-1.93-4.96-1.66-6.4.68-2.21,3.4-.05,7.7,2.88,9.88,3.19,2.09,7.65-.46,6.84-4.36Z"/>
      <g>
        <path d="M216.91,98.22c-.05,0-.1.01-.16.02.05,0,.15-.02.28-.03-.04,0-.09,0-.13.01Z"/>
        <path d="M236.39,104.81c-.48-1.38-2.42-1.74-3.42-.71-.81.85-.7,2.16-1.12,3.21-.14.29-.29.58-.48.84-.02.02-.01.02-.02.03-.56.66-1.29,1.25-2.67,1.81-1.75.69-.54.28-3.6.69-.02,0-.05,0-.09,0-.23-.06-.45-.12-.68-.2-.24-.12-.53-.31-.76-.47-.21-.19-.42-.37-.63-.56-.12-.11-.22-.21-.33-.31-.55-1.08-1.2-2.11-1.96-3.03.77-.88,1.95-2.34,2.9-4.74,1.41-3.58.11-8.13-3.97-9.05-2.01-.39-4.07-.16-6.08.08-2.01.27-4.04.64-5.84,1.61-3.71,1.68-6.32,5.92-4.07,9.77,1.99,2.95,5.65,3.86,8.91,4.67.59.08,1.2.25,1.81.39.55,1.37,1.52,2.6,2.17,3.9.11.19.22.42.31.63.15.42.3.84.42,1.27.05.19.08.38.12.57.02.43.07,1.21.06,1.68,0,.01,0,.03-.01.05-.06.12-.12.24-.19.36-.04.06-.07.11-.11.16-.14.17-.28.33-.44.49-.15.15-.32.28-.48.42-1.47.78-.57.47-2.51.9-.05,0-.11,0-.16,0-.08-.02-.15-.04-.21-.06-.11-.06-.23-.1-.34-.16-.72-.5-1.52-.85-2.28-1.29-.62-.34-1.22-.82-1.95-.82-1.19-.24-2.47.46-3.06,1.5-.73,1.28-.43,2.97.67,3.91.07.13,1.18,1.15,1.6,1.51,3.34,3.17,8.41,2.4,12.01.08,2.12-1.41,3.81-3.56,4.28-6.05.05.01.1.03.15.04,4.98.9,9.89-2.98,11.64-7.47.6-1.77.84-3.85.4-5.67ZM211.06,101.54c-.37-.15-.73-.35-1.06-.58-.06-.06-.14-.13-.21-.2,0,0,0,0,0,0,1.45-1.4,2.39-1.75,6.91-2.52.02,0,.04,0,.05,0-.07,0-.04,0,.16-.02l.41-.06c-.1.02-.2.03-.28.04.04,0,.08,0,.13-.01.38-.04.76-.04,1.14-.03,0,0,0,0,0,.01,0,0,0,0,0,0,0,.05-.02.09-.03.15-.05,1.34-1.29,2.84-2.52,4.81-2.37-.65-3.61-1.14-4.69-1.6Z"/>
      </g>
      <path d="M155.59,129.24c-7.6,2.82-15.13,5.87-22.44,9.39-1.52.72-3.03,1.45-4.54,2.18-1,.38-1.87,1.13-2.13,2.2-.44,1.56.6,3.31,2.17,3.7,2.24.21,1.52-.14,2.85-.53,7.25-2.9,10.58-4.26,17.14-6.79,3.1-1.3,7.27-2.24,10.07-3.75,3.21-2.27.65-7.45-3.12-6.4Z"/>
      <path d="M159.51,138.93c-5.61,5.24-11.44,10.26-16.83,15.73-1.78,1.99-4.23,3.64-5.42,6.06-1.57,3.19,1.85,6.94,5.2,5.93,2.07-.63,4.37-3.25,8.09-6.21,3.85-3.17,7.57-6.49,11.31-9.79,1.65-1.45,3.28-2.91,4.91-4.37.53-.49.9-1.07,1.11-1.74,2.25-5.07-4.45-9.52-8.37-5.63Z"/>
    </g>
  </g>
</svg>