<?xml version="1.0" encoding="UTF-8"?>
<svg id="Layer_2" data-name="Layer 2" xmlns="http://www.w3.org/2000/svg" viewBox="0 0 503.96 414.52">
  <g id="Layer_2-2" data-name="Layer 2">
    <g>
      <g>
        <path d="M461.05,90.81c.01.12.03.24.05.36,0-.05,0-.1-.01-.15-.01-.07-.03-.14-.04-.21Z"/>
        <g>
          <path d="M158.99,368.89s.01-.01.02-.02h0s0,0,0,0c0,0-.01.01-.02.02,0,0,0,0,0,0Z"/>
          <g>
            <path d="M52.62,211.06c-.01-.08-.02-.16-.03-.24-.05-.38-.11-.75-.16-1.13.06.46.12.91.18,1.37Z"/>
            <path d="M502.14,107.36c-2.19-.96-8.85-1.18-13.95-1.54-5.89-.37-11.78-.57-17.68-.59.24-1.92.44-3.85.58-5.78,6.96-1.19,13.92-2.37,20.82-3.88,2.13-.68,5.01-.61,6.79-1.9,2.47-1.6,2.13-5.68-.42-7.04-2.61-1.06-2.55-.42-3.53-.45-2.61.26-5.24.47-7.84.83-5.33.73-10.65,1.55-15.95,2.45-.11-.76-.23-1.52-.37-2.27-.05-.67-.19-1.34-.36-1.99-1.23-4.9-3.1-9.63-4.94-14.33,0,0,0,0,0,0-2.04-4.92-4.1-9.86-6.74-14.49-1.9-3.1-4.26-5.89-6.55-8.71-1.73-2.48-1.43-2.55-1.73-3.13-.66-2.13-1.02-4.34-1.37-6.54,0-.32,0-.63-.06-.95-.39-5.51-.24-3.12-.74-7.1-.72-6.07-1.93-12.07-3.84-17.88-.26-.79-.54-1.42-.9-1.96-.01-.08-.07-.22-.2-.47-.54-1.17-1.25-2.24-2.02-3.27-.61-1.03-1.42-1.88-2.27-2.71-13.45-11.97-28.74,8.28-36.6,20.64-.26.46-1.24,1.83-1.71,2.49-.07.08-.13.17-.21.25-.02.02-.03.03-.05.05,0,0,0,0,0,0-.03,0-.05.02-.08.03-.1,0-.19,0-.29,0-6.39.09-13.92-.58-23.97-.94-8.49-.31-16.95.62-25.44.67-1.15-.01-2.31-.07-3.45-.17-.62-.1-1.23-.24-1.83-.41-.36-.21-.71-.43-1.06-.66-.54-.46-1.06-.94-1.54-1.46-.02-.02-.03-.04-.05-.06-.4-.6-.78-1.22-1.14-1.86-.98-1.67-2.25-3.9-5.71-8.32-2.79-3.56-6.13-6.68-9.94-9.11-.28-.18-.57-.33-.88-.45-4.72-2.5-10.07-4.42-15.42-2.99-3.08.81-6.02,2.24-8.12,4.7.07-.06.13-.1.19-.15-.27.23-.58.51-.8.75-2.65,3-5.06,6.26-7.08,9.72-3.68,6.94-6.79,14.22-9.19,21.7-1.97,6.73-3.37,13.64-6.02,20.16-3.7,9.96-3.8,11.03-6.8,20.98-1.1,4.26-2.22,8.54-2.88,12.9-.41,3.43-.62,6.89-.65,10.35-7.25.79-14.25,1.91-21.31,3.32-1.33.27-2.6.76-3.88,1.2-.81.33-.83.34-.07.02-.34.08-.64.23-.89.46-.58.37-.98,1.06-1.01,1.75-.31,1.64,1.3,3.12,2.89,2.91-.21.04-.03.05.45.05,1.41.06,2.81.1,4.22.04,5.19.1,10.38-.1,15.56-.41,1.46-.12,2.93-.22,4.39-.33.38,3.96,1.19,7.77,2.37,11.41-9.9,3.15-19.41,6.62-25.91,9.77-2.82.68-3.35,4.71-.8,6.11,1.14.65,2.4.47,3.58.01,1.7-.56,3.37-1.22,5.07-1.81,6.87-2.55,13.74-5.12,20.67-7.53,3.02,6.36,7.24,12.08,12.37,16.99-6.72,8.58-15.3,16.67-25.46,22.77-9.24,5.61-18.84,10.55-28.37,15.65-10.31,5.77-20.59,11.58-30.8,17.53-12.3,7.87-24.99,15.64-34.94,26.48-5.57,6.43-11.08,13.09-16.26,20.55-.89-.86-2.1-1.41-3.51-1.38-.01,0-.01,0-.02,0-.14-.01-.28-.03-.43-.03-2.69-.03-8.42-1.4-16.93-3.92-10.05-3.44-12.85-4.17-18.53-8.94-4.13-4.08-2.99-2.71-6.41-8.78-4.11-8.07-5.37-13.36-8.23-24.68-3.41-12.02-6.4-24.21-10.87-35.89-4.61-12.43-11.3-23.98-19.94-34.04-4.56-5.22-10.14-9.42-15.91-13.21-.44-.36-.01,0,.36.31-4.79-3.82-10.96-5.46-16.97-6.19-4.04-.5-8.14-.91-12.18-.16-3.4.46-6.51,2.05-9.02,4.37-2.99,2.42-5.69,5.29-7.58,8.66-3.53,5.99-5.61,14.04-1.8,20.36,2.66,3.89,7.11,6.04,11.16,8.18,8.41,3.75,13.38,5.12,23.24,11.14,5.2,3.42,4.36,2.82,7.04,6.24,3.41,5.03,3.97,6.58,4.9,9.5,1.74,6.48,1.46,5.55,2.17,12.26.68,5.87,1.27,11.74,2.04,17.6.9,6.64,2.42,13.2,4.31,19.63,2.27,6.04,2.54,6.48,4.46,10.9,5.9,13.81,17.12,24.75,30.02,32.15,5.27,2.82,5.76,3,12.98,5.61,5.57,1.45,11.29,2.35,17.01,2.9,3.93.36,7.89.38,11.83.03-1.31,4.07-2.39,8.2-3.11,12.41-1.13,8.52-1.12,19.24-2.02,22.9-2.99,12.3-6.02,15.1-14.38,30.89-6.27,12.44-12.89,25.18-15.03,39.09-.53,4.49-.65,5.57-.75,7.09-.22,2.63.11,5.3,1.29,7.67,3.65,8.39,13.72,14.83,22.83,11.58,8.96-3.12,15.25-10.79,20.63-18.24,5.18-6.61,8.94-14.11,12.95-21.44.94-1.54,1.91-3.07,2.96-4.53.03-.03.06-.07.09-.1.24-.23.47-.48.71-.71,2.73-1.67,2.05-.89,6.5-2.18,4.94-1.12,9.88-2.29,14.76-3.67-.25,1.06-.51,2.12-.79,3.13-1.98,10.03-2.75,14.49-3.31,23.11-.24,4.98-.77,10.15.68,14.99,4.9,12.77,15.54,9.75,24.47,3.04,7.21-5.35,11.83-13.45,15.93-21.28,2.86-5.51,6.3-12.12,8.36-13.73,2.65-1.72,6.71-2.66,12.44-5.17,8.23-3.79,16.15-8.61,22.16-15.5,4.16-4.58,6.86-10.12,8.94-15.9,1.37-3.43,2.49-6.97,3.08-10.61,10.66-2.79,20.72-7.58,30.72-12.14,16.21-7.93,31.5-17.9,44.99-29.9,9.49-8.21,17.59-17.83,25.66-27.39,3.44-4.1,6.56-8.44,8.98-13.22.28-.58.56-1.17.82-1.77,0,0,0,.02,0,.02.11-.19.19-.39.27-.59.58.06,1.18.23,3.08.62.59.15,1.18.32,1.76.53.36.17.73.34,1.09.51,5.65,2.42,11.44,6.73,17.87,5.18,4.27-1.1,7.82-3.84,10.34-7.41,3-3.5,5.21-7.74,5.32-12.43.46-4.25-1.38-8.09-3.83-11.23,3.97-.2,7.51,0,13.7.26,6.67.64,9.29.53,17.34,3.57.51.19,1.01.42,3.59,1.56,4.12,1.94,8.23,4.01,12.7,5.04,5.52.87,11.54,1.49,16.69-1.17,8.07-5.15,9.19-12.01,6.19-20.68-2.39-7.76-8.27-13.71-14.73-18.33-5.65-4.44-12.38-7.09-18.93-9.9-6.71-2.82-13.28-6.04-20.29-8.05-2.38-.62-4.77-1.18-7.18-1.67,1.55-.58,3.16-1.19,4.75-1.81,1.27-.33,2.43-1.11,3.66-1.56,2.61-1.22,5.17-2.54,7.61-4.09,8.9-5.42,14.73-14.14,18.56-23.66,3.43-8.94,4.81-14.52,6-21.38,5.53,0,11.06.1,16.59.19,4,.04,8.01.25,12.01.22,1.71-.02,3.7.36,5-1.03,1.72-1.62,1.31-4.64-.74-5.8ZM160.77,256.61c6.41-9.01,11.03-15.79,21.44-25.14,8.03-7.06,24.57-17.45,38.45-24.97,18.26-10.89,37.45-20.59,54.03-34,2.37-2.02,4.65-4.16,6.84-6.39.93,1.75,1.35,4.17,1.64,6.3.03.21.07.41.1.62.4,3.53.96,7.07.85,10.62-.04.38-.07.66-.09.86-.33,1.98-.81,3.92-1.34,5.85-.59,2.08-1.31,4.13-2.11,6.14-2.52,5.81-6.46,10.62-7.99,12.59-4.69,5.75-10.01,10.95-15.52,15.9-5.39,5.06-11.51,10.67-14.26,12.24-11.58,8.42-25.44,13.31-36.34,22.7-7.96,6.46-13.73,15.07-21.32,21.92-10.43,10.11-13.61,11.69-22.74,11.34-.36-.02-.72-.07-1.08-.1-.63-.1-1.26-.22-1.88-.37-2.36-.53-4.65-1.34-6.93-2.14-3.62-1.62-2.77-1.52-5.81-2.99-.37-.3-.79-.53-1.22-.69,3.14-10.77,7.49-18.51,15.26-30.28ZM31.59,148.59c-9.22-4.22-11.64-3.8-19.48-8.79-.12-.11-.23-.21-.34-.32-.02-.03-.03-.05-.05-.08-.06-.24-.1-.43-.13-.55-.06-.69-.07-1.38-.02-2.07.13-.75.35-1.47.6-2.18,2.58-5.68,2.95-5.43,8.19-10.4.22-.14.45-.26.69-.38.83-.29,1.68-.51,2.54-.69,4.85-.53,14.93-.32,20.5,3.52.07.04.15.07.22.11-.07-.01-.06.01.11.1,3.78,2.65,3.05,2.23,5.13,3.82,3.16,2.53,5.99,5.45,8.59,8.55-.27-.35-.53-.7-.8-1.05.42.52.83,1.06,1.24,1.61-.95,1.56-1.66,3.39-2.19,4.93-.27.56-.59,1.09-.95,1.6-.01.02-.02.02-.03.04-2.15,2.91-7.78,4.34-11.84,8.75-3.81-2.49-7.89-4.59-12-6.51ZM105.56,267.9c-13.05-6.08-19.19-10.01-28.44-20.82-5.41-7.54-7.54-12.95-10-19.62-3.19-11.5-4.02-17.14-4.58-27.43-1.07-14.28-.95-22.4-6.18-31.43-1.6-2.57-3.29-5.14-5.3-7.42.16-.16.34-.34.56-.56.08-.07.14-.11.2-.17,2.18-1.52,4.66-2.56,6.78-4.16,2.68-1.82,4.9-4.26,6.32-7.14,4.82,7.99,9.05,17.2,11.73,26.79,3.22,12.9,5.39,24.5,7.56,33.45,1.57,6.48,3.31,12.93,6.07,19.01,2.41,5.63,5.27,11.23,9.74,15.52,2.67,2.45,5.48,4.86,8.67,6.59,7.33,3.39,15.27,5.21,23.18,6.69,6.41,1.06,7.88,1.67,12.18,1.39-2.64,4.42-5.16,9.13-7.5,14.24-.12,0-.23-.02-.35-.02-10.45.96-24.55-2.4-30.66-4.92ZM253.77,341.66c-1.21,1.45-2.49,2.84-3.88,4.13-.63.68-3.71,3.31-4.28,3.84-7.05,5.27-16.66,9.45-21.04,11.05-7.9,2.71-11.6,10.75-15.48,17.51-3.83,7.34-7.99,14.66-11.14,17.85-2.83,2.66-3.68,3.56-8.76,6.01-.23.07-.52.16-.83.23-.05,0-.11,0-.17,0-.05-.05-.09-.1-.13-.14-.25-.37-.49-.75-.69-1.15-.09-.27-.19-.64-.27-1-.07-.73-.24-2.3-.28-2.96-.32-13.53,1.36-26.9,1.89-36.78,4.11-1.43,8.14-3.08,12.04-5.05,7.11-3.45,13.61-8,19.76-12.94,5.35-4.09,9.96-9.01,14.1-14.31,5.27.75,10.6.35,15.89-.04,3.43-.28,6.86-.63,10.28-1.08-1.29,4.35-3.58,10.04-7.01,14.82ZM451.85,134.17c-.04.11-.09.22-.13.33-1.49,3.53-3.23,6.97-5.5,10.05-1.58,1.93-3.36,3.68-5.3,5.26-2.22,1.65-1.07.93-4.63,3.17-4.34,2.62-6.1,3.2-8.55,4.69-4.68,2.65-9.36,5.28-11.12,6.23-.25.15-.46.31-.65.49-2.65-.25-5.31-.42-7.97-.47-1.67-.06-3.33-.01-5,0-1.31-.05-2.71.08-3.66,1.09-2.35,2.24-.63,6.43,2.62,6.35,16.39-.11,32.56,4.54,44.12,10.29,5.22,2.38,10.5,4.61,15.66,7.13,2.72,1.39,5.29,3.03,7.74,4.85.07.06.14.11.22.17,4.62,3.91,5.62,5.18,7.62,8.49,1.68,3.43,1,1.37,2.08,5.95.14.69.31,1.08.18,3.87-.04.07-.09.14-.13.21-.46.48-.97.92-1.49,1.34-.1.07-.21.13-.31.2-.35.1-.7.18-1.05.25-.04,0-.08,0-.13.01-5.5-.11-4.39.04-11.1-1.58-5.06-1.73-9.96-3.91-15.17-5.18-10.42-2.65-21.47-3.43-32.13-1.94-2.06.61-4.14,1.24-6.1,2.11.36-.15.72-.3,1.09-.45-.66.24-1.36.44-2.02.7-.02,0-.04,0-.07.02-8.63-6.58-18.92-10.54-29.64-12.07-8.39-1.36-16.86-2.34-25.36-1.81-3.99.2-8.87.87-11.87,1.69-2.65.91-2.86,4.87-.43,6.19.91.57,1.96.47,2.98.4,1.3-.06,2.61-.1,3.91-.11,16.66-.02,33.82,1.97,45.57,7.66,4.12,2.18,10.45,6.88,10.74,7.24,4.24,3.69,4.2,3.41,6.17,7.32.05.16.1.33.15.51,0,.43,0,1.25-.03,1.95-.07.37-.24,1.26-.45,1.83-.02.04-.03.07-.04.1-.41.88-.92,1.7-1.5,2.48-.46.56-1.44,1.78-1.92,2.25-.39.4-.79.78-1.22,1.15-.19.12-.37.26-.56.37-.2.11-.36.19-.5.27-.51.17-1.02.31-1.54.43-.64-.17-1.27-.39-1.89-.62-.18-.07-.36-.14-.53-.21-1-.46-3.83-1.71-4.63-2.11-3.82-1.8-7.7-3.64-11.97-4.01-7.21-.83-14.48.51-21.72.42-8.41.17-16.77-.84-25.1-1.85-3.4-.54-6.79-1.1-10.13-1.93-2.08-.37-4.15-1.56-6.28-1.26-5.32.57-5.8,8.35-.59,9.69,7.82,2.61,15.96,3.95,24.11,5,8.23,1.31,16.54,1.72,24.85,1.53-.27.32-.52.65-.8.97-2.36,3.22-6.87,8.29-11.79,14.25-11.95,15.04-24.09,25.6-37.76,34.46-10.14,6.4-20.65,12.2-31.72,16.85-5.37,2.14-10.81,4.77-19.34,7.27-10.59,2.28-14.47,2.62-24.41,3.47-1.2.09-2.41.15-3.61.2,2.48-3.56,4.83-7.2,6.93-11,.9-1.89,1.88-3.82,2.59-5.79.21-.42.41-.85.61-1.27,1.21-2.58,2.37-5.18,3.48-7.8.16-.29.28-.59.39-.9.54-1.07.67-2.31.37-3.47-.63-2.56-3.51-4.21-6.04-3.49-1.25.41-2.35,1.12-2.99,2.3-.46.86.35-.38.61-.66-1.8,2.26-3.11,4.87-4.75,7.25-.5.79-1.04,1.56-1.53,2.35-.22.28-.49.63-.73.96-2.47,3.09-4.56,6.44-6.8,9.69-8.04,10.91-10.03,14.97-19.86,24.12-7.77,7.01-16.1,12.84-28.72,18.74-3.92,1.92-14.08,5.33-22.42,7.77-3.34,1.21-6.99,1.86-9.97,3.88-2.06,1.36-3.55,3.35-5.02,5.3-2.5,3.17-4.56,6.65-6.69,10.07-5.19,9.61-14.22,20.69-18.08,23.42-4.18,2.84-3.37,2.49-6.39,3.18-.19,0-.39,0-.58-.01-.07-.01-.15-.03-.24-.05-.1-.02-.2-.06-.3-.09-3.74-1.9-2.69-1.22-4.86-3.47-.13-.2-.26-.41-.37-.62-.3-.51-.57-1.03-.83-1.56-.01-.04-.03-.09-.04-.13,0-.01,0-.02,0-.04.02-2.82.06-5.64.23-8.45.05-.53.1-1.06.14-1.6,0-.06.02-.13.03-.19,1.7-9.94,3.98-15.95,7.04-22.64,2.98-6.7,6.63-13.06,10.56-19.26,4.72-7.86,11.74-15.56,13.52-28.12.92-5.88,1.02-11.84,1.52-17.76.12.11.25.22.38.33,1.95,1.67,4.03,3.23,6.29,4.46.2.09.39.17.56.24-.1-.04-.2-.08-.32-.13,2.47,1.04,4.99,2.13,7.7,2.3,11.98,1.69,23.28-2.95,36.2-15.37,5.28-4.82,9.28-10.79,13.98-16.13,4.24-4.83,9.19-8.78,11.47-10.28,6.38-4.1,13.42-7.05,20.08-10.64,10.39-5.59,19.89-12.76,28.01-21.32,4.67-4.41,11.86-13.07,13.12-14.87.04-.05.08-.1.12-.15,5.39-6.68,9.71-14.2,11.93-22.53,1.31-3.81,2.4-7.73,2.62-11.78.12-3.17-.57-6.3-.94-9.43-.68-5.03-2.41-10.68-6.19-14.24.72-.9,1.43-1.81,2.11-2.74.95-1.28,1.89-2.57,2.8-3.88,2.21,1.57,4.52,3.03,6.94,4.34,5.61,3,10.15-5,4.8-8.31-6.83-3.88-7.81-4.81-13.1-9.81-.02-.02-.03-.03-.04-.05.34-.01.69-.03,1.03-.07,0,0,0,0,0,0,.03,0,.05,0,.08,0,.58-.05,1.15-.12,1.73-.17,12.3-.65,24.05-4.98,34.7-11,.09-.05.17-.12.26-.18-.03.02-.05.04-.08.06.57-.36,1.14-.73,1.72-1.09,3.11-1.98,6.22-3.95,9.28-6.01,5.89-4.15,3.94-2.9,7.71-5.73,6.21-5.09,11.82-10.93,17.17-16.9,5.44-6.18,9.09-13.6,12.02-21.24,1.34-3.39,2.22-6.94,3.16-10.46.17.39.41.95.88,1.99,1.03,2.21,2.32,4.3,3.27,6.55.69,1.58,1.44,4.19,3.77,8,1.68,2.65,3.12,5.45,4.71,8.15,1.5,2.42,3.27,4.65,4.87,7,3.92,6.46,8.82,12.22,14.13,17.57,9.89,9.79,28.35,16.05,42.11,13.6-.67,1.91-1.38,3.8-2.12,5.69ZM461.12,91.25s-.01-.05-.02-.08c0,.03,0,.06,0,.09-3.01.58-6.01,1.17-9,1.83-1.03.23-2.15.38-2.94,1.14-4.25,3.05-.89,9.85,4.14,8.48,2.47-.52,4.95-.99,7.44-1.44-.19,1.24-.44,2.63-.73,4.09-2.38.07-4.76.22-7.13.32-1.13.13-2.35-.07-3.38.46-4.3,1.61-2.95,8.22,1.63,8.15,2.34-.15,4.68-.25,7.01-.33-.56,2.35-1.13,4.57-1.64,6.4-.15.02-.31.05-.47.1-6.67,1.74-13.18.51-22.38-2.96-.07-.03-.15-.06-.23-.09-.32-.15-.64-.3-.96-.45-2.34-1.14-4.52-2.56-6.61-4.11-3.76-2.94-7.18-6.26-10.26-9.9-1.94-2.19-4.17-4.12-6.05-6.36-1.33-1.7-5.26-6.73-9.03-11.07-1.92-2.76-3.8-5.55-5.83-8.24-2.04-2.65-3.07-5.87-4.73-8.74-1.28-2.19-2.63-4.35-3.69-6.67-.63-1.64-1.29-3.27-2.16-4.79-1.46-3.27-5.37-4.14-7.96-1.58-2.72,2.72-3.51,6.62-4.76,10.13-3.3,8.86-3.91,12.2-8.92,20.94-3.91,6.86-15.45,18.25-21.42,22.36-5.44,3.46-11.42,5.98-17.19,8.83.42-.17.85-.35,1.27-.52-6.07,2.83-10.06,4.94-13.51,6.03-4.28,1.62-8.66,2.98-13.13,3.95-3.17.7-6.42,1.06-9.55,1.97-.05.02-.09.04-.14.06-2.03.26-1.45-.01-4.23.12-.55-1.01-1.06-2.04-1.54-3.08,1.04-.33,2.07-.66,3.12-.99,2.98-.92,5.96-1.83,8.98-2.62,1.32-.33,2.84-.59,3.53-1.92,1.47-2.36-.97-5.55-3.64-4.74-4.37,1.1-9.21,2.42-14.17,3.86-.13-.49-.25-.98-.36-1.47-.9-3.99-.64-3.34-.91-5-.07-.88-.12-1.77-.15-2.65,2.51-.15,5.03-.31,7.54-.43,1.92-.06,3.84-.13,5.76-.16,1.12-.06,2.33.16,3.35-.39,4.51-1.72,3.12-8.58-1.7-8.55-5.11-.06-9.99.06-14.72.32.24-3.05.61-5.64.91-7.33,3.39-13,7.16-19.67,10.06-29.32,3.4-9.14,4.14-18.93,6.75-28.28,3.5-11.92,6.68-18.33,10.51-23.7.06-.09.13-.18.2-.26.42-.44.86-.86,1.33-1.25.08-.05.16-.09.23-.13.45-.17.91-.29,1.37-.38,2.14-.04,1.19-.28,3.81.6,1.43.72,2.77,1.59,4.08,2.5.41.39.87.74,1.4,1.02.09.07.17.12.23.16.4.32.79.65,1.17,1,1.67,1.49,3.11,3.2,4.48,4.96.04.06.09.12.14.18,4.18,5.89,2.78,5.62,7.28,11.08,3.12,3.14,7.53,5.17,14.61,5.55,5.5.27,10.99-.39,16.49-.53,5.33-.21,10.67.18,16.01,0,6.59-.22,6.91-.39,12.2-.61,3.84-.25,5.38-.43,6.69-.66,2.24-.42,4.6-1.26,6.02-3.12.02-.02.03-.05.05-.07,1.94-1.97,3.43-4.34,5.08-6.55.31-.45,1.03-1.39,1.22-1.65.05-.06.12-.15.23-.29,3.29-4.47,10-10.28,11.39-10.94,1.26-.86,2.56-1.67,3.95-2.3.1-.03.2-.07.33-.11.18-.04.32-.08.43-.1.19,0,.38,0,.57,0,.08.02.18.05.3.08.12.07.24.14.36.21.2.18.39.36.57.56.16.26.31.53.47.8.09.28.18.55.26.83.09.33.16.67.23,1,.04.34.09.68.18,1.02,2.41,7.83,3.39,16,5.46,23.91.07.29.16.58.27.87-.13.2.62,3.43.78,4.42.6,2.81,1.6,5.57,3.11,8.02,3.15,4.57,6.61,7.78,7.4,9.36,4.36,7.3,7.33,15.34,11.04,22.98.02.04.04.08.05.12.05.13.12.3.23.53.45,1.05.74,2.23,1.15,3.32,0,0,0-.01-.01-.02.13.59.23,1.19.33,1.78-.05-.48-.02-.8.03.06,0,.05,0,.1.01.15.01.08.03.16.04.23,0,0,0,0-.01,0Z"/>
          </g>
        </g>
        <path d="M465.29,70.86c.13.31.25.61.38.92.3.96-.1-.53-.38-.92Z"/>
      </g>
      <path d="M343.77,86.35c-2.28-2.3-6.25-2.18-8.46.14-.04.05-.09.11-.13.16-.74.49-1.35,1.17-1.71,1.98-.07.1-.14.2-.2.3-.72,1.19-1.06,2.47-1.09,3.71-.34,1.81-.16,3.73.71,5.34,2.29,3.94,8.4,3.84,10.58-.24,2.69-3.09,3.16-8.35.3-11.4Z"/>
      <path d="M426.64,87.77c.05-3.25-1.22-7.02-6.05-7.36-7.92.16-11.21,12.65-2.9,15.21.07.05.13.1.2.14,3.05,1.79,7.15.02,8.33-3.22.54-1.45.68-3.15.42-4.77Z"/>
      <path d="M401.7,119c-.86-1.31-2.69-1.87-4.18-1.46-.81.27-1.54.7-2.06,1.35-.31.33-1.25,1.41-1.83,1.89-.1.07-.21.15-.31.22-.31.21-.61.42-.93.62-1.28-1.25-2.51-2.54-3.64-3.93-.14-.2-.27-.4-.39-.62,1.05-1.02,2.12-2.32,3.09-3.87,1.29-1.79,2.62-3.78,2.53-6.08-.09-4.78-5.7-5.75-9.52-6.02-2.83-.42-5.71-.54-8.52.11-1.91.33-3.87.87-5.27,2.28-3.88,4.05-1.15,8.15,2.41,11.18,1.5,1.18,3.03,2.32,4.68,3.28-.02,1.51.14.53-.71,3.4-.02.06-.03.09-.05.15-.13.27-.27.52-.43.76-.34.4-.7.79-1.1,1.14-.07.06-.14.11-.2.17-.05.03-.08.05-.13.09-.67.48-2.44,1.24-1.98,1.05-.03.01-.06.02-.09.04-.06.02-.17.05-.4.13,0,0-.01,0-.02,0,0,0-.02,0-.02,0-.47-.12-1.36-.34-2.07-.57-.08-.04-.55-.26-1.1-.58-.53-.32-.99-.65-1.07-.7-.72-.56-1.35-1.04-.05-.04-.25-.21-.53-.4-.79-.59.11.03-.68-.64-1.32-.81-2.61-1.3-5.91,1.04-5.8,3.89.05.76.24,1.49.61,2.13-.01-.02-.03-.04-.04-.05.01.02.03.04.04.06.08.14.18.27.28.41.49.7,1.03,1.36,1.7,1.91,2.98,2.58,6.89,4.77,10.94,4.47,4.12-.47,7.84-3.05,10.28-6.34,4.84,5.12,10.67,2.88,11.94,1.59,2.93-2.09,8.44-6.8,5.55-10.66ZM379.3,107.13c2.91-.24,4.45-.04,5.84.18.51.09,1.01.22,1.51.36-.08.11-.16.23-.26.37-.57.7-2,2.47-2.42,2.92-.07.07-.15.17-.23.27-.21-.06-.42-.1-.64-.13-2.59-1.22-4.53-2.34-5.98-3.47.79-.19,1.76-.4,2.18-.5Z"/>
      <path d="M324.23,30.55c-2.26-3.41-4.6-7.33-8.54-8.94-5.24-2.33-9.57,2.49-11.15,7.08-1.05,3.23-1.08,6.7-1.48,10.05.01,1.83-.76,4.06.68,5.52,1.08,1.13,2.84,1.1,3.98.24.28.29.59.56.96.81,1.58.89,3.51.65,5.26.54,2.74-.3,5.43-.99,7.95-2.14,6.67-2.65,5.68-8.06,2.34-13.15ZM312.33,36.86c-.91-.17-1.74-.11-2.49.1.67-2.91,1.53-5.15,3.16-7.75.04-.04.07-.08.11-.12.07.04.13.08.19.13.58.54,1.42,1.55,1.88,2.11,1.18,1.7,2.32,3.46,3.29,5.29-1,.2-2.5.38-6.15.24Z"/>
      <path d="M430.66,32.87c-.47-4.7-2.18-10.51-7.23-12.01-4.79-1.05-8.41,3.19-10.72,6.81-.83,1.29-1.55,2.65-2.25,4.01-.47,1.01-1.22,1.95-1.23,3.1-.24,1.6.29,2.93,1.22,3.85.06.16.13.31.22.46.43.67,1.02,1.21,1.76,1.49.5.23,1.67.73,2.1.92,2.57,1.2,5.33,1.91,8.16,2.04,1.78.08,3.69.12,5.3-.74,3.6-2,3.08-6.45,2.67-9.94ZM419.22,35.42c.88-1.64,1.69-2.94,2.37-3.9.58,1.28.85,2.37,1.73,5.11-1.21-.3-2.72-.76-4.1-1.21Z"/>
    </g>
  </g>
</svg>