<?xml version="1.0" encoding="UTF-8"?>
<svg id="Layer_2" data-name="Layer 2" xmlns="http://www.w3.org/2000/svg" viewBox="0 0 410.27 424.92">
  <g id="Layer_2-2" data-name="Layer 2">
    <g>
      <g>
        <path d="M392.36,342.86c.03-.07.05-.12.08-.17.02-.05.04-.1.06-.14-.1.22-.25.58-.36.87.08-.19.16-.38.22-.55Z"/>
        <g>
          <path d="M153.87,414.44c-.18.02-.4.06-.61.1.2-.03.41-.07.61-.1Z"/>
          <path d="M398.22,261.75c-2.09-6.63-3.8-13.38-5.47-20.12-3.92-15.17-1.43-24.63,8.67-39.36,6.63-10.54,13.3-25.49,4.94-36.84-3.35-5.13-9.11-8.04-15.18-8.25-.95-.13-6.11-.29-5.66-.13-1.61-.14-3.26.21-4.85.38-6.48,1.09-12.35,4.66-17.4,8.75-7.09,6.71-12.37,15.09-16.45,23.92-2.81,5.85-5.22,11.93-6.68,18.27-1.4,7-1.81,14.22-1.48,21.35.49,7.18,2.92,14,5.68,20.58,3.51,8.61,7.62,17.54,8.48,20.42,3.38,8.23,5.38,17.95,7.06,22.78,1.85,5.01,3.56,10.08,4.73,15.3,1.11,5.07,1.28,4.58,1.22,10.2-.13,4.27-1,7.77-3.32,13.94-2.18,5.63-5.29,11.36-12.27,16.77-1.87,1.38-4.65,3.25-7.67,5.12,1.61-11.48,1.77-23.17.86-34.71-1.17-14.03-3.61-28.02-7.95-41.44-3.99-11.44-9.36-22.48-16.14-32.53-2.17-3.26-8.63-11.26-14.73-17.54-6.32-6.49-13.06-12.55-19.48-18.94-7.24-6.75-14.77-13.2-21.51-20.47-8.35-8.7-13.28-13.9-18.53-22.44,2.48-.1,4.96-.15,7.44-.2,5.75.69,8.58-6.42,3.61-9.59-2.3-1.17-5.07-.69-7.57-.97-.74-.03-1.47-.03-2.21-.02.79-3.02,1.4-6.07,1.82-9.14,2.88-.76,6.03-1.59,6.29-4.94.45-2.38-1.31-4.73-3.59-5.34-.66-.13-1.32-.14-1.99-.07.03-6.67-.76-13.44-2.4-20.32-3.93-16.41-9.76-32.81-20.01-46.39-5.09-7-11.63-12.73-17.99-18.52-3.78-3.45-7.19-7.28-10.86-10.85-10.98-10.59-21.36-22.04-34.28-30.35-5.38-3.41-10.41-7.62-16.59-9.51-5.72-1.45-11.66-.04-13.97,5.92-1.66,3.86-2.94,7.89-3.77,12.01-1.91,9.54-3.19,15.75-4.05,22.77-2.47-.21-5.7,0-10.02.98-19.22,3.65-35.64,14.9-52.72,23.78-6.07,2.69-5.82,2.82-14.93-.49-9.61-3.51-23.83-10.88-37.12-7.49-5.27,1.47-10.12,5.61-10.2,11.42.05,4.35,1.39,8.57,2.59,12.72,2.12,7.08,4.94,13.93,8.11,20.6,1.5,3.13,2.95,6.29,4.75,9.26.22.32.42.66.63,1-.1.24-.2.48-.27.75-4.97,20.91-3.38,43.01,3.14,63.41,3.42,9.54,6.97,19.32,13.1,27.5.22.3.46.59.68.88-5.58,3.69-10.89,7.78-15.79,12.33-1.95,1.7-3.8,3.49-5.59,5.35-.65.66-1.43,1.28-1.68,2.21-1.53,3.12,1.81,6.78,5.08,5.8,4.65-1.82,14.36-9.37,21.53-14.03,1.42-.97,2.85-1.93,4.3-2.87,1.66,1.61,3.39,3.14,5.18,4.59-6.91,5.13-13.36,10.9-19.64,16.75-1.29,1.58-3.2,2.78-4.1,4.62-1.07,2.14.85,4.87,3.2,4.78.63-.04,1.23-.2,1.77-.51-.02.01-.03.03-.05.04.03-.02.05-.04.08-.05.07-.04.15-.09.22-.14.39-.25.77-.51,1.16-.77,3.4-2.12,6.35-4.84,9.4-7.42,5.73-4.96,10.17-8.83,14.96-12.37.54.33,1.07.68,1.62.99,9.46,4.65,19.49,8.72,29.99,10.14.76.07,1.53.21,2.29.24.55.06,1.11.08,1.67.1-2.34,2.77-4.48,5.7-6.49,8.72-5.03,7.43-9.25,15.45-12,24.01-1.26,4.16-3.08,11.75-1.73,19.88.51,3.47,1.95,6.71,3.24,9.94,2.19,5.51,5.17,11.02,10.02,14.63,7.18,5.53,17.77,4.77,26.33,3.99,3.2-.46,6.57-.59,9.58-1.83-.31.13-.63.26-.94.39,2.46-.67,5.91-2.13,7.82-2.96.89,1.54,1.79,3.07,2.77,4.55,3.06,4.67,6.53,9.05,10.06,13.37,2.86,3.85,5.98,7.49,9.64,10.61.3.27,1.09.9,1.75,1.42-.24,1.24-.48,2.52-.75,3.9-.76,4.21-1.21,8.47-2.09,12.66-.17.73-.15.8-.06.59-.56,1.79-.67,3.73-1.12,5.57-.89,4.92-1.88,9.85-2.6,14.8.08-.76.34-2.49.03-.81-.32,2.37-1.04,4.7-1.41,7.05,0-.07-.02-.04-.07.16-.23,1.5-.77,2.94-1.1,4.41-.45.93-.93,1.84-1.46,2.73-1.18,2-2.67,3.35-5.51,7.45-.54.8-.97,1.67-1.34,2.56.03-.08,0-.02-.05.13-.1.24-.2.48-.29.73.12-.29.2-.49.26-.64-.21.57-.69,1.89-.74,2.49-2.34,9.29,2.9,13.9,6.69,16.24,2.29,1.33,4.76,2.04,7.3,2.39,2.88.52,5.87.57,8.76.44,1.44-.11,2.86-.37,4.28-.66,10.12-.99,17.55-3.08,28.68-8.47,2.62-1.29,4.85-3.27,6.65-5.56.01-.01.02-.02.03-.04.03-.03.05-.07.08-.1.14-.17.29-.34.43-.52,2.45-2.98,4.44-6.31,6.16-9.76,1.45-2.88,1.87-3.76,3.12-6.78,1.42.93,2.96,1.71,4.61,2.11-.99,2.04-1.59,4.26-1.64,6.64-.12,11.18,8.07,17.65,18.05,20.6,5.02,1.21,10.28,1.15,15.42,1.17,2.54-.05,5.06-.32,7.59-.59,3.25.2,6.5.36,9.76.29,8.05-.17,16.15-.17,24.13-1.35,8.24-1.6,16.36-3.99,24.11-7.22,9.5-3.65,17.98-9.77,24.54-17.54,1.61-2.09,3.34-4.23,4.65-6.56,5.84,1.89,12.18,1.25,18.17.45,6.24-.69,12.29-2.51,17.8-5.53,14.92-7.11,22.08-14.52,29.12-29.4,6.31-13.02,11.23-27.2,11.04-41.82-.23-11.44-1.79-22.88-5.11-33.84-1.75-6.32-4.13-12.44-6.25-18.63ZM330.08,364.22c-1.5,7.38-3.26,13.55-5.27,17.44-.04.09-.08.18-.11.26-1.07,2.18-2.19,4.33-3.41,6.42-2.61,3.26-8.72,8.83-11.35,10.31-6.58,3.93-6.58,3.51-13.59,5.95-5.56,1.71-11.1,3.5-16.76,4.82-3.08.53-5.75.93-7.66,1.11-6.32.66-12.69.7-19.02,1.23-1.9.11-3.79.31-5.69.52-5.97-.2-12.04-.7-13.88-1.1-6.73-1.69-6.15-1.38-11.92-4.89-.71-.49-1.43-.96-2.13-1.46-.65-.54-1.27-1.11-1.83-1.74-.26-.4-.59-.74-.92-1.09-.19-.31-.36-.65-.49-.91-.14-.37-.24-.75-.33-1.13.03-.13.06-.26.09-.39.19-.34.41-.69.59-.96.14-.17.28-.34.43-.5,3.02-2.95,1.79-1.8,3.99-3.3,3.3-1.82,2.53-1.48,7.61-2.89-.19.03-.37.05-.56.08,1.52-.14,2.89-1.01,4.26-1.61,2.39-1.04,4.41-3.5,4.19-6.15,0-.06.01-.13.02-.19-.1-1.97-.69-3.88-1.21-5.77-.64-2.73-1.42-8.19-1.5-15.14.07-6.68.46-9.53,1.29-14.29,2.34-12.64,7.99-24.8,14.12-32.07,5.18-6.14,12.81-10.92,18.04-12.72.4-.13.79-.27,1.18-.42,0,.05,1.36-.4,1.94-.55.93-.28,1.9-.43,2.81-.73.76-.12,1.5-.38,2.05-.96,1.59-1.5,1.21-4.31-.69-5.37-.59-.52-2.79-.5-1.6-.33-1.23-.19-2.48-.03-3.71.01-3.32.32-3.78.2-8.24,1.55-12.76,5.16-22.47,16.2-27.62,28.8-4.57,9.85-7.15,20.48-7.78,31.31-.49,7.38.31,14.78,1.59,22.05-.01.54,0,1.07.03,1.59-.55.08-1.08.18-1.61.34.05-.02.1-.04.15-.06-2.39.68-4.71,1.57-6.97,2.6-1.92.96-3.79,2.16-5.51,3.55-.85.55-1.64,1.2-2.37,1.91-3.43-2.69-2.94-1.81-5.47-4,2.41-6.13,4.17-11.03,6.59-20.83,2.48-10.37,3.63-20.97,5.14-31.51.12-1.23.86-4.72,1.57-8.71.57-1.49.79-3.21,1.16-4.68.67-4.57,3-12.17-3-13.97-5.92-1.12-6.87,4.56-7.55,9.46-.04.15-.09.31-.13.45-.2,1.24-.59,2.62-.75,3.97-.2.65-.4,1.31-.61,1.95-2.53,8.63-4.14,17.48-6.32,26.2-2.29,8.7-4.86,17.32-7.64,25.88-.8,2.05-1.58,3.78-3.22,7.62-1.11,2.75-2.12,5.4-5.19,12.21-1.58,3.76-.81,2.3-3.09,7.25-.7,1.36-1.46,2.7-2.33,3.97-1.91,1.95-3.51,3.3-5.13,4.38-.17.07-.34.14-.51.22-2.15.87-4.36,1.59-6.6,2.18-3.53.98-7.09,1.88-10.7,2.52-1.03.19-2.06.36-3.1.52.55-.07.81-.06-.21.05-5.38.85-5.18,1.32-9.57,1.36-1.14-.1-2-.21-2.71-.38-.35-.32-.88-.81-1.27-1.23-1.37-2.52-.48-.44-1.34-3.3-.03-.35-.04-.7-.02-1.05.06-.36.12-.72.21-1.08.13-1.01,1.14-2.89,2.46-5.02.06-.07.11-.13.17-.2,5.13-6.23,5.33-6.26,9.26-13.48.06-.12.1-.24.15-.36.95-1.62,1.52-3.47,2.33-5.16,1.59-3.81,1.39-3.11,3.44-9.4,2.92-11.91,3.01-14.81,4.13-27.28.45-3.85,1.68-13.04,2.29-21.46.19-3.7.2-7.42.01-11.12-.23-2.02.04-4.21-.78-6.09-2.27-5.97-11.4-4.15-11.35,2.26.11,6.2-.03,10.89-.41,15.27-.93-.8-1.84-1.59-2.63-2.43-3.93-3.72-9.26-10.69-9.63-11.25-2.69-3.5-5.05-7.23-7.37-10.98-1.31-1.77-2.21-3.98-3.83-5.47-.03-.05-.05-.11-.08-.16-1.94-3.32-6.43-2.31-7.52.65-1.35,1.57-1.87,3.86-.61,6.05.69,1.13,1.36,2.27,2.01,3.42-2.65.43-5.88.68-8.96.82-3.44.08-6.87-.18-10.31-.34-4.79-.42-5.23-.13-10.88-1.98-.09-.04-.18-.08-.29-.14-3.46-1.87-2.34-1.32-3.84-2.69-1.7-1.8-2.52-3.04-4.75-7.83-.21-.5-.42-1-.63-1.5-.93-2.4-1.92-4.8-2.35-7.35,0-.06-.01-.11-.02-.17-.58-6.56.14-7.04.82-12.35-.06.48-.12.96-.18,1.43.63-2.93,1.45-5.81,2.53-8.6.16-.4.32-.8.48-1.19.07-.16.15-.35.26-.6,3.19-8.12,10.9-19.75,13.61-22.93,5.76-6.2,10.19-10.39,15.1-13.39,4.49-2.46,3.32-1.99,8.1-3.6,4.66-1.24,3.88-1.13,9.31-.94,3.25.4,5.8.66,9.63,3.18,6.74,4.99,10.34,12.42,1.84,19.55-3.21,2.74-6.74,5.1-9.69,8.14-5.18,5.16-9.5,11.1-12.98,17.52-2.96,5.42,4.9,9.96,8.13,4.69,4.68-8.15,6.66-10.62,13.51-17.39,2.87-2.93,6.38-5.19,9-8.36,4.65-5.41,6.49-12.83,4.52-19.46,5.22-1.44,10.37-3.09,15.28-5.41,4.02-1.69,10.11-4.85,11.15-6.42,2.07-2.5-.88-6.02-3.68-4.77-5.06,1.91-11,5.07-15.49,6.67-3.5,1.3-7.04,2.45-10.61,3.55-3.32-4.4-7.77-8.04-13.06-9.75-7.7-2.38-16.19-1.89-23.59,1.3-6.27,2.34-11.59,6.48-16.53,10.92-.23-.11-.46-.21-.7-.28-.3-.12-.61-.22-.92-.29-.65-.2-1.29-.44-1.94-.61-.1-.04-.21-.09-.31-.13-4.8-1.37-10.36-3.2-17.96-6.05-3.06-1.26-6.7-2.66-10.64-4.67.59-2.86-2.15-6.14-5.79-4.33-.27.15-.52.31-.78.46-.52-.35-1.04-.71-1.56-1.08-1.19-.96-2.34-1.96-3.47-2.99.26-.24.51-.5.72-.8,3.95-4.82-2.01-11.63-7.4-8.53-.49.26-.98.53-1.47.8-.15-.19-.31-.37-.46-.56-11.38-16.2-17.38-38.84-18.54-56-.45-7.72.08-14.71.72-18.55.3-2.03.64-4.05,1.04-6.06.21-1.01.53-2.04.25-3.07-.09-.88-.37-1.64-.76-2.3.25-1.15.1-2.42-.61-3.65-4.16-7.65-4.72-10-7.35-16.46-2.64-6.55-5.09-13.25-6.46-20.19,0,0,0,0,0-.01-.05-.47-.09-.93-.1-1.4.33-.2.67-.39,1.02-.56.64-.22,1.3-.42,1.97-.55.14-.02.25-.04.35-.06,1.53-.14,3.07-.09,4.59.05,7.87,1.29,15.56,3.49,23.26,5.54,6.06,1.72,9.33,2.1,13.21,2.43,4.33,0,8.37-1.75,12.24-3.52,14.94-7.12,24.36-12.76,38.38-16.61,7.33-2.07,12.81-2.98,17.03-3.98-.04.71-.07,1.42-.11,2.17-.1,2.46-.11,4.94.07,7.4.01,1.81.41,3.69,1.76,4.99,3.55,3.75,10.2.97,10.08-4.16-.12-12.45,1.5-17.83,3.59-31.17,1.03-5.95,2.99-15.87,4.5-20.12,2.35.59,9.37,5.77,14.22,9.11,13.38,9.17,32.72,30.62,49.04,44.99,13.17,11.96,18.77,23.32,24.23,39.88,4.01,13.26,6.24,20.99,5.94,33.22-2.89.91-5.76,1.9-8.59,3.01-4.17,1.67-8.31,3.4-12.41,5.25.34-.14.69-.28,1.03-.42-6.73,2.95-13.5,5.85-20.1,9.07-4.13,2.5-.64,8.66,3.64,6.39,8.65-3.48,22.5-8.62,35.21-12.51-.52,2.12-1.23,4.52-2.1,6.87-10.52,1.94-20.72,5.83-30.98,8.88-5.49,1.62-3.33,9.74,2.25,8.41,7.41-1.61,14.67-3.8,22.08-5.4.38-.08.76-.15,1.14-.22-.65,1.08-1.34,2.14-2.08,3.16-3.56,5.36-13.07,14.77-20.55,23.01-2.64,2.96-2.68,2.82-3.64,4.22-.36.55-.81,1.06-1.18,1.61-.67.79-1.07,1.8-1.07,2.84-.07,3.41,4.08,5.46,6.77,3.61,1-.41,1.95-1,2.83-1.63.32-.2.61-.44.92-.66,4.62-3.31,8.81-7.16,12.85-11.14,7.55-7.93,10.3-10.5,15.04-18.25,2.35,3.92,5.04,7.64,7.76,11.31,7.67,10.2,15.81,18.18,27.49,28.57,11.17,10.34,27.56,27.39,32.73,35.21,5.31,7.34,9.68,15.32,13.44,23.55,2.09,4.78,4.79,10.57,8.36,25.48,3.4,16.31,3.64,18.09,4.31,34.73.22,12.19-.71,20.34-2.38,29.75ZM398.13,323.83c-1.13,5.92-2.92,11.7-5.08,17.33-.18.46-.37.92-.56,1.38.11-.25.15-.31-.06.14-.12.3-.24.59-.36.89.02-.05.04-.11.06-.17-1.34,3.29-4.11,9.82-7.42,15.87-2.74,5.8-7.42,10.45-10.34,12.59-4.93,3.1-8.81,5.1-11.71,6.07-5.05,1.7-4.68,1.25-8.31,2.1-6.03,1.1-5.38,1.16-11.15,1.51-6.07.06-3.59-.04-6.83-.52-.2-.03-.39-.07-.59-.12.99-2.25,1.87-4.55,2.62-6.9.68-2.25,1.29-4.52,1.83-6.8,8.7-3.6,16.7-9.28,22.5-16.73-.26.34-1.09,1.4-.44.6,3.95-4.86,5.84-9.15,7.27-12.29,3.36-7.43,5.83-15.42,5.38-23.65-.56-6.88-2.47-13.59-4.04-20.3-2.07-7.17-2.05-8.69-4.02-16.77-3.39-13.43-9.22-24.69-12.83-34.26-3.62-9.78-4.22-13.05-3.74-22.37.42-12.7,2.83-19.78,8.19-31.16,7.47-14.63,19.27-23.42,27.3-23.31,9.3-.49,10-.84,14.63,4.38,2.56,2.96,1.98,12.57-2.26,20.09-3.75,7.52-9.28,14.03-12.57,21.78-7.02,14.66-3.12,28.65,1.22,45.4,2.87,10.75,7.13,21.09,9.42,32.01,2.33,10.01,3.5,24.11,1.9,33.18Z"/>
        </g>
      </g>
      <path d="M156.87,155c-.71,1.13-.61,2.43-.68,3.71-.68,3.41-.36,2.29-1.47,4.51-.18.29-.35.56-.5.77-.42.51-.87.99-1.36,1.43-.22.14-.45.27-.69.38-.66.23-1.74.58-2.29.64-.07,0-.22.01-.49.03-.28.02-.57.02-.85.04-.36.02-.72.02-1.01,0-.48-.09-.95-.2-1.41-.35-.57-.27-1.12-.58-1.65-.94-.67-.57-1.3-1.17-1.84-1.86-5.12-5.57-13.28,2-8.15,7.58,12.33,13.07,31.47,2.6,31.08-13.63-.01-4.7-6.33-6.36-8.7-2.3Z"/>
      <path d="M86.69,178.66c-1.04-3.07-5.64-3.3-7.16-.49-.33.58-.5,1.2-.53,1.85-.05.37-.11.75-.18,1.12-.17.87-.43,1.73-.74,2.56-.03.06-.05.11-.09.19-.14.25-.25.45-.35.61-.14.16-.27.33-.43.48-.15.14-.31.26-.47.39-.08.05-.17.09-.26.14-.4.12-.81.23-1.23.3-.22,0-1.76.22-2.71.32-1.18.1-2.37.24-3.56.18-.38-.09-.76-.21-1.04-.31-.2-.1-.41-.19-.61-.28-3.6-2.05-2.27-1.17-4.33-3.08-.05-.06-.1-.13-.16-.19-.62-.92-1.01-2.06-2-2.66-3.77-3.1-9.1,1.58-6.67,5.79,2.32,5.3,7.85,10,13.67,10.72,1.88.3,3.78,0,5.66-.21,1.97-.21,3.93-.58,5.75-1.39,3.97-1.5,6.64-5.46,7.37-9.54.22-2.11.81-4.45.05-6.5Z"/>
      <path d="M139.72,204.16c-.15-2.18-3.1-3.13-4.59-1.58-1.62,2.28-1.18,2.73-3.66,4.84-.05.03-.08.05-.14.09-1.3.62-1.44.6-3.94.99-.1,0-.23.02-.4.03-.62,0-.86-.01-.84,0-.24-.03-.48-.06-.71-.08-.63-.11-1.26-.24-1.88-.42-.06-.02-.09-.03-.15-.05-.25-.13-.49-.27-.72-.42-1.64-1.61-2.23-2.33-3.1-3.97-.16-.83-.28-1.7-.53-2.51.26-.21.52-.43.79-.61,3.38-2.9,8.07-8.05,6.95-12.84-.68-2.13-2.5-3.77-4.65-4.34-1.72-.38-3.46-.05-5.18.19.27-.05-4.13.45-4.88.65-3.52.85-7.02,2.43-9.58,5.04-4.95,4.93-.49,12.12,4.88,14.45,1.19.48,2.44,1.06,3.72,1.44.48,1.98.43,2.12.32,5.84-.02.21-.03.34-.04.45-.07.52-.16,1.04-.3,1.54-.01.02-.02.03-.03.06-.04.04-.1.1-.17.17-.02,0-.02.01-.04.02-.08.04-.16.07-.23.11-.39.13-.88.25-1.18.32-.43.03-.85.03-1.28,0-.32-.07-.81-.17-1.25-.3-1.72-.81-3.34-1.83-4.88-2.93-.04-.03-.08-.07-.11-.1-2.21-2.35-6.37-.61-6.29,2.6-.01,2.05,1.72,3.21,3.21,4.31,4.22,3.53,10.21,4.7,15.26,2.29,2.61-1.37,3-2.81,3.55-3.33.27-.42.52-.85.75-1.3,5.55,4.27,12.47,3.83,17.47-1.28,1.17-1.49,2.45-2.97,3.14-4.76.72-2.14.76-3.81.7-4.61ZM110.04,195.53c-.48-.22-.95-.45-1.39-.74-.23-.2-.58-.52-.88-.82,0,0,0-.01.02-.02.17-.15.29-.26.38-.34.29-.19.58-.38.87-.56,2.08-1.17,2.08-1.04,2.6-1.25,2.62-.83,5.35-1.19,8.05-1.64-.47,1.91-.37,1.53-1.8,3.97-.73.81-1.55,1.54-2.4,2.22-.19.14-.33.26-.46.36-.47-.16-.99-.27-1.56-.28-.08,0-.16-.02-.24-.03-.09-.02-.29-.05-.67-.12-.85-.19-1.69-.45-2.51-.75Z"/>
    </g>
  </g>
</svg>