<?xml version="1.0" encoding="UTF-8"?>
<svg id="Layer_2" data-name="Layer 2" xmlns="http://www.w3.org/2000/svg" viewBox="0 0 510.83 366.76">
  <g id="Layer_2-2" data-name="Layer 2">
    <g>
      <path d="M281.76,215.95c.82.1.65.08,0,0h0Z"/>
      <path d="M509.2,323.81c-1.73-6.4-3.68-12.77-6.49-18.8-2.24-4.71-5.04-9.13-7.37-13.8-3.76-7.48-7.32-15.06-11.44-22.36-3.18-5.39-6.83-11.12-12.67-13.86-4.88-2.26-4.69-1.45-8.84-4.26-.03-.02-.05-.04-.08-.06-.18-.16-.35-.34-.51-.53-.01-.02-.02-.03-.03-.05-1.23-2.46-.67-.86-2.7-7.24-4.36-13.41-7.76-27.36-15.25-39.48-3.1-4.9-6.78-9.4-10.62-13.74-.65-.73-1.31-1.45-1.97-2.18,2.46-2.27,5.15-4.99,7.88-7.55,7.46-7.18,14.65-14.69,20.73-23.09,14.81-20.83,30.95-52.3,29.42-78.32-.47-14.8-5.24-35.75-14.99-52.51-4.35-8.01-9.3-16.08-17.27-20.93-5.59-3.31-12.18-5.51-18.74-4.97-7.31.68-14.61,3.96-19.59,9.4-1.24,1.47-2.35,3.04-3.11,4.8-.77,1.24-1.2,2.69-1.69,4.06-3.59,11.44,5.76,24.04,9.32,32.63,4.16,11.38,6.48,23.35,8.67,35.24,1.05,9.1.46,22.24-.11,25.41-2.05,9.12-5.43,15.56-12.63,25.69-.04.05-.09.11-.13.16-5.01,6.06-7.34,8.61-10.33,11.9-1.52,1.82-3.44,3.31-4.96,5.11.05-.07-.02,0-.33.33-1.07,1.26-2.4,2.32-3.48,3.56-.34.33-.68.66-1.02.99-2.55-.68-1.74-.54-5.01-1.93-10.94-5.08-21.61-10.88-32.98-14.98-9.53-3.21-19.48-5.24-29.52-5.79-12.22-.39-24.48.68-36.6,2.2-6.91.87-15.63,3.36-25.37,7.32-2.87,1.17-5.73,2.35-8.49,3.74-.28.15-.57.29-.86.43-1.65-3.53-3.48-6.99-5.25-10.46-3.26-6.47-3.37-8.05-2.95-18.48.47-6.53.52-17.94.45-19.63.01-1.13.01-2.26-.03-3.38.02-.72-.11.1-.19.7.45-3.79-.33-7.68-.81-11.44-.01-.05-.03-.11-.04-.16.08.59.16,1.19.24,1.78-.87-5.96-3.12-12.11-7.25-16.58-.78-.86-1.8-1.43-2.89-1.84-.87-.4-1.76-.77-2.69-.94-14.19-2.27-30.27,13.09-36.86,17.61-13-6.22-22.21-6.57-38.32-6.78-6.66.04-13.32.13-19.97.42-3.62.17-7.25.65-10.88.42-.28-.05-.55-.11-.83-.18-2.44-4.1-4.2-8.57-6.81-12.57-2.52-3.56-5.35-8.09-11.36-12.89-3.88-2.92-9.06-4.15-13.83-3.3-6.63.94-11.58,5.94-15.22,11.23-7.52,10.4-9.6,23.45-11.73,35.81-.09.39-.14.76-.16,1.13-.21.25-.42.51-.62.8-.58,1.59-10.43,9.15-14.27,14.73-6.01,7.98-10.83,16.95-14.36,26.29-2.68,8.9-4.68,18.22-4.67,27.54.03.58.08,1.15.12,1.73-3.59-.36-7.19-.63-10.8-.74-3.63-.14-7.25-.14-10.88.07-1.69.08-3.6-.04-4.86,1.31-1.96,1.85-1.49,5.29.85,6.6,1.12.69,2.45.54,3.7.7,4.22.39,4.29.45,6.4.67,7.48.71,11.47,1.17,16.75,1.93.41,2.68.92,5.35,1.52,8-8.44.96-16.84,2.42-25.2,3.91-2.22.56-5.13.31-6.39,2.6-1.33,2.19-.03,5.23,2.44,5.84,1.15.34,2.28-.09,3.42-.3,2.5-.51,4.99-1.03,7.5-1.51,7.19-1.35,13.76-2.67,20.02-3.63.24.83.47,1.66.73,2.48,3.74,10.5,10.02,19.94,17.17,28.42,1.53,1.79,3.27,3.31,5.12,4.66-3.73,1.4-7.43,2.85-11.18,4.19-5.46,2.14-10.71,4.77-16.05,7.18-4.57,2.25-8.7,5.24-13.18,7.66-6.67,3.8-13.58,7.61-18.98,13.13-.61.6-1.19,1.24-1.73,1.9-.1.12-.21.24-.32.37-.77.96-1.57,2.04-2.09,3.21-4.24,7.68-4.14,17.44,3.1,23.83,20.86,15.58,59.12.16,82.08-5.63,7.63-2.39,18.06-4.48,21.93-4.77,7.53-.77,9.12-.98,15.11.69,3.86,1.08,7.89,3.42,14.07,6.78.67.31,1.35.71,2.04,1.12-3.57,2.49-7.46,5.03-12.31,8.04-9.62,6.51-20.71,11.75-27.86,21.2-3.28,5.18-3.15,12.36,1.24,16.87,4.55,4.19,10.84,5.59,16.72,6.85,24.66,4.81,45.9-1.35,69.11-9.02,12.92-4.12,25.75-8.79,37.43-15.77,4.61-2.97,7.77-5.38,10.67-7.72.12.04.23.09.36.13,9.49,2.16,19.06,4.12,28.74,5.18,13.23,1.23,26.6,1.12,39.83-.07,7.69-.63,15.4-1.13,23-2.46.25.68.65,1.36,1.24,2.02,2.78,3.47,6.47,6.05,9.97,8.74,7.23,5.44,15.78,8.92,24.46,11.29,7.43,1.54,15.03,1.21,22.56,1.45.08,0,.15,0,.23,0,1.72.16,1.53.02,2.58.35.04.02.09.04.13.07.03.02.05.03.07.05.67.71,1.27,1.48,1.87,2.25,2.22,2.89,4.39,5.84,7.01,8.39,3.58,3.35,7.64,6.15,11.67,8.92,2.91,1.9,5.89,3.7,8.97,5.3,2.2,1.13,4.56,2.22,7.09,2.08,9.22-.67,14.28-9.37,9.98-20.32-2.65-7.02-7.14-13.19-12.11-18.74-1.7-1.81-3.42-3.6-5.36-5.16,0,0-.02-.01-.02-.02,6.07-.05,11.89-.93,18.96-2.29,9.41-1.39,10.26-2.56,17.73-.35,2.74,1.4,5.09,3.48,7.57,5.3.76.62,2.28,1.87,2.79,2.4.11.12.11.07.04-.08,1.14,1.36,2.68,2.46,3.89,3.71,3.38,3.18,6.75,6.38,10.5,9.14,7.79,5.48,13.53,6.11,19.72,3.73.8-.33,1.6-.66,2.39-1.02.5-.2.83-.34.88-.36,1.33-.53,2.65-1.12,3.85-1.93,6.04-3.71,3.98-11.3,2.43-16.94ZM420.26,340.66c2.04,3.26,2.82,4.7,3.14,5.1,3.43,5.93,4.12,7.27,4.13,9.88-.05.22-.11.44-.17.65-.05.09-.11.18-.17.27-.12.12-.25.23-.37.35-.21.13-.42.25-.63.37-.26.12-.38.18-.43.21-.19.06-.37.12-.56.17-3.04-.15-16.9-9-21.81-14.08-2.5-2.61-4.63-5.54-6.87-8.37-1.73-2.36-4.12-4.12-6.94-4.92-1.07-.33-2.9-.84-.78-.02-2.5-1.11-5.43-.92-8.13-1.27-4.36-.41-8.7-.87-13.08-1.12-3.5-.59-6.87-1.74-10.22-2.91-3.18-1.14-6.26-2.64-11.41-6.27-.36-.27-.71-.53-1.07-.8-1.83-1.43-3.67-2.87-5.34-4.48,7.01-1.68,13.85-4.03,20.24-7.41,1.24-.61,2.44-1.27,3.49-2.18.09-.06.17-.14.25-.21.02-.02.03-.03.05-.04,0,0,0,0,0,0,.09-.08.18-.16.26-.25,9.81,11.26,21.18,13.78,35.28,16.81,4.34.99,8.16,1.64,11.73,2-.65.92-.94,2.11-.61,3.26.06.22.14.43.24.63.22.71.54,1.41.95,2.03.36.6.79,1.17,1.17,1.77,1.14,1.74.81,1.03,3.13,4.36,1.79,2.64,1.67,2.13,4.52,6.47ZM499.02,332.96c-.98.07-1.96.11-2.94.03-.25-.04-.51-.09-.76-.15l.06.03c-.28-.08-.57-.15-.86-.2.1.01.2.03.31.04-.82-.15-1.63-.4-2.42-.68-.27-.11-.54-.22-.82-.31-2.82-.98-8.89-5.23-14.19-9.6-1.53-1.02-2.89-2.51-4.49-3.45-1.12-.85-2.26-1.68-3.45-2.42-8.19-4.83-10.56-6.96-20.19-7.67-8.75-.09-17.4,1.76-26.14,2.03-13,.31-11.76-.08-23.13-2.04-5.64-1.21-11.39-2.17-16.81-4.19-6.11-2.94-6.24-3.27-10.92-7.79-4.49-4.98-4.32-4.98-8.29-10.84-3.14-4.74-6.01-9.65-9.02-14.46-.88-1.22-1.36-2.82-2.64-3.68-2.74-2.45-7.47-.03-7.32,3.6.22,2.52,1.78,4.23,3.75,8.58,2.98,5.87,6.18,11.69,9.98,17.08,0,0,0,0,0,0-11.61,4.44-31.05,8.64-38.6,9.43-10.57.76-21.19,1.35-31.79,1.14-8.07-.38-16.18-.32-24.22-1.22-.19-.02-.36-.04-.51-.06-5.12-.69-10.19-1.62-15.25-2.64,2.56-1.84,5.16-3.63,7.64-5.58,2.04-1.55,2.24-1.7,2.72-2.06,0,0,0,0,0,0,.54-.28.97-.68,1.3-1.18,2.39-2.72.05-7.34-3.54-7.21-2.55.31-1.59.45-5.01,2-1.97,1.01-3.97,1.96-5.84,3.15-8.12,4.66-18.27,12.54-22.02,15.29-9.48,6.08-20.78,11.39-27.36,14.04-24,10.4-49.72,20.59-74.6,14.44-6.06-1.65-7.8-1.83-11.35-4.09-.17-.15-.34-.3-.49-.47-.09-.15-.2-.34-.31-.56-.06-.19-.11-.37-.16-.56,0-.19-.01-.39,0-.58.12-.64.3-1.27.52-1.89.08-.16.21-.37.36-.63,1.43-1.64,3.04-3.11,4.68-4.53,1.24-.91,3.54-2.73,7.62-5.26,11.04-6.83,22.14-13.63,32.27-21.79,4.11-3.45,8.58-6.58,12.07-10.68,1.21-1.38,2.13-3.04,2.18-4.91.03-2.41-1.98-4.78-4.41-4.93-2.07-.38-4.2.88-5.13,2.74-.98.94-3.08,2.62-1.03,1.03-3.25,2.68-6.07,4.97-8.77,7.07-.04-.02-.07-.05-.11-.07-8.08-4.6-15.93-10.16-25.09-12.37-5.88-1.35-11.91-.95-17.84-.22-11.05,1.03-21.65,4.38-32.36,7.09-16.12,4.22-30.85,8.29-43.97,8.58-7.6.26-12.48-1.18-17.3-3.65-.07-.05-.11-.07-.16-.11-.16-.16-.31-.32-.46-.49-.13-.15-.25-.31-.38-.47-.02-.03-.03-.04-.05-.07-.35-.55-.73-1.09-1.03-1.66-.18-.57-.32-1.15-.42-1.74-.03-.43-.06-1.03-.02-1.47.07-1.17.31-2.27.71-3.31.25-.28.48-.57.68-.89.09-.15.19-.3.29-.44.25-.26.51-.52.77-.77.21-.18.38-.33.54-.46,4.9-3.39,4.44-3.36,10.35-6.96,6.26-3.43,12.5-6.91,18.82-10.21,5.13-2.34,9.93-5.32,14.91-7.95.09-.04.17-.08.26-.13,7.16-2.77,14.87-5.48,19.55-7.61.79-.25,1.41-.7,1.85-1.26,2.18.88,4.38,1.71,6.54,2.56,7.14,2.72,14.14,5.9,21.51,7.98,7.35,2.11,16.27,2.86,20.91,2.05,1.2-.2,2.46-.25,3.65-.56.79-.1,1.43-.41,1.93-.89,1.5-1.44,1.16-4.08-.65-5.1-2.97-1.04-2.47-.19-6.71-1.17-13.85-1.73-33.39-11.7-45.2-16.24-7.08-3.38-7.6-3.47-12.07-8.31-2.78-3.34-3.11-3.76-6.68-9.14-3.59-5.58-5.82-10.01-7.46-14.85,1.02-.27,1.91-.84,2.26-1.94,1.01-2.06-.81-4.68-3.08-4.59-.33.01-.65.04-.98.05-.37-1.61-.71-3.3-1.04-5.12,1.17.2,2.34.41,3.51.61,1.16.14,2.33.61,3.49.32,5.82-.63,6.3-9.09.65-10.55-3.06-.48-6.12-.94-9.18-1.38-.18-2.32-.26-5.01-.03-7.92-.07-.42,1.8-12.39,3.63-17.83,1.38-4.94,4.08-9.59,8.25-16.99,3.95-6.29,3.52-6.04,8.91-11.66,3.31-3.48,7.15-6.49,9.84-10.51.93-1.17,1.38-2.37,1.47-3.5.54-.62.98-1.41,1.26-2.37,3.33-19.06,8.46-32.03,14.66-37.57.45-.38,1.41-.86,1.96-1.12.37-.13.75-.25,1.13-.34,1.25-.11,1.01-.47,3.65-.31.12.03.24.06.36.1.67.32,1.29.7,1.89,1.13.07.06.14.12.21.18,3.99,3.95,2.67,2.85,5.45,6.74,1.68,2.6,3.39,5.18,4.81,7.93,2.62,4.77,4.56,11.05,10.38,12.69,4.57,1.31,9.39.64,14.07.4,6.74-.27,13.5-.43,20.24-.18,10.94.79,14.67.47,23.67,2.87-.52-.21-1.04-.43-1.56-.64,2.79,1.2,5.82,1.8,8.71,2.75,2.03.55,3.96,1.5,6.03,1.86l-.51-.06c.95.39,1.96.45,2.96.57,1.83,0,3.56-.66,5.15-1.52,8.48-5.43,9.9-7.96,19.28-13.12,3.63-1.76,2.81-1.65,6.88-2.61.09.11.19.21.29.32.47.73.89,1.5,1.27,2.28.45.71,1.29,2.57,1.71,3.51.03.07.05.14.08.21.35.91.64,1.84.97,2.75-.09-.17-.11-.17.03.21,1.04,2.51,1.6,5.19,2.46,7.75.14.92.31,1.84.46,2.76.03.39.06.73.12,1.04.02,1.15.2,4.57.14,5.65.02,4.9-.15,9.79-.28,14.68-.08,4.35.03,8.77,1.08,13.02,1.17,3.87,3.16,7.42,4.77,11.11,4.48,9.41,7.21,15.65,8.38,23.9.58,4.6.46,9.24.05,13.85-.6,6.42-.51,6.28-2.11,13.56-.5,1.96-.94,3.66-1.37,5.19-2.58-.17-5.16-.33-7.75-.48-3.21-.12-6.43-.24-9.64-.34-2.15.12-4.48-.54-6.53.2-4.06,1.52-2.79,7.76,1.54,7.7,6.52.26,13.04.68,19.54,1.2-.79,1.81-1.72,3.64-2.93,5.81-5.68-1.07-11.39-1.97-17.14-2.59-3.56.03-4.23,5.17-.76,6.1,4.74.72,9.44,1.65,14.11,2.7-4.6,6.52-10.76,12.09-19.6,16.43-8.67,4.58-10.75,5.41-21.27,8.01-3.18.68-6.36,1.37-9.54,2.04-2.4.5-4.88.89-7.19,1.73-1.1.21-2.15.69-2.95,1.51-3.55,3.34-.97,9.74,3.97,9.61.1,0,.16,0,.2,0,1.4.14,2.8.14,4.21.18,1.52-.21,2.68-.36.37-.05.17,0,.34-.01.51-.03,3.08-.3,6.15-.71,9.21-1.13,4.23-.8,8.42-1.79,12.52-3.08,7.65-2.39,14.85-6.05,21.65-10.26,8.86-5.52,15.63-13.01,20.65-21.79,9.45,2.5,18.84,5.24,28.31,7.57,6.2,1.01,6.99-7.61.64-8.19-8.49-2.06-16.99-4.23-25.53-6.16,1.05-2.36,2-4.78,2.85-7.27,5.26.54,10.51,1.13,15.75,1.78.85.1,3.84.47,5.1.62-.05,0-.08,0-.14-.02,1.39.11,2.89.65,4.2-.07,3.02-1,3.82-5.34,1.55-7.49-2.14-2.02-5.35-1.35-8.04-1.86-5.32-.55-10.64-1.04-15.97-1.48,1.99-8.28,3.04-17.06,3.31-26.01.01-6.5-.91-13.04-2.89-19.23-.01-.04-.03-.08-.04-.12.07-.04.15-.06.22-.1,16.16-7.27,30.82-9.98,49.22-11.24,10.2-.94,22.59-.89,28.58.43,7.41,1.3,14.75,3.19,21.74,5.98,4.26,1.8,25.39,11.76,29.84,13.59.92.47,3.8,1.51,4.24,1.62,2.01.77,4.34.42,6.21-.62.77-.43,3.06-1.8,2.69-1.75.58-.28,1.12-.64,1.63-1.05.7-.5,2.07-1.51,2.64-1.93,3.79-2.28,14.65-13.68,20.26-21.61,5.71-8.06,10.51-16.94,13.57-26.35,1.87-7.92,2.15-16.16,2.21-24.27-.6-14.06-4.18-27.96-9.72-40.87-3.04-7.63-7.83-14.34-11.36-21.72-.12-.27-.23-.55-.35-.82-.29-.8-.56-1.6-.76-2.42-.4-2.05-.37-1.02-.41-4.58.06-2.7.13-2.77.36-3.81.04-.15.06-.3.09-.46.02-.05.04-.11.06-.16.4-.88.9-1.71,1.46-2.5.92-1.13,1.98-2.14,3.14-3.03,7.28-4.69,13.08-3.9,19.12-.91,7.63,4.22,10.15,8.7,15.83,19.03,7.5,13.08,11.13,28.05,12.15,41.21,1.35,15.02.51,22.18-4.36,36.51-4.78,14-12.66,29.06-23.5,44.18-2.81,3.63-5.82,7.09-9.02,10.38-6.62,6.88-13.74,13.26-20.61,19.89-2.67,2.33-2.47,5.85-.68,8.15.26.9.75,1.78,1.52,2.56,8.6,9.55,12.25,13.1,17.72,24.87,1.91,4,3.95,10.26,6.72,17.95.05.14.11.29.16.43,0,.01,0,.02.01.03,0,0,0,0,0,.01.11.3.23.59.37.87,2,4.82,4.07,9.62,6.17,14.4,2.63,5.43,5.55,8,14.72,10.98,2.22.88,3,.91,6.47,5.24,2.74,3.46,10.56,20.13,14.28,28.33,2.31,4.97,5.16,9.66,7.32,14.7.41,1.16.26.45,1.68,4.24,2,5.73,3.9,11.54,5.16,17.49-.51.16-1.02.31-1.54.43Z"/>
      <path d="M95.46,161.51c-2.71-1.55-6.17-.49-7.97,1.9-.87.75-1.47,1.89-1.51,3.42,0,.03,0,.06,0,.09-.28,1.15-.39,2.36-.29,3.53-.02.42-.02.84,0,1.25,0,3.45,2.96,6.83,6.57,6.21,6.65-.64,8.65-13.17,3.2-16.41Z"/>
      <path d="M182.63,194.21c5.14.56,8.3-5.25,7.87-9.93.04-2.66-1.78-5.23-4.15-6.16-2.54-1.34-6.28-.19-7.98,3.21-.14.28-.27.58-.39.88-.94,1.63-1.44,3.57-1.57,5.4-.47,4.06,2.83,7.13,6.23,6.59Z"/>
      <path d="M143.95,210.53c-2.43-.87-2.25-.21-3.38-.21-.1-.02-.21-.05-.31-.08-.5-.23-1.51-.71-1.92-.99-.16-.1-.29-.18-.39-.24-.11-.1-.24-.2-.34-.31-.1-.11-.2-.22-.29-.33-.2-.31-.41-.61-.6-.91-.19-.32-.36-.65-.51-.99-.1-.3-.24-.74-.34-1.15,0-.09-.01-.19-.01-.28.44-.18.87-.36,1.29-.55,3.86-2.17,7.73-6.01,7.74-10.7-.21-4.21-4.37-6.41-7.97-7.49-4.54-1.56-10.29-2.54-14.4.53-6.12,4.87-2.72,12.65,2.71,16.5-.03.17-.03.35-.04.52-.48.91-.89,1.6-1.3,2.03-.01,0-.02.01-.03.02-.53.17-1.07.31-1.61.41-.16.01-.32.03-.5.04-.42.01-.84-.01-1.26-.04-.39-.07-.77-.18-1.15-.3-.32-.17-.93-.49-1.37-.74-.71-.43-1.43-.88-2.27-.88-3.05-.57-5.74,2.65-4.89,5.58,2.24,5.68,9.98,6.5,15.16,4.88.97-.28,1.8-.78,2.52-1.37.99,1.23,2.21,2.26,3.67,3,3.96,1.88,9.6,2.28,12.75-1.25,1.24-1.4.71-3.83-.91-4.71ZM133.28,198.68c-.15.1-.38.26-.63.41,0,0,0,0-.01-.01-.32-.58-.8-1.12-1.51-1.56-2.48-1.53-1.08-.31-3.45-2.83,0,0,0,0,0,0-.18-.26-.38-.52-.53-.71-.21-.3-.4-.6-.57-.92-.03-.1-.07-.2-.09-.3.03-.05.06-.09.09-.14.1-.1.18-.18.24-.24.13-.08.27-.15.41-.22.34-.11.68-.19,1.03-.25.05,0,.09,0,.16-.01,3.68-.09,6.54.75,8.25,2.23-.3.72-.47,1.06-1.79,2.9-.33.37-1.06,1.18-1.6,1.67Z"/>
      <path d="M212.17,109.05c1,1.26,2.46,2,3.82,2.81,1.99,1.15,4.06,2.19,6.25,2.92,4.27,1.7,10.39,1.29,12.69-3.24.86-1.69.96-3.59,1.11-5.45.09-1.87.12-3.89-.5-5.66-1.41-4.02-5.03-7.85-9.58-7.53-5.48.84-9.92,4.75-13.99,8.27-1.07,1.11-1.19,2.39-.77,3.46-.52,1.44-.35,3.13.97,4.44ZM225.8,100.17s.03,0,.05,0c.04,0,.06.01.1.02.02,0,.02,0,.04.01.09.05.17.09.23.12.03.04.06.08.1.11.17.27.33.58.45.83.09.24.18.48.24.73,0,.05.01.08.02.12.06.61.12,1.22.17,1.83.1.59-.04,2.84-.12,4.09-1.98-.13-2.97-.92-6.78-3.68-.28-.23-.61-.5-.85-.71-.02-.02-.04-.03-.06-.05,2.08-1.63,3.93-2.82,6.42-3.44Z"/>
      <path d="M115.87,84.72c-1.95-3.02-4.24-6.03-7.51-7.71-7.24-3.45-11.89,2.84-13.76,9.16-.66,1.94-1.21,3.92-1.73,5.9-.21.85-.57,1.72-.35,2.6.19,1.87,1.53,2.97,3.04,3.26.68.47,1.52.76,2.46.73,3.08-.05,6.11-.7,9.17-1.06-2.19.28.31-.02,1.23-.17,1.12-.18,2.17-.66,3.21-1.09,5.62-2.02,7.45-6.45,4.25-11.63ZM106.8,88.96c-.1,0-.21.02-.36.04-1.61.16-3.23.31-4.84.46.61-2.2,1.27-4.01,2.23-5.34.15-.17.35-.4.54-.61,0,0,.01,0,.02,0,0,0,.02,0,.03,0,.04.01.08.03.13.04.19.1.38.22.57.34.4.36,1.27,1.14,1.64,1.6.65.94,1.3,1.89,1.84,2.9-.56.21-1.26.45-1.8.58Z"/>
    </g>
  </g>
</svg>